<?xml version="1.0" encoding="utf-8" standalone="no"?>
<!DOCTYPE svg PUBLIC "-//W3C//DTD SVG 1.1//EN"
  "http://www.w3.org/Graphics/SVG/1.1/DTD/svg11.dtd">
<svg xmlns:xlink="http://www.w3.org/1999/xlink" width="274.378125pt" height="424.474375pt" viewBox="0 0 274.378125 424.474375" xmlns="http://www.w3.org/2000/svg" version="1.1">
 <metadata>
  <rdf:RDF xmlns:dc="http://purl.org/dc/elements/1.1/" xmlns:cc="http://creativecommons.org/ns#" xmlns:rdf="http://www.w3.org/1999/02/22-rdf-syntax-ns#">
   <cc:Work>
    <dc:type rdf:resource="http://purl.org/dc/dcmitype/StillImage"/>
    <dc:date>2026-05-30T21:27:20.327286</dc:date>
    <dc:format>image/svg+xml</dc:format>
    <dc:creator>
     <cc:Agent>
      <dc:title>Matplotlib v3.5.1, https://matplotlib.org/</dc:title>
     </cc:Agent>
    </dc:creator>
   </cc:Work>
  </rdf:RDF>
 </metadata>
 <defs>
  <style type="text/css">*{stroke-linejoin: round; stroke-linecap: butt}</style>
 </defs>
 <g id="figure_1">
  <g id="patch_1">
   <path d="M 0 424.474375 
L 274.378125 424.474375 
L 274.378125 0 
L 0 0 
z
" style="fill: #ffffff"/>
  </g>
  <g id="axes_1">
   <g id="patch_2">
    <path d="M 43.457842 386.918125 
L 230.920283 386.918125 
L 230.920283 22.318125 
L 43.457842 22.318125 
z
" style="fill: #ffffff"/>
   </g>
   <g id="matplotlib.axis_1">
    <g id="xtick_1">
     <g id="line2d_1">
      <path d="M 73.451865 386.918125 
L 73.451865 22.318125 
" clip-path="url(#p4892d4f5d2)" style="fill: none; stroke: #b0b0b0; stroke-opacity: 0.3; stroke-width: 0.8; stroke-linecap: square"/>
     </g>
     <g id="line2d_2">
      <defs>
       <path id="mf0d2b4bd5b" d="M 0 0 
L 0 3.5 
" style="stroke: #000000; stroke-width: 0.8"/>
      </defs>
      <g>
       <use xlink:href="#mf0d2b4bd5b" x="73.451865" y="386.918125" style="stroke: #000000; stroke-width: 0.8"/>
      </g>
     </g>
     <g id="text_1">
      <!-- 0 -->
      <g transform="translate(70.270615 401.516562)scale(0.1 -0.1)">
       <defs>
        <path id="DejaVuSans-30" d="M 2034 4250 
Q 1547 4250 1301 3770 
Q 1056 3291 1056 2328 
Q 1056 1369 1301 889 
Q 1547 409 2034 409 
Q 2525 409 2770 889 
Q 3016 1369 3016 2328 
Q 3016 3291 2770 3770 
Q 2525 4250 2034 4250 
z
M 2034 4750 
Q 2819 4750 3233 4129 
Q 3647 3509 3647 2328 
Q 3647 1150 3233 529 
Q 2819 -91 2034 -91 
Q 1250 -91 836 529 
Q 422 1150 422 2328 
Q 422 3509 836 4129 
Q 1250 4750 2034 4750 
z
" transform="scale(0.015625)"/>
       </defs>
       <use xlink:href="#DejaVuSans-30"/>
      </g>
     </g>
    </g>
    <g id="xtick_2">
     <g id="line2d_3">
      <path d="M 124.755791 386.918125 
L 124.755791 22.318125 
" clip-path="url(#p4892d4f5d2)" style="fill: none; stroke: #b0b0b0; stroke-opacity: 0.3; stroke-width: 0.8; stroke-linecap: square"/>
     </g>
     <g id="line2d_4">
      <g>
       <use xlink:href="#mf0d2b4bd5b" x="124.755791" y="386.918125" style="stroke: #000000; stroke-width: 0.8"/>
      </g>
     </g>
     <g id="text_2">
      <!-- 2 -->
      <g transform="translate(121.574541 401.516562)scale(0.1 -0.1)">
       <defs>
        <path id="DejaVuSans-32" d="M 1228 531 
L 3431 531 
L 3431 0 
L 469 0 
L 469 531 
Q 828 903 1448 1529 
Q 2069 2156 2228 2338 
Q 2531 2678 2651 2914 
Q 2772 3150 2772 3378 
Q 2772 3750 2511 3984 
Q 2250 4219 1831 4219 
Q 1534 4219 1204 4116 
Q 875 4013 500 3803 
L 500 4441 
Q 881 4594 1212 4672 
Q 1544 4750 1819 4750 
Q 2544 4750 2975 4387 
Q 3406 4025 3406 3419 
Q 3406 3131 3298 2873 
Q 3191 2616 2906 2266 
Q 2828 2175 2409 1742 
Q 1991 1309 1228 531 
z
" transform="scale(0.015625)"/>
       </defs>
       <use xlink:href="#DejaVuSans-32"/>
      </g>
     </g>
    </g>
    <g id="xtick_3">
     <g id="line2d_5">
      <path d="M 176.059718 386.918125 
L 176.059718 22.318125 
" clip-path="url(#p4892d4f5d2)" style="fill: none; stroke: #b0b0b0; stroke-opacity: 0.3; stroke-width: 0.8; stroke-linecap: square"/>
     </g>
     <g id="line2d_6">
      <g>
       <use xlink:href="#mf0d2b4bd5b" x="176.059718" y="386.918125" style="stroke: #000000; stroke-width: 0.8"/>
      </g>
     </g>
     <g id="text_3">
      <!-- 4 -->
      <g transform="translate(172.878468 401.516562)scale(0.1 -0.1)">
       <defs>
        <path id="DejaVuSans-34" d="M 2419 4116 
L 825 1625 
L 2419 1625 
L 2419 4116 
z
M 2253 4666 
L 3047 4666 
L 3047 1625 
L 3713 1625 
L 3713 1100 
L 3047 1100 
L 3047 0 
L 2419 0 
L 2419 1100 
L 313 1100 
L 313 1709 
L 2253 4666 
z
" transform="scale(0.015625)"/>
       </defs>
       <use xlink:href="#DejaVuSans-34"/>
      </g>
     </g>
    </g>
    <g id="xtick_4">
     <g id="line2d_7">
      <path d="M 227.363644 386.918125 
L 227.363644 22.318125 
" clip-path="url(#p4892d4f5d2)" style="fill: none; stroke: #b0b0b0; stroke-opacity: 0.3; stroke-width: 0.8; stroke-linecap: square"/>
     </g>
     <g id="line2d_8">
      <g>
       <use xlink:href="#mf0d2b4bd5b" x="227.363644" y="386.918125" style="stroke: #000000; stroke-width: 0.8"/>
      </g>
     </g>
     <g id="text_4">
      <!-- 6 -->
      <g transform="translate(224.182394 401.516562)scale(0.1 -0.1)">
       <defs>
        <path id="DejaVuSans-36" d="M 2113 2584 
Q 1688 2584 1439 2293 
Q 1191 2003 1191 1497 
Q 1191 994 1439 701 
Q 1688 409 2113 409 
Q 2538 409 2786 701 
Q 3034 994 3034 1497 
Q 3034 2003 2786 2293 
Q 2538 2584 2113 2584 
z
M 3366 4563 
L 3366 3988 
Q 3128 4100 2886 4159 
Q 2644 4219 2406 4219 
Q 1781 4219 1451 3797 
Q 1122 3375 1075 2522 
Q 1259 2794 1537 2939 
Q 1816 3084 2150 3084 
Q 2853 3084 3261 2657 
Q 3669 2231 3669 1497 
Q 3669 778 3244 343 
Q 2819 -91 2113 -91 
Q 1303 -91 875 529 
Q 447 1150 447 2328 
Q 447 3434 972 4092 
Q 1497 4750 2381 4750 
Q 2619 4750 2861 4703 
Q 3103 4656 3366 4563 
z
" transform="scale(0.015625)"/>
       </defs>
       <use xlink:href="#DejaVuSans-36"/>
      </g>
     </g>
    </g>
    <g id="text_5">
     <!-- X (m) -->
     <g transform="translate(123.403125 415.194687)scale(0.1 -0.1)">
      <defs>
       <path id="DejaVuSans-58" d="M 403 4666 
L 1081 4666 
L 2241 2931 
L 3406 4666 
L 4084 4666 
L 2584 2425 
L 4184 0 
L 3506 0 
L 2194 1984 
L 872 0 
L 191 0 
L 1856 2491 
L 403 4666 
z
" transform="scale(0.015625)"/>
       <path id="DejaVuSans-20" transform="scale(0.015625)"/>
       <path id="DejaVuSans-28" d="M 1984 4856 
Q 1566 4138 1362 3434 
Q 1159 2731 1159 2009 
Q 1159 1288 1364 580 
Q 1569 -128 1984 -844 
L 1484 -844 
Q 1016 -109 783 600 
Q 550 1309 550 2009 
Q 550 2706 781 3412 
Q 1013 4119 1484 4856 
L 1984 4856 
z
" transform="scale(0.015625)"/>
       <path id="DejaVuSans-6d" d="M 3328 2828 
Q 3544 3216 3844 3400 
Q 4144 3584 4550 3584 
Q 5097 3584 5394 3201 
Q 5691 2819 5691 2113 
L 5691 0 
L 5113 0 
L 5113 2094 
Q 5113 2597 4934 2840 
Q 4756 3084 4391 3084 
Q 3944 3084 3684 2787 
Q 3425 2491 3425 1978 
L 3425 0 
L 2847 0 
L 2847 2094 
Q 2847 2600 2669 2842 
Q 2491 3084 2119 3084 
Q 1678 3084 1418 2786 
Q 1159 2488 1159 1978 
L 1159 0 
L 581 0 
L 581 3500 
L 1159 3500 
L 1159 2956 
Q 1356 3278 1631 3431 
Q 1906 3584 2284 3584 
Q 2666 3584 2933 3390 
Q 3200 3197 3328 2828 
z
" transform="scale(0.015625)"/>
       <path id="DejaVuSans-29" d="M 513 4856 
L 1013 4856 
Q 1481 4119 1714 3412 
Q 1947 2706 1947 2009 
Q 1947 1309 1714 600 
Q 1481 -109 1013 -844 
L 513 -844 
Q 928 -128 1133 580 
Q 1338 1288 1338 2009 
Q 1338 2731 1133 3434 
Q 928 4138 513 4856 
z
" transform="scale(0.015625)"/>
      </defs>
      <use xlink:href="#DejaVuSans-58"/>
      <use xlink:href="#DejaVuSans-20" x="68.505859"/>
      <use xlink:href="#DejaVuSans-28" x="100.292969"/>
      <use xlink:href="#DejaVuSans-6d" x="139.306641"/>
      <use xlink:href="#DejaVuSans-29" x="236.71875"/>
     </g>
    </g>
   </g>
   <g id="matplotlib.axis_2">
    <g id="ytick_1">
     <g id="line2d_9">
      <path d="M 43.457842 337.158513 
L 230.920283 337.158513 
" clip-path="url(#p4892d4f5d2)" style="fill: none; stroke: #b0b0b0; stroke-opacity: 0.3; stroke-width: 0.8; stroke-linecap: square"/>
     </g>
     <g id="line2d_10">
      <defs>
       <path id="mfc7e9db51f" d="M 0 0 
L -3.5 0 
" style="stroke: #000000; stroke-width: 0.8"/>
      </defs>
      <g>
       <use xlink:href="#mfc7e9db51f" x="43.457842" y="337.158513" style="stroke: #000000; stroke-width: 0.8"/>
      </g>
     </g>
     <g id="text_6">
      <!-- 4 -->
      <g transform="translate(30.095342 340.957732)scale(0.1 -0.1)">
       <use xlink:href="#DejaVuSans-34"/>
      </g>
     </g>
    </g>
    <g id="ytick_2">
     <g id="line2d_11">
      <path d="M 43.457842 285.854587 
L 230.920283 285.854587 
" clip-path="url(#p4892d4f5d2)" style="fill: none; stroke: #b0b0b0; stroke-opacity: 0.3; stroke-width: 0.8; stroke-linecap: square"/>
     </g>
     <g id="line2d_12">
      <g>
       <use xlink:href="#mfc7e9db51f" x="43.457842" y="285.854587" style="stroke: #000000; stroke-width: 0.8"/>
      </g>
     </g>
     <g id="text_7">
      <!-- 6 -->
      <g transform="translate(30.095342 289.653806)scale(0.1 -0.1)">
       <use xlink:href="#DejaVuSans-36"/>
      </g>
     </g>
    </g>
    <g id="ytick_3">
     <g id="line2d_13">
      <path d="M 43.457842 234.550661 
L 230.920283 234.550661 
" clip-path="url(#p4892d4f5d2)" style="fill: none; stroke: #b0b0b0; stroke-opacity: 0.3; stroke-width: 0.8; stroke-linecap: square"/>
     </g>
     <g id="line2d_14">
      <g>
       <use xlink:href="#mfc7e9db51f" x="43.457842" y="234.550661" style="stroke: #000000; stroke-width: 0.8"/>
      </g>
     </g>
     <g id="text_8">
      <!-- 8 -->
      <g transform="translate(30.095342 238.34988)scale(0.1 -0.1)">
       <defs>
        <path id="DejaVuSans-38" d="M 2034 2216 
Q 1584 2216 1326 1975 
Q 1069 1734 1069 1313 
Q 1069 891 1326 650 
Q 1584 409 2034 409 
Q 2484 409 2743 651 
Q 3003 894 3003 1313 
Q 3003 1734 2745 1975 
Q 2488 2216 2034 2216 
z
M 1403 2484 
Q 997 2584 770 2862 
Q 544 3141 544 3541 
Q 544 4100 942 4425 
Q 1341 4750 2034 4750 
Q 2731 4750 3128 4425 
Q 3525 4100 3525 3541 
Q 3525 3141 3298 2862 
Q 3072 2584 2669 2484 
Q 3125 2378 3379 2068 
Q 3634 1759 3634 1313 
Q 3634 634 3220 271 
Q 2806 -91 2034 -91 
Q 1263 -91 848 271 
Q 434 634 434 1313 
Q 434 1759 690 2068 
Q 947 2378 1403 2484 
z
M 1172 3481 
Q 1172 3119 1398 2916 
Q 1625 2713 2034 2713 
Q 2441 2713 2670 2916 
Q 2900 3119 2900 3481 
Q 2900 3844 2670 4047 
Q 2441 4250 2034 4250 
Q 1625 4250 1398 4047 
Q 1172 3844 1172 3481 
z
" transform="scale(0.015625)"/>
       </defs>
       <use xlink:href="#DejaVuSans-38"/>
      </g>
     </g>
    </g>
    <g id="ytick_4">
     <g id="line2d_15">
      <path d="M 43.457842 183.246735 
L 230.920283 183.246735 
" clip-path="url(#p4892d4f5d2)" style="fill: none; stroke: #b0b0b0; stroke-opacity: 0.3; stroke-width: 0.8; stroke-linecap: square"/>
     </g>
     <g id="line2d_16">
      <g>
       <use xlink:href="#mfc7e9db51f" x="43.457842" y="183.246735" style="stroke: #000000; stroke-width: 0.8"/>
      </g>
     </g>
     <g id="text_9">
      <!-- 10 -->
      <g transform="translate(23.732842 187.045953)scale(0.1 -0.1)">
       <defs>
        <path id="DejaVuSans-31" d="M 794 531 
L 1825 531 
L 1825 4091 
L 703 3866 
L 703 4441 
L 1819 4666 
L 2450 4666 
L 2450 531 
L 3481 531 
L 3481 0 
L 794 0 
L 794 531 
z
" transform="scale(0.015625)"/>
       </defs>
       <use xlink:href="#DejaVuSans-31"/>
       <use xlink:href="#DejaVuSans-30" x="63.623047"/>
      </g>
     </g>
    </g>
    <g id="ytick_5">
     <g id="line2d_17">
      <path d="M 43.457842 131.942808 
L 230.920283 131.942808 
" clip-path="url(#p4892d4f5d2)" style="fill: none; stroke: #b0b0b0; stroke-opacity: 0.3; stroke-width: 0.8; stroke-linecap: square"/>
     </g>
     <g id="line2d_18">
      <g>
       <use xlink:href="#mfc7e9db51f" x="43.457842" y="131.942808" style="stroke: #000000; stroke-width: 0.8"/>
      </g>
     </g>
     <g id="text_10">
      <!-- 12 -->
      <g transform="translate(23.732842 135.742027)scale(0.1 -0.1)">
       <use xlink:href="#DejaVuSans-31"/>
       <use xlink:href="#DejaVuSans-32" x="63.623047"/>
      </g>
     </g>
    </g>
    <g id="ytick_6">
     <g id="line2d_19">
      <path d="M 43.457842 80.638882 
L 230.920283 80.638882 
" clip-path="url(#p4892d4f5d2)" style="fill: none; stroke: #b0b0b0; stroke-opacity: 0.3; stroke-width: 0.8; stroke-linecap: square"/>
     </g>
     <g id="line2d_20">
      <g>
       <use xlink:href="#mfc7e9db51f" x="43.457842" y="80.638882" style="stroke: #000000; stroke-width: 0.8"/>
      </g>
     </g>
     <g id="text_11">
      <!-- 14 -->
      <g transform="translate(23.732842 84.438101)scale(0.1 -0.1)">
       <use xlink:href="#DejaVuSans-31"/>
       <use xlink:href="#DejaVuSans-34" x="63.623047"/>
      </g>
     </g>
    </g>
    <g id="ytick_7">
     <g id="line2d_21">
      <path d="M 43.457842 29.334956 
L 230.920283 29.334956 
" clip-path="url(#p4892d4f5d2)" style="fill: none; stroke: #b0b0b0; stroke-opacity: 0.3; stroke-width: 0.8; stroke-linecap: square"/>
     </g>
     <g id="line2d_22">
      <g>
       <use xlink:href="#mfc7e9db51f" x="43.457842" y="29.334956" style="stroke: #000000; stroke-width: 0.8"/>
      </g>
     </g>
     <g id="text_12">
      <!-- 16 -->
      <g transform="translate(23.732842 33.134175)scale(0.1 -0.1)">
       <use xlink:href="#DejaVuSans-31"/>
       <use xlink:href="#DejaVuSans-36" x="63.623047"/>
      </g>
     </g>
    </g>
    <g id="text_13">
     <!-- Y (m) -->
     <g transform="translate(17.653154 218.032969)rotate(-90)scale(0.1 -0.1)">
      <defs>
       <path id="DejaVuSans-59" d="M -13 4666 
L 666 4666 
L 1959 2747 
L 3244 4666 
L 3922 4666 
L 2272 2222 
L 2272 0 
L 1638 0 
L 1638 2222 
L -13 4666 
z
" transform="scale(0.015625)"/>
      </defs>
      <use xlink:href="#DejaVuSans-59"/>
      <use xlink:href="#DejaVuSans-20" x="61.083984"/>
      <use xlink:href="#DejaVuSans-28" x="92.871094"/>
      <use xlink:href="#DejaVuSans-6d" x="131.884766"/>
      <use xlink:href="#DejaVuSans-29" x="229.296875"/>
     </g>
    </g>
   </g>
   <g id="line2d_23">
    <path d="M 81.664109 370.070654 
L 81.774918 370.038638 
L 81.676781 369.96921 
L 81.634482 369.931878 
L 81.798711 369.95537 
L 81.798711 369.95537 
L 81.880551 369.897192 
L 81.722304 369.885881 
L 81.722304 369.885881 
L 81.497496 369.926276 
L 81.548201 369.985068 
L 81.480465 370.032779 
L 81.689168 369.963534 
L 81.585789 369.92716 
L 81.479519 369.574594 
L 81.571804 369.189276 
L 81.428076 368.282951 
L 81.320914 367.067456 
L 81.505538 366.943016 
L 81.501514 366.892529 
L 81.680583 366.740375 
L 81.669605 366.648164 
L 82.037838 366.399064 
L 82.0113 366.246363 
L 82.346748 365.986089 
L 82.30528 365.793799 
L 82.436963 365.571617 
L 82.138491 364.617816 
L 81.960081 364.360352 
L 81.915441 364.214684 
L 81.701525 363.930856 
L 81.651703 363.780539 
L 81.390487 363.448411 
L 81.299384 363.197891 
L 80.984978 362.805659 
L 80.642704 362.239593 
L 80.598684 362.139377 
L 80.350532 361.909857 
L 79.805037 360.995586 
L 79.245921 360.187529 
L 79.028274 360.003762 
L 78.931105 359.866159 
L 78.655967 359.798505 
L 78.484479 359.570586 
L 78.247531 359.563844 
L 77.988509 359.241463 
L 77.789703 359.346941 
L 77.46508 358.965247 
L 77.254355 359.072793 
L 76.901785 358.676635 
L 76.701666 358.714488 
L 76.328139 358.306735 
L 75.976583 358.19314 
L 75.684038 357.87866 
L 75.322298 357.722803 
L 75.017181 357.398512 
L 74.638993 357.220167 
L 74.319001 356.884074 
L 73.915876 356.697092 
L 73.583522 356.352459 
L 73.197577 356.183731 
L 72.19819 355.278104 
L 71.607278 354.715206 
L 71.309985 354.343622 
L 70.053325 352.882461 
L 69.868353 352.606735 
L 69.52217 352.242699 
L 69.518585 352.076814 
L 68.605095 350.978017 
L 68.07148 350.368919 
L 67.732997 350.045707 
L 65.610411 347.484802 
L 63.771061 344.741383 
L 62.067179 341.434458 
L 61.83302 341.076045 
L 60.843928 338.437774 
L 60.842238 338.182739 
L 60.400045 336.151476 
L 59.798512 332.406792 
L 59.826082 330.250771 
L 59.878676 330.046514 
L 59.73787 325.486901 
L 59.674778 324.903761 
L 59.529308 322.000343 
L 59.425623 321.75702 
L 59.280847 320.642756 
L 59.22915 320.415099 
L 58.994083 313.282221 
L 59.031968 312.832953 
L 58.308186 303.728248 
L 58.244909 303.953023 
L 58.224945 303.680206 
L 58.034174 302.580607 
L 58.028436 302.624775 
L 58.011339 301.898987 
L 57.723843 296.526243 
L 57.712597 295.85458 
L 57.604403 294.879459 
L 57.49187 294.552867 
L 57.457779 294.068796 
L 57.340785 294.001221 
L 57.223969 292.689958 
L 57.101035 292.641667 
L 57.056778 291.986777 
L 56.935518 291.972905 
L 56.81058 289.94601 
L 56.924259 289.850807 
L 56.865107 289.00799 
L 56.988307 288.847083 
L 56.951149 288.342554 
L 57.087596 288.302729 
L 57.073753 286.920555 
L 57.13853 287.061202 
L 57.108144 286.730128 
L 57.047869 285.184789 
L 57.072887 284.924554 
L 56.112635 277.342054 
L 55.370993 272.338122 
L 55.310732 272.110636 
L 55.020884 270.466653 
L 54.962408 270.680803 
L 54.947056 270.518736 
L 54.857041 268.382397 
L 54.558588 264.682077 
L 54.434687 264.051493 
L 54.311704 263.077724 
L 54.185331 263.025386 
L 54.04025 261.018493 
L 54.187465 261.248157 
L 54.176479 261.101057 
L 54.218722 260.379613 
L 54.29508 260.538297 
L 54.27296 260.240162 
L 54.250747 259.942894 
L 54.390958 259.937851 
L 54.346408 259.340974 
L 54.475279 259.210648 
L 54.052582 254.281288 
L 53.925284 253.509547 
L 53.740691 252.386681 
L 53.54478 251.624235 
L 53.345224 250.25942 
L 53.188787 249.614928 
L 52.702324 243.40557 
L 52.63178 243.171784 
L 52.554538 242.182864 
L 52.439149 241.859804 
L 52.394657 237.226382 
L 52.398116 235.944782 
L 52.256801 235.426327 
L 52.282713 235.000352 
L 52.084315 234.489036 
L 52.116655 234.063914 
L 52.03597 233.450385 
L 52.240522 230.624276 
L 52.154478 230.239317 
L 52.211117 229.824222 
L 52.067806 229.430572 
L 52.127861 229.019753 
L 51.978862 228.956628 
L 52.319598 227.251796 
L 52.46619 227.281854 
L 52.532896 226.805831 
L 52.640129 226.87919 
L 52.656197 226.765814 
L 52.804105 226.099672 
L 52.872874 226.228031 
L 52.894347 226.085402 
L 53.013821 225.780534 
L 53.115224 225.631835 
L 53.438555 223.407592 
L 53.351297 223.161047 
L 53.385626 222.703494 
L 53.319351 222.578195 
L 53.431086 221.872823 
L 53.476345 221.472645 
L 53.533211 220.945366 
L 53.592993 220.577555 
L 53.8161 219.5194 
L 53.737736 219.233633 
L 53.821178 218.942279 
L 53.755081 218.601009 
L 53.92435 217.678294 
L 53.993859 217.139946 
L 54.022241 217.043102 
L 54.01912 216.621489 
L 54.157466 215.825028 
L 54.251086 215.420814 
L 54.457362 214.909669 
L 54.540676 214.938314 
L 54.570728 214.8411 
L 54.897129 214.160055 
L 55.235366 213.282024 
L 55.42805 213.118645 
L 55.787947 212.281464 
L 55.927052 211.899386 
L 56.206876 210.715094 
L 56.247339 210.361054 
L 56.459961 209.570366 
L 56.64237 209.351273 
L 56.722677 209.037624 
L 56.965739 208.920209 
L 57.043441 208.603832 
L 57.239 208.685471 
L 57.264084 208.580254 
L 57.338367 208.266009 
L 57.51709 208.396009 
L 57.540592 208.292989 
L 57.781312 207.688622 
L 57.827722 207.769686 
L 57.847014 207.674535 
L 58.084336 206.883788 
L 58.104081 207.21079 
L 57.990275 205.391795 
L 57.921887 204.926262 
L 57.933825 204.029373 
L 58.082201 204.275639 
L 58.047352 204.043397 
L 58.188937 204.24914 
L 57.829108 203.337883 
L 56.405446 199.514634 
L 56.079207 199.134841 
L 55.994794 198.935639 
L 55.70685 198.859871 
L 55.590357 198.570874 
L 55.375013 198.70005 
L 55.338747 198.607675 
L 55.270446 198.426129 
L 55.113887 198.365434 
L 54.692842 197.423137 
L 54.675566 197.71564 
L 54.586303 197.391177 
L 54.601377 197.435449 
L 54.674956 197.498426 
L 54.611733 197.261324 
L 54.742133 197.371593 
L 54.697954 197.210684 
L 54.654573 197.04821 
L 54.784414 197.039164 
L 54.761252 196.956905 
L 54.692093 196.705939 
L 54.76029 196.435668 
L 54.6646 196.096375 
L 54.68674 195.714531 
L 54.150579 194.203608 
L 54.014909 194.164583 
L 54.007816 194.143487 
L 53.913739 194.082473 
L 53.802829 194.121483 
L 53.807076 194.021191 
L 53.907215 193.919106 
L 53.676602 194.127197 
L 53.777382 193.94495 
L 53.598417 193.555772 
L 53.787619 193.717888 
L 53.801963 193.733259 
L 53.700079 189.98029 
L 53.962161 188.898924 
L 54.149839 188.37476 
L 54.220166 188.115635 
L 53.918969 187.200392 
L 53.704567 186.952656 
L 53.737149 186.860915 
L 53.638072 186.627802 
L 53.671085 186.263323 
L 53.623948 186.042839 
L 53.731273 185.771488 
L 53.895464 185.731077 
L 53.950958 185.61673 
L 54.169059 185.607537 
L 54.208242 185.53151 
L 54.491337 185.557526 
L 54.532195 185.48276 
L 54.701469 185.630657 
L 54.743516 185.558115 
L 54.785178 185.486584 
L 54.93792 185.617424 
L 54.981081 185.547338 
L 55.024435 185.477176 
L 55.147074 185.566715 
L 55.192223 185.497379 
L 55.237549 185.42787 
L 55.358491 185.594425 
L 55.405404 185.525963 
L 55.45225 185.457678 
L 55.559434 185.615461 
L 55.606962 185.549505 
L 55.630516 185.516855 
L 55.693548 185.625857 
L 55.765494 185.531189 
L 55.98297 185.401074 
L 56.145327 185.308815 
L 56.513048 185.032386 
L 56.686569 184.875103 
L 56.955793 184.502686 
L 57.43777 183.993715 
L 57.709386 183.620054 
L 58.018866 183.320298 
L 58.216377 183.070406 
L 58.444967 182.846676 
L 59.170312 182.487251 
L 61.112085 180.730903 
L 62.206333 180.823078 
L 62.199082 180.94843 
L 62.305591 180.946681 
L 62.411674 181.05215 
L 62.536809 181.334193 
L 62.6372 181.340913 
L 62.626304 181.603329 
L 62.737473 181.666227 
L 62.562983 181.870021 
L 62.639213 181.885289 
L 62.561154 181.97281 
L 62.659692 181.995311 
L 62.589485 182.178605 
L 62.614215 182.185607 
L 62.931718 182.223523 
L 63.234324 182.096597 
L 63.514524 182.106597 
L 63.737459 181.937591 
L 63.783182 181.961573 
L 63.706473 181.515341 
L 63.770168 181.553268 
L 63.791402 181.565934 
L 63.688922 181.142418 
L 63.776352 181.20061 
L 63.608234 180.941105 
L 63.698271 181.006519 
L 63.39536 181.120888 
L 63.485653 181.190043 
L 63.42383 181.229706 
L 63.513728 181.302181 
L 63.642641 181.430825 
L 64.038905 181.513808 
L 64.431727 181.75764 
L 64.697848 181.798513 
L 64.65307 181.79874 
L 64.697562 181.853332 
L 64.538374 181.919961 
L 64.576715 181.96947 
L 65.689317 181.753678 
L 65.698729 181.766112 
L 64.621113 182.124504 
L 64.6627 182.185663 
L 63.335109 182.492179 
L 63.374982 182.55635 
L 63.386515 182.574841 
L 62.81688 182.584325 
L 62.861917 182.659773 
L 60.928126 182.72662 
L 60.957404 182.781325 
L 60.270413 182.731079 
L 60.516471 182.749399 
L 60.706476 182.969187 
L 61.397418 183.221332 
L 60.937291 184.250799 
L 61.334361 184.641531 
L 61.243994 184.936277 
L 61.485919 184.897368 
L 61.48588 184.897245 
L 61.363382 184.667723 
L 61.363371 184.66773 
L 61.221073 184.065885 
L 61.221054 184.065894 
L 60.240548 183.34255 
L 60.048703 183.441925 
L 59.294819 183.388208 
L 59.351983 183.303014 
L 59.330538 183.184424 
L 58.68905 183.344064 
L 58.687955 183.340254 
L 58.68669 183.33587 
L 58.258995 183.509284 
L 58.256255 183.49965 
L 57.576191 183.49477 
L 57.384765 183.352188 
L 57.193177 183.36496 
L 56.343778 183.871675 
L 57.104035 183.891095 
L 57.515024 184.090792 
L 57.515022 184.090758 
L 60.249243 184.12332 
L 60.249223 184.123319 
L 62.365059 183.953719 
L 62.365044 183.953718 
L 64.019264 183.566056 
L 64.019248 183.566054 
L 64.219616 183.139406 
L 64.219605 183.139404 
L 63.80989 183.024315 
L 63.436958 183.347617 
L 63.53018 183.520446 
L 63.398102 183.596069 
L 63.605202 183.738924 
L 63.770988 184.18886 
L 63.825264 186.227002 
L 63.557072 186.43471 
L 63.554587 186.551973 
L 63.217023 186.695756 
L 63.174667 187.852375 
L 63.310377 187.930298 
L 63.307828 188.146227 
L 63.457011 188.248146 
L 63.454286 188.465498 
L 63.683256 188.645726 
L 63.75522 189.272265 
L 63.80655 189.599797 
L 63.709406 191.939421 
L 63.50495 192.383175 
L 63.485251 193.157434 
L 63.323961 193.614196 
L 63.300555 195.868103 
L 63.405635 195.705138 
L 63.403043 195.886019 
L 63.490415 196.557986 
L 63.709165 196.455967 
L 63.709639 196.536465 
L 63.775267 199.483673 
L 63.877159 200.141952 
L 64.031287 202.275509 
L 64.042156 203.124727 
L 64.108273 203.750731 
L 64.053712 204.364098 
L 64.060317 204.47196 
L 63.972121 204.944965 
L 64.198568 209.522222 
L 64.153966 209.734081 
L 64.178257 210.079212 
L 64.059269 210.306676 
L 64.029432 211.189855 
L 64.240316 211.225745 
L 64.277122 211.699567 
L 64.40319 211.726035 
L 64.440408 212.20209 
L 64.67653 212.189114 
L 64.713028 212.660739 
L 65.188555 212.621943 
L 65.222952 213.087714 
L 65.698825 213.017714 
L 65.731206 213.479653 
L 66.075301 213.347884 
L 66.083032 213.462695 
L 66.106027 213.806062 
L 66.28989 213.747312 
L 66.297314 213.860709 
L 66.319211 214.197734 
L 66.181966 214.188615 
L 66.189242 214.300398 
L 66.187125 215.232358 
L 65.944463 215.398514 
L 65.95854 215.610477 
L 65.723639 215.836677 
L 65.744739 216.146443 
L 65.492274 216.369738 
L 65.513676 216.673677 
L 65.186213 216.834829 
L 65.208509 217.143896 
L 64.812409 217.291746 
L 64.836158 217.611079 
L 64.553693 217.621105 
L 64.561895 217.728783 
L 64.58665 218.053894 
L 64.391827 217.954999 
L 64.4 218.062887 
L 64.424437 218.385733 
L 64.580867 218.282542 
L 64.58874 218.388263 
L 64.612096 218.701783 
L 64.823488 218.52254 
L 64.830976 218.625001 
L 64.949556 219.083341 
L 65.537751 218.884815 
L 65.544474 218.984295 
L 65.564761 219.285095 
L 66.133029 218.971167 
L 66.139496 219.072561 
L 66.159119 219.380116 
L 66.629725 218.995041 
L 66.635972 219.098753 
L 66.654924 219.413217 
L 67.058756 219.06978 
L 67.064863 219.175786 
L 67.083374 219.496897 
L 67.466935 219.28021 
L 67.472853 219.388468 
L 67.408317 219.935035 
L 67.312251 219.709813 
L 67.323902 219.928473 
L 67.335605 220.148083 
L 67.077372 219.979207 
L 67.083288 220.088464 
L 67.101033 220.416189 
L 66.788605 220.288928 
L 66.7948 220.3994 
L 66.813232 220.728896 
L 66.539691 220.909531 
L 66.591622 222.517233 
L 66.524624 223.156018 
L 66.556085 223.821123 
L 66.440078 224.317522 
L 66.46832 225.189377 
L 66.187467 225.582993 
L 66.210192 225.921607 
L 65.926838 225.880651 
L 66.096991 227.786758 
L 65.866321 228.183537 
L 65.891255 228.527491 
L 65.786016 229.396183 
L 65.802845 229.622475 
L 65.332209 230.438777 
L 65.357985 230.778375 
L 65.008839 231.638473 
L 65.035812 231.979092 
L 64.856447 233.994195 
L 64.55692 234.429948 
L 64.586376 234.769494 
L 64.319426 235.061012 
L 64.359484 235.514986 
L 64.505489 235.767212 
L 64.537878 236.606339 
L 64.752584 236.467606 
L 64.763128 236.585096 
L 64.79474 236.937244 
L 65.408101 236.693333 
L 65.448087 237.155591 
L 66.085329 236.792498 
L 66.094782 236.907259 
L 66.113625 237.136586 
L 66.467506 236.852246 
L 66.476445 236.96648 
L 66.429495 237.784975 
L 66.174047 237.866748 
L 66.209553 238.341949 
L 65.841789 238.832277 
L 65.86906 239.192376 
L 65.698422 239.911908 
L 65.716905 240.148369 
L 65.45085 240.864461 
L 65.479383 241.214793 
L 65.336394 241.635117 
L 65.365407 241.980141 
L 65.674158 242.360775 
L 65.703892 242.707718 
L 65.971174 243.017555 
L 65.991187 243.252074 
L 66.254007 243.299968 
L 66.294013 243.778295 
L 66.557123 243.761529 
L 66.597095 244.243849 
L 66.826383 244.044932 
L 66.836331 244.165318 
L 66.954595 245.202362 
L 67.215751 245.002845 
L 67.224788 245.119481 
L 67.252016 245.470846 
L 67.064715 245.675295 
L 67.082328 245.910637 
L 66.867631 245.997845 
L 66.84118 246.951723 
L 66.627796 246.883814 
L 66.636403 247.001628 
L 66.662347 247.355962 
L 66.265736 247.483052 
L 66.382237 248.647795 
L 66.501776 248.643506 
L 66.652234 250.27159 
L 66.884612 250.671124 
L 67.016869 251.820729 
L 67.172797 252.315541 
L 67.26811 253.439342 
L 67.60323 253.765343 
L 67.610025 253.990153 
L 67.733003 254.204269 
L 67.740966 254.544013 
L 67.607705 254.817631 
L 67.613155 255.160062 
L 67.227117 255.468142 
L 67.230139 255.810432 
L 67.020273 255.845957 
L 67.021805 256.302056 
L 66.901866 256.321623 
L 66.900731 256.778197 
L 67.135552 256.739104 
L 67.130842 257.200306 
L 67.292156 257.10686 
L 67.290005 257.222688 
L 67.280406 257.687506 
L 67.511335 257.50705 
L 67.508038 257.623764 
L 67.4932 258.25246 
L 67.351462 258.195255 
L 67.346264 258.310393 
L 67.263089 260.734579 
L 67.431402 260.987371 
L 67.397135 261.32982 
L 67.584318 261.599126 
L 67.545547 261.942003 
L 67.629894 262.272878 
L 67.495411 263.997184 
L 67.434955 264.738046 
L 67.331922 265.055745 
L 67.013416 266.401535 
L 66.85305 266.905517 
L 66.730586 267.795614 
L 66.741018 268.257371 
L 66.241103 270.067998 
L 66.02938 270.293367 
L 65.676463 271.175197 
L 65.473901 271.67541 
L 64.926721 273.972159 
L 64.742298 274.784109 
L 64.398897 275.977414 
L 64.205815 276.943062 
L 64.280076 276.9999 
L 63.164431 280.450312 
L 63.037605 280.424682 
L 62.600552 281.488216 
L 62.446879 281.518088 
L 61.980488 282.636598 
L 61.776932 282.844514 
L 60.78187 286.288253 
L 60.91836 286.683092 
L 60.794712 287.057302 
L 60.85139 287.427756 
L 60.690253 287.913429 
L 60.778925 288.275477 
L 60.658288 288.637757 
L 60.701983 288.984231 
L 60.580138 289.348165 
L 60.605987 289.656182 
L 60.481934 290.024988 
L 60.523889 290.270599 
L 60.306737 291.200775 
L 60.317008 291.389792 
L 59.396102 293.923017 
L 59.243235 294.092493 
L 58.813974 295.047065 
L 58.612151 295.315516 
L 58.190286 296.358163 
L 58.043705 296.547584 
L 57.635042 297.509273 
L 57.480012 297.84625 
L 56.582225 300.310737 
L 56.583579 300.083903 
L 56.470379 300.471848 
L 56.483265 300.462458 
L 56.385545 301.083362 
L 56.437811 301.073857 
L 56.416486 301.15941 
L 56.309773 301.785996 
L 56.390637 301.989554 
L 56.338208 302.233741 
L 56.548456 302.225704 
L 56.531566 302.30874 
L 56.481069 302.56191 
L 56.688424 302.57692 
L 56.672 302.66405 
L 56.622532 302.931039 
L 56.824727 302.835266 
L 56.80876 302.926687 
L 56.760747 303.205197 
L 57.027865 303.179158 
L 57.012608 303.273073 
L 56.966965 303.556581 
L 57.140366 303.489167 
L 57.126266 303.583015 
L 57.065568 304.675308 
L 57.010315 305.679625 
L 56.916349 306.454681 
L 57.173793 305.235486 
L 57.189696 305.676795 
L 57.172989 306.344622 
L 57.037012 306.186856 
L 57.049694 306.36158 
L 57.075902 306.712999 
L 57.412095 306.830322 
L 57.504931 308.040215 
L 57.39399 308.164948 
L 57.43885 308.455276 
L 57.215412 308.396165 
L 57.232055 308.501058 
L 57.300341 309.48973 
L 57.297785 309.85884 
L 57.334692 310.084638 
L 57.244321 310.381991 
L 57.408296 311.750334 
L 57.364011 312.188732 
L 57.408432 312.374796 
L 57.386709 313.027904 
L 57.435776 313.214211 
L 57.422417 313.881646 
L 57.475055 314.065197 
L 57.516913 315.047832 
L 57.543856 315.135408 
L 57.613463 317.063425 
L 57.64069 317.14137 
L 57.839727 318.563862 
L 57.988095 318.940078 
L 58.166178 320.11089 
L 58.202126 320.192063 
L 58.487472 320.391454 
L 58.851062 321.031033 
L 58.607572 321.096471 
L 58.647087 321.174385 
L 58.764602 321.406475 
L 58.613339 321.377757 
L 58.653622 321.453788 
L 58.774014 321.681329 
L 58.548557 321.752479 
L 58.590534 321.828372 
L 58.717538 322.058441 
L 58.568547 322.097867 
L 58.613531 322.175857 
L 59.055817 323.081854 
L 58.824942 323.210601 
L 58.875426 323.289683 
L 59.189633 323.818046 
L 59.197783 324.0597 
L 60.039361 325.138107 
L 60.314815 325.311146 
L 60.88393 326.094967 
L 60.861769 325.88463 
L 60.862544 325.885614 
L 60.775138 325.92623 
L 60.775241 325.926316 
L 60.728229 325.792447 
L 60.837477 325.817657 
L 60.952505 325.931173 
L 60.948822 325.92224 
L 61.11469 326.106874 
L 62.223852 325.837306 
L 62.297231 325.919306 
L 63.223766 325.781584 
L 63.435688 325.836414 
L 63.943081 325.689084 
L 64.100402 325.925388 
L 64.16469 326.146001 
L 64.351077 326.51176 
L 64.846383 326.795483 
L 65.113673 326.857384 
L 66.417318 327.575712 
L 66.972193 327.86049 
L 67.221336 328.125102 
L 67.437246 328.273308 
L 67.678629 328.535054 
L 68.044947 328.687047 
L 69.004835 329.266549 
L 69.253147 329.391366 
L 69.40169 329.484756 
L 70.020328 329.448513 
L 70.454859 329.210369 
L 70.672102 329.099457 
L 70.710848 329.098549 
L 70.895154 328.965676 
L 71.149321 328.857783 
L 71.308823 328.733335 
L 72.674311 328.506768 
L 72.939759 328.38595 
L 73.061285 328.250078 
L 73.236901 328.146266 
L 73.303465 327.989561 
L 73.44994 327.864499 
L 73.403743 327.826878 
L 73.502932 327.787753 
L 73.46065 327.758484 
L 73.985119 327.657752 
L 73.889169 327.995824 
L 73.913287 327.979418 
L 73.961234 327.946712 
L 73.83666 328.137717 
L 73.931297 328.069214 
L 73.826968 328.267417 
L 73.913635 328.035483 
L 73.830043 327.795275 
L 73.924213 327.559917 
L 73.695411 326.988476 
L 73.835959 326.636511 
L 73.808106 326.529145 
L 73.607985 326.598479 
L 73.802257 326.428899 
L 73.853064 326.334148 
L 73.779107 326.116889 
L 73.815768 326.040072 
L 73.731881 326.16728 
L 73.764725 326.095282 
L 74.036763 326.082013 
L 73.726455 326.195251 
L 73.742312 326.159665 
L 73.665304 326.308815 
L 73.671321 326.295372 
L 73.836441 326.403366 
L 73.837506 326.400984 
L 73.716069 326.736433 
L 73.716055 326.736422 
L 74.536529 327.206824 
L 73.604396 326.561798 
L 73.750964 326.552665 
L 73.669299 326.519859 
L 74.045452 326.622537 
L 74.013735 326.662371 
L 73.727894 326.727917 
L 73.493708 326.686068 
L 73.554852 326.665768 
L 73.452342 326.529113 
L 73.279227 326.400081 
L 73.164072 326.335982 
L 73.127848 326.346723 
L 73.036808 326.257718 
L 72.944425 326.40175 
L 72.664303 326.170957 
L 72.322987 326.139281 
L 72.323802 326.137318 
L 71.472769 325.998789 
L 71.475529 325.99143 
L 71.598688 326.15383 
L 71.543907 326.04826 
L 71.252976 325.898853 
L 71.555538 326.148268 
L 71.682743 326.312569 
L 71.540808 326.376417 
L 72.429574 326.884018 
L 72.422175 326.91304 
L 72.787105 327.155576 
L 72.676677 327.288216 
L 72.695631 327.585564 
L 72.767014 327.799272 
L 72.758575 327.838375 
L 72.884747 328.026037 
L 72.809943 328.590908 
L 72.842967 328.850132 
L 72.609632 329.033904 
L 72.602883 329.070694 
L 72.689057 329.260389 
L 72.682671 329.296246 
L 72.393447 329.362971 
L 72.316119 329.558371 
L 71.961604 329.613273 
L 72.385597 329.841906 
L 72.367796 329.975073 
L 72.548063 330.098955 
L 72.544038 330.132302 
L 72.874871 330.273423 
L 72.871577 330.303607 
L 73.176689 330.322609 
L 73.167079 330.420996 
L 73.164564 330.447537 
L 73.610121 330.547778 
L 73.603702 330.641251 
L 74.143475 330.754658 
L 74.140106 330.840401 
L 74.381235 330.981354 
L 74.280807 331.223303 
L 73.700885 331.444728 
L 73.701242 331.51832 
L 73.561253 331.788504 
L 73.448974 332.322197 
L 73.45303 332.526454 
L 73.276401 332.860748 
L 73.278663 332.988298 
L 72.965142 333.174948 
L 72.969096 333.408589 
L 72.767943 333.548717 
L 72.770799 333.744287 
L 72.500123 333.848171 
L 72.5025 334.030019 
L 72.730704 334.134707 
L 72.803276 334.67719 
L 73.100068 334.627886 
L 73.101103 334.684623 
L 73.103941 334.855658 
L 73.290181 334.829655 
L 73.291264 334.886393 
L 73.294527 335.588997 
L 73.539088 335.642771 
L 73.58724 336.333726 
L 73.389387 336.492631 
L 73.320122 336.850234 
L 73.591693 337.02839 
L 73.594433 337.14196 
L 73.428265 337.357992 
L 73.431291 337.479212 
L 73.111331 337.667818 
L 73.116046 337.855939 
L 73.501295 338.039064 
L 73.49203 338.969308 
L 73.808972 339.120536 
L 73.892558 339.958641 
L 74.131004 340.009314 
L 74.170639 340.533539 
L 74.31992 340.633579 
L 74.452504 341.082508 
L 74.191072 341.096763 
L 74.194966 341.157531 
L 74.206784 341.336514 
L 74.361403 341.28642 
L 74.365541 341.345254 
L 74.486971 341.944295 
L 74.170657 341.96511 
L 74.175867 342.0221 
L 74.225236 343.185238 
L 74.09659 343.299301 
L 74.111471 343.425851 
L 73.978369 343.547722 
L 74.097015 343.739731 
L 74.171699 343.83231 
L 74.203903 344.428264 
L 74.500832 344.504795 
L 74.512851 344.584218 
L 74.707837 344.714979 
L 74.841634 345.047203 
L 75.143445 345.231335 
L 75.163721 345.351136 
L 75.3649 345.553423 
L 75.371112 346.111495 
L 75.216563 346.024288 
L 75.217415 346.145732 
L 75.227744 346.203011 
L 75.015271 346.198651 
L 75.032231 346.290644 
L 75.038108 346.322586 
L 74.899639 346.348412 
L 74.919803 346.45568 
L 75.090919 346.887752 
L 75.236801 347.053326 
L 75.244989 347.094223 
L 75.39803 347.190725 
L 75.517274 347.486304 
L 75.329058 347.691267 
L 75.346848 347.774139 
L 75.187203 347.958351 
L 76.027389 351.410519 
L 76.189647 351.64797 
L 76.221011 351.779896 
L 76.438759 352.017194 
L 77.079246 354.86522 
L 77.273701 355.013981 
L 77.517482 355.623484 
L 77.634714 355.741657 
L 77.690772 355.949792 
L 77.84405 356.039439 
L 78.133526 356.790319 
L 78.323549 356.865209 
L 78.36366 357.140398 
L 78.035038 357.167304 
L 78.072725 357.259939 
L 78.34683 358.165457 
L 78.287871 358.325859 
L 78.326294 358.405947 
L 78.131665 358.473325 
L 78.16982 358.551537 
L 78.850489 359.896449 
L 79.121651 359.991179 
L 79.444187 360.395107 
L 79.443037 360.326352 
L 79.553522 360.548133 
L 79.717775 360.406852 
L 79.745224 360.461605 
L 79.82723 360.626535 
L 79.979022 360.644852 
L 80.365439 361.418279 
L 80.640692 361.616284 
L 80.849259 362.155687 
L 80.867345 362.443009 
L 80.930333 362.572916 
L 81.198159 362.795451 
L 81.261571 362.928089 
L 81.573515 363.181658 
L 81.779288 363.70457 
L 81.979186 363.783239 
L 82.069845 363.984142 
L 82.31397 364.000681 
L 82.400359 364.197152 
L 82.571206 364.240786 
L 83.066557 365.179099 
L 83.341011 365.340575 
L 83.383267 365.454035 
L 83.62648 365.552066 
L 83.660742 365.648371 
L 83.82149 365.582592 
L 83.850819 365.668572 
L 83.864389 365.708922 
L 84.00596 365.64528 
L 84.030888 365.722673 
L 83.960806 365.736459 
L 84.004687 365.884937 
L 83.843677 366.016025 
L 83.865142 366.094456 
L 83.515252 366.277909 
L 83.536579 366.361115 
L 83.827139 366.272026 
L 83.84819 366.358443 
L 83.979745 366.957597 
L 83.810212 367.152614 
L 83.830366 367.247177 
L 84.105755 367.317438 
L 84.176575 367.588522 
L 84.038341 367.826654 
L 84.194168 368.440588 
L 84.316125 368.637442 
L 84.32234 368.682099 
L 84.469566 368.910143 
L 84.494155 369.210721 
L 84.368367 369.311042 
L 84.315579 369.501067 
L 84.106018 369.456538 
L 84.112643 369.561152 
L 83.938079 369.535262 
L 83.9431 369.633419 
L 83.94479 369.664996 
L 83.680537 369.575394 
L 83.726257 369.576677 
L 83.969598 369.468512 
L 84.306718 369.584783 
L 84.307317 369.606748 
L 84.194889 369.70324 
L 84.102289 370.064413 
L 84.102961 370.124608 
L 83.91742 370.254009 
L 83.917644 370.289367 
L 83.749488 370.227972 
L 83.886983 370.190004 
L 83.831357 370.108276 
L 83.831353 370.108276 
L 83.67909 369.979588 
L 83.736702 369.973523 
L 83.918241 369.935264 
L 83.880089 369.860291 
L 84.068073 369.801419 
L 83.83555 369.834307 
L 83.830022 369.790887 
L 83.482478 369.759914 
L 83.914293 369.762086 
L 83.771954 369.764449 
" clip-path="url(#p4892d4f5d2)" style="fill: none; stroke: #0000ff; stroke-linecap: square"/>
   </g>
   <g id="line2d_24">
    <path d="M 81.664109 370.070654 
L 81.664109 370.070655 
L 81.558244 367.495235 
L 81.251025 365.98986 
L 80.631631 363.904485 
L 79.867461 362.085754 
L 78.877124 360.297548 
L 76.436567 356.557118 
L 73.97632 352.566592 
L 72.175315 349.187267 
L 71.097924 346.702425 
L 70.316461 344.315284 
L 69.723863 341.788327 
L 69.397028 339.425036 
L 69.329207 337.359756 
L 69.483879 335.363178 
L 69.855907 333.278675 
L 70.445554 331.240746 
L 71.257263 329.235872 
L 72.675512 326.446484 
L 76.536315 319.340938 
L 85.539802 303.788462 
L 94.560067 288.947612 
L 97.953383 283.210772 
L 105.277374 270.467376 
L 115.728146 253.987801 
L 122.824644 242.394243 
L 125.147905 239.169771 
L 134.980869 225.960404 
L 138.647898 220.395394 
L 140.859099 216.571322 
L 141.811017 214.542347 
L 144.032929 208.839883 
L 144.983412 205.648142 
L 145.629605 204.35079 
L 146.656555 202.832875 
L 148.32731 200.789816 
L 148.874488 200.342733 
L 151.081775 199.191476 
L 155.052919 197.520204 
L 162.594681 194.710047 
L 166.060993 193.303671 
L 168.25808 187.812749 
L 171.402872 179.50669 
L 173.1718 174.376887 
L 177.046043 164.51546 
L 191.492573 128.77209 
L 193.418769 124.388641 
L 195.896659 119.339614 
L 198.648503 114.259122 
L 202.479937 107.205318 
L 204.572764 102.646722 
L 208.176228 94.179348 
L 212.140624 84.283225 
L 214.054644 79.103673 
L 214.889418 76.027194 
L 215.974341 71.14866 
L 218.955059 56.249439 
L 219.580256 53.982854 
L 220.122885 52.12999 
L 220.870555 48.677653 
L 221.744904 43.577051 
L 222.399263 38.890856 
L 222.340643 38.899693 
L 220.131699 39.09696 
L 210.62304 39.403963 
L 206.285739 39.515282 
L 198.015081 39.825903 
L 190.898091 40.057463 
L 187.853612 40.368834 
L 184.833221 40.417829 
L 182.067908 40.257576 
L 179.618583 39.884364 
L 176.339796 39.484213 
L 176.251986 39.481847 
L 176.251993 39.481719 
" clip-path="url(#p4892d4f5d2)" style="fill: none; stroke: #ff0000; stroke-opacity: 0.7; stroke-linecap: square"/>
   </g>
   <g id="line2d_25">
    <defs>
     <path id="mcde123aeb9" d="M 0 4 
C 1.060812 4 2.078319 3.578535 2.828427 2.828427 
C 3.578535 2.078319 4 1.060812 4 0 
C 4 -1.060812 3.578535 -2.078319 2.828427 -2.828427 
C 2.078319 -3.578535 1.060812 -4 0 -4 
C -1.060812 -4 -2.078319 -3.578535 -2.828427 -2.828427 
C -3.578535 -2.078319 -4 -1.060812 -4 0 
C -4 1.060812 -3.578535 2.078319 -2.828427 2.828427 
C -2.078319 3.578535 -1.060812 4 0 4 
z
" style="stroke: #008000"/>
    </defs>
    <g clip-path="url(#p4892d4f5d2)">
     <use xlink:href="#mcde123aeb9" x="81.664109" y="370.070654" style="fill: #008000; stroke: #008000"/>
    </g>
   </g>
   <g id="line2d_26">
    <defs>
     <path id="ma94050222f" d="M 0 -6 
L -6 6 
L 6 6 
z
" style="stroke: #0000ff; stroke-linejoin: miter"/>
    </defs>
    <g clip-path="url(#p4892d4f5d2)">
     <use xlink:href="#ma94050222f" x="61.319859" y="184.350182" style="fill: #0000ff; stroke: #0000ff; stroke-linejoin: miter"/>
    </g>
   </g>
   <g id="line2d_27">
    <defs>
     <path id="me0a2931ac1" d="M 0 -6 
L -6 6 
L 6 6 
z
" style="stroke: #ff0000; stroke-linejoin: miter"/>
    </defs>
    <g clip-path="url(#p4892d4f5d2)">
     <use xlink:href="#me0a2931ac1" x="166.029937" y="193.41293" style="fill: #ff0000; stroke: #ff0000; stroke-linejoin: miter"/>
    </g>
   </g>
   <g id="patch_3">
    <path d="M 43.457842 386.918125 
L 43.457842 22.318125 
" style="fill: none; stroke: #000000; stroke-width: 0.8; stroke-linejoin: miter; stroke-linecap: square"/>
   </g>
   <g id="patch_4">
    <path d="M 230.920283 386.918125 
L 230.920283 22.318125 
" style="fill: none; stroke: #000000; stroke-width: 0.8; stroke-linejoin: miter; stroke-linecap: square"/>
   </g>
   <g id="patch_5">
    <path d="M 43.457842 386.918125 
L 230.920283 386.918125 
" style="fill: none; stroke: #000000; stroke-width: 0.8; stroke-linejoin: miter; stroke-linecap: square"/>
   </g>
   <g id="patch_6">
    <path d="M 43.457842 22.318125 
L 230.920283 22.318125 
" style="fill: none; stroke: #000000; stroke-width: 0.8; stroke-linejoin: miter; stroke-linecap: square"/>
   </g>
   <g id="text_14">
    <!-- Trajectory Comparison (both in map frame) -->
    <g transform="translate(7.2 16.318125)scale(0.12 -0.12)">
     <defs>
      <path id="DejaVuSans-54" d="M -19 4666 
L 3928 4666 
L 3928 4134 
L 2272 4134 
L 2272 0 
L 1638 0 
L 1638 4134 
L -19 4134 
L -19 4666 
z
" transform="scale(0.015625)"/>
      <path id="DejaVuSans-72" d="M 2631 2963 
Q 2534 3019 2420 3045 
Q 2306 3072 2169 3072 
Q 1681 3072 1420 2755 
Q 1159 2438 1159 1844 
L 1159 0 
L 581 0 
L 581 3500 
L 1159 3500 
L 1159 2956 
Q 1341 3275 1631 3429 
Q 1922 3584 2338 3584 
Q 2397 3584 2469 3576 
Q 2541 3569 2628 3553 
L 2631 2963 
z
" transform="scale(0.015625)"/>
      <path id="DejaVuSans-61" d="M 2194 1759 
Q 1497 1759 1228 1600 
Q 959 1441 959 1056 
Q 959 750 1161 570 
Q 1363 391 1709 391 
Q 2188 391 2477 730 
Q 2766 1069 2766 1631 
L 2766 1759 
L 2194 1759 
z
M 3341 1997 
L 3341 0 
L 2766 0 
L 2766 531 
Q 2569 213 2275 61 
Q 1981 -91 1556 -91 
Q 1019 -91 701 211 
Q 384 513 384 1019 
Q 384 1609 779 1909 
Q 1175 2209 1959 2209 
L 2766 2209 
L 2766 2266 
Q 2766 2663 2505 2880 
Q 2244 3097 1772 3097 
Q 1472 3097 1187 3025 
Q 903 2953 641 2809 
L 641 3341 
Q 956 3463 1253 3523 
Q 1550 3584 1831 3584 
Q 2591 3584 2966 3190 
Q 3341 2797 3341 1997 
z
" transform="scale(0.015625)"/>
      <path id="DejaVuSans-6a" d="M 603 3500 
L 1178 3500 
L 1178 -63 
Q 1178 -731 923 -1031 
Q 669 -1331 103 -1331 
L -116 -1331 
L -116 -844 
L 38 -844 
Q 366 -844 484 -692 
Q 603 -541 603 -63 
L 603 3500 
z
M 603 4863 
L 1178 4863 
L 1178 4134 
L 603 4134 
L 603 4863 
z
" transform="scale(0.015625)"/>
      <path id="DejaVuSans-65" d="M 3597 1894 
L 3597 1613 
L 953 1613 
Q 991 1019 1311 708 
Q 1631 397 2203 397 
Q 2534 397 2845 478 
Q 3156 559 3463 722 
L 3463 178 
Q 3153 47 2828 -22 
Q 2503 -91 2169 -91 
Q 1331 -91 842 396 
Q 353 884 353 1716 
Q 353 2575 817 3079 
Q 1281 3584 2069 3584 
Q 2775 3584 3186 3129 
Q 3597 2675 3597 1894 
z
M 3022 2063 
Q 3016 2534 2758 2815 
Q 2500 3097 2075 3097 
Q 1594 3097 1305 2825 
Q 1016 2553 972 2059 
L 3022 2063 
z
" transform="scale(0.015625)"/>
      <path id="DejaVuSans-63" d="M 3122 3366 
L 3122 2828 
Q 2878 2963 2633 3030 
Q 2388 3097 2138 3097 
Q 1578 3097 1268 2742 
Q 959 2388 959 1747 
Q 959 1106 1268 751 
Q 1578 397 2138 397 
Q 2388 397 2633 464 
Q 2878 531 3122 666 
L 3122 134 
Q 2881 22 2623 -34 
Q 2366 -91 2075 -91 
Q 1284 -91 818 406 
Q 353 903 353 1747 
Q 353 2603 823 3093 
Q 1294 3584 2113 3584 
Q 2378 3584 2631 3529 
Q 2884 3475 3122 3366 
z
" transform="scale(0.015625)"/>
      <path id="DejaVuSans-74" d="M 1172 4494 
L 1172 3500 
L 2356 3500 
L 2356 3053 
L 1172 3053 
L 1172 1153 
Q 1172 725 1289 603 
Q 1406 481 1766 481 
L 2356 481 
L 2356 0 
L 1766 0 
Q 1100 0 847 248 
Q 594 497 594 1153 
L 594 3053 
L 172 3053 
L 172 3500 
L 594 3500 
L 594 4494 
L 1172 4494 
z
" transform="scale(0.015625)"/>
      <path id="DejaVuSans-6f" d="M 1959 3097 
Q 1497 3097 1228 2736 
Q 959 2375 959 1747 
Q 959 1119 1226 758 
Q 1494 397 1959 397 
Q 2419 397 2687 759 
Q 2956 1122 2956 1747 
Q 2956 2369 2687 2733 
Q 2419 3097 1959 3097 
z
M 1959 3584 
Q 2709 3584 3137 3096 
Q 3566 2609 3566 1747 
Q 3566 888 3137 398 
Q 2709 -91 1959 -91 
Q 1206 -91 779 398 
Q 353 888 353 1747 
Q 353 2609 779 3096 
Q 1206 3584 1959 3584 
z
" transform="scale(0.015625)"/>
      <path id="DejaVuSans-79" d="M 2059 -325 
Q 1816 -950 1584 -1140 
Q 1353 -1331 966 -1331 
L 506 -1331 
L 506 -850 
L 844 -850 
Q 1081 -850 1212 -737 
Q 1344 -625 1503 -206 
L 1606 56 
L 191 3500 
L 800 3500 
L 1894 763 
L 2988 3500 
L 3597 3500 
L 2059 -325 
z
" transform="scale(0.015625)"/>
      <path id="DejaVuSans-43" d="M 4122 4306 
L 4122 3641 
Q 3803 3938 3442 4084 
Q 3081 4231 2675 4231 
Q 1875 4231 1450 3742 
Q 1025 3253 1025 2328 
Q 1025 1406 1450 917 
Q 1875 428 2675 428 
Q 3081 428 3442 575 
Q 3803 722 4122 1019 
L 4122 359 
Q 3791 134 3420 21 
Q 3050 -91 2638 -91 
Q 1578 -91 968 557 
Q 359 1206 359 2328 
Q 359 3453 968 4101 
Q 1578 4750 2638 4750 
Q 3056 4750 3426 4639 
Q 3797 4528 4122 4306 
z
" transform="scale(0.015625)"/>
      <path id="DejaVuSans-70" d="M 1159 525 
L 1159 -1331 
L 581 -1331 
L 581 3500 
L 1159 3500 
L 1159 2969 
Q 1341 3281 1617 3432 
Q 1894 3584 2278 3584 
Q 2916 3584 3314 3078 
Q 3713 2572 3713 1747 
Q 3713 922 3314 415 
Q 2916 -91 2278 -91 
Q 1894 -91 1617 61 
Q 1341 213 1159 525 
z
M 3116 1747 
Q 3116 2381 2855 2742 
Q 2594 3103 2138 3103 
Q 1681 3103 1420 2742 
Q 1159 2381 1159 1747 
Q 1159 1113 1420 752 
Q 1681 391 2138 391 
Q 2594 391 2855 752 
Q 3116 1113 3116 1747 
z
" transform="scale(0.015625)"/>
      <path id="DejaVuSans-69" d="M 603 3500 
L 1178 3500 
L 1178 0 
L 603 0 
L 603 3500 
z
M 603 4863 
L 1178 4863 
L 1178 4134 
L 603 4134 
L 603 4863 
z
" transform="scale(0.015625)"/>
      <path id="DejaVuSans-73" d="M 2834 3397 
L 2834 2853 
Q 2591 2978 2328 3040 
Q 2066 3103 1784 3103 
Q 1356 3103 1142 2972 
Q 928 2841 928 2578 
Q 928 2378 1081 2264 
Q 1234 2150 1697 2047 
L 1894 2003 
Q 2506 1872 2764 1633 
Q 3022 1394 3022 966 
Q 3022 478 2636 193 
Q 2250 -91 1575 -91 
Q 1294 -91 989 -36 
Q 684 19 347 128 
L 347 722 
Q 666 556 975 473 
Q 1284 391 1588 391 
Q 1994 391 2212 530 
Q 2431 669 2431 922 
Q 2431 1156 2273 1281 
Q 2116 1406 1581 1522 
L 1381 1569 
Q 847 1681 609 1914 
Q 372 2147 372 2553 
Q 372 3047 722 3315 
Q 1072 3584 1716 3584 
Q 2034 3584 2315 3537 
Q 2597 3491 2834 3397 
z
" transform="scale(0.015625)"/>
      <path id="DejaVuSans-6e" d="M 3513 2113 
L 3513 0 
L 2938 0 
L 2938 2094 
Q 2938 2591 2744 2837 
Q 2550 3084 2163 3084 
Q 1697 3084 1428 2787 
Q 1159 2491 1159 1978 
L 1159 0 
L 581 0 
L 581 3500 
L 1159 3500 
L 1159 2956 
Q 1366 3272 1645 3428 
Q 1925 3584 2291 3584 
Q 2894 3584 3203 3211 
Q 3513 2838 3513 2113 
z
" transform="scale(0.015625)"/>
      <path id="DejaVuSans-62" d="M 3116 1747 
Q 3116 2381 2855 2742 
Q 2594 3103 2138 3103 
Q 1681 3103 1420 2742 
Q 1159 2381 1159 1747 
Q 1159 1113 1420 752 
Q 1681 391 2138 391 
Q 2594 391 2855 752 
Q 3116 1113 3116 1747 
z
M 1159 2969 
Q 1341 3281 1617 3432 
Q 1894 3584 2278 3584 
Q 2916 3584 3314 3078 
Q 3713 2572 3713 1747 
Q 3713 922 3314 415 
Q 2916 -91 2278 -91 
Q 1894 -91 1617 61 
Q 1341 213 1159 525 
L 1159 0 
L 581 0 
L 581 4863 
L 1159 4863 
L 1159 2969 
z
" transform="scale(0.015625)"/>
      <path id="DejaVuSans-68" d="M 3513 2113 
L 3513 0 
L 2938 0 
L 2938 2094 
Q 2938 2591 2744 2837 
Q 2550 3084 2163 3084 
Q 1697 3084 1428 2787 
Q 1159 2491 1159 1978 
L 1159 0 
L 581 0 
L 581 4863 
L 1159 4863 
L 1159 2956 
Q 1366 3272 1645 3428 
Q 1925 3584 2291 3584 
Q 2894 3584 3203 3211 
Q 3513 2838 3513 2113 
z
" transform="scale(0.015625)"/>
      <path id="DejaVuSans-66" d="M 2375 4863 
L 2375 4384 
L 1825 4384 
Q 1516 4384 1395 4259 
Q 1275 4134 1275 3809 
L 1275 3500 
L 2222 3500 
L 2222 3053 
L 1275 3053 
L 1275 0 
L 697 0 
L 697 3053 
L 147 3053 
L 147 3500 
L 697 3500 
L 697 3744 
Q 697 4328 969 4595 
Q 1241 4863 1831 4863 
L 2375 4863 
z
" transform="scale(0.015625)"/>
     </defs>
     <use xlink:href="#DejaVuSans-54"/>
     <use xlink:href="#DejaVuSans-72" x="46.333984"/>
     <use xlink:href="#DejaVuSans-61" x="87.447266"/>
     <use xlink:href="#DejaVuSans-6a" x="148.726562"/>
     <use xlink:href="#DejaVuSans-65" x="176.509766"/>
     <use xlink:href="#DejaVuSans-63" x="238.033203"/>
     <use xlink:href="#DejaVuSans-74" x="293.013672"/>
     <use xlink:href="#DejaVuSans-6f" x="332.222656"/>
     <use xlink:href="#DejaVuSans-72" x="393.404297"/>
     <use xlink:href="#DejaVuSans-79" x="434.517578"/>
     <use xlink:href="#DejaVuSans-20" x="493.697266"/>
     <use xlink:href="#DejaVuSans-43" x="525.484375"/>
     <use xlink:href="#DejaVuSans-6f" x="595.308594"/>
     <use xlink:href="#DejaVuSans-6d" x="656.490234"/>
     <use xlink:href="#DejaVuSans-70" x="753.902344"/>
     <use xlink:href="#DejaVuSans-61" x="817.378906"/>
     <use xlink:href="#DejaVuSans-72" x="878.658203"/>
     <use xlink:href="#DejaVuSans-69" x="919.771484"/>
     <use xlink:href="#DejaVuSans-73" x="947.554688"/>
     <use xlink:href="#DejaVuSans-6f" x="999.654297"/>
     <use xlink:href="#DejaVuSans-6e" x="1060.835938"/>
     <use xlink:href="#DejaVuSans-20" x="1124.214844"/>
     <use xlink:href="#DejaVuSans-28" x="1156.001953"/>
     <use xlink:href="#DejaVuSans-62" x="1195.015625"/>
     <use xlink:href="#DejaVuSans-6f" x="1258.492188"/>
     <use xlink:href="#DejaVuSans-74" x="1319.673828"/>
     <use xlink:href="#DejaVuSans-68" x="1358.882812"/>
     <use xlink:href="#DejaVuSans-20" x="1422.261719"/>
     <use xlink:href="#DejaVuSans-69" x="1454.048828"/>
     <use xlink:href="#DejaVuSans-6e" x="1481.832031"/>
     <use xlink:href="#DejaVuSans-20" x="1545.210938"/>
     <use xlink:href="#DejaVuSans-6d" x="1576.998047"/>
     <use xlink:href="#DejaVuSans-61" x="1674.410156"/>
     <use xlink:href="#DejaVuSans-70" x="1735.689453"/>
     <use xlink:href="#DejaVuSans-20" x="1799.166016"/>
     <use xlink:href="#DejaVuSans-66" x="1830.953125"/>
     <use xlink:href="#DejaVuSans-72" x="1866.158203"/>
     <use xlink:href="#DejaVuSans-61" x="1907.271484"/>
     <use xlink:href="#DejaVuSans-6d" x="1968.550781"/>
     <use xlink:href="#DejaVuSans-65" x="2065.962891"/>
     <use xlink:href="#DejaVuSans-29" x="2127.486328"/>
    </g>
   </g>
   <g id="legend_1">
    <g id="patch_7">
     <path d="M 49.757842 95.569687 
L 194.197998 95.569687 
Q 195.997998 95.569687 195.997998 93.769687 
L 195.997998 28.618125 
Q 195.997998 26.818125 194.197998 26.818125 
L 49.757842 26.818125 
Q 47.957842 26.818125 47.957842 28.618125 
L 47.957842 93.769687 
Q 47.957842 95.569687 49.757842 95.569687 
z
" style="fill: #ffffff; opacity: 0.8; stroke: #cccccc; stroke-linejoin: miter"/>
    </g>
    <g id="line2d_28">
     <path d="M 51.557842 34.106719 
L 60.557842 34.106719 
L 69.557842 34.106719 
" style="fill: none; stroke: #0000ff; stroke-linecap: square"/>
    </g>
    <g id="text_15">
     <!-- Global Localization -->
     <g transform="translate(76.757842 37.256719)scale(0.09 -0.09)">
      <defs>
       <path id="DejaVuSans-47" d="M 3809 666 
L 3809 1919 
L 2778 1919 
L 2778 2438 
L 4434 2438 
L 4434 434 
Q 4069 175 3628 42 
Q 3188 -91 2688 -91 
Q 1594 -91 976 548 
Q 359 1188 359 2328 
Q 359 3472 976 4111 
Q 1594 4750 2688 4750 
Q 3144 4750 3555 4637 
Q 3966 4525 4313 4306 
L 4313 3634 
Q 3963 3931 3569 4081 
Q 3175 4231 2741 4231 
Q 1884 4231 1454 3753 
Q 1025 3275 1025 2328 
Q 1025 1384 1454 906 
Q 1884 428 2741 428 
Q 3075 428 3337 486 
Q 3600 544 3809 666 
z
" transform="scale(0.015625)"/>
       <path id="DejaVuSans-6c" d="M 603 4863 
L 1178 4863 
L 1178 0 
L 603 0 
L 603 4863 
z
" transform="scale(0.015625)"/>
       <path id="DejaVuSans-4c" d="M 628 4666 
L 1259 4666 
L 1259 531 
L 3531 531 
L 3531 0 
L 628 0 
L 628 4666 
z
" transform="scale(0.015625)"/>
       <path id="DejaVuSans-7a" d="M 353 3500 
L 3084 3500 
L 3084 2975 
L 922 459 
L 3084 459 
L 3084 0 
L 275 0 
L 275 525 
L 2438 3041 
L 353 3041 
L 353 3500 
z
" transform="scale(0.015625)"/>
      </defs>
      <use xlink:href="#DejaVuSans-47"/>
      <use xlink:href="#DejaVuSans-6c" x="77.490234"/>
      <use xlink:href="#DejaVuSans-6f" x="105.273438"/>
      <use xlink:href="#DejaVuSans-62" x="166.455078"/>
      <use xlink:href="#DejaVuSans-61" x="229.931641"/>
      <use xlink:href="#DejaVuSans-6c" x="291.210938"/>
      <use xlink:href="#DejaVuSans-20" x="318.994141"/>
      <use xlink:href="#DejaVuSans-4c" x="350.78125"/>
      <use xlink:href="#DejaVuSans-6f" x="404.744141"/>
      <use xlink:href="#DejaVuSans-63" x="465.925781"/>
      <use xlink:href="#DejaVuSans-61" x="520.90625"/>
      <use xlink:href="#DejaVuSans-6c" x="582.185547"/>
      <use xlink:href="#DejaVuSans-69" x="609.96875"/>
      <use xlink:href="#DejaVuSans-7a" x="637.751953"/>
      <use xlink:href="#DejaVuSans-61" x="690.242188"/>
      <use xlink:href="#DejaVuSans-74" x="751.521484"/>
      <use xlink:href="#DejaVuSans-69" x="790.730469"/>
      <use xlink:href="#DejaVuSans-6f" x="818.513672"/>
      <use xlink:href="#DejaVuSans-6e" x="879.695312"/>
     </g>
    </g>
    <g id="line2d_29">
     <path d="M 51.557842 47.317031 
L 60.557842 47.317031 
L 69.557842 47.317031 
" style="fill: none; stroke: #ff0000; stroke-opacity: 0.7; stroke-linecap: square"/>
    </g>
    <g id="text_16">
     <!-- Wheel Odometry -->
     <g transform="translate(76.757842 50.467031)scale(0.09 -0.09)">
      <defs>
       <path id="DejaVuSans-57" d="M 213 4666 
L 850 4666 
L 1831 722 
L 2809 4666 
L 3519 4666 
L 4500 722 
L 5478 4666 
L 6119 4666 
L 4947 0 
L 4153 0 
L 3169 4050 
L 2175 0 
L 1381 0 
L 213 4666 
z
" transform="scale(0.015625)"/>
       <path id="DejaVuSans-4f" d="M 2522 4238 
Q 1834 4238 1429 3725 
Q 1025 3213 1025 2328 
Q 1025 1447 1429 934 
Q 1834 422 2522 422 
Q 3209 422 3611 934 
Q 4013 1447 4013 2328 
Q 4013 3213 3611 3725 
Q 3209 4238 2522 4238 
z
M 2522 4750 
Q 3503 4750 4090 4092 
Q 4678 3434 4678 2328 
Q 4678 1225 4090 567 
Q 3503 -91 2522 -91 
Q 1538 -91 948 565 
Q 359 1222 359 2328 
Q 359 3434 948 4092 
Q 1538 4750 2522 4750 
z
" transform="scale(0.015625)"/>
       <path id="DejaVuSans-64" d="M 2906 2969 
L 2906 4863 
L 3481 4863 
L 3481 0 
L 2906 0 
L 2906 525 
Q 2725 213 2448 61 
Q 2172 -91 1784 -91 
Q 1150 -91 751 415 
Q 353 922 353 1747 
Q 353 2572 751 3078 
Q 1150 3584 1784 3584 
Q 2172 3584 2448 3432 
Q 2725 3281 2906 2969 
z
M 947 1747 
Q 947 1113 1208 752 
Q 1469 391 1925 391 
Q 2381 391 2643 752 
Q 2906 1113 2906 1747 
Q 2906 2381 2643 2742 
Q 2381 3103 1925 3103 
Q 1469 3103 1208 2742 
Q 947 2381 947 1747 
z
" transform="scale(0.015625)"/>
      </defs>
      <use xlink:href="#DejaVuSans-57"/>
      <use xlink:href="#DejaVuSans-68" x="98.876953"/>
      <use xlink:href="#DejaVuSans-65" x="162.255859"/>
      <use xlink:href="#DejaVuSans-65" x="223.779297"/>
      <use xlink:href="#DejaVuSans-6c" x="285.302734"/>
      <use xlink:href="#DejaVuSans-20" x="313.085938"/>
      <use xlink:href="#DejaVuSans-4f" x="344.873047"/>
      <use xlink:href="#DejaVuSans-64" x="423.583984"/>
      <use xlink:href="#DejaVuSans-6f" x="487.060547"/>
      <use xlink:href="#DejaVuSans-6d" x="548.242188"/>
      <use xlink:href="#DejaVuSans-65" x="645.654297"/>
      <use xlink:href="#DejaVuSans-74" x="707.177734"/>
      <use xlink:href="#DejaVuSans-72" x="746.386719"/>
      <use xlink:href="#DejaVuSans-79" x="787.5"/>
     </g>
    </g>
    <g id="line2d_30">
     <g>
      <use xlink:href="#mcde123aeb9" x="60.557842" y="60.527344" style="fill: #008000; stroke: #008000"/>
     </g>
    </g>
    <g id="text_17">
     <!-- Start -->
     <g transform="translate(76.757842 63.677344)scale(0.09 -0.09)">
      <defs>
       <path id="DejaVuSans-53" d="M 3425 4513 
L 3425 3897 
Q 3066 4069 2747 4153 
Q 2428 4238 2131 4238 
Q 1616 4238 1336 4038 
Q 1056 3838 1056 3469 
Q 1056 3159 1242 3001 
Q 1428 2844 1947 2747 
L 2328 2669 
Q 3034 2534 3370 2195 
Q 3706 1856 3706 1288 
Q 3706 609 3251 259 
Q 2797 -91 1919 -91 
Q 1588 -91 1214 -16 
Q 841 59 441 206 
L 441 856 
Q 825 641 1194 531 
Q 1563 422 1919 422 
Q 2459 422 2753 634 
Q 3047 847 3047 1241 
Q 3047 1584 2836 1778 
Q 2625 1972 2144 2069 
L 1759 2144 
Q 1053 2284 737 2584 
Q 422 2884 422 3419 
Q 422 4038 858 4394 
Q 1294 4750 2059 4750 
Q 2388 4750 2728 4690 
Q 3069 4631 3425 4513 
z
" transform="scale(0.015625)"/>
      </defs>
      <use xlink:href="#DejaVuSans-53"/>
      <use xlink:href="#DejaVuSans-74" x="63.476562"/>
      <use xlink:href="#DejaVuSans-61" x="102.685547"/>
      <use xlink:href="#DejaVuSans-72" x="163.964844"/>
      <use xlink:href="#DejaVuSans-74" x="205.078125"/>
     </g>
    </g>
    <g id="line2d_31">
     <g>
      <use xlink:href="#ma94050222f" x="60.557842" y="73.737656" style="fill: #0000ff; stroke: #0000ff; stroke-linejoin: miter"/>
     </g>
    </g>
    <g id="text_18">
     <!-- Global @60s (-0.47, 9.96) -->
     <g transform="translate(76.757842 76.887656)scale(0.09 -0.09)">
      <defs>
       <path id="DejaVuSans-40" d="M 2381 1678 
Q 2381 1231 2603 976 
Q 2825 722 3213 722 
Q 3597 722 3817 978 
Q 4038 1234 4038 1678 
Q 4038 2116 3813 2373 
Q 3588 2631 3206 2631 
Q 2828 2631 2604 2375 
Q 2381 2119 2381 1678 
z
M 4084 744 
Q 3897 503 3655 389 
Q 3413 275 3091 275 
Q 2553 275 2217 664 
Q 1881 1053 1881 1678 
Q 1881 2303 2218 2693 
Q 2556 3084 3091 3084 
Q 3413 3084 3656 2967 
Q 3900 2850 4084 2613 
L 4084 3022 
L 4531 3022 
L 4531 722 
Q 4988 791 5245 1139 
Q 5503 1488 5503 2041 
Q 5503 2375 5404 2669 
Q 5306 2963 5106 3213 
Q 4781 3622 4314 3839 
Q 3847 4056 3297 4056 
Q 2913 4056 2559 3954 
Q 2206 3853 1906 3653 
Q 1416 3334 1139 2817 
Q 863 2300 863 1697 
Q 863 1200 1042 765 
Q 1222 331 1563 0 
Q 1891 -325 2322 -495 
Q 2753 -666 3244 -666 
Q 3647 -666 4036 -530 
Q 4425 -394 4750 -141 
L 5031 -488 
Q 4641 -791 4180 -952 
Q 3719 -1113 3244 -1113 
Q 2666 -1113 2153 -908 
Q 1641 -703 1241 -313 
Q 841 78 631 592 
Q 422 1106 422 1697 
Q 422 2266 634 2781 
Q 847 3297 1241 3688 
Q 1644 4084 2172 4295 
Q 2700 4506 3291 4506 
Q 3953 4506 4520 4234 
Q 5088 3963 5472 3463 
Q 5706 3156 5829 2797 
Q 5953 2438 5953 2053 
Q 5953 1231 5456 756 
Q 4959 281 4084 263 
L 4084 744 
z
" transform="scale(0.015625)"/>
       <path id="DejaVuSans-2d" d="M 313 2009 
L 1997 2009 
L 1997 1497 
L 313 1497 
L 313 2009 
z
" transform="scale(0.015625)"/>
       <path id="DejaVuSans-2e" d="M 684 794 
L 1344 794 
L 1344 0 
L 684 0 
L 684 794 
z
" transform="scale(0.015625)"/>
       <path id="DejaVuSans-37" d="M 525 4666 
L 3525 4666 
L 3525 4397 
L 1831 0 
L 1172 0 
L 2766 4134 
L 525 4134 
L 525 4666 
z
" transform="scale(0.015625)"/>
       <path id="DejaVuSans-2c" d="M 750 794 
L 1409 794 
L 1409 256 
L 897 -744 
L 494 -744 
L 750 256 
L 750 794 
z
" transform="scale(0.015625)"/>
       <path id="DejaVuSans-39" d="M 703 97 
L 703 672 
Q 941 559 1184 500 
Q 1428 441 1663 441 
Q 2288 441 2617 861 
Q 2947 1281 2994 2138 
Q 2813 1869 2534 1725 
Q 2256 1581 1919 1581 
Q 1219 1581 811 2004 
Q 403 2428 403 3163 
Q 403 3881 828 4315 
Q 1253 4750 1959 4750 
Q 2769 4750 3195 4129 
Q 3622 3509 3622 2328 
Q 3622 1225 3098 567 
Q 2575 -91 1691 -91 
Q 1453 -91 1209 -44 
Q 966 3 703 97 
z
M 1959 2075 
Q 2384 2075 2632 2365 
Q 2881 2656 2881 3163 
Q 2881 3666 2632 3958 
Q 2384 4250 1959 4250 
Q 1534 4250 1286 3958 
Q 1038 3666 1038 3163 
Q 1038 2656 1286 2365 
Q 1534 2075 1959 2075 
z
" transform="scale(0.015625)"/>
      </defs>
      <use xlink:href="#DejaVuSans-47"/>
      <use xlink:href="#DejaVuSans-6c" x="77.490234"/>
      <use xlink:href="#DejaVuSans-6f" x="105.273438"/>
      <use xlink:href="#DejaVuSans-62" x="166.455078"/>
      <use xlink:href="#DejaVuSans-61" x="229.931641"/>
      <use xlink:href="#DejaVuSans-6c" x="291.210938"/>
      <use xlink:href="#DejaVuSans-20" x="318.994141"/>
      <use xlink:href="#DejaVuSans-40" x="350.78125"/>
      <use xlink:href="#DejaVuSans-36" x="450.78125"/>
      <use xlink:href="#DejaVuSans-30" x="514.404297"/>
      <use xlink:href="#DejaVuSans-73" x="578.027344"/>
      <use xlink:href="#DejaVuSans-20" x="630.126953"/>
      <use xlink:href="#DejaVuSans-28" x="661.914062"/>
      <use xlink:href="#DejaVuSans-2d" x="700.927734"/>
      <use xlink:href="#DejaVuSans-30" x="737.011719"/>
      <use xlink:href="#DejaVuSans-2e" x="800.634766"/>
      <use xlink:href="#DejaVuSans-34" x="832.421875"/>
      <use xlink:href="#DejaVuSans-37" x="896.044922"/>
      <use xlink:href="#DejaVuSans-2c" x="959.667969"/>
      <use xlink:href="#DejaVuSans-20" x="991.455078"/>
      <use xlink:href="#DejaVuSans-39" x="1023.242188"/>
      <use xlink:href="#DejaVuSans-2e" x="1086.865234"/>
      <use xlink:href="#DejaVuSans-39" x="1118.652344"/>
      <use xlink:href="#DejaVuSans-36" x="1182.275391"/>
      <use xlink:href="#DejaVuSans-29" x="1245.898438"/>
     </g>
    </g>
    <g id="line2d_32">
     <g>
      <use xlink:href="#me0a2931ac1" x="60.557842" y="86.947969" style="fill: #ff0000; stroke: #ff0000; stroke-linejoin: miter"/>
     </g>
    </g>
    <g id="text_19">
     <!-- Odom @60s (3.61, 9.60) -->
     <g transform="translate(76.757842 90.097969)scale(0.09 -0.09)">
      <defs>
       <path id="DejaVuSans-33" d="M 2597 2516 
Q 3050 2419 3304 2112 
Q 3559 1806 3559 1356 
Q 3559 666 3084 287 
Q 2609 -91 1734 -91 
Q 1441 -91 1130 -33 
Q 819 25 488 141 
L 488 750 
Q 750 597 1062 519 
Q 1375 441 1716 441 
Q 2309 441 2620 675 
Q 2931 909 2931 1356 
Q 2931 1769 2642 2001 
Q 2353 2234 1838 2234 
L 1294 2234 
L 1294 2753 
L 1863 2753 
Q 2328 2753 2575 2939 
Q 2822 3125 2822 3475 
Q 2822 3834 2567 4026 
Q 2313 4219 1838 4219 
Q 1578 4219 1281 4162 
Q 984 4106 628 3988 
L 628 4550 
Q 988 4650 1302 4700 
Q 1616 4750 1894 4750 
Q 2613 4750 3031 4423 
Q 3450 4097 3450 3541 
Q 3450 3153 3228 2886 
Q 3006 2619 2597 2516 
z
" transform="scale(0.015625)"/>
      </defs>
      <use xlink:href="#DejaVuSans-4f"/>
      <use xlink:href="#DejaVuSans-64" x="78.710938"/>
      <use xlink:href="#DejaVuSans-6f" x="142.1875"/>
      <use xlink:href="#DejaVuSans-6d" x="203.369141"/>
      <use xlink:href="#DejaVuSans-20" x="300.78125"/>
      <use xlink:href="#DejaVuSans-40" x="332.568359"/>
      <use xlink:href="#DejaVuSans-36" x="432.568359"/>
      <use xlink:href="#DejaVuSans-30" x="496.191406"/>
      <use xlink:href="#DejaVuSans-73" x="559.814453"/>
      <use xlink:href="#DejaVuSans-20" x="611.914062"/>
      <use xlink:href="#DejaVuSans-28" x="643.701172"/>
      <use xlink:href="#DejaVuSans-33" x="682.714844"/>
      <use xlink:href="#DejaVuSans-2e" x="746.337891"/>
      <use xlink:href="#DejaVuSans-36" x="778.125"/>
      <use xlink:href="#DejaVuSans-31" x="841.748047"/>
      <use xlink:href="#DejaVuSans-2c" x="905.371094"/>
      <use xlink:href="#DejaVuSans-20" x="937.158203"/>
      <use xlink:href="#DejaVuSans-39" x="968.945312"/>
      <use xlink:href="#DejaVuSans-2e" x="1032.568359"/>
      <use xlink:href="#DejaVuSans-36" x="1064.355469"/>
      <use xlink:href="#DejaVuSans-30" x="1127.978516"/>
      <use xlink:href="#DejaVuSans-29" x="1191.601562"/>
     </g>
    </g>
   </g>
  </g>
 </g>
 <defs>
  <clipPath id="p4892d4f5d2">
   <rect x="43.457842" y="22.318125" width="187.462442" height="364.6"/>
  </clipPath>
 </defs>
</svg>
