<?xml version="1.0" encoding="utf-8" standalone="no"?>
<!DOCTYPE svg PUBLIC "-//W3C//DTD SVG 1.1//EN"
  "http://www.w3.org/Graphics/SVG/1.1/DTD/svg11.dtd">
<svg xmlns:xlink="http://www.w3.org/1999/xlink" width="504pt" height="360pt" viewBox="0 0 504 360" xmlns="http://www.w3.org/2000/svg" version="1.1">
 <metadata>
  <rdf:RDF xmlns:dc="http://purl.org/dc/elements/1.1/" xmlns:cc="http://creativecommons.org/ns#" xmlns:rdf="http://www.w3.org/1999/02/22-rdf-syntax-ns#">
   <cc:Work>
    <dc:type rdf:resource="http://purl.org/dc/dcmitype/StillImage"/>
    <dc:date>2026-05-29T19:56:09.624367</dc:date>
    <dc:format>image/svg+xml</dc:format>
    <dc:creator>
     <cc:Agent>
      <dc:title>Matplotlib v3.5.1, https://matplotlib.org/</dc:title>
     </cc:Agent>
    </dc:creator>
   </cc:Work>
  </rdf:RDF>
 </metadata>
 <defs>
  <style type="text/css">*{stroke-linejoin: round; stroke-linecap: butt}</style>
 </defs>
 <g id="figure_1">
  <g id="patch_1">
   <path d="M 0 360 
L 504 360 
L 504 0 
L 0 0 
z
" style="fill: #ffffff"/>
  </g>
  <g id="axes_1">
   <g id="patch_2">
    <path d="M 61.65875 312.28 
L 493.2 312.28 
L 493.2 28.8375 
L 61.65875 28.8375 
z
" style="fill: #ffffff"/>
   </g>
   <g id="matplotlib.axis_1">
    <g id="xtick_1">
     <g id="line2d_1">
      <path d="M 81.274261 312.28 
L 81.274261 28.8375 
" clip-path="url(#p1c946659be)" style="fill: none; stroke: #b0b0b0; stroke-opacity: 0.3; stroke-width: 0.8; stroke-linecap: square"/>
     </g>
     <g id="line2d_2">
      <defs>
       <path id="maf4729d06d" d="M 0 0 
L 0 3.5 
" style="stroke: #000000; stroke-width: 0.8"/>
      </defs>
      <g>
       <use xlink:href="#maf4729d06d" x="81.274261" y="312.28" style="stroke: #000000; stroke-width: 0.8"/>
      </g>
     </g>
     <g id="text_1">
      <!-- 0 -->
      <g transform="translate(78.489105 327.33)scale(0.1 -0.1)">
       <defs>
        <path id="NotoSerifCJKsc-Regular-30" d="M 1779 -96 
C 2547 -96 3258 602 3258 2342 
C 3258 4058 2547 4755 1779 4755 
C 1011 4755 301 4058 301 2342 
C 301 602 1011 -96 1779 -96 
z
M 1779 102 
C 1299 102 832 640 832 2342 
C 832 4019 1299 4550 1779 4550 
C 2253 4550 2726 4019 2726 2342 
C 2726 640 2253 102 1779 102 
z
" transform="scale(0.015625)"/>
       </defs>
       <use xlink:href="#NotoSerifCJKsc-Regular-30"/>
      </g>
     </g>
    </g>
    <g id="xtick_2">
     <g id="line2d_3">
      <path d="M 179.351818 312.28 
L 179.351818 28.8375 
" clip-path="url(#p1c946659be)" style="fill: none; stroke: #b0b0b0; stroke-opacity: 0.3; stroke-width: 0.8; stroke-linecap: square"/>
     </g>
     <g id="line2d_4">
      <g>
       <use xlink:href="#maf4729d06d" x="179.351818" y="312.28" style="stroke: #000000; stroke-width: 0.8"/>
      </g>
     </g>
     <g id="text_2">
      <!-- 50 -->
      <g transform="translate(173.776818 327.33)scale(0.1 -0.1)">
       <defs>
        <path id="NotoSerifCJKsc-Regular-35" d="M 1574 -96 
C 2573 -96 3213 499 3213 1408 
C 3213 2317 2624 2803 1709 2803 
C 1421 2803 1158 2765 902 2656 
L 1005 4211 
L 3091 4211 
L 3091 4659 
L 800 4659 
L 653 2458 
L 813 2394 
C 1037 2496 1286 2547 1562 2547 
C 2221 2547 2650 2176 2650 1382 
C 2650 563 2234 102 1498 102 
C 1293 102 1146 134 998 198 
L 845 691 
C 794 922 710 1005 550 1005 
C 429 1005 326 941 282 819 
C 397 230 883 -96 1574 -96 
z
" transform="scale(0.015625)"/>
       </defs>
       <use xlink:href="#NotoSerifCJKsc-Regular-35"/>
       <use xlink:href="#NotoSerifCJKsc-Regular-30" x="55.799988"/>
      </g>
     </g>
    </g>
    <g id="xtick_3">
     <g id="line2d_5">
      <path d="M 277.429375 312.28 
L 277.429375 28.8375 
" clip-path="url(#p1c946659be)" style="fill: none; stroke: #b0b0b0; stroke-opacity: 0.3; stroke-width: 0.8; stroke-linecap: square"/>
     </g>
     <g id="line2d_6">
      <g>
       <use xlink:href="#maf4729d06d" x="277.429375" y="312.28" style="stroke: #000000; stroke-width: 0.8"/>
      </g>
     </g>
     <g id="text_3">
      <!-- 100 -->
      <g transform="translate(269.504375 327.33)scale(0.1 -0.1)">
       <defs>
        <path id="NotoSerifCJKsc-Regular-31" d="M 480 0 
L 2733 -6 
L 2733 173 
L 1907 269 
L 1894 1472 
L 1894 3642 
L 1920 4653 
L 1824 4723 
L 448 4371 
L 448 4179 
L 1370 4333 
L 1370 1472 
L 1357 269 
L 480 179 
L 480 0 
z
" transform="scale(0.015625)"/>
       </defs>
       <use xlink:href="#NotoSerifCJKsc-Regular-31"/>
       <use xlink:href="#NotoSerifCJKsc-Regular-30" x="47.099991"/>
       <use xlink:href="#NotoSerifCJKsc-Regular-30" x="102.799988"/>
      </g>
     </g>
    </g>
    <g id="xtick_4">
     <g id="line2d_7">
      <path d="M 375.506932 312.28 
L 375.506932 28.8375 
" clip-path="url(#p1c946659be)" style="fill: none; stroke: #b0b0b0; stroke-opacity: 0.3; stroke-width: 0.8; stroke-linecap: square"/>
     </g>
     <g id="line2d_8">
      <g>
       <use xlink:href="#maf4729d06d" x="375.506932" y="312.28" style="stroke: #000000; stroke-width: 0.8"/>
      </g>
     </g>
     <g id="text_4">
      <!-- 150 -->
      <g transform="translate(367.577244 327.33)scale(0.1 -0.1)">
       <use xlink:href="#NotoSerifCJKsc-Regular-31"/>
       <use xlink:href="#NotoSerifCJKsc-Regular-35" x="47.099991"/>
       <use xlink:href="#NotoSerifCJKsc-Regular-30" x="102.899979"/>
      </g>
     </g>
    </g>
    <g id="xtick_5">
     <g id="line2d_9">
      <path d="M 473.584489 312.28 
L 473.584489 28.8375 
" clip-path="url(#p1c946659be)" style="fill: none; stroke: #b0b0b0; stroke-opacity: 0.3; stroke-width: 0.8; stroke-linecap: square"/>
     </g>
     <g id="line2d_10">
      <g>
       <use xlink:href="#maf4729d06d" x="473.584489" y="312.28" style="stroke: #000000; stroke-width: 0.8"/>
      </g>
     </g>
     <g id="text_5">
      <!-- 200 -->
      <g transform="translate(465.224332 327.33)scale(0.1 -0.1)">
       <defs>
        <path id="NotoSerifCJKsc-Regular-32" d="M 410 0 
L 3270 0 
L 3270 448 
L 762 448 
C 1152 877 1530 1293 1715 1485 
C 2688 2483 3078 2950 3078 3539 
C 3078 4294 2637 4755 1779 4755 
C 1126 4755 512 4422 410 3770 
C 448 3642 550 3571 672 3571 
C 819 3571 922 3654 986 3904 
L 1139 4461 
C 1306 4531 1466 4557 1626 4557 
C 2195 4557 2534 4192 2534 3552 
C 2534 2989 2253 2541 1574 1722 
C 1261 1350 832 845 410 346 
L 410 0 
z
" transform="scale(0.015625)"/>
       </defs>
       <use xlink:href="#NotoSerifCJKsc-Regular-32"/>
       <use xlink:href="#NotoSerifCJKsc-Regular-30" x="55.799988"/>
       <use xlink:href="#NotoSerifCJKsc-Regular-30" x="111.499985"/>
      </g>
     </g>
    </g>
    <g id="text_6">
     <!-- 时间 (s) -->
     <g transform="translate(254.958672 344.395)scale(0.13 -0.13)">
      <defs>
       <path id="NotoSerifCJKsc-Regular-65f6" d="M 2880 2861 
L 2803 2816 
C 3149 2426 3526 1805 3546 1286 
C 4006 870 4442 2035 2880 2861 
z
M 1907 1069 
L 922 1069 
L 922 2733 
L 1907 2733 
L 1907 1069 
z
M 525 4992 
L 525 13 
L 582 13 
C 794 13 922 128 922 160 
L 922 877 
L 1907 877 
L 1907 326 
L 1971 326 
C 2112 326 2304 429 2310 474 
L 2310 4518 
C 2438 4544 2547 4589 2592 4640 
L 2080 5043 
L 1843 4781 
L 998 4781 
L 525 4992 
z
M 1907 2925 
L 922 2925 
L 922 4589 
L 1907 4589 
L 1907 2925 
z
M 5664 4211 
L 5363 3802 
L 5069 3802 
L 5069 5043 
C 5229 5062 5293 5120 5306 5216 
L 4646 5286 
L 4646 3802 
L 2464 3802 
L 2515 3610 
L 4646 3610 
L 4646 179 
C 4646 64 4602 26 4461 26 
C 4301 26 3456 83 3456 83 
L 3456 -13 
C 3821 -58 4013 -115 4134 -192 
C 4243 -256 4288 -365 4314 -499 
C 4992 -435 5069 -198 5069 147 
L 5069 3610 
L 6048 3610 
C 6138 3610 6195 3642 6214 3712 
C 6016 3923 5664 4211 5664 4211 
z
" transform="scale(0.015625)"/>
       <path id="NotoSerifCJKsc-Regular-95f4" d="M 1133 5402 
L 1062 5350 
C 1344 5069 1702 4595 1818 4237 
C 2278 3936 2586 4870 1133 5402 
z
M 1382 4461 
L 736 4531 
L 736 -499 
L 813 -499 
C 973 -499 1146 -410 1146 -346 
L 1146 4282 
C 1312 4307 1363 4365 1382 4461 
z
M 3987 1139 
L 2381 1139 
L 2381 2240 
L 3987 2240 
L 3987 1139 
z
M 1984 3827 
L 1984 326 
L 2048 326 
C 2253 326 2381 442 2381 474 
L 2381 947 
L 3987 947 
L 3987 442 
L 4051 442 
C 4198 442 4384 550 4390 595 
L 4390 3392 
C 4499 3411 4589 3456 4621 3494 
L 4154 3866 
L 3930 3629 
L 2445 3629 
L 1984 3827 
z
M 3987 3437 
L 3987 2432 
L 2381 2432 
L 2381 3437 
L 3987 3437 
z
M 5210 4826 
L 2483 4826 
L 2541 4634 
L 5274 4634 
L 5274 198 
C 5274 90 5235 45 5101 45 
C 4960 45 4211 109 4211 109 
L 4211 0 
C 4531 -38 4710 -90 4819 -166 
C 4915 -230 4960 -346 4979 -474 
C 5606 -410 5683 -186 5683 147 
L 5683 4557 
C 5811 4582 5920 4634 5965 4685 
L 5421 5094 
L 5210 4826 
z
" transform="scale(0.015625)"/>
       <path id="NotoSerifCJKsc-Regular-20" transform="scale(0.015625)"/>
       <path id="NotoSerifCJKsc-Regular-28" d="M 1043 1933 
C 1043 3130 1293 3968 2144 5139 
L 2022 5242 
C 1050 4250 589 3219 589 1933 
C 589 653 1050 -378 2022 -1376 
L 2144 -1267 
C 1306 -102 1043 742 1043 1933 
z
" transform="scale(0.015625)"/>
       <path id="NotoSerifCJKsc-Regular-73" d="M 1414 -96 
C 2285 -96 2733 339 2733 896 
C 2733 1344 2483 1632 1837 1856 
L 1510 1971 
C 1043 2131 858 2304 858 2611 
C 858 2950 1107 3187 1594 3187 
C 1798 3187 1978 3142 2170 3034 
L 2298 2426 
L 2554 2426 
L 2573 3110 
C 2253 3302 1978 3398 1594 3398 
C 826 3398 397 2982 397 2445 
C 397 1965 723 1690 1242 1504 
L 1574 1382 
C 2093 1216 2253 1037 2253 723 
C 2253 358 1965 109 1402 109 
C 1133 109 934 154 755 237 
L 627 922 
L 346 922 
L 346 160 
C 691 -6 1005 -96 1414 -96 
z
" transform="scale(0.015625)"/>
       <path id="NotoSerifCJKsc-Regular-29" d="M 1299 1933 
C 1299 742 1043 -96 192 -1267 
L 314 -1376 
C 1280 -384 1747 653 1747 1933 
C 1747 3219 1280 4250 314 5242 
L 192 5139 
C 1024 3974 1299 3130 1299 1933 
z
" transform="scale(0.015625)"/>
      </defs>
      <use xlink:href="#NotoSerifCJKsc-Regular-65f6"/>
      <use xlink:href="#NotoSerifCJKsc-Regular-95f4" x="99.999985"/>
      <use xlink:href="#NotoSerifCJKsc-Regular-20" x="199.999969"/>
      <use xlink:href="#NotoSerifCJKsc-Regular-28" x="225.59996"/>
      <use xlink:href="#NotoSerifCJKsc-Regular-73" x="261.999954"/>
      <use xlink:href="#NotoSerifCJKsc-Regular-29" x="309.299942"/>
     </g>
    </g>
   </g>
   <g id="matplotlib.axis_2">
    <g id="ytick_1">
     <g id="line2d_11">
      <path d="M 61.65875 292.238611 
L 493.2 292.238611 
" clip-path="url(#p1c946659be)" style="fill: none; stroke: #b0b0b0; stroke-opacity: 0.3; stroke-width: 0.8; stroke-linecap: square"/>
     </g>
     <g id="line2d_12">
      <defs>
       <path id="m41967cbeeb" d="M 0 0 
L -3.5 0 
" style="stroke: #000000; stroke-width: 0.8"/>
      </defs>
      <g>
       <use xlink:href="#m41967cbeeb" x="61.65875" y="292.238611" style="stroke: #000000; stroke-width: 0.8"/>
      </g>
     </g>
     <g id="text_7">
      <!-- 0.005 -->
      <g transform="translate(29.097813 296.263611)scale(0.1 -0.1)">
       <defs>
        <path id="NotoSerifCJKsc-Regular-2e" d="M 1043 -96 
C 1267 -96 1440 90 1440 294 
C 1440 518 1267 691 1043 691 
C 813 691 653 518 653 294 
C 653 90 813 -96 1043 -96 
z
" transform="scale(0.015625)"/>
       </defs>
       <use xlink:href="#NotoSerifCJKsc-Regular-30"/>
       <use xlink:href="#NotoSerifCJKsc-Regular-2e" x="55.699997"/>
       <use xlink:href="#NotoSerifCJKsc-Regular-30" x="88.399994"/>
       <use xlink:href="#NotoSerifCJKsc-Regular-30" x="144.099991"/>
       <use xlink:href="#NotoSerifCJKsc-Regular-35" x="199.799988"/>
      </g>
     </g>
    </g>
    <g id="ytick_2">
     <g id="line2d_13">
      <path d="M 61.65875 256.450417 
L 493.2 256.450417 
" clip-path="url(#p1c946659be)" style="fill: none; stroke: #b0b0b0; stroke-opacity: 0.3; stroke-width: 0.8; stroke-linecap: square"/>
     </g>
     <g id="line2d_14">
      <g>
       <use xlink:href="#m41967cbeeb" x="61.65875" y="256.450417" style="stroke: #000000; stroke-width: 0.8"/>
      </g>
     </g>
     <g id="text_8">
      <!-- 0.010 -->
      <g transform="translate(29.968125 260.475417)scale(0.1 -0.1)">
       <use xlink:href="#NotoSerifCJKsc-Regular-30"/>
       <use xlink:href="#NotoSerifCJKsc-Regular-2e" x="55.699997"/>
       <use xlink:href="#NotoSerifCJKsc-Regular-30" x="88.399994"/>
       <use xlink:href="#NotoSerifCJKsc-Regular-31" x="144.099991"/>
       <use xlink:href="#NotoSerifCJKsc-Regular-30" x="191.199982"/>
      </g>
     </g>
    </g>
    <g id="ytick_3">
     <g id="line2d_15">
      <path d="M 61.65875 220.662222 
L 493.2 220.662222 
" clip-path="url(#p1c946659be)" style="fill: none; stroke: #b0b0b0; stroke-opacity: 0.3; stroke-width: 0.8; stroke-linecap: square"/>
     </g>
     <g id="line2d_16">
      <g>
       <use xlink:href="#m41967cbeeb" x="61.65875" y="220.662222" style="stroke: #000000; stroke-width: 0.8"/>
      </g>
     </g>
     <g id="text_9">
      <!-- 0.015 -->
      <g transform="translate(29.95875 224.687222)scale(0.1 -0.1)">
       <use xlink:href="#NotoSerifCJKsc-Regular-30"/>
       <use xlink:href="#NotoSerifCJKsc-Regular-2e" x="55.699997"/>
       <use xlink:href="#NotoSerifCJKsc-Regular-30" x="88.399994"/>
       <use xlink:href="#NotoSerifCJKsc-Regular-31" x="144.099991"/>
       <use xlink:href="#NotoSerifCJKsc-Regular-35" x="191.199982"/>
      </g>
     </g>
    </g>
    <g id="ytick_4">
     <g id="line2d_17">
      <path d="M 61.65875 184.874028 
L 493.2 184.874028 
" clip-path="url(#p1c946659be)" style="fill: none; stroke: #b0b0b0; stroke-opacity: 0.3; stroke-width: 0.8; stroke-linecap: square"/>
     </g>
     <g id="line2d_18">
      <g>
       <use xlink:href="#m41967cbeeb" x="61.65875" y="184.874028" style="stroke: #000000; stroke-width: 0.8"/>
      </g>
     </g>
     <g id="text_10">
      <!-- 0.020 -->
      <g transform="translate(29.097813 188.899028)scale(0.1 -0.1)">
       <use xlink:href="#NotoSerifCJKsc-Regular-30"/>
       <use xlink:href="#NotoSerifCJKsc-Regular-2e" x="55.699997"/>
       <use xlink:href="#NotoSerifCJKsc-Regular-30" x="88.399994"/>
       <use xlink:href="#NotoSerifCJKsc-Regular-32" x="144.099991"/>
       <use xlink:href="#NotoSerifCJKsc-Regular-30" x="199.899979"/>
      </g>
     </g>
    </g>
    <g id="ytick_5">
     <g id="line2d_19">
      <path d="M 61.65875 149.085833 
L 493.2 149.085833 
" clip-path="url(#p1c946659be)" style="fill: none; stroke: #b0b0b0; stroke-opacity: 0.3; stroke-width: 0.8; stroke-linecap: square"/>
     </g>
     <g id="line2d_20">
      <g>
       <use xlink:href="#m41967cbeeb" x="61.65875" y="149.085833" style="stroke: #000000; stroke-width: 0.8"/>
      </g>
     </g>
     <g id="text_11">
      <!-- 0.025 -->
      <g transform="translate(29.088438 153.110833)scale(0.1 -0.1)">
       <use xlink:href="#NotoSerifCJKsc-Regular-30"/>
       <use xlink:href="#NotoSerifCJKsc-Regular-2e" x="55.699997"/>
       <use xlink:href="#NotoSerifCJKsc-Regular-30" x="88.399994"/>
       <use xlink:href="#NotoSerifCJKsc-Regular-32" x="144.099991"/>
       <use xlink:href="#NotoSerifCJKsc-Regular-35" x="199.899979"/>
      </g>
     </g>
    </g>
    <g id="ytick_6">
     <g id="line2d_21">
      <path d="M 61.65875 113.297639 
L 493.2 113.297639 
" clip-path="url(#p1c946659be)" style="fill: none; stroke: #b0b0b0; stroke-opacity: 0.3; stroke-width: 0.8; stroke-linecap: square"/>
     </g>
     <g id="line2d_22">
      <g>
       <use xlink:href="#m41967cbeeb" x="61.65875" y="113.297639" style="stroke: #000000; stroke-width: 0.8"/>
      </g>
     </g>
     <g id="text_12">
      <!-- 0.030 -->
      <g transform="translate(29.107188 117.322639)scale(0.1 -0.1)">
       <defs>
        <path id="NotoSerifCJKsc-Regular-33" d="M 1638 -96 
C 2534 -96 3155 416 3155 1203 
C 3155 1875 2778 2342 1952 2458 
C 2662 2618 3021 3085 3021 3629 
C 3021 4301 2547 4755 1728 4755 
C 1120 4755 550 4499 442 3866 
C 480 3757 576 3706 685 3706 
C 845 3706 941 3776 998 3994 
L 1146 4486 
C 1306 4538 1453 4557 1606 4557 
C 2163 4557 2477 4205 2477 3610 
C 2477 2925 2035 2554 1414 2554 
L 1158 2554 
L 1158 2330 
L 1446 2330 
C 2214 2330 2611 1926 2611 1222 
C 2611 544 2202 102 1491 102 
C 1312 102 1158 134 1018 186 
L 864 685 
C 806 922 717 1011 563 1011 
C 442 1011 346 941 301 813 
C 429 218 909 -96 1638 -96 
z
" transform="scale(0.015625)"/>
       </defs>
       <use xlink:href="#NotoSerifCJKsc-Regular-30"/>
       <use xlink:href="#NotoSerifCJKsc-Regular-2e" x="55.699997"/>
       <use xlink:href="#NotoSerifCJKsc-Regular-30" x="88.399994"/>
       <use xlink:href="#NotoSerifCJKsc-Regular-33" x="144.099991"/>
       <use xlink:href="#NotoSerifCJKsc-Regular-30" x="199.799988"/>
      </g>
     </g>
    </g>
    <g id="ytick_7">
     <g id="line2d_23">
      <path d="M 61.65875 77.509444 
L 493.2 77.509444 
" clip-path="url(#p1c946659be)" style="fill: none; stroke: #b0b0b0; stroke-opacity: 0.3; stroke-width: 0.8; stroke-linecap: square"/>
     </g>
     <g id="line2d_24">
      <g>
       <use xlink:href="#m41967cbeeb" x="61.65875" y="77.509444" style="stroke: #000000; stroke-width: 0.8"/>
      </g>
     </g>
     <g id="text_13">
      <!-- 0.035 -->
      <g transform="translate(29.097813 81.534444)scale(0.1 -0.1)">
       <use xlink:href="#NotoSerifCJKsc-Regular-30"/>
       <use xlink:href="#NotoSerifCJKsc-Regular-2e" x="55.699997"/>
       <use xlink:href="#NotoSerifCJKsc-Regular-30" x="88.399994"/>
       <use xlink:href="#NotoSerifCJKsc-Regular-33" x="144.099991"/>
       <use xlink:href="#NotoSerifCJKsc-Regular-35" x="199.799988"/>
      </g>
     </g>
    </g>
    <g id="ytick_8">
     <g id="line2d_25">
      <path d="M 61.65875 41.72125 
L 493.2 41.72125 
" clip-path="url(#p1c946659be)" style="fill: none; stroke: #b0b0b0; stroke-opacity: 0.3; stroke-width: 0.8; stroke-linecap: square"/>
     </g>
     <g id="line2d_26">
      <g>
       <use xlink:href="#m41967cbeeb" x="61.65875" y="41.72125" style="stroke: #000000; stroke-width: 0.8"/>
      </g>
     </g>
     <g id="text_14">
      <!-- 0.040 -->
      <g transform="translate(29.1275 45.74625)scale(0.1 -0.1)">
       <defs>
        <path id="NotoSerifCJKsc-Regular-34" d="M 2170 -115 
L 2650 -115 
L 2650 1229 
L 3418 1229 
L 3418 1600 
L 2650 1600 
L 2650 4730 
L 2291 4730 
L 218 1530 
L 218 1229 
L 2170 1229 
L 2170 -115 
z
M 493 1600 
L 1389 2989 
L 2170 4211 
L 2170 1600 
L 493 1600 
z
" transform="scale(0.015625)"/>
       </defs>
       <use xlink:href="#NotoSerifCJKsc-Regular-30"/>
       <use xlink:href="#NotoSerifCJKsc-Regular-2e" x="55.699997"/>
       <use xlink:href="#NotoSerifCJKsc-Regular-30" x="88.399994"/>
       <use xlink:href="#NotoSerifCJKsc-Regular-34" x="144.099991"/>
       <use xlink:href="#NotoSerifCJKsc-Regular-30" x="199.599976"/>
      </g>
     </g>
    </g>
    <g id="text_15">
     <!-- 发布延迟 (ms) -->
     <g transform="translate(21.708438 212.360859)rotate(-90)scale(0.13 -0.13)">
      <defs>
       <path id="NotoSerifCJKsc-Regular-53d1" d="M 3994 5178 
L 3930 5126 
C 4218 4864 4595 4416 4704 4064 
C 5171 3750 5498 4704 3994 5178 
z
M 5510 4038 
L 5197 3654 
L 2829 3654 
C 2957 4134 3053 4634 3123 5126 
C 3264 5133 3347 5184 3373 5286 
L 2688 5414 
C 2624 4826 2528 4230 2387 3654 
L 1261 3654 
C 1389 3974 1549 4410 1638 4685 
C 1786 4659 1862 4710 1894 4787 
L 1254 5018 
C 1171 4717 979 4134 826 3750 
C 723 3718 614 3674 544 3629 
L 1024 3245 
L 1242 3462 
L 2336 3462 
C 1958 2042 1293 736 192 -128 
L 275 -192 
C 1235 403 1882 1254 2330 2234 
C 2496 1728 2778 1210 3328 730 
C 2733 230 1958 -147 992 -403 
L 1043 -512 
C 2118 -307 2944 45 3584 525 
C 4083 160 4762 -179 5696 -467 
C 5747 -237 5914 -166 6144 -141 
L 6157 -70 
C 5178 166 4442 454 3891 774 
C 4397 1235 4762 1792 5030 2438 
C 5184 2451 5254 2458 5306 2515 
L 4845 2957 
L 4550 2694 
L 2522 2694 
C 2618 2944 2701 3200 2778 3462 
L 5907 3462 
C 5990 3462 6054 3494 6074 3565 
C 5862 3770 5510 4038 5510 4038 
z
M 2445 2502 
L 4557 2502 
C 4339 1914 4019 1402 3584 966 
C 2925 1414 2586 1914 2413 2413 
L 2445 2502 
z
" transform="scale(0.015625)"/>
       <path id="NotoSerifCJKsc-Regular-5e03" d="M 3270 3789 
L 3270 2835 
L 2118 2835 
L 1901 2931 
C 2176 3296 2406 3686 2598 4070 
L 5939 4070 
C 6029 4070 6099 4102 6118 4173 
C 5888 4378 5517 4666 5517 4666 
L 5190 4256 
L 2688 4256 
C 2816 4538 2925 4813 3014 5075 
C 3187 5069 3245 5107 3270 5184 
L 2592 5389 
C 2502 5024 2374 4640 2214 4256 
L 333 4256 
L 384 4070 
L 2131 4070 
C 1709 3117 1069 2176 224 1510 
L 288 1440 
C 813 1760 1254 2157 1632 2598 
L 1632 -38 
L 1702 -38 
C 1901 -38 2035 70 2035 109 
L 2035 2650 
L 3270 2650 
L 3270 -506 
L 3354 -506 
C 3507 -506 3686 -410 3686 -352 
L 3686 2650 
L 4986 2650 
L 4986 653 
C 4986 557 4954 518 4832 518 
C 4698 518 4064 570 4064 570 
L 4064 461 
C 4346 429 4506 371 4602 301 
C 4678 237 4717 122 4736 -13 
C 5331 51 5395 269 5395 595 
L 5395 2573 
C 5523 2598 5632 2650 5670 2701 
L 5133 3098 
L 4922 2835 
L 3686 2835 
L 3686 3565 
C 3827 3590 3878 3642 3898 3725 
L 3270 3789 
z
" transform="scale(0.015625)"/>
       <path id="NotoSerifCJKsc-Regular-5ef6" d="M 5875 4877 
L 5389 5312 
C 4755 5011 3507 4640 2477 4474 
L 2502 4358 
C 3021 4390 3558 4461 4064 4544 
L 4064 1203 
L 3258 1203 
L 3258 3386 
C 3411 3411 3482 3469 3494 3558 
L 2867 3629 
L 2867 1222 
C 2797 1184 2726 1133 2688 1094 
L 3149 781 
L 3296 1011 
L 5965 1011 
C 6054 1011 6112 1043 6131 1114 
C 5914 1325 5568 1606 5568 1606 
L 5261 1203 
L 4474 1203 
L 4474 2944 
L 5741 2944 
C 5830 2944 5894 2976 5907 3046 
C 5715 3251 5370 3526 5370 3526 
L 5082 3136 
L 4474 3136 
L 4474 4621 
C 4877 4704 5248 4794 5555 4883 
C 5709 4819 5818 4819 5875 4877 
z
M 563 2272 
L 467 2221 
C 672 1568 915 1075 1216 710 
C 986 288 659 -83 224 -390 
L 288 -480 
C 781 -218 1146 115 1421 493 
C 2112 -166 3091 -320 4538 -320 
C 4870 -320 5581 -320 5888 -320 
C 5894 -141 5997 -13 6182 19 
L 6182 102 
C 5760 96 4954 96 4582 96 
C 3219 96 2259 205 1574 717 
C 1933 1306 2106 1990 2214 2694 
C 2349 2701 2413 2720 2458 2778 
L 2010 3174 
L 1766 2925 
L 1146 2925 
C 1402 3392 1754 4070 1946 4480 
C 2093 4486 2221 4518 2278 4576 
L 1792 5005 
L 1555 4768 
L 307 4768 
L 365 4576 
L 1549 4576 
C 1350 4115 1005 3430 762 3002 
C 678 2976 582 2938 525 2899 
L 915 2579 
L 1094 2739 
L 1805 2739 
C 1728 2093 1594 1478 1331 928 
C 1018 1248 768 1683 563 2272 
z
" transform="scale(0.015625)"/>
       <path id="NotoSerifCJKsc-Regular-8fdf" d="M 3757 2675 
L 3674 2611 
C 4301 2086 5184 1197 5491 608 
C 6048 275 6227 1427 3757 2675 
z
M 685 5254 
L 608 5210 
C 902 4858 1299 4301 1414 3885 
C 1875 3558 2195 4512 685 5254 
z
M 3117 3194 
L 3117 3418 
L 3117 4685 
L 5101 4685 
L 5101 3194 
L 3117 3194 
z
M 2707 4941 
L 2707 3418 
C 2707 2451 2630 1478 1990 710 
L 2074 634 
C 2899 1274 3078 2189 3110 3008 
L 5101 3008 
L 5101 2630 
L 5165 2630 
C 5299 2630 5504 2726 5510 2765 
L 5510 4608 
C 5645 4634 5747 4685 5792 4736 
L 5267 5133 
L 5037 4877 
L 3200 4877 
L 2707 5107 
L 2707 4941 
z
M 1178 870 
C 896 672 442 294 141 90 
L 518 -416 
C 570 -371 582 -314 563 -262 
C 794 58 1190 531 1338 730 
C 1408 813 1472 819 1555 730 
C 2150 -51 2778 -282 4006 -282 
C 4691 -282 5286 -282 5882 -282 
C 5901 -90 6010 45 6208 90 
L 6208 166 
C 5453 134 4864 134 4134 134 
C 2931 134 2240 262 1645 902 
C 1619 928 1600 954 1574 960 
L 1574 2982 
C 1747 3008 1837 3053 1882 3104 
L 1331 3558 
L 1088 3232 
L 211 3232 
L 250 3046 
L 1178 3046 
L 1178 870 
z
" transform="scale(0.015625)"/>
       <path id="NotoSerifCJKsc-Regular-6d" d="M 4979 0 
L 6022 0 
L 6022 179 
L 5536 230 
L 5523 1466 
L 5523 2195 
C 5523 3053 5203 3398 4614 3398 
C 4173 3398 3763 3181 3373 2707 
C 3264 3194 2982 3398 2554 3398 
C 2118 3398 1722 3162 1331 2707 
L 1299 3328 
L 1216 3379 
L 230 3123 
L 230 2963 
L 794 2931 
C 806 2611 813 2291 813 1856 
L 813 1466 
L 800 230 
L 269 179 
L 269 0 
L 1837 0 
L 1837 179 
L 1350 230 
L 1338 1466 
L 1338 2490 
C 1728 2899 2061 3053 2355 3053 
C 2701 3053 2912 2816 2912 2189 
L 2912 1466 
L 2899 230 
L 2368 179 
L 2368 0 
L 3930 0 
L 3930 179 
L 3437 230 
L 3424 1466 
L 3424 2189 
C 3424 2304 3418 2413 3405 2515 
C 3789 2918 4134 3053 4422 3053 
C 4787 3053 5005 2842 5005 2189 
L 5005 1466 
C 5005 1107 4998 589 4992 230 
L 4467 179 
L 4467 0 
L 4979 0 
z
" transform="scale(0.015625)"/>
      </defs>
      <use xlink:href="#NotoSerifCJKsc-Regular-53d1"/>
      <use xlink:href="#NotoSerifCJKsc-Regular-5e03" x="99.999985"/>
      <use xlink:href="#NotoSerifCJKsc-Regular-5ef6" x="199.999969"/>
      <use xlink:href="#NotoSerifCJKsc-Regular-8fdf" x="299.999954"/>
      <use xlink:href="#NotoSerifCJKsc-Regular-20" x="399.999939"/>
      <use xlink:href="#NotoSerifCJKsc-Regular-28" x="425.59993"/>
      <use xlink:href="#NotoSerifCJKsc-Regular-6d" x="461.999924"/>
      <use xlink:href="#NotoSerifCJKsc-Regular-73" x="559.399918"/>
      <use xlink:href="#NotoSerifCJKsc-Regular-29" x="606.699905"/>
     </g>
    </g>
   </g>
   <g id="line2d_27">
    <path d="M 81.274261 41.72125 
L 134.236142 41.72125 
L 136.197693 48.878889 
L 142.082347 48.878889 
L 144.043898 56.036528 
L 149.928551 56.036528 
L 151.890102 63.194167 
L 161.697858 63.194167 
L 163.659409 70.351806 
L 179.351818 70.351806 
L 181.313369 77.509444 
L 204.851983 77.509444 
L 206.813534 84.667083 
L 214.659739 84.667083 
L 216.62129 77.509444 
L 240.159903 77.509444 
L 242.121455 70.351806 
L 351.968318 70.351806 
L 353.929869 63.194167 
L 420.622608 63.194167 
L 422.584159 56.036528 
L 473.584489 56.036528 
L 473.584489 56.036528 
" clip-path="url(#p1c946659be)" style="fill: none; stroke: #e74c3c; stroke-width: 1.5; stroke-linecap: square"/>
   </g>
   <g id="line2d_28">
    <path d="M 81.274261 292.238611 
L 165.62096 292.238611 
L 167.582511 299.39625 
L 473.584489 299.39625 
L 473.584489 299.39625 
" clip-path="url(#p1c946659be)" style="fill: none; stroke: #3498db; stroke-width: 1.5; stroke-linecap: square"/>
   </g>
   <g id="line2d_29">
    <path d="M 61.65875 63.550268 
L 493.2 63.550268 
" clip-path="url(#p1c946659be)" style="fill: none; stroke-dasharray: 5.55,2.4; stroke-dashoffset: 0; stroke: #e74c3c; stroke-opacity: 0.5; stroke-width: 1.5"/>
   </g>
   <g id="line2d_30">
    <path d="M 61.65875 297.829404 
L 493.2 297.829404 
" clip-path="url(#p1c946659be)" style="fill: none; stroke-dasharray: 5.55,2.4; stroke-dashoffset: 0; stroke: #3498db; stroke-opacity: 0.5; stroke-width: 1.5"/>
   </g>
   <g id="patch_3">
    <path d="M 61.65875 312.28 
L 61.65875 28.8375 
" style="fill: none; stroke: #000000; stroke-width: 0.8; stroke-linejoin: miter; stroke-linecap: square"/>
   </g>
   <g id="patch_4">
    <path d="M 493.2 312.28 
L 493.2 28.8375 
" style="fill: none; stroke: #000000; stroke-width: 0.8; stroke-linejoin: miter; stroke-linecap: square"/>
   </g>
   <g id="patch_5">
    <path d="M 61.65875 312.28 
L 493.2 312.28 
" style="fill: none; stroke: #000000; stroke-width: 0.8; stroke-linejoin: miter; stroke-linecap: square"/>
   </g>
   <g id="patch_6">
    <path d="M 61.65875 28.8375 
L 493.2 28.8375 
" style="fill: none; stroke: #000000; stroke-width: 0.8; stroke-linejoin: miter; stroke-linecap: square"/>
   </g>
   <g id="text_16">
    <!-- 平均发布延迟 0.037 ms -->
    <g style="fill: #e74c3c" transform="translate(351.968318 56.392629)scale(0.1 -0.1)">
     <defs>
      <path id="NotoSerifCJKsc-Regular-5e73" d="M 1254 4288 
L 1165 4250 
C 1446 3802 1779 3110 1818 2579 
C 2272 2150 2682 3251 1254 4288 
z
M 4800 4301 
C 4563 3648 4243 2931 3981 2490 
L 4070 2426 
C 4467 2803 4883 3373 5203 3936 
C 5338 3923 5414 3981 5440 4045 
L 4800 4301 
z
M 608 4877 
L 659 4691 
L 2989 4691 
L 2989 2074 
L 269 2074 
L 326 1888 
L 2989 1888 
L 2989 -506 
L 3053 -506 
C 3270 -506 3411 -397 3411 -358 
L 3411 1888 
L 5958 1888 
C 6054 1888 6118 1920 6131 1984 
C 5901 2195 5530 2477 5530 2477 
L 5197 2074 
L 3411 2074 
L 3411 4691 
L 5683 4691 
C 5766 4691 5830 4723 5850 4794 
C 5619 4998 5248 5280 5248 5280 
L 4915 4877 
L 608 4877 
z
" transform="scale(0.015625)"/>
      <path id="NotoSerifCJKsc-Regular-5747" d="M 3168 3430 
L 3104 3366 
C 3494 3098 4038 2624 4243 2272 
C 4736 2035 4909 2989 3168 3430 
z
M 2528 1197 
L 2848 659 
C 2906 691 2957 755 2970 832 
C 3872 1318 4531 1722 5005 2003 
L 4973 2093 
C 3955 1696 2944 1318 2528 1197 
z
M 3840 5171 
L 3187 5357 
C 2970 4429 2541 3430 2061 2842 
L 2157 2784 
C 2528 3098 2854 3526 3123 4000 
L 5542 4000 
C 5453 1978 5274 403 4973 147 
C 4883 64 4832 45 4685 45 
C 4525 45 3994 96 3674 134 
L 3667 13 
C 3949 -32 4262 -109 4371 -186 
C 4474 -256 4499 -365 4499 -499 
C 4832 -506 5094 -403 5299 -179 
C 5651 211 5862 1786 5946 3955 
C 6086 3962 6170 4000 6221 4051 
L 5728 4467 
L 5478 4192 
L 3226 4192 
C 3373 4474 3501 4762 3603 5043 
C 3738 5043 3814 5101 3840 5171 
z
M 1933 3962 
L 1664 3584 
L 1523 3584 
L 1523 5018 
C 1690 5037 1741 5094 1760 5184 
L 1114 5254 
L 1114 3584 
L 256 3584 
L 307 3398 
L 1114 3398 
L 1114 1178 
C 742 1075 435 992 250 954 
L 538 403 
C 602 429 653 486 672 570 
C 1549 960 2195 1286 2643 1523 
L 2618 1606 
L 1523 1293 
L 1523 3398 
L 2259 3398 
C 2349 3398 2406 3430 2426 3501 
C 2246 3693 1933 3962 1933 3962 
z
" transform="scale(0.015625)"/>
      <path id="NotoSerifCJKsc-Regular-37" d="M 986 0 
L 1453 0 
L 3123 4371 
L 3123 4659 
L 352 4659 
L 352 4211 
L 2829 4211 
L 934 45 
L 986 0 
z
" transform="scale(0.015625)"/>
     </defs>
     <use xlink:href="#NotoSerifCJKsc-Regular-5e73"/>
     <use xlink:href="#NotoSerifCJKsc-Regular-5747" x="99.999985"/>
     <use xlink:href="#NotoSerifCJKsc-Regular-53d1" x="199.999969"/>
     <use xlink:href="#NotoSerifCJKsc-Regular-5e03" x="299.999954"/>
     <use xlink:href="#NotoSerifCJKsc-Regular-5ef6" x="399.999939"/>
     <use xlink:href="#NotoSerifCJKsc-Regular-8fdf" x="499.999924"/>
     <use xlink:href="#NotoSerifCJKsc-Regular-20" x="599.999908"/>
     <use xlink:href="#NotoSerifCJKsc-Regular-30" x="625.599899"/>
     <use xlink:href="#NotoSerifCJKsc-Regular-2e" x="681.299896"/>
     <use xlink:href="#NotoSerifCJKsc-Regular-30" x="713.999893"/>
     <use xlink:href="#NotoSerifCJKsc-Regular-33" x="769.69989"/>
     <use xlink:href="#NotoSerifCJKsc-Regular-37" x="825.399887"/>
     <use xlink:href="#NotoSerifCJKsc-Regular-20" x="880.299881"/>
     <use xlink:href="#NotoSerifCJKsc-Regular-6d" x="905.899872"/>
     <use xlink:href="#NotoSerifCJKsc-Regular-73" x="1003.299866"/>
    </g>
   </g>
   <g id="text_17">
    <!-- 平均发布延迟 0.004 ms -->
    <g style="fill: #3498db" transform="translate(355.89142 290.671765)scale(0.1 -0.1)">
     <use xlink:href="#NotoSerifCJKsc-Regular-5e73"/>
     <use xlink:href="#NotoSerifCJKsc-Regular-5747" x="99.999985"/>
     <use xlink:href="#NotoSerifCJKsc-Regular-53d1" x="199.999969"/>
     <use xlink:href="#NotoSerifCJKsc-Regular-5e03" x="299.999954"/>
     <use xlink:href="#NotoSerifCJKsc-Regular-5ef6" x="399.999939"/>
     <use xlink:href="#NotoSerifCJKsc-Regular-8fdf" x="499.999924"/>
     <use xlink:href="#NotoSerifCJKsc-Regular-20" x="599.999908"/>
     <use xlink:href="#NotoSerifCJKsc-Regular-30" x="625.599899"/>
     <use xlink:href="#NotoSerifCJKsc-Regular-2e" x="681.299896"/>
     <use xlink:href="#NotoSerifCJKsc-Regular-30" x="713.999893"/>
     <use xlink:href="#NotoSerifCJKsc-Regular-30" x="769.69989"/>
     <use xlink:href="#NotoSerifCJKsc-Regular-34" x="825.399887"/>
     <use xlink:href="#NotoSerifCJKsc-Regular-20" x="880.899872"/>
     <use xlink:href="#NotoSerifCJKsc-Regular-6d" x="906.499863"/>
     <use xlink:href="#NotoSerifCJKsc-Regular-73" x="1003.899857"/>
    </g>
   </g>
   <g id="text_18">
    <!-- 发布延迟对比 -->
    <g transform="translate(232.429375 22.8375)scale(0.15 -0.15)">
     <defs>
      <path id="NotoSerifCJKsc-Regular-5bf9" d="M 3117 2912 
L 3053 2848 
C 3462 2470 3674 1882 3789 1517 
C 4205 1139 4576 2266 3117 2912 
z
M 5619 4173 
L 5331 3770 
L 5146 3770 
L 5146 5088 
C 5299 5107 5363 5165 5382 5254 
L 4730 5331 
L 4730 3770 
L 2810 3770 
L 2861 3584 
L 4730 3584 
L 4730 179 
C 4730 77 4691 38 4550 38 
C 4403 38 3610 90 3610 90 
L 3610 -6 
C 3949 -45 4134 -102 4250 -179 
C 4352 -256 4397 -365 4416 -493 
C 5069 -435 5146 -198 5146 141 
L 5146 3584 
L 5965 3584 
C 6048 3584 6112 3616 6131 3686 
C 5946 3891 5619 4173 5619 4173 
z
M 730 3693 
L 640 3629 
C 1056 3245 1434 2739 1734 2227 
C 1357 1318 838 461 186 -192 
L 282 -269 
C 1011 307 1555 1037 1965 1824 
C 2195 1376 2374 941 2464 608 
C 2707 45 3136 390 2746 1248 
C 2611 1542 2413 1882 2157 2227 
C 2470 2918 2682 3642 2829 4320 
C 2976 4333 3040 4346 3085 4410 
L 2618 4845 
L 2362 4576 
L 307 4576 
L 365 4384 
L 2387 4384 
C 2272 3795 2106 3181 1875 2579 
C 1562 2957 1184 3334 730 3693 
z
" transform="scale(0.015625)"/>
      <path id="NotoSerifCJKsc-Regular-6bd4" d="M 2624 3494 
L 2310 3078 
L 1421 3078 
L 1421 5018 
C 1594 5043 1670 5107 1690 5216 
L 1011 5286 
L 1011 320 
C 1011 192 973 154 768 13 
L 1094 -422 
C 1133 -390 1184 -339 1210 -256 
C 2016 128 2752 518 3194 736 
L 3162 838 
C 2509 608 1869 384 1421 237 
L 1421 2886 
L 3021 2886 
C 3110 2886 3174 2918 3187 2989 
C 2976 3200 2624 3494 2624 3494 
z
M 4160 5203 
L 3520 5280 
L 3520 294 
C 3520 -96 3674 -230 4205 -230 
L 4890 -230 
C 5926 -230 6170 -160 6170 45 
C 6170 134 6131 179 5971 243 
L 5952 1312 
L 5869 1312 
C 5792 858 5702 390 5651 282 
C 5619 218 5581 198 5510 186 
C 5414 173 5197 166 4896 166 
L 4262 166 
C 3987 166 3930 237 3930 403 
L 3930 2509 
C 4486 2746 5158 3123 5754 3546 
C 5875 3482 5946 3494 6003 3546 
L 5504 4038 
C 5005 3533 4410 3027 3930 2682 
L 3930 5030 
C 4090 5056 4147 5120 4160 5203 
z
" transform="scale(0.015625)"/>
     </defs>
     <use xlink:href="#NotoSerifCJKsc-Regular-53d1"/>
     <use xlink:href="#NotoSerifCJKsc-Regular-5e03" x="99.999985"/>
     <use xlink:href="#NotoSerifCJKsc-Regular-5ef6" x="199.999969"/>
     <use xlink:href="#NotoSerifCJKsc-Regular-8fdf" x="299.999954"/>
     <use xlink:href="#NotoSerifCJKsc-Regular-5bf9" x="399.999939"/>
     <use xlink:href="#NotoSerifCJKsc-Regular-6bd4" x="499.999924"/>
    </g>
   </g>
   <g id="legend_1">
    <g id="patch_7">
     <path d="M 326.4 191.13875 
L 484.8 191.13875 
Q 487.2 191.13875 487.2 188.73875 
L 487.2 152.37875 
Q 487.2 149.97875 484.8 149.97875 
L 326.4 149.97875 
Q 324 149.97875 324 152.37875 
L 324 188.73875 
Q 324 191.13875 326.4 191.13875 
z
" style="fill: #ffffff; opacity: 0.8; stroke: #cccccc; stroke-linejoin: miter"/>
    </g>
    <g id="line2d_31">
     <path d="M 328.8 160.23875 
L 340.8 160.23875 
L 352.8 160.23875 
" style="fill: none; stroke: #e74c3c; stroke-width: 1.5; stroke-linecap: square"/>
    </g>
    <g id="text_19">
     <!-- 激光惯性紧耦合里程计 -->
     <g transform="translate(362.4 164.43875)scale(0.12 -0.12)">
      <defs>
       <path id="NotoSerifCJKsc-Regular-6fc0" d="M 2509 2739 
L 2445 2694 
C 2573 2554 2714 2304 2720 2099 
C 3072 1824 3437 2502 2509 2739 
z
M 570 1299 
C 499 1299 307 1299 307 1299 
L 307 1158 
C 442 1146 518 1126 608 1069 
C 736 979 774 454 685 -186 
C 698 -384 768 -506 883 -506 
C 1101 -506 1229 -333 1242 -64 
C 1261 461 1075 762 1075 1050 
C 1069 1216 1101 1414 1146 1619 
C 1216 1926 1600 3405 1798 4205 
L 1677 4224 
C 806 1658 806 1658 723 1440 
C 659 1306 640 1299 570 1299 
z
M 275 3834 
L 218 3776 
C 461 3616 749 3328 838 3078 
C 1280 2816 1555 3699 275 3834 
z
M 646 5344 
L 589 5280 
C 851 5114 1178 4794 1274 4518 
C 1728 4250 2010 5158 646 5344 
z
M 3738 2374 
L 3456 2022 
L 1517 2022 
L 1568 1830 
L 2272 1830 
C 2246 883 2099 186 1408 -410 
L 1459 -499 
C 2150 -96 2464 435 2605 1178 
L 3386 1178 
C 3347 493 3277 128 3174 38 
C 3130 0 3091 -13 2995 -13 
C 2880 -13 2586 6 2400 26 
L 2400 -90 
C 2560 -109 2733 -154 2797 -205 
C 2867 -262 2886 -365 2886 -467 
C 3085 -467 3277 -422 3405 -320 
C 3616 -154 3718 275 3757 1139 
C 3885 1152 3962 1184 4000 1235 
L 3552 1594 
L 3334 1370 
L 2637 1370 
C 2656 1517 2669 1670 2682 1830 
L 4096 1830 
C 4186 1830 4243 1862 4262 1933 
C 4058 2125 3738 2374 3738 2374 
z
M 5133 5235 
L 4480 5350 
C 4403 4333 4192 3283 3891 2541 
L 3994 2490 
C 4128 2688 4250 2912 4358 3162 
C 4429 2413 4557 1715 4774 1107 
C 4506 538 4096 45 3494 -410 
L 3558 -493 
C 4173 -147 4614 256 4928 723 
C 5146 243 5440 -173 5837 -493 
C 5888 -301 6035 -205 6221 -173 
L 6240 -115 
C 5760 179 5402 589 5133 1088 
C 5517 1837 5645 2739 5702 3834 
L 6022 3834 
C 6112 3834 6176 3866 6195 3936 
C 5990 4128 5658 4397 5658 4397 
L 5363 4019 
L 4666 4019 
C 4762 4358 4838 4717 4902 5082 
C 5043 5094 5107 5158 5133 5235 
z
M 5280 3834 
C 5261 2944 5178 2176 4934 1504 
C 4704 2074 4557 2720 4467 3424 
C 4518 3558 4563 3693 4608 3834 
L 5280 3834 
z
M 2317 2573 
L 2317 2778 
L 3418 2778 
L 3418 2554 
L 3475 2554 
C 3597 2554 3776 2643 3782 2682 
L 3782 4320 
C 3904 4346 4013 4390 4051 4442 
L 3571 4806 
L 3354 4576 
L 2784 4576 
C 2880 4742 2995 4947 3066 5101 
C 3206 5114 3277 5171 3296 5254 
L 2682 5350 
C 2662 5133 2624 4794 2598 4576 
L 2349 4576 
L 1946 4762 
L 1946 2445 
L 2003 2445 
C 2163 2445 2317 2534 2317 2573 
z
M 3418 4390 
L 3418 3776 
L 2317 3776 
L 2317 4390 
L 3418 4390 
z
M 2317 2970 
L 2317 3584 
L 3418 3584 
L 3418 2970 
L 2317 2970 
z
" transform="scale(0.015625)"/>
       <path id="NotoSerifCJKsc-Regular-5149" d="M 941 4979 
L 858 4928 
C 1197 4518 1613 3859 1696 3347 
C 2176 2957 2541 4064 941 4979 
z
M 5062 5018 
C 4774 4384 4378 3693 4070 3283 
L 4160 3213 
C 4582 3565 5069 4090 5453 4621 
C 5587 4595 5677 4640 5709 4710 
L 5062 5018 
z
M 2970 5363 
L 2970 2899 
L 262 2899 
L 314 2714 
L 2227 2714 
C 2150 1197 1734 275 211 -403 
L 243 -499 
C 2042 70 2573 1030 2714 2714 
L 3597 2714 
L 3597 128 
C 3597 -211 3718 -320 4237 -320 
L 4941 -320 
C 5984 -320 6182 -243 6182 -45 
C 6182 38 6157 96 6016 147 
L 5990 1261 
L 5907 1261 
C 5824 781 5747 320 5690 192 
C 5670 122 5645 96 5562 90 
C 5472 77 5248 70 4947 70 
L 4307 70 
C 4058 70 4026 109 4026 230 
L 4026 2714 
L 5958 2714 
C 6048 2714 6112 2746 6125 2816 
C 5901 3027 5536 3302 5536 3302 
L 5210 2899 
L 3392 2899 
L 3392 5114 
C 3552 5139 3616 5203 3629 5293 
L 2970 5363 
z
" transform="scale(0.015625)"/>
       <path id="NotoSerifCJKsc-Regular-60ef" d="M 4371 1818 
L 3757 1984 
C 3718 710 3629 96 1894 -378 
L 1952 -506 
C 3968 -96 4045 576 4134 1696 
C 4282 1690 4346 1747 4371 1818 
z
M 4115 717 
L 4058 640 
C 4557 397 5235 -90 5517 -461 
C 6054 -646 6106 390 4115 717 
z
M 1594 4320 
L 1504 4288 
C 1658 4026 1811 3603 1805 3270 
C 2125 2963 2502 3674 1594 4320 
z
M 666 4128 
L 550 4134 
C 582 3693 442 3174 288 2963 
C 179 2848 128 2701 218 2598 
C 326 2477 538 2554 640 2714 
C 781 2957 845 3475 666 4128 
z
M 1683 5293 
L 1050 5363 
L 1050 -499 
L 1133 -499 
C 1286 -499 1453 -410 1453 -352 
L 1453 5120 
C 1613 5146 1664 5203 1683 5293 
z
M 5818 4378 
L 5594 4051 
L 5421 4051 
L 5446 4698 
C 5574 4710 5683 4749 5728 4800 
L 5222 5190 
L 5024 4954 
L 3162 4954 
L 2669 5165 
C 2662 4870 2624 4454 2586 4051 
L 2118 4051 
L 2170 3859 
L 2566 3859 
L 2483 3200 
C 2394 3174 2298 3130 2240 3085 
L 2688 2746 
L 2886 2957 
L 4947 2957 
L 4928 2758 
C 5133 2733 5254 2752 5350 2810 
L 5414 3859 
L 6067 3859 
C 6150 3859 6202 3891 6221 3962 
C 6080 4134 5818 4378 5818 4378 
z
M 2861 538 
L 2861 2214 
L 5107 2214 
L 5107 480 
L 5171 480 
C 5306 480 5504 576 5510 621 
L 5510 2163 
C 5626 2182 5715 2227 5754 2272 
L 5267 2643 
L 5050 2406 
L 2899 2406 
L 2458 2605 
L 2458 403 
L 2522 403 
C 2694 403 2861 499 2861 538 
z
M 2854 3149 
L 2944 3859 
L 3814 3859 
L 3738 3149 
L 2854 3149 
z
M 3027 4762 
L 3891 4762 
L 3834 4051 
L 2963 4051 
L 3027 4762 
z
M 4966 3149 
L 4109 3149 
L 4179 3859 
L 5024 3859 
L 4966 3149 
z
M 5075 4762 
L 5037 4051 
L 4198 4051 
L 4256 4762 
L 5075 4762 
z
" transform="scale(0.015625)"/>
       <path id="NotoSerifCJKsc-Regular-6027" d="M 1210 5363 
L 1210 -499 
L 1293 -499 
C 1446 -499 1619 -403 1619 -346 
L 1619 5114 
C 1779 5139 1830 5210 1850 5299 
L 1210 5363 
z
M 736 4064 
C 742 3603 557 3091 378 2880 
C 269 2771 211 2624 294 2515 
C 397 2394 621 2464 730 2624 
C 896 2854 1018 3379 851 4058 
L 736 4064 
z
M 1811 4269 
L 1722 4230 
C 1882 3981 2042 3571 2048 3258 
C 2387 2931 2790 3674 1811 4269 
z
M 2880 4941 
C 2752 3987 2477 3027 2131 2381 
L 2234 2317 
C 2509 2643 2746 3066 2938 3546 
L 3917 3546 
L 3917 1990 
L 2592 1990 
L 2643 1805 
L 3917 1805 
L 3917 -83 
L 2086 -83 
L 2138 -269 
L 6080 -269 
C 6163 -269 6234 -237 6246 -166 
C 6042 32 5696 301 5696 301 
L 5389 -83 
L 4333 -83 
L 4333 1805 
L 5715 1805 
C 5798 1805 5869 1837 5882 1907 
C 5683 2099 5338 2374 5338 2374 
L 5050 1990 
L 4333 1990 
L 4333 3546 
L 5888 3546 
C 5978 3546 6042 3578 6061 3642 
C 5850 3840 5510 4109 5510 4109 
L 5216 3725 
L 4333 3725 
L 4333 5088 
C 4474 5107 4525 5165 4538 5254 
L 3917 5318 
L 3917 3725 
L 3008 3725 
C 3117 4019 3206 4326 3283 4646 
C 3424 4646 3488 4710 3514 4787 
L 2880 4941 
z
" transform="scale(0.015625)"/>
       <path id="NotoSerifCJKsc-Regular-7d27" d="M 1389 5056 
L 755 5114 
L 755 3034 
L 819 3034 
C 973 3034 1152 3142 1152 3194 
L 1152 4877 
C 1318 4902 1376 4960 1389 5056 
z
M 2592 5306 
L 1952 5376 
L 1952 2995 
L 2016 2995 
C 2176 2995 2355 3098 2355 3155 
L 2355 5139 
C 2522 5158 2579 5216 2592 5306 
z
M 2483 557 
L 1965 890 
C 1632 518 947 26 346 -250 
L 416 -346 
C 1101 -154 1843 205 2253 518 
C 2381 480 2438 499 2483 557 
z
M 3981 755 
L 3930 672 
C 4480 448 5254 -13 5568 -410 
C 6112 -563 6061 499 3981 755 
z
M 4205 2042 
L 4141 1971 
C 4339 1862 4563 1702 4768 1523 
C 3520 1466 2349 1421 1574 1395 
C 2758 1715 4058 2189 4774 2522 
C 4915 2458 5018 2490 5062 2541 
L 4589 2931 
C 4365 2790 4058 2624 3693 2445 
C 2982 2394 2291 2342 1779 2317 
C 2317 2496 2874 2726 3213 2918 
C 3354 2867 3450 2918 3488 2970 
L 3104 3238 
C 3507 3341 3872 3475 4198 3635 
C 4621 3328 5139 3123 5766 2995 
C 5805 3187 5939 3315 6106 3360 
L 6106 3430 
C 5530 3494 5011 3629 4563 3846 
C 4986 4109 5325 4435 5574 4826 
C 5722 4826 5792 4838 5843 4896 
L 5389 5312 
L 5101 5056 
L 2720 5056 
L 2778 4864 
L 3226 4864 
C 3411 4442 3661 4096 3974 3821 
C 3552 3565 3059 3366 2509 3219 
L 2560 3117 
L 2835 3168 
C 2451 2899 1811 2515 1286 2362 
C 1242 2349 1133 2336 1133 2336 
L 1331 1856 
C 1370 1869 1414 1901 1459 1965 
C 2099 2042 2714 2138 3219 2227 
C 2534 1920 1747 1619 1075 1453 
C 1005 1434 864 1421 864 1421 
L 1069 902 
C 1114 915 1152 947 1190 1005 
C 1843 1062 2451 1120 3008 1178 
L 3008 51 
C 3008 -19 2982 -58 2886 -58 
C 2778 -58 2285 -19 2285 -19 
L 2285 -109 
C 2522 -141 2650 -186 2726 -243 
C 2797 -307 2816 -403 2829 -506 
C 3347 -461 3424 -269 3424 45 
L 3424 1222 
L 4915 1395 
C 5101 1216 5248 1037 5331 870 
C 5805 646 5914 1645 4205 2042 
z
M 4262 4006 
C 3891 4237 3590 4518 3373 4864 
L 5069 4864 
C 4870 4538 4595 4256 4262 4006 
z
" transform="scale(0.015625)"/>
       <path id="NotoSerifCJKsc-Regular-8026" d="M 2234 2893 
L 1952 2534 
L 1651 2534 
L 1651 3296 
L 2432 3296 
C 2522 3296 2579 3328 2592 3398 
C 2419 3571 2138 3795 2138 3795 
L 1894 3482 
L 1651 3482 
L 1651 4205 
L 2522 4205 
C 2611 4205 2669 4237 2688 4307 
C 2496 4493 2189 4736 2189 4736 
L 1914 4397 
L 1651 4397 
L 1651 5139 
C 1811 5165 1862 5222 1875 5312 
L 1267 5382 
L 1267 4397 
L 358 4397 
L 410 4205 
L 1267 4205 
L 1267 3482 
L 416 3482 
L 467 3296 
L 1267 3296 
L 1267 2534 
L 250 2534 
L 301 2349 
L 1165 2349 
C 960 1619 627 883 179 314 
L 256 224 
C 672 602 1011 1043 1267 1530 
L 1267 -493 
L 1350 -493 
C 1485 -493 1651 -403 1651 -346 
L 1651 1901 
C 1888 1619 2138 1229 2202 915 
C 2611 614 2938 1466 1651 2074 
L 1651 2349 
L 2586 2349 
C 2630 2349 2669 2355 2694 2381 
L 2694 -474 
L 2758 -474 
C 2918 -474 3072 -384 3072 -339 
L 3072 2042 
L 4160 2042 
L 4160 1075 
C 3763 1037 3430 1011 3232 998 
L 3469 493 
C 3520 506 3578 544 3610 627 
C 4230 787 4717 934 5075 1037 
C 5120 890 5152 736 5158 602 
C 5472 294 5824 1050 4826 1811 
L 4742 1779 
C 4845 1613 4954 1389 5037 1158 
L 4525 1107 
L 4525 2042 
L 5568 2042 
L 5568 128 
C 5568 38 5542 0 5434 0 
C 5318 0 4774 45 4774 45 
L 4774 -58 
C 5011 -83 5152 -134 5242 -198 
C 5312 -256 5344 -358 5363 -474 
C 5882 -422 5946 -224 5946 77 
L 5946 1971 
C 6067 1997 6170 2042 6214 2093 
L 5702 2470 
L 5504 2227 
L 4525 2227 
L 4525 2874 
L 5357 2874 
L 5357 2637 
L 5421 2637 
C 5600 2637 5760 2720 5760 2752 
L 5760 4813 
C 5882 4838 5946 4870 5990 4922 
L 5536 5274 
L 5338 5030 
L 3424 5030 
L 2970 5229 
L 2970 2573 
L 3027 2573 
C 3226 2573 3347 2662 3347 2701 
L 3347 2874 
L 4154 2874 
L 4154 2227 
L 3104 2227 
L 2720 2413 
C 2733 2419 2739 2432 2746 2451 
C 2547 2637 2234 2893 2234 2893 
z
M 4154 4845 
L 4154 4051 
L 3347 4051 
L 3347 4845 
L 4154 4845 
z
M 4525 4845 
L 5357 4845 
L 5357 4051 
L 4525 4051 
L 4525 4845 
z
M 4154 3066 
L 3347 3066 
L 3347 3866 
L 4154 3866 
L 4154 3066 
z
M 4525 3066 
L 4525 3866 
L 5357 3866 
L 5357 3066 
L 4525 3066 
z
" transform="scale(0.015625)"/>
       <path id="NotoSerifCJKsc-Regular-5408" d="M 1690 3066 
L 1741 2880 
L 4589 2880 
C 4678 2880 4742 2912 4762 2982 
C 4544 3181 4205 3437 4205 3437 
L 3904 3066 
L 1690 3066 
z
M 3315 5024 
C 3776 4096 4749 3251 5798 2733 
C 5843 2886 5997 3034 6182 3072 
L 6195 3162 
C 5069 3616 4006 4294 3437 5107 
C 3597 5120 3674 5152 3693 5222 
L 2944 5402 
C 2605 4480 1306 3200 218 2592 
L 262 2496 
C 1478 3053 2726 4102 3315 5024 
z
M 4602 1690 
L 4602 173 
L 1798 173 
L 1798 1690 
L 4602 1690 
z
M 1370 1875 
L 1370 -493 
L 1440 -493 
C 1619 -493 1798 -390 1798 -352 
L 1798 -19 
L 4602 -19 
L 4602 -442 
L 4666 -442 
C 4806 -442 5024 -346 5030 -307 
L 5030 1600 
C 5158 1632 5261 1683 5306 1734 
L 4774 2138 
L 4531 1875 
L 1837 1875 
L 1370 2086 
L 1370 1875 
z
" transform="scale(0.015625)"/>
       <path id="NotoSerifCJKsc-Regular-91cc" d="M 1056 4922 
L 1056 1856 
L 1126 1856 
C 1306 1856 1485 1958 1485 2003 
L 1485 2285 
L 2976 2285 
L 2976 1267 
L 838 1267 
L 890 1075 
L 2976 1075 
L 2976 -83 
L 269 -83 
L 320 -262 
L 5965 -262 
C 6061 -262 6118 -230 6138 -166 
C 5907 45 5530 326 5530 326 
L 5203 -83 
L 3405 -83 
L 3405 1075 
L 5478 1075 
C 5568 1075 5638 1107 5651 1178 
C 5421 1389 5056 1664 5056 1664 
L 4736 1267 
L 3405 1267 
L 3405 2285 
L 4915 2285 
L 4915 1939 
L 4979 1939 
C 5126 1939 5344 2042 5344 2080 
L 5344 4659 
C 5472 4685 5574 4736 5619 4787 
L 5094 5190 
L 4851 4922 
L 1523 4922 
L 1056 5139 
L 1056 4922 
z
M 4915 4736 
L 4915 3693 
L 3405 3693 
L 3405 4736 
L 4915 4736 
z
M 4915 3507 
L 4915 2470 
L 3405 2470 
L 3405 3507 
L 4915 3507 
z
M 1485 3507 
L 2976 3507 
L 2976 2470 
L 1485 2470 
L 1485 3507 
z
M 1485 3693 
L 1485 4736 
L 2976 4736 
L 2976 3693 
L 1485 3693 
z
" transform="scale(0.015625)"/>
       <path id="NotoSerifCJKsc-Regular-7a0b" d="M 2227 -77 
L 2278 -262 
L 6086 -262 
C 6170 -262 6227 -230 6246 -166 
C 6048 32 5702 301 5702 301 
L 5408 -77 
L 4448 -77 
L 4448 1037 
L 5792 1037 
C 5882 1037 5946 1069 5965 1133 
C 5760 1325 5440 1581 5440 1581 
L 5152 1222 
L 4448 1222 
L 4448 2214 
L 5894 2214 
C 5984 2214 6042 2246 6061 2317 
C 5856 2509 5530 2771 5530 2771 
L 5235 2400 
L 2598 2400 
L 2650 2214 
L 4026 2214 
L 4026 1222 
L 2650 1222 
L 2701 1037 
L 4026 1037 
L 4026 -77 
L 2227 -77 
z
M 2893 4928 
L 2893 2867 
L 2950 2867 
C 3123 2867 3296 2963 3296 3002 
L 3296 3213 
L 5222 3213 
L 5222 2944 
L 5286 2944 
C 5427 2944 5632 3046 5638 3085 
L 5638 4678 
C 5754 4698 5850 4749 5888 4800 
L 5389 5171 
L 5171 4928 
L 3328 4928 
L 2893 5126 
L 2893 4928 
z
M 3296 3405 
L 3296 4742 
L 5222 4742 
L 5222 3405 
L 3296 3405 
z
M 2131 5357 
C 1734 5088 928 4717 256 4525 
L 288 4416 
C 627 4461 986 4531 1318 4608 
L 1318 3494 
L 256 3494 
L 307 3309 
L 1242 3309 
C 1043 2438 698 1555 192 890 
L 275 800 
C 710 1216 1056 1696 1318 2234 
L 1318 -493 
L 1382 -493 
C 1581 -493 1728 -384 1728 -352 
L 1728 2771 
C 1939 2534 2163 2208 2227 1939 
C 2618 1645 2944 2438 1728 2931 
L 1728 3309 
L 2566 3309 
C 2656 3309 2720 3341 2733 3411 
C 2547 3597 2240 3846 2240 3846 
L 1965 3494 
L 1728 3494 
L 1728 4710 
C 1965 4774 2176 4845 2349 4909 
C 2502 4864 2611 4870 2669 4928 
L 2131 5357 
z
" transform="scale(0.015625)"/>
       <path id="NotoSerifCJKsc-Regular-8ba1" d="M 979 5344 
L 909 5293 
C 1229 4986 1645 4461 1773 4070 
C 2240 3776 2515 4749 979 5344 
z
M 1702 3386 
C 1824 3411 1907 3456 1933 3501 
L 1517 3853 
L 1306 3629 
L 288 3629 
L 346 3443 
L 1299 3443 
L 1299 653 
C 1299 538 1267 493 1069 390 
L 1357 -128 
C 1408 -102 1478 -32 1517 70 
C 2080 499 2592 934 2867 1152 
L 2816 1235 
C 2419 1018 2022 806 1702 640 
L 1702 3386 
z
M 4589 5274 
L 3936 5350 
L 3936 3072 
L 2240 3072 
L 2291 2886 
L 3936 2886 
L 3936 -480 
L 4019 -480 
C 4179 -480 4358 -384 4358 -314 
L 4358 2886 
L 5997 2886 
C 6086 2886 6150 2918 6170 2989 
C 5952 3187 5606 3462 5606 3462 
L 5306 3072 
L 4358 3072 
L 4358 5101 
C 4525 5126 4570 5184 4589 5274 
z
" transform="scale(0.015625)"/>
      </defs>
      <use xlink:href="#NotoSerifCJKsc-Regular-6fc0"/>
      <use xlink:href="#NotoSerifCJKsc-Regular-5149" x="99.999985"/>
      <use xlink:href="#NotoSerifCJKsc-Regular-60ef" x="199.999969"/>
      <use xlink:href="#NotoSerifCJKsc-Regular-6027" x="299.999954"/>
      <use xlink:href="#NotoSerifCJKsc-Regular-7d27" x="399.999939"/>
      <use xlink:href="#NotoSerifCJKsc-Regular-8026" x="499.999924"/>
      <use xlink:href="#NotoSerifCJKsc-Regular-5408" x="599.999908"/>
      <use xlink:href="#NotoSerifCJKsc-Regular-91cc" x="699.999893"/>
      <use xlink:href="#NotoSerifCJKsc-Regular-7a0b" x="799.999878"/>
      <use xlink:href="#NotoSerifCJKsc-Regular-8ba1" x="899.999863"/>
     </g>
    </g>
    <g id="line2d_32">
     <path d="M 328.8 179.01875 
L 340.8 179.01875 
L 352.8 179.01875 
" style="fill: none; stroke: #3498db; stroke-width: 1.5; stroke-linecap: square"/>
    </g>
    <g id="text_20">
     <!-- 轻量化局部状态估计 -->
     <g transform="translate(362.4 183.21875)scale(0.12 -0.12)">
      <defs>
       <path id="NotoSerifCJKsc-Regular-8f7b" d="M 1850 5152 
L 1261 5344 
C 1197 5050 1088 4627 960 4179 
L 179 4179 
L 230 3994 
L 902 3994 
C 755 3494 589 2982 454 2624 
C 352 2592 237 2541 173 2502 
L 614 2138 
L 826 2349 
L 1536 2349 
L 1536 1242 
C 973 1114 499 1018 237 973 
L 531 429 
C 589 448 646 499 666 576 
L 1536 915 
L 1536 -486 
L 1600 -486 
C 1805 -486 1933 -384 1933 -352 
L 1933 1075 
L 2746 1421 
L 2726 1523 
L 1933 1331 
L 1933 2349 
L 2669 2349 
C 2758 2349 2816 2381 2835 2451 
C 2650 2624 2368 2848 2368 2848 
L 2112 2534 
L 1933 2534 
L 1933 3398 
C 2093 3418 2144 3475 2163 3565 
L 1555 3635 
L 1555 2534 
L 826 2534 
C 973 2944 1152 3488 1306 3994 
L 2739 3994 
C 2829 3994 2893 4026 2906 4096 
C 2707 4282 2394 4518 2394 4518 
L 2112 4179 
L 1363 4179 
C 1459 4506 1542 4806 1600 5043 
C 1747 5018 1818 5082 1850 5152 
z
M 5363 2202 
L 5075 1837 
L 2918 1837 
L 2970 1645 
L 4160 1645 
L 4160 -6 
L 2554 -6 
L 2605 -198 
L 6029 -198 
C 6118 -198 6182 -166 6202 -96 
C 5990 102 5658 358 5658 358 
L 5363 -6 
L 4576 -6 
L 4576 1645 
L 5734 1645 
C 5824 1645 5888 1677 5907 1747 
C 5696 1946 5363 2202 5363 2202 
z
M 4557 3373 
C 5018 3040 5581 2534 5824 2170 
C 6323 1958 6458 2893 4666 3494 
C 4992 3846 5261 4211 5472 4570 
C 5632 4576 5702 4589 5754 4653 
L 5286 5082 
L 4992 4806 
L 2906 4806 
L 2963 4621 
L 4966 4621 
C 4493 3731 3578 2733 2675 2093 
L 2758 2010 
C 3437 2368 4051 2854 4557 3373 
z
" transform="scale(0.015625)"/>
       <path id="NotoSerifCJKsc-Regular-91cf" d="M 333 3142 
L 390 2957 
L 5894 2957 
C 5984 2957 6048 2989 6061 3059 
C 5856 3245 5523 3501 5523 3501 
L 5229 3142 
L 333 3142 
z
M 4570 4198 
L 4570 3744 
L 1792 3744 
L 1792 4198 
L 4570 4198 
z
M 4570 4390 
L 1792 4390 
L 1792 4826 
L 4570 4826 
L 4570 4390 
z
M 1376 5011 
L 1376 3277 
L 1440 3277 
C 1606 3277 1792 3373 1792 3411 
L 1792 3558 
L 4570 3558 
L 4570 3315 
L 4634 3315 
C 4768 3315 4979 3411 4986 3450 
L 4986 4749 
C 5114 4774 5216 4826 5261 4870 
L 4742 5274 
L 4506 5011 
L 1830 5011 
L 1376 5216 
L 1376 5011 
z
M 4659 1690 
L 4659 1203 
L 3386 1203 
L 3386 1690 
L 4659 1690 
z
M 4659 1882 
L 3386 1882 
L 3386 2349 
L 4659 2349 
L 4659 1882 
z
M 1734 1690 
L 2976 1690 
L 2976 1203 
L 1734 1203 
L 1734 1690 
z
M 1734 1882 
L 1734 2349 
L 2976 2349 
L 2976 1882 
L 1734 1882 
z
M 806 538 
L 864 352 
L 2976 352 
L 2976 -173 
L 326 -173 
L 384 -358 
L 5926 -358 
C 6022 -358 6086 -326 6099 -256 
C 5875 -58 5530 218 5530 218 
L 5222 -173 
L 3386 -173 
L 3386 352 
L 5510 352 
C 5594 352 5658 384 5677 454 
C 5478 640 5158 883 5158 883 
L 4877 538 
L 3386 538 
L 3386 1018 
L 4659 1018 
L 4659 832 
L 4723 832 
C 4858 832 5069 928 5082 966 
L 5082 2266 
C 5210 2291 5318 2342 5357 2394 
L 4826 2803 
L 4595 2541 
L 1773 2541 
L 1318 2746 
L 1318 717 
L 1382 717 
C 1549 717 1734 813 1734 851 
L 1734 1018 
L 2976 1018 
L 2976 538 
L 806 538 
z
" transform="scale(0.015625)"/>
       <path id="NotoSerifCJKsc-Regular-5316" d="M 5254 4237 
C 4864 3667 4269 3014 3571 2413 
L 3571 5005 
C 3725 5030 3789 5094 3802 5184 
L 3149 5261 
L 3149 2067 
C 2714 1722 2253 1402 1792 1139 
L 1856 1056 
C 2304 1254 2739 1491 3149 1747 
L 3149 243 
C 3149 -186 3328 -314 3923 -314 
L 4717 -314 
C 5894 -314 6163 -243 6163 -26 
C 6163 64 6118 109 5952 173 
L 5933 1120 
L 5850 1120 
C 5760 691 5677 307 5619 198 
C 5587 141 5549 122 5466 109 
C 5350 102 5088 96 4730 96 
L 3968 96 
C 3642 96 3571 166 3571 346 
L 3571 2029 
C 4384 2592 5069 3232 5542 3789 
C 5690 3731 5760 3744 5811 3808 
L 5254 4237 
z
M 1926 5350 
C 1510 4051 806 2771 141 1990 
L 230 1933 
C 563 2208 883 2554 1184 2944 
L 1184 -493 
L 1267 -493 
C 1421 -493 1600 -397 1606 -365 
L 1606 3322 
C 1722 3341 1779 3386 1805 3443 
L 1594 3526 
C 1875 3974 2138 4467 2355 4992 
C 2502 4979 2579 5037 2611 5107 
L 1926 5350 
z
" transform="scale(0.015625)"/>
       <path id="NotoSerifCJKsc-Regular-5c40" d="M 1101 4915 
L 1101 3168 
C 1101 1907 1011 608 256 -435 
L 352 -499 
C 1280 365 1485 1568 1530 2637 
L 5306 2637 
C 5267 1203 5203 256 5030 90 
C 4973 32 4922 19 4806 19 
C 4672 19 4211 58 3949 83 
L 3942 -26 
C 4186 -64 4454 -128 4550 -192 
C 4640 -262 4659 -378 4659 -506 
C 4928 -506 5171 -429 5331 -262 
C 5587 6 5683 979 5722 2586 
C 5850 2598 5926 2630 5971 2682 
L 5485 3085 
L 5242 2822 
L 1530 2822 
L 1536 3174 
L 1536 3610 
L 4774 3610 
L 4774 3258 
L 4832 3258 
C 4973 3258 5184 3347 5190 3386 
L 5190 4653 
C 5318 4678 5421 4730 5459 4781 
L 4941 5178 
L 4710 4915 
L 1613 4915 
L 1101 5133 
L 1101 4915 
z
M 1536 3795 
L 1536 4736 
L 4774 4736 
L 4774 3795 
L 1536 3795 
z
M 2035 1965 
L 2035 51 
L 2099 51 
C 2266 51 2438 147 2438 186 
L 2438 576 
L 3834 576 
L 3834 294 
L 3898 294 
C 4026 294 4230 390 4237 435 
L 4237 1734 
C 4333 1747 4422 1792 4454 1837 
L 3994 2182 
L 3782 1965 
L 2470 1965 
L 2035 2157 
L 2035 1965 
z
M 2438 762 
L 2438 1773 
L 3834 1773 
L 3834 762 
L 2438 762 
z
" transform="scale(0.015625)"/>
       <path id="NotoSerifCJKsc-Regular-90e8" d="M 1504 5376 
L 1434 5331 
C 1626 5133 1824 4781 1843 4506 
C 2227 4186 2630 4998 1504 5376 
z
M 3123 4762 
L 2829 4416 
L 410 4416 
L 461 4224 
L 3482 4224 
C 3571 4224 3635 4256 3648 4326 
C 3443 4518 3123 4762 3123 4762 
z
M 934 4032 
L 851 4000 
C 1024 3706 1222 3238 1242 2886 
C 1613 2541 2022 3341 934 4032 
z
M 3302 3117 
L 3014 2752 
L 2406 2752 
C 2675 3085 2944 3488 3085 3750 
C 3219 3731 3290 3795 3309 3859 
L 2669 4102 
C 2598 3789 2426 3181 2272 2752 
L 307 2752 
L 358 2566 
L 3674 2566 
C 3757 2566 3827 2598 3840 2669 
C 3635 2861 3302 3117 3302 3117 
z
M 1261 314 
L 1261 1709 
L 2765 1709 
L 2765 314 
L 1261 314 
z
M 864 2106 
L 864 -429 
L 928 -429 
C 1133 -429 1261 -339 1261 -301 
L 1261 122 
L 2765 122 
L 2765 -307 
L 2829 -307 
C 3021 -307 3168 -211 3168 -186 
L 3168 1683 
C 3296 1702 3366 1741 3405 1792 
L 2950 2150 
L 2746 1901 
L 1331 1901 
L 864 2106 
z
M 4006 5114 
L 4006 -506 
L 4070 -506 
C 4282 -506 4410 -397 4410 -365 
L 4410 4672 
L 5453 4672 
C 5280 4122 4992 3322 4813 2899 
C 5389 2368 5626 1856 5626 1357 
C 5626 1075 5555 934 5414 870 
C 5357 838 5318 832 5242 832 
C 5107 832 4794 832 4614 832 
L 4614 723 
C 4800 704 4947 672 5011 621 
C 5069 570 5101 442 5101 307 
C 5798 333 6048 640 6042 1267 
C 6042 1805 5754 2374 4966 2918 
C 5261 3328 5696 4134 5920 4570 
C 6067 4570 6163 4582 6214 4634 
L 5722 5126 
L 5440 4864 
L 4493 4864 
L 4006 5114 
z
" transform="scale(0.015625)"/>
       <path id="NotoSerifCJKsc-Regular-72b6" d="M 4723 5018 
L 4666 4960 
C 4934 4781 5235 4435 5280 4115 
C 5728 3821 6035 4781 4723 5018 
z
M 474 4320 
L 397 4275 
C 659 3974 947 3482 973 3085 
C 1395 2707 1811 3686 474 4320 
z
M 3763 5312 
C 3757 4589 3757 3942 3725 3354 
L 2163 3354 
L 2214 3168 
L 3712 3168 
C 3603 1638 3264 531 2131 -397 
L 2227 -499 
C 3597 397 3987 1523 4115 3085 
C 4250 1971 4608 461 5773 -454 
C 5830 -211 5965 -122 6176 -102 
L 6189 -26 
C 4864 838 4390 2112 4224 3168 
L 5990 3168 
C 6080 3168 6138 3200 6157 3264 
C 5946 3462 5606 3725 5606 3725 
L 5312 3354 
L 4128 3354 
C 4160 3872 4173 4442 4179 5062 
C 4333 5082 4397 5152 4410 5242 
L 3763 5312 
z
M 1549 5331 
L 1549 2157 
C 1005 1786 474 1446 250 1318 
L 602 826 
C 659 864 691 947 691 1024 
C 1037 1389 1331 1722 1549 1965 
L 1549 -486 
L 1632 -486 
C 1792 -486 1971 -378 1971 -314 
L 1971 5088 
C 2125 5114 2176 5178 2195 5267 
L 1549 5331 
z
" transform="scale(0.015625)"/>
       <path id="NotoSerifCJKsc-Regular-6001" d="M 2534 1651 
L 1920 1715 
L 1920 96 
C 1920 -237 2042 -326 2624 -326 
L 3501 -326 
C 4723 -326 4947 -262 4947 -58 
C 4947 26 4902 70 4749 115 
L 4736 851 
L 4653 851 
C 4576 518 4506 243 4448 141 
C 4416 83 4390 70 4294 64 
C 4192 51 3898 45 3520 45 
L 2669 45 
C 2368 45 2336 77 2336 173 
L 2336 1498 
C 2458 1510 2522 1568 2534 1651 
z
M 1325 1581 
L 1210 1581 
C 1184 1043 864 576 563 403 
C 435 314 358 186 422 70 
C 506 -64 723 -26 890 96 
C 1152 288 1472 794 1325 1581 
z
M 4928 1568 
L 4851 1510 
C 5210 1178 5619 595 5690 141 
C 6163 -218 6509 870 4928 1568 
z
M 2886 1914 
L 2816 1856 
C 3104 1581 3456 1101 3514 723 
C 3930 403 4256 1331 2886 1914 
z
M 5568 4659 
L 5267 4288 
L 3194 4288 
C 3277 4544 3341 4813 3386 5088 
C 3514 5088 3603 5133 3629 5235 
L 2944 5363 
C 2899 4992 2829 4634 2720 4288 
L 390 4288 
L 448 4096 
L 2656 4096 
C 2298 3136 1594 2323 224 1811 
L 275 1728 
C 1338 2029 2042 2490 2515 3046 
C 2822 2810 3187 2432 3309 2131 
C 3744 1901 3968 2752 2598 3149 
C 2822 3437 2995 3757 3123 4096 
L 3520 4096 
C 3923 3008 4749 2227 5779 1773 
C 5843 1978 5971 2099 6157 2118 
L 6163 2189 
C 5120 2509 4134 3174 3667 4096 
L 5952 4096 
C 6042 4096 6099 4128 6118 4198 
C 5907 4397 5568 4659 5568 4659 
z
" transform="scale(0.015625)"/>
       <path id="NotoSerifCJKsc-Regular-4f30" d="M 2496 2163 
L 2496 -486 
L 2560 -486 
C 2771 -486 2906 -397 2906 -352 
L 2906 -58 
L 5152 -58 
L 5152 -442 
L 5222 -442 
C 5414 -442 5574 -346 5574 -314 
L 5574 1946 
C 5709 1965 5779 1997 5818 2054 
L 5344 2419 
L 5133 2163 
L 4211 2163 
L 4211 3648 
L 6016 3648 
C 6106 3648 6170 3680 6182 3750 
C 5971 3955 5619 4230 5619 4230 
L 5306 3840 
L 4211 3840 
L 4211 5075 
C 4371 5101 4429 5165 4448 5254 
L 3789 5325 
L 3789 3840 
L 2022 3840 
L 2074 3648 
L 3789 3648 
L 3789 2163 
L 2976 2163 
L 2496 2368 
L 2496 2163 
z
M 2906 128 
L 2906 1971 
L 5152 1971 
L 5152 128 
L 2906 128 
z
M 1683 5363 
C 1363 4147 800 2925 243 2157 
L 339 2093 
C 621 2368 890 2707 1139 3091 
L 1139 -499 
L 1210 -499 
C 1376 -499 1549 -390 1562 -358 
L 1562 3456 
C 1664 3469 1728 3514 1747 3571 
L 1485 3667 
C 1715 4096 1926 4557 2099 5030 
C 2240 5024 2317 5082 2349 5152 
L 1683 5363 
z
" transform="scale(0.015625)"/>
      </defs>
      <use xlink:href="#NotoSerifCJKsc-Regular-8f7b"/>
      <use xlink:href="#NotoSerifCJKsc-Regular-91cf" x="99.999985"/>
      <use xlink:href="#NotoSerifCJKsc-Regular-5316" x="199.999969"/>
      <use xlink:href="#NotoSerifCJKsc-Regular-5c40" x="299.999954"/>
      <use xlink:href="#NotoSerifCJKsc-Regular-90e8" x="399.999939"/>
      <use xlink:href="#NotoSerifCJKsc-Regular-72b6" x="499.999924"/>
      <use xlink:href="#NotoSerifCJKsc-Regular-6001" x="599.999908"/>
      <use xlink:href="#NotoSerifCJKsc-Regular-4f30" x="699.999893"/>
      <use xlink:href="#NotoSerifCJKsc-Regular-8ba1" x="799.999878"/>
     </g>
    </g>
   </g>
  </g>
 </g>
 <defs>
  <clipPath id="p1c946659be">
   <rect x="61.65875" y="28.8375" width="431.54125" height="283.4425"/>
  </clipPath>
 </defs>
</svg>
