<?xml version="1.0" encoding="utf-8" standalone="no"?>
<!DOCTYPE svg PUBLIC "-//W3C//DTD SVG 1.1//EN"
  "http://www.w3.org/Graphics/SVG/1.1/DTD/svg11.dtd">
<svg xmlns:xlink="http://www.w3.org/1999/xlink" width="504pt" height="360pt" viewBox="0 0 504 360" xmlns="http://www.w3.org/2000/svg" version="1.1">
 <metadata>
  <rdf:RDF xmlns:dc="http://purl.org/dc/elements/1.1/" xmlns:cc="http://creativecommons.org/ns#" xmlns:rdf="http://www.w3.org/1999/02/22-rdf-syntax-ns#">
   <cc:Work>
    <dc:type rdf:resource="http://purl.org/dc/dcmitype/StillImage"/>
    <dc:date>2026-05-31T19:03:25.258186</dc:date>
    <dc:format>image/svg+xml</dc:format>
    <dc:creator>
     <cc:Agent>
      <dc:title>Matplotlib v3.5.1, https://matplotlib.org/</dc:title>
     </cc:Agent>
    </dc:creator>
   </cc:Work>
  </rdf:RDF>
 </metadata>
 <defs>
  <style type="text/css">*{stroke-linejoin: round; stroke-linecap: butt}</style>
 </defs>
 <g id="figure_1">
  <g id="patch_1">
   <path d="M 0 360 
L 504 360 
L 504 0 
L 0 0 
z
" style="fill: #ffffff"/>
  </g>
  <g id="axes_1">
   <g id="patch_2">
    <path d="M 56.16875 312.28 
L 493.2 312.28 
L 493.2 28.8375 
L 56.16875 28.8375 
z
" style="fill: #ffffff"/>
   </g>
   <g id="matplotlib.axis_1">
    <g id="xtick_1">
     <g id="line2d_1">
      <path d="M 76.033807 312.28 
L 76.033807 28.8375 
" clip-path="url(#p5dafee1bc3)" style="fill: none; stroke: #b0b0b0; stroke-opacity: 0.3; stroke-width: 0.8; stroke-linecap: square"/>
     </g>
     <g id="line2d_2">
      <defs>
       <path id="m6dd32d77c0" d="M 0 0 
L 0 3.5 
" style="stroke: #000000; stroke-width: 0.8"/>
      </defs>
      <g>
       <use xlink:href="#m6dd32d77c0" x="76.033807" y="312.28" style="stroke: #000000; stroke-width: 0.8"/>
      </g>
     </g>
     <g id="text_1">
      <!-- 0 -->
      <g transform="translate(73.248651 327.33)scale(0.1 -0.1)">
       <defs>
        <path id="NotoSerifCJKsc-Regular-30" d="M 1779 -96 
C 2547 -96 3258 602 3258 2342 
C 3258 4058 2547 4755 1779 4755 
C 1011 4755 301 4058 301 2342 
C 301 602 1011 -96 1779 -96 
z
M 1779 102 
C 1299 102 832 640 832 2342 
C 832 4019 1299 4550 1779 4550 
C 2253 4550 2726 4019 2726 2342 
C 2726 640 2253 102 1779 102 
z
" transform="scale(0.015625)"/>
       </defs>
       <use xlink:href="#NotoSerifCJKsc-Regular-30"/>
      </g>
     </g>
    </g>
    <g id="xtick_2">
     <g id="line2d_3">
      <path d="M 160.655576 312.28 
L 160.655576 28.8375 
" clip-path="url(#p5dafee1bc3)" style="fill: none; stroke: #b0b0b0; stroke-opacity: 0.3; stroke-width: 0.8; stroke-linecap: square"/>
     </g>
     <g id="line2d_4">
      <g>
       <use xlink:href="#m6dd32d77c0" x="160.655576" y="312.28" style="stroke: #000000; stroke-width: 0.8"/>
      </g>
     </g>
     <g id="text_2">
      <!-- 20 -->
      <g transform="translate(155.080576 327.33)scale(0.1 -0.1)">
       <defs>
        <path id="NotoSerifCJKsc-Regular-32" d="M 410 0 
L 3270 0 
L 3270 448 
L 762 448 
C 1152 877 1530 1293 1715 1485 
C 2688 2483 3078 2950 3078 3539 
C 3078 4294 2637 4755 1779 4755 
C 1126 4755 512 4422 410 3770 
C 448 3642 550 3571 672 3571 
C 819 3571 922 3654 986 3904 
L 1139 4461 
C 1306 4531 1466 4557 1626 4557 
C 2195 4557 2534 4192 2534 3552 
C 2534 2989 2253 2541 1574 1722 
C 1261 1350 832 845 410 346 
L 410 0 
z
" transform="scale(0.015625)"/>
       </defs>
       <use xlink:href="#NotoSerifCJKsc-Regular-32"/>
       <use xlink:href="#NotoSerifCJKsc-Regular-30" x="55.799988"/>
      </g>
     </g>
    </g>
    <g id="xtick_3">
     <g id="line2d_5">
      <path d="M 245.277346 312.28 
L 245.277346 28.8375 
" clip-path="url(#p5dafee1bc3)" style="fill: none; stroke: #b0b0b0; stroke-opacity: 0.3; stroke-width: 0.8; stroke-linecap: square"/>
     </g>
     <g id="line2d_6">
      <g>
       <use xlink:href="#m6dd32d77c0" x="245.277346" y="312.28" style="stroke: #000000; stroke-width: 0.8"/>
      </g>
     </g>
     <g id="text_3">
      <!-- 40 -->
      <g transform="translate(239.717189 327.33)scale(0.1 -0.1)">
       <defs>
        <path id="NotoSerifCJKsc-Regular-34" d="M 2170 -115 
L 2650 -115 
L 2650 1229 
L 3418 1229 
L 3418 1600 
L 2650 1600 
L 2650 4730 
L 2291 4730 
L 218 1530 
L 218 1229 
L 2170 1229 
L 2170 -115 
z
M 493 1600 
L 1389 2989 
L 2170 4211 
L 2170 1600 
L 493 1600 
z
" transform="scale(0.015625)"/>
       </defs>
       <use xlink:href="#NotoSerifCJKsc-Regular-34"/>
       <use xlink:href="#NotoSerifCJKsc-Regular-30" x="55.499985"/>
      </g>
     </g>
    </g>
    <g id="xtick_4">
     <g id="line2d_7">
      <path d="M 329.899115 312.28 
L 329.899115 28.8375 
" clip-path="url(#p5dafee1bc3)" style="fill: none; stroke: #b0b0b0; stroke-opacity: 0.3; stroke-width: 0.8; stroke-linecap: square"/>
     </g>
     <g id="line2d_8">
      <g>
       <use xlink:href="#m6dd32d77c0" x="329.899115" y="312.28" style="stroke: #000000; stroke-width: 0.8"/>
      </g>
     </g>
     <g id="text_4">
      <!-- 60 -->
      <g transform="translate(324.324115 327.33)scale(0.1 -0.1)">
       <defs>
        <path id="NotoSerifCJKsc-Regular-36" d="M 1850 -96 
C 2656 -96 3258 538 3258 1414 
C 3258 2253 2803 2816 2029 2816 
C 1606 2816 1248 2650 941 2323 
C 1107 3450 1850 4339 3136 4614 
L 3104 4755 
C 1414 4557 358 3258 358 1773 
C 358 634 922 -96 1850 -96 
z
M 922 2118 
C 1222 2432 1523 2554 1856 2554 
C 2394 2554 2726 2144 2726 1376 
C 2726 557 2342 102 1856 102 
C 1261 102 909 736 909 1830 
L 922 2118 
z
" transform="scale(0.015625)"/>
       </defs>
       <use xlink:href="#NotoSerifCJKsc-Regular-36"/>
       <use xlink:href="#NotoSerifCJKsc-Regular-30" x="55.799988"/>
      </g>
     </g>
    </g>
    <g id="xtick_5">
     <g id="line2d_9">
      <path d="M 414.520884 312.28 
L 414.520884 28.8375 
" clip-path="url(#p5dafee1bc3)" style="fill: none; stroke: #b0b0b0; stroke-opacity: 0.3; stroke-width: 0.8; stroke-linecap: square"/>
     </g>
     <g id="line2d_10">
      <g>
       <use xlink:href="#m6dd32d77c0" x="414.520884" y="312.28" style="stroke: #000000; stroke-width: 0.8"/>
      </g>
     </g>
     <g id="text_5">
      <!-- 80 -->
      <g transform="translate(408.945884 327.33)scale(0.1 -0.1)">
       <defs>
        <path id="NotoSerifCJKsc-Regular-38" d="M 1754 -96 
C 2637 -96 3219 384 3219 1126 
C 3219 1722 2893 2131 2093 2502 
C 2784 2829 3027 3251 3027 3686 
C 3027 4301 2579 4755 1798 4755 
C 1075 4755 499 4307 499 3603 
C 499 3059 774 2605 1434 2285 
C 730 1978 365 1587 365 1024 
C 365 352 858 -96 1754 -96 
z
M 1946 2573 
C 1178 2912 973 3302 973 3731 
C 973 4243 1357 4550 1792 4550 
C 2304 4550 2579 4160 2579 3699 
C 2579 3213 2394 2880 1946 2573 
z
M 1587 2214 
C 2458 1830 2720 1453 2720 986 
C 2720 454 2374 102 1779 102 
C 1184 102 832 474 832 1082 
C 832 1568 1050 1888 1587 2214 
z
" transform="scale(0.015625)"/>
       </defs>
       <use xlink:href="#NotoSerifCJKsc-Regular-38"/>
       <use xlink:href="#NotoSerifCJKsc-Regular-30" x="55.799988"/>
      </g>
     </g>
    </g>
    <g id="text_6">
     <!-- 时间 (s) -->
     <g transform="translate(252.213672 344.395)scale(0.13 -0.13)">
      <defs>
       <path id="NotoSerifCJKsc-Regular-65f6" d="M 2880 2861 
L 2803 2816 
C 3149 2426 3526 1805 3546 1286 
C 4006 870 4442 2035 2880 2861 
z
M 1907 1069 
L 922 1069 
L 922 2733 
L 1907 2733 
L 1907 1069 
z
M 525 4992 
L 525 13 
L 582 13 
C 794 13 922 128 922 160 
L 922 877 
L 1907 877 
L 1907 326 
L 1971 326 
C 2112 326 2304 429 2310 474 
L 2310 4518 
C 2438 4544 2547 4589 2592 4640 
L 2080 5043 
L 1843 4781 
L 998 4781 
L 525 4992 
z
M 1907 2925 
L 922 2925 
L 922 4589 
L 1907 4589 
L 1907 2925 
z
M 5664 4211 
L 5363 3802 
L 5069 3802 
L 5069 5043 
C 5229 5062 5293 5120 5306 5216 
L 4646 5286 
L 4646 3802 
L 2464 3802 
L 2515 3610 
L 4646 3610 
L 4646 179 
C 4646 64 4602 26 4461 26 
C 4301 26 3456 83 3456 83 
L 3456 -13 
C 3821 -58 4013 -115 4134 -192 
C 4243 -256 4288 -365 4314 -499 
C 4992 -435 5069 -198 5069 147 
L 5069 3610 
L 6048 3610 
C 6138 3610 6195 3642 6214 3712 
C 6016 3923 5664 4211 5664 4211 
z
" transform="scale(0.015625)"/>
       <path id="NotoSerifCJKsc-Regular-95f4" d="M 1133 5402 
L 1062 5350 
C 1344 5069 1702 4595 1818 4237 
C 2278 3936 2586 4870 1133 5402 
z
M 1382 4461 
L 736 4531 
L 736 -499 
L 813 -499 
C 973 -499 1146 -410 1146 -346 
L 1146 4282 
C 1312 4307 1363 4365 1382 4461 
z
M 3987 1139 
L 2381 1139 
L 2381 2240 
L 3987 2240 
L 3987 1139 
z
M 1984 3827 
L 1984 326 
L 2048 326 
C 2253 326 2381 442 2381 474 
L 2381 947 
L 3987 947 
L 3987 442 
L 4051 442 
C 4198 442 4384 550 4390 595 
L 4390 3392 
C 4499 3411 4589 3456 4621 3494 
L 4154 3866 
L 3930 3629 
L 2445 3629 
L 1984 3827 
z
M 3987 3437 
L 3987 2432 
L 2381 2432 
L 2381 3437 
L 3987 3437 
z
M 5210 4826 
L 2483 4826 
L 2541 4634 
L 5274 4634 
L 5274 198 
C 5274 90 5235 45 5101 45 
C 4960 45 4211 109 4211 109 
L 4211 0 
C 4531 -38 4710 -90 4819 -166 
C 4915 -230 4960 -346 4979 -474 
C 5606 -410 5683 -186 5683 147 
L 5683 4557 
C 5811 4582 5920 4634 5965 4685 
L 5421 5094 
L 5210 4826 
z
" transform="scale(0.015625)"/>
       <path id="NotoSerifCJKsc-Regular-20" transform="scale(0.015625)"/>
       <path id="NotoSerifCJKsc-Regular-28" d="M 1043 1933 
C 1043 3130 1293 3968 2144 5139 
L 2022 5242 
C 1050 4250 589 3219 589 1933 
C 589 653 1050 -378 2022 -1376 
L 2144 -1267 
C 1306 -102 1043 742 1043 1933 
z
" transform="scale(0.015625)"/>
       <path id="NotoSerifCJKsc-Regular-73" d="M 1414 -96 
C 2285 -96 2733 339 2733 896 
C 2733 1344 2483 1632 1837 1856 
L 1510 1971 
C 1043 2131 858 2304 858 2611 
C 858 2950 1107 3187 1594 3187 
C 1798 3187 1978 3142 2170 3034 
L 2298 2426 
L 2554 2426 
L 2573 3110 
C 2253 3302 1978 3398 1594 3398 
C 826 3398 397 2982 397 2445 
C 397 1965 723 1690 1242 1504 
L 1574 1382 
C 2093 1216 2253 1037 2253 723 
C 2253 358 1965 109 1402 109 
C 1133 109 934 154 755 237 
L 627 922 
L 346 922 
L 346 160 
C 691 -6 1005 -96 1414 -96 
z
" transform="scale(0.015625)"/>
       <path id="NotoSerifCJKsc-Regular-29" d="M 1299 1933 
C 1299 742 1043 -96 192 -1267 
L 314 -1376 
C 1280 -384 1747 653 1747 1933 
C 1747 3219 1280 4250 314 5242 
L 192 5139 
C 1024 3974 1299 3130 1299 1933 
z
" transform="scale(0.015625)"/>
      </defs>
      <use xlink:href="#NotoSerifCJKsc-Regular-65f6"/>
      <use xlink:href="#NotoSerifCJKsc-Regular-95f4" x="99.999985"/>
      <use xlink:href="#NotoSerifCJKsc-Regular-20" x="199.999969"/>
      <use xlink:href="#NotoSerifCJKsc-Regular-28" x="225.59996"/>
      <use xlink:href="#NotoSerifCJKsc-Regular-73" x="261.999954"/>
      <use xlink:href="#NotoSerifCJKsc-Regular-29" x="309.299942"/>
     </g>
    </g>
   </g>
   <g id="matplotlib.axis_2">
    <g id="ytick_1">
     <g id="line2d_11">
      <path d="M 56.16875 305.110753 
L 493.2 305.110753 
" clip-path="url(#p5dafee1bc3)" style="fill: none; stroke: #b0b0b0; stroke-opacity: 0.3; stroke-width: 0.8; stroke-linecap: square"/>
     </g>
     <g id="line2d_12">
      <defs>
       <path id="m1ea3860476" d="M 0 0 
L -3.5 0 
" style="stroke: #000000; stroke-width: 0.8"/>
      </defs>
      <g>
       <use xlink:href="#m1ea3860476" x="56.16875" y="305.110753" style="stroke: #000000; stroke-width: 0.8"/>
      </g>
     </g>
     <g id="text_7">
      <!-- 0.00 -->
      <g transform="translate(29.1875 309.135753)scale(0.1 -0.1)">
       <defs>
        <path id="NotoSerifCJKsc-Regular-2e" d="M 1043 -96 
C 1267 -96 1440 90 1440 294 
C 1440 518 1267 691 1043 691 
C 813 691 653 518 653 294 
C 653 90 813 -96 1043 -96 
z
" transform="scale(0.015625)"/>
       </defs>
       <use xlink:href="#NotoSerifCJKsc-Regular-30"/>
       <use xlink:href="#NotoSerifCJKsc-Regular-2e" x="55.699997"/>
       <use xlink:href="#NotoSerifCJKsc-Regular-30" x="88.399994"/>
       <use xlink:href="#NotoSerifCJKsc-Regular-30" x="144.099991"/>
      </g>
     </g>
    </g>
    <g id="ytick_2">
     <g id="line2d_13">
      <path d="M 56.16875 269.264516 
L 493.2 269.264516 
" clip-path="url(#p5dafee1bc3)" style="fill: none; stroke: #b0b0b0; stroke-opacity: 0.3; stroke-width: 0.8; stroke-linecap: square"/>
     </g>
     <g id="line2d_14">
      <g>
       <use xlink:href="#m1ea3860476" x="56.16875" y="269.264516" style="stroke: #000000; stroke-width: 0.8"/>
      </g>
     </g>
     <g id="text_8">
      <!-- 0.05 -->
      <g transform="translate(29.178125 273.289516)scale(0.1 -0.1)">
       <defs>
        <path id="NotoSerifCJKsc-Regular-35" d="M 1574 -96 
C 2573 -96 3213 499 3213 1408 
C 3213 2317 2624 2803 1709 2803 
C 1421 2803 1158 2765 902 2656 
L 1005 4211 
L 3091 4211 
L 3091 4659 
L 800 4659 
L 653 2458 
L 813 2394 
C 1037 2496 1286 2547 1562 2547 
C 2221 2547 2650 2176 2650 1382 
C 2650 563 2234 102 1498 102 
C 1293 102 1146 134 998 198 
L 845 691 
C 794 922 710 1005 550 1005 
C 429 1005 326 941 282 819 
C 397 230 883 -96 1574 -96 
z
" transform="scale(0.015625)"/>
       </defs>
       <use xlink:href="#NotoSerifCJKsc-Regular-30"/>
       <use xlink:href="#NotoSerifCJKsc-Regular-2e" x="55.699997"/>
       <use xlink:href="#NotoSerifCJKsc-Regular-30" x="88.399994"/>
       <use xlink:href="#NotoSerifCJKsc-Regular-35" x="144.099991"/>
      </g>
     </g>
    </g>
    <g id="ytick_3">
     <g id="line2d_15">
      <path d="M 56.16875 233.41828 
L 493.2 233.41828 
" clip-path="url(#p5dafee1bc3)" style="fill: none; stroke: #b0b0b0; stroke-opacity: 0.3; stroke-width: 0.8; stroke-linecap: square"/>
     </g>
     <g id="line2d_16">
      <g>
       <use xlink:href="#m1ea3860476" x="56.16875" y="233.41828" style="stroke: #000000; stroke-width: 0.8"/>
      </g>
     </g>
     <g id="text_9">
      <!-- 0.10 -->
      <g transform="translate(30.048438 237.44328)scale(0.1 -0.1)">
       <defs>
        <path id="NotoSerifCJKsc-Regular-31" d="M 480 0 
L 2733 -6 
L 2733 173 
L 1907 269 
L 1894 1472 
L 1894 3642 
L 1920 4653 
L 1824 4723 
L 448 4371 
L 448 4179 
L 1370 4333 
L 1370 1472 
L 1357 269 
L 480 179 
L 480 0 
z
" transform="scale(0.015625)"/>
       </defs>
       <use xlink:href="#NotoSerifCJKsc-Regular-30"/>
       <use xlink:href="#NotoSerifCJKsc-Regular-2e" x="55.699997"/>
       <use xlink:href="#NotoSerifCJKsc-Regular-31" x="88.399994"/>
       <use xlink:href="#NotoSerifCJKsc-Regular-30" x="135.499985"/>
      </g>
     </g>
    </g>
    <g id="ytick_4">
     <g id="line2d_17">
      <path d="M 56.16875 197.572043 
L 493.2 197.572043 
" clip-path="url(#p5dafee1bc3)" style="fill: none; stroke: #b0b0b0; stroke-opacity: 0.3; stroke-width: 0.8; stroke-linecap: square"/>
     </g>
     <g id="line2d_18">
      <g>
       <use xlink:href="#m1ea3860476" x="56.16875" y="197.572043" style="stroke: #000000; stroke-width: 0.8"/>
      </g>
     </g>
     <g id="text_10">
      <!-- 0.15 -->
      <g transform="translate(30.039063 201.597043)scale(0.1 -0.1)">
       <use xlink:href="#NotoSerifCJKsc-Regular-30"/>
       <use xlink:href="#NotoSerifCJKsc-Regular-2e" x="55.699997"/>
       <use xlink:href="#NotoSerifCJKsc-Regular-31" x="88.399994"/>
       <use xlink:href="#NotoSerifCJKsc-Regular-35" x="135.499985"/>
      </g>
     </g>
    </g>
    <g id="ytick_5">
     <g id="line2d_19">
      <path d="M 56.16875 161.725807 
L 493.2 161.725807 
" clip-path="url(#p5dafee1bc3)" style="fill: none; stroke: #b0b0b0; stroke-opacity: 0.3; stroke-width: 0.8; stroke-linecap: square"/>
     </g>
     <g id="line2d_20">
      <g>
       <use xlink:href="#m1ea3860476" x="56.16875" y="161.725807" style="stroke: #000000; stroke-width: 0.8"/>
      </g>
     </g>
     <g id="text_11">
      <!-- 0.20 -->
      <g transform="translate(29.178125 165.750807)scale(0.1 -0.1)">
       <use xlink:href="#NotoSerifCJKsc-Regular-30"/>
       <use xlink:href="#NotoSerifCJKsc-Regular-2e" x="55.699997"/>
       <use xlink:href="#NotoSerifCJKsc-Regular-32" x="88.399994"/>
       <use xlink:href="#NotoSerifCJKsc-Regular-30" x="144.199982"/>
      </g>
     </g>
    </g>
    <g id="ytick_6">
     <g id="line2d_21">
      <path d="M 56.16875 125.87957 
L 493.2 125.87957 
" clip-path="url(#p5dafee1bc3)" style="fill: none; stroke: #b0b0b0; stroke-opacity: 0.3; stroke-width: 0.8; stroke-linecap: square"/>
     </g>
     <g id="line2d_22">
      <g>
       <use xlink:href="#m1ea3860476" x="56.16875" y="125.87957" style="stroke: #000000; stroke-width: 0.8"/>
      </g>
     </g>
     <g id="text_12">
      <!-- 0.25 -->
      <g transform="translate(29.16875 129.90457)scale(0.1 -0.1)">
       <use xlink:href="#NotoSerifCJKsc-Regular-30"/>
       <use xlink:href="#NotoSerifCJKsc-Regular-2e" x="55.699997"/>
       <use xlink:href="#NotoSerifCJKsc-Regular-32" x="88.399994"/>
       <use xlink:href="#NotoSerifCJKsc-Regular-35" x="144.199982"/>
      </g>
     </g>
    </g>
    <g id="ytick_7">
     <g id="line2d_23">
      <path d="M 56.16875 90.033333 
L 493.2 90.033333 
" clip-path="url(#p5dafee1bc3)" style="fill: none; stroke: #b0b0b0; stroke-opacity: 0.3; stroke-width: 0.8; stroke-linecap: square"/>
     </g>
     <g id="line2d_24">
      <g>
       <use xlink:href="#m1ea3860476" x="56.16875" y="90.033333" style="stroke: #000000; stroke-width: 0.8"/>
      </g>
     </g>
     <g id="text_13">
      <!-- 0.30 -->
      <g transform="translate(29.1875 94.058333)scale(0.1 -0.1)">
       <defs>
        <path id="NotoSerifCJKsc-Regular-33" d="M 1638 -96 
C 2534 -96 3155 416 3155 1203 
C 3155 1875 2778 2342 1952 2458 
C 2662 2618 3021 3085 3021 3629 
C 3021 4301 2547 4755 1728 4755 
C 1120 4755 550 4499 442 3866 
C 480 3757 576 3706 685 3706 
C 845 3706 941 3776 998 3994 
L 1146 4486 
C 1306 4538 1453 4557 1606 4557 
C 2163 4557 2477 4205 2477 3610 
C 2477 2925 2035 2554 1414 2554 
L 1158 2554 
L 1158 2330 
L 1446 2330 
C 2214 2330 2611 1926 2611 1222 
C 2611 544 2202 102 1491 102 
C 1312 102 1158 134 1018 186 
L 864 685 
C 806 922 717 1011 563 1011 
C 442 1011 346 941 301 813 
C 429 218 909 -96 1638 -96 
z
" transform="scale(0.015625)"/>
       </defs>
       <use xlink:href="#NotoSerifCJKsc-Regular-30"/>
       <use xlink:href="#NotoSerifCJKsc-Regular-2e" x="55.699997"/>
       <use xlink:href="#NotoSerifCJKsc-Regular-33" x="88.399994"/>
       <use xlink:href="#NotoSerifCJKsc-Regular-30" x="144.099991"/>
      </g>
     </g>
    </g>
    <g id="ytick_8">
     <g id="line2d_25">
      <path d="M 56.16875 54.187097 
L 493.2 54.187097 
" clip-path="url(#p5dafee1bc3)" style="fill: none; stroke: #b0b0b0; stroke-opacity: 0.3; stroke-width: 0.8; stroke-linecap: square"/>
     </g>
     <g id="line2d_26">
      <g>
       <use xlink:href="#m1ea3860476" x="56.16875" y="54.187097" style="stroke: #000000; stroke-width: 0.8"/>
      </g>
     </g>
     <g id="text_14">
      <!-- 0.35 -->
      <g transform="translate(29.178125 58.212097)scale(0.1 -0.1)">
       <use xlink:href="#NotoSerifCJKsc-Regular-30"/>
       <use xlink:href="#NotoSerifCJKsc-Regular-2e" x="55.699997"/>
       <use xlink:href="#NotoSerifCJKsc-Regular-33" x="88.399994"/>
       <use xlink:href="#NotoSerifCJKsc-Regular-35" x="144.099991"/>
      </g>
     </g>
    </g>
    <g id="text_15">
     <!-- 位置误差 (m) -->
     <g transform="translate(21.78875 209.286562)rotate(-90)scale(0.13 -0.13)">
      <defs>
       <path id="NotoSerifCJKsc-Regular-4f4d" d="M 3347 5350 
L 3277 5306 
C 3552 5011 3846 4518 3878 4115 
C 4320 3750 4717 4749 3347 5350 
z
M 2541 3283 
L 2445 3232 
C 2906 2432 3053 1248 3117 602 
C 3488 96 4000 1510 2541 3283 
z
M 5459 4294 
L 5152 3910 
L 1958 3910 
L 2010 3718 
L 5856 3718 
C 5946 3718 6010 3750 6029 3821 
C 5811 4026 5459 4294 5459 4294 
z
M 1715 3571 
L 1459 3674 
C 1690 4096 1901 4544 2080 5018 
C 2221 5011 2298 5069 2323 5146 
L 1658 5363 
C 1312 4134 717 2880 160 2106 
L 250 2042 
C 550 2336 838 2688 1107 3091 
L 1107 -499 
L 1184 -499 
C 1344 -499 1517 -390 1523 -352 
L 1523 3456 
C 1632 3475 1696 3514 1715 3571 
z
M 5613 461 
L 5293 70 
L 4211 70 
C 4672 1018 5101 2221 5338 3072 
C 5478 3078 5555 3136 5574 3219 
L 4858 3379 
C 4691 2400 4378 1069 4077 70 
L 1766 70 
L 1818 -122 
L 6016 -122 
C 6099 -122 6170 -90 6189 -19 
C 5965 186 5613 461 5613 461 
z
" transform="scale(0.015625)"/>
       <path id="NotoSerifCJKsc-Regular-7f6e" d="M 1382 3712 
L 1382 3898 
L 5126 3898 
L 5126 3629 
L 5190 3629 
C 5267 3629 5376 3661 5446 3699 
L 5190 3392 
L 3302 3392 
L 3360 3546 
C 3494 3558 3578 3610 3597 3699 
L 2906 3808 
L 2848 3392 
L 378 3392 
L 435 3200 
L 2822 3200 
L 2752 2726 
L 1914 2726 
L 1434 2938 
L 1434 -70 
L 275 -70 
L 333 -256 
L 5990 -256 
C 6080 -256 6138 -224 6157 -154 
C 5933 45 5581 314 5581 314 
L 5267 -70 
L 5094 -70 
L 5094 2483 
C 5248 2502 5338 2534 5382 2598 
L 4819 3014 
L 4589 2726 
L 3040 2726 
L 3232 3200 
L 5894 3200 
C 5984 3200 6048 3232 6067 3302 
C 5882 3475 5594 3686 5517 3750 
L 5536 3763 
L 5536 4768 
C 5658 4794 5766 4838 5805 4890 
L 5293 5280 
L 5062 5030 
L 1427 5030 
L 979 5235 
L 979 3578 
L 1037 3578 
C 1203 3578 1382 3674 1382 3712 
z
M 1843 -70 
L 1843 474 
L 4666 474 
L 4666 -70 
L 1843 -70 
z
M 1843 666 
L 1843 1152 
L 4666 1152 
L 4666 666 
L 1843 666 
z
M 1843 1344 
L 1843 1824 
L 4666 1824 
L 4666 1344 
L 1843 1344 
z
M 1843 2010 
L 1843 2534 
L 4666 2534 
L 4666 2010 
L 1843 2010 
z
M 3725 4838 
L 3725 4090 
L 2739 4090 
L 2739 4838 
L 3725 4838 
z
M 4115 4838 
L 5126 4838 
L 5126 4090 
L 4115 4090 
L 4115 4838 
z
M 2349 4838 
L 2349 4090 
L 1382 4090 
L 1382 4838 
L 2349 4838 
z
" transform="scale(0.015625)"/>
       <path id="NotoSerifCJKsc-Regular-8bef" d="M 762 5338 
L 685 5286 
C 979 4973 1376 4454 1498 4070 
C 1933 3770 2234 4691 762 5338 
z
M 1549 3398 
C 1670 3424 1754 3469 1786 3514 
L 1363 3866 
L 1158 3642 
L 230 3642 
L 288 3450 
L 1146 3450 
L 1146 602 
C 1146 486 1120 448 915 346 
L 1197 -173 
C 1248 -147 1318 -77 1357 26 
C 1811 429 2221 838 2432 1037 
L 2381 1120 
L 1549 621 
L 1549 3398 
z
M 5274 3072 
L 4979 2701 
L 2285 2701 
L 2336 2515 
L 3738 2515 
C 3731 2195 3718 1888 3661 1594 
L 1920 1594 
L 1971 1402 
L 3622 1402 
C 3450 704 3014 96 1862 -403 
L 1946 -512 
C 3341 -26 3853 621 4058 1402 
L 4070 1402 
C 4269 845 4704 0 5766 -499 
C 5811 -275 5933 -211 6138 -179 
L 6157 -102 
C 5024 326 4461 922 4218 1402 
L 5984 1402 
C 6080 1402 6144 1434 6163 1504 
C 5946 1709 5600 1978 5600 1978 
L 5293 1594 
L 4102 1594 
C 4160 1882 4186 2189 4205 2515 
L 5651 2515 
C 5741 2515 5805 2547 5824 2618 
C 5613 2810 5274 3072 5274 3072 
z
M 2906 3187 
L 2906 3392 
L 5043 3392 
L 5043 3162 
L 5107 3162 
C 5242 3162 5453 3264 5459 3302 
L 5459 4723 
C 5587 4749 5690 4800 5734 4851 
L 5210 5248 
L 4979 4992 
L 2938 4992 
L 2490 5190 
L 2490 3053 
L 2554 3053 
C 2726 3053 2906 3142 2906 3187 
z
M 5043 4800 
L 5043 3584 
L 2906 3584 
L 2906 4800 
L 5043 4800 
z
" transform="scale(0.015625)"/>
       <path id="NotoSerifCJKsc-Regular-5dee" d="M 1824 5389 
L 1754 5344 
C 1997 5126 2272 4749 2330 4442 
C 2790 4141 3136 5062 1824 5389 
z
M 5549 2822 
L 5242 2451 
L 2810 2451 
C 2925 2707 3021 2976 3098 3251 
L 5414 3251 
C 5498 3251 5562 3283 5581 3354 
C 5370 3539 5043 3789 5043 3789 
L 4755 3437 
L 3149 3437 
C 3206 3661 3258 3898 3296 4134 
L 3296 4160 
L 5805 4160 
C 5901 4160 5965 4192 5978 4262 
C 5766 4461 5421 4717 5421 4717 
L 5114 4352 
L 3846 4352 
C 4128 4570 4422 4858 4602 5082 
C 4742 5069 4826 5114 4858 5190 
L 4173 5408 
C 4051 5088 3853 4659 3667 4352 
L 608 4352 
L 666 4160 
L 2803 4160 
C 2765 3917 2720 3674 2662 3437 
L 890 3437 
L 941 3251 
L 2611 3251 
C 2534 2976 2438 2707 2330 2451 
L 339 2451 
L 397 2266 
L 2253 2266 
C 1830 1357 1197 570 307 -26 
L 384 -109 
C 1133 294 1722 794 2170 1376 
L 2195 1286 
L 3405 1286 
L 3405 -26 
L 1235 -26 
L 1286 -218 
L 5920 -218 
C 6010 -218 6074 -186 6086 -115 
C 5875 90 5536 358 5536 358 
L 5222 -26 
L 3827 -26 
L 3827 1286 
L 5286 1286 
C 5370 1286 5440 1318 5453 1389 
C 5242 1581 4915 1843 4915 1843 
L 4614 1478 
L 2246 1478 
C 2432 1728 2586 1990 2726 2266 
L 5933 2266 
C 6022 2266 6086 2298 6106 2368 
C 5888 2560 5549 2822 5549 2822 
z
" transform="scale(0.015625)"/>
       <path id="NotoSerifCJKsc-Regular-6d" d="M 4979 0 
L 6022 0 
L 6022 179 
L 5536 230 
L 5523 1466 
L 5523 2195 
C 5523 3053 5203 3398 4614 3398 
C 4173 3398 3763 3181 3373 2707 
C 3264 3194 2982 3398 2554 3398 
C 2118 3398 1722 3162 1331 2707 
L 1299 3328 
L 1216 3379 
L 230 3123 
L 230 2963 
L 794 2931 
C 806 2611 813 2291 813 1856 
L 813 1466 
L 800 230 
L 269 179 
L 269 0 
L 1837 0 
L 1837 179 
L 1350 230 
L 1338 1466 
L 1338 2490 
C 1728 2899 2061 3053 2355 3053 
C 2701 3053 2912 2816 2912 2189 
L 2912 1466 
L 2899 230 
L 2368 179 
L 2368 0 
L 3930 0 
L 3930 179 
L 3437 230 
L 3424 1466 
L 3424 2189 
C 3424 2304 3418 2413 3405 2515 
C 3789 2918 4134 3053 4422 3053 
C 4787 3053 5005 2842 5005 2189 
L 5005 1466 
C 5005 1107 4998 589 4992 230 
L 4467 179 
L 4467 0 
L 4979 0 
z
" transform="scale(0.015625)"/>
      </defs>
      <use xlink:href="#NotoSerifCJKsc-Regular-4f4d"/>
      <use xlink:href="#NotoSerifCJKsc-Regular-7f6e" x="99.999985"/>
      <use xlink:href="#NotoSerifCJKsc-Regular-8bef" x="199.999969"/>
      <use xlink:href="#NotoSerifCJKsc-Regular-5dee" x="299.999954"/>
      <use xlink:href="#NotoSerifCJKsc-Regular-20" x="399.999939"/>
      <use xlink:href="#NotoSerifCJKsc-Regular-28" x="425.59993"/>
      <use xlink:href="#NotoSerifCJKsc-Regular-6d" x="461.999924"/>
      <use xlink:href="#NotoSerifCJKsc-Regular-29" x="559.399918"/>
     </g>
    </g>
   </g>
   <g id="line2d_27">
    <path d="M 76.033807 305.076147 
L 76.455708 302.897604 
L 76.879849 304.69198 
L 77.303098 304.04413 
L 77.726567 303.870966 
L 78.149634 304.221423 
L 78.995513 304.111011 
L 79.419261 304.369316 
L 80.265239 304.276432 
L 80.688012 304.482581 
L 81.534858 304.345266 
L 83.226669 304.108921 
L 83.65009 304.203181 
L 84.073502 303.99446 
L 84.496388 304.263406 
L 84.919755 304.355092 
L 85.766132 304.236447 
L 86.189208 304.017031 
L 87.03516 304.106847 
L 88.727391 303.667271 
L 89.151017 303.881934 
L 90.419903 303.418561 
L 91.266711 303.51267 
L 91.689336 303.318883 
L 92.535677 303.494722 
L 92.958886 303.165574 
L 94.227828 303.493388 
L 95.074336 303.275433 
L 95.497625 303.392498 
L 96.343647 303.254147 
L 96.766938 303.46256 
L 97.613319 303.398573 
L 98.035977 303.463603 
L 98.458985 303.723317 
L 99.305443 303.480784 
L 100.152203 303.530204 
L 100.575076 303.227777 
L 100.998476 303.286716 
L 101.421121 303.12772 
L 102.267793 303.207228 
L 102.69056 303.497246 
L 103.536867 303.449426 
L 103.959816 303.550065 
L 104.806036 303.396956 
L 105.229138 303.444473 
L 105.652325 303.620581 
L 106.921768 303.540619 
L 107.344888 303.492352 
L 107.768183 303.568171 
L 108.190825 303.353423 
L 108.61408 303.52344 
L 109.037247 303.530933 
L 111.153005 303.04045 
L 111.999186 303.053539 
L 112.422242 302.804192 
L 112.845333 303.063935 
L 114.107828 302.909373 
L 114.537199 302.642135 
L 115.384399 301.888946 
L 116.652849 301.752457 
L 117.075671 302.01077 
L 117.485008 301.722297 
L 117.911412 301.710981 
L 118.768323 301.368988 
L 120.884871 300.383204 
L 121.308299 300.441925 
L 121.731291 300.137733 
L 122.152537 300.305494 
L 122.575543 300.219795 
L 123.000894 299.45844 
L 123.421731 299.560057 
L 123.846695 299.525959 
L 124.269948 299.921644 
L 124.69284 299.634547 
L 125.114003 299.542421 
L 125.539232 299.248155 
L 125.962942 298.664484 
L 126.385916 298.331954 
L 126.809257 297.816895 
L 127.232161 297.954941 
L 127.65506 298.248378 
L 128.078472 298.160951 
L 128.501142 298.334273 
L 129.347307 298.097478 
L 129.770881 297.614052 
L 130.193817 297.358123 
L 130.616814 297.370534 
L 131.040514 296.981558 
L 131.88672 296.723745 
L 132.309865 297.0483 
L 134.001762 300.137979 
L 134.425702 300.482527 
L 134.848067 300.518437 
L 135.271877 299.981214 
L 135.694614 299.915912 
L 136.11758 300.086787 
L 137.810017 301.819771 
L 138.230272 301.919595 
L 138.656217 301.604809 
L 139.503219 301.506227 
L 140.772378 301.850165 
L 141.195171 301.830549 
L 141.618354 301.665757 
L 142.464897 301.61801 
L 142.887643 301.523127 
L 143.311249 301.5615 
L 144.580202 300.869856 
L 146.26967 300.906467 
L 147.116474 300.573999 
L 148.385683 301.113026 
L 148.808542 301.069174 
L 150.081719 301.478701 
L 150.924097 301.550247 
L 151.347614 301.471153 
L 151.773956 301.5084 
L 152.19686 301.685033 
L 152.616725 301.521508 
L 153.042806 301.547351 
L 153.463235 301.456112 
L 153.885745 301.547989 
L 154.732838 301.401197 
L 155.155434 301.435596 
L 156.002336 301.28421 
L 156.84137 301.474863 
L 157.682592 301.121603 
L 160.23052 301.565724 
L 161.07021 301.287384 
L 161.497606 300.882457 
L 162.349426 297.284495 
L 162.771869 294.720189 
L 163.193363 290.571059 
L 163.617104 284.212462 
L 164.03999 275.597352 
L 164.464626 261.850219 
L 165.31066 226.528542 
L 165.732459 216.140556 
L 166.157575 213.767833 
L 167.424807 223.064429 
L 167.847518 224.22389 
L 168.271642 222.702792 
L 168.694405 218.686383 
L 169.541048 206.985752 
L 171.66121 169.959052 
L 172.079973 163.508727 
L 172.502812 158.890928 
L 172.925842 156.63899 
L 173.348386 156.949493 
L 173.772083 158.305482 
L 174.61797 162.065218 
L 175.042101 163.213112 
L 175.464763 163.838781 
L 175.887912 166.530418 
L 176.310607 177.295581 
L 177.15725 210.417177 
L 177.579802 221.008677 
L 178.002572 224.582647 
L 178.426373 221.839837 
L 178.849206 217.679665 
L 179.272089 216.432679 
L 179.695054 217.812564 
L 180.541453 222.392012 
L 180.965274 223.10248 
L 181.81088 220.335329 
L 182.234493 221.148728 
L 182.657152 222.337296 
L 183.080022 222.679661 
L 183.503764 221.625914 
L 183.926149 220.082135 
L 184.35016 219.177485 
L 184.772603 219.979828 
L 185.195564 221.886996 
L 186.464857 225.699384 
L 186.888271 226.024852 
L 187.31106 225.615087 
L 187.734995 226.770266 
L 189.849927 235.171936 
L 190.272877 236.14976 
L 190.696658 236.536761 
L 191.965833 236.821155 
L 192.811655 237.755928 
L 193.235235 239.189699 
L 193.658194 241.102762 
L 195.350222 246.635207 
L 196.619612 251.703062 
L 197.043343 252.871532 
L 197.466594 253.711772 
L 197.889535 253.867079 
L 198.312653 253.821938 
L 198.734433 253.370246 
L 199.157951 252.67639 
L 199.581417 252.510682 
L 200.004442 252.527902 
L 200.427526 252.97032 
L 201.259566 255.599994 
L 201.686073 256.198901 
L 202.96688 257.041223 
L 203.389483 257.99679 
L 203.813002 258.664498 
L 204.659054 260.250471 
L 205.505345 260.952344 
L 205.928675 260.763932 
L 206.774902 259.368055 
L 207.198431 259.248269 
L 207.621349 259.585889 
L 208.890707 262.290269 
L 209.313601 262.602826 
L 209.737391 263.22287 
L 210.160346 263.082973 
L 210.583321 263.16106 
L 211.429813 263.811774 
L 211.852666 264.967892 
L 212.275825 264.997084 
L 212.699121 264.777021 
L 213.122291 264.957099 
L 213.545187 265.3861 
L 213.968745 266.001201 
L 214.815046 265.949993 
L 215.661194 267.251854 
L 216.08408 268.199907 
L 216.930538 269.418837 
L 217.354219 270.372767 
L 217.776865 270.836346 
L 218.623465 272.933491 
L 219.469363 273.718249 
L 221.162729 274.495423 
L 221.586022 275.205518 
L 222.008426 275.534026 
L 222.43196 276.112759 
L 222.854828 277.569316 
L 223.701689 279.178918 
L 224.124612 279.477836 
L 224.547502 280.563567 
L 225.81697 282.332499 
L 226.240364 283.188393 
L 227.086917 284.245823 
L 227.933025 284.317643 
L 228.356521 284.622434 
L 229.202526 286.317251 
L 229.625974 286.496807 
L 230.048743 286.168906 
L 230.895275 286.940979 
L 231.318427 286.882942 
L 231.741106 286.654345 
L 232.587621 287.956932 
L 233.856167 291.006535 
L 234.280033 291.601926 
L 235.126848 293.313837 
L 235.972729 293.841054 
L 236.396482 293.867138 
L 236.81902 294.468149 
L 237.242286 295.671311 
L 238.087972 297.154222 
L 238.511679 297.440266 
L 238.93544 297.158524 
L 239.353438 297.293266 
L 240.193138 296.06796 
L 240.609572 296.290621 
L 241.032068 296.994524 
L 241.892157 297.088739 
L 242.314119 296.561182 
L 242.736841 296.872825 
L 243.146847 297.561825 
L 243.989193 298.16741 
L 244.845607 299.750055 
L 245.276881 300.042317 
L 245.700753 299.683035 
L 246.12366 298.821713 
L 246.547328 298.373497 
L 247.816625 299.748288 
L 248.239449 300.44797 
L 249.085908 301.179941 
L 249.509087 301.389173 
L 249.932329 301.107325 
L 250.355597 301.008393 
L 251.199749 301.183922 
L 251.623682 301.135474 
L 252.470215 300.579225 
L 252.892908 300.569714 
L 255.008403 299.213497 
L 255.431864 299.25711 
L 256.27869 298.601438 
L 256.701324 298.104426 
L 257.12407 298.231364 
L 257.970266 297.873815 
L 258.816864 297.332928 
L 259.240192 297.199228 
L 259.66326 296.525003 
L 260.086046 296.241024 
L 260.508824 295.769603 
L 261.355665 295.353078 
L 262.202192 294.625537 
L 263.047633 294.106039 
L 263.470682 293.643212 
L 263.894044 292.978606 
L 264.317317 292.82625 
L 264.740135 292.214143 
L 266.009826 291.366499 
L 266.432876 290.418645 
L 266.855778 289.956453 
L 267.702497 288.626964 
L 268.124757 287.387368 
L 268.548828 286.858636 
L 269.394641 287.240189 
L 269.817534 287.296875 
L 270.241237 286.812742 
L 271.087052 285.400412 
L 271.50991 285.14607 
L 271.933182 285.110673 
L 272.778919 284.653272 
L 273.202649 284.56579 
L 273.625762 284.263704 
L 274.472258 282.937079 
L 274.895343 283.299043 
L 276.164617 285.096298 
L 277.011348 285.593921 
L 277.857198 284.947081 
L 278.280843 284.899829 
L 278.703555 285.009787 
L 279.550425 284.215513 
L 279.972895 284.356688 
L 280.396194 284.28218 
L 280.819838 283.912724 
L 281.665953 282.977969 
L 282.088057 283.12833 
L 282.511551 282.627137 
L 283.339504 281.179754 
L 283.764119 280.925311 
L 284.186212 280.872007 
L 285.033025 279.60589 
L 285.456975 278.845228 
L 285.896544 278.39288 
L 286.319045 278.14117 
L 286.743425 277.668172 
L 287.166792 277.018594 
L 287.590226 276.606362 
L 288.013714 276.40024 
L 288.436352 276.648945 
L 288.859685 276.727225 
L 289.283399 276.431714 
L 289.705796 276.77394 
L 290.129006 276.963117 
L 290.552701 276.599533 
L 290.975388 276.061418 
L 291.398854 275.726498 
L 291.822438 275.809362 
L 292.245412 274.886799 
L 292.668304 273.688191 
L 293.088159 272.128292 
L 293.51428 271.721729 
L 293.938087 271.029054 
L 294.360842 271.250033 
L 295.630223 272.277981 
L 296.054104 272.297709 
L 296.476946 271.93574 
L 296.899736 270.67405 
L 299.011832 261.953658 
L 299.858156 259.189497 
L 300.2855 257.737428 
L 300.704292 256.858238 
L 301.127777 255.568138 
L 301.550848 254.891417 
L 301.973701 253.870001 
L 302.396704 253.284679 
L 302.820252 253.010104 
L 303.243064 253.527872 
L 303.666774 253.786453 
L 304.089496 253.395043 
L 304.512749 253.628123 
L 304.93643 254.329961 
L 305.359268 254.469545 
L 305.782074 254.002092 
L 306.209568 254.052148 
L 306.628746 254.300954 
L 307.051903 254.090217 
L 307.475165 253.588361 
L 307.898003 253.325142 
L 308.743471 253.982777 
L 309.168043 253.803312 
L 310.013813 252.815582 
L 310.436013 253.135447 
L 310.860602 253.665314 
L 311.282464 253.613913 
L 311.706847 253.422359 
L 312.130045 253.405749 
L 312.552953 252.927253 
L 312.974667 251.748831 
L 313.399554 250.156445 
L 313.820508 249.651132 
L 314.244139 249.556873 
L 315.513614 247.854285 
L 316.361404 247.363339 
L 316.783268 246.958284 
L 317.205846 246.041134 
L 317.631007 245.387538 
L 318.052078 245.598475 
L 318.475181 246.456992 
L 318.897876 246.040585 
L 319.321253 245.104315 
L 320.167337 246.434032 
L 320.590769 246.019726 
L 321.437312 242.773098 
L 321.860122 242.596829 
L 322.705676 244.869219 
L 323.128659 245.405609 
L 323.960694 244.131626 
L 324.3814 243.446934 
L 324.804191 242.451436 
L 325.223736 242.46544 
L 325.649507 242.952361 
L 327.760652 244.43655 
L 328.190596 244.270012 
L 328.619862 244.250458 
L 329.476301 242.93765 
L 329.899071 242.629441 
L 330.322287 242.620036 
L 331.168591 243.314744 
L 331.591825 243.351778 
L 332.015313 242.779792 
L 332.438813 241.78129 
L 333.284658 238.56541 
L 333.707881 237.784466 
L 334.131468 237.762916 
L 334.554581 238.037386 
L 334.976263 237.999186 
L 335.823753 235.326435 
L 336.246884 234.769827 
L 336.670577 234.830207 
L 337.093322 234.508239 
L 337.516432 233.940143 
L 338.363436 231.855784 
L 338.78629 230.791584 
L 339.209601 230.194645 
L 339.632281 230.525287 
L 340.055505 231.124557 
L 340.479211 231.236646 
L 340.902162 231.498459 
L 341.748587 232.575149 
L 342.171944 232.392432 
L 343.018181 230.38767 
L 343.441048 230.649819 
L 343.864343 231.252671 
L 344.287946 230.874199 
L 345.133758 227.503256 
L 345.557443 226.945613 
L 345.980466 226.608314 
L 346.4035 226.524347 
L 346.823211 225.846181 
L 347.249468 226.260035 
L 347.672943 225.734387 
L 348.942604 226.23761 
L 349.361993 226.83837 
L 349.789104 226.845232 
L 351.05483 224.661613 
L 351.901634 225.490215 
L 352.324468 225.158333 
L 352.746654 224.595373 
L 353.169714 224.686889 
L 353.592921 224.510219 
L 354.016279 224.566461 
L 354.43916 224.341817 
L 354.862352 223.822428 
L 355.285791 223.096979 
L 355.713122 222.827382 
L 356.132242 222.70107 
L 356.555128 221.551832 
L 356.982722 221.830542 
L 357.40214 222.995506 
L 357.825067 223.017411 
L 358.671527 221.15975 
L 359.094492 221.108365 
L 359.51629 221.28036 
L 360.363961 220.56159 
L 360.785788 220.720875 
L 361.210593 220.646577 
L 361.633699 220.850041 
L 362.055465 220.729912 
L 362.4783 220.362908 
L 362.903007 220.359843 
L 363.32599 220.575712 
L 363.747757 220.31018 
L 364.595664 219.094302 
L 365.005793 218.131515 
L 366.285673 213.186202 
L 366.709057 213.015477 
L 367.131285 213.501304 
L 367.5413 214.236353 
L 367.95729 213.640154 
L 368.384222 213.467639 
L 368.806206 213.432472 
L 369.231191 213.539696 
L 369.664709 213.031446 
L 370.094408 211.979756 
L 370.5176 211.470089 
L 370.94096 211.370455 
L 371.363628 211.468997 
L 371.78691 211.984114 
L 372.210462 212.101681 
L 372.633035 211.92893 
L 373.056298 211.334943 
L 373.902015 210.677449 
L 375.595159 207.711085 
L 376.017581 206.249574 
L 376.441084 206.7023 
L 376.864076 207.707258 
L 377.287256 207.747966 
L 377.710092 207.387212 
L 378.133495 207.589594 
L 378.556948 208.250603 
L 378.980155 208.59367 
L 379.403349 208.502767 
L 380.249713 208.077604 
L 380.672961 207.501094 
L 381.096168 206.71164 
L 381.518931 205.629855 
L 381.942146 204.991387 
L 382.788733 205.139114 
L 383.212234 205.430677 
L 383.635062 204.850497 
L 384.05808 203.09777 
L 384.481564 201.887022 
L 384.904402 201.090698 
L 385.327591 200.772857 
L 385.750646 200.95159 
L 386.59765 203.190811 
L 387.020988 203.110632 
L 387.443658 203.212233 
L 387.866812 202.795939 
L 388.290029 202.763325 
L 388.713044 203.166397 
L 389.136159 203.277838 
L 389.559918 202.696816 
L 390.829131 197.444434 
L 391.675895 195.20575 
L 392.098641 195.305814 
L 392.522332 195.640817 
L 392.945384 195.586035 
L 393.368224 195.773429 
L 394.214659 196.860334 
L 394.637768 196.927734 
L 395.483994 196.371195 
L 396.750376 196.885705 
L 397.600355 194.227306 
L 398.019907 193.617203 
L 399.288915 192.53462 
L 399.711648 192.638501 
L 400.134768 192.24232 
L 400.981143 189.538268 
L 401.408984 189.076791 
L 401.827514 189.172547 
L 402.251138 188.89356 
L 402.673787 187.637338 
L 403.10134 186.728971 
L 403.520852 186.331942 
L 403.943441 186.463683 
L 404.367343 185.868637 
L 404.79009 185.918525 
L 405.212568 186.496291 
L 405.636846 187.34298 
L 406.060078 187.80732 
L 406.482219 187.085486 
L 406.905635 186.84214 
L 407.329216 186.34934 
L 408.590774 184.143305 
L 409.434236 181.217243 
L 409.852601 181.248587 
L 410.290354 181.491095 
L 410.712582 181.290792 
L 411.136068 180.592598 
L 411.55944 180.280057 
L 411.982635 179.569222 
L 412.405308 178.269623 
L 412.828106 177.877111 
L 413.674896 180.254533 
L 414.09735 180.672198 
L 414.523491 180.162467 
L 415.367493 176.330285 
L 415.789869 175.486742 
L 416.213384 175.666375 
L 416.636508 176.022856 
L 417.059429 176.191572 
L 417.905916 178.775533 
L 418.752134 176.294423 
L 419.17519 174.656179 
L 419.598115 172.271417 
L 420.021145 170.748033 
L 420.444868 170.998914 
L 420.867106 171.845961 
L 421.713372 172.756038 
L 422.136968 172.188294 
L 422.983713 168.905785 
L 423.40671 167.261614 
L 423.82932 166.99167 
L 424.675951 167.211799 
L 425.9453 165.678489 
L 426.792245 165.27619 
L 427.214881 164.449049 
L 428.484985 160.441075 
L 428.908136 160.413234 
L 429.330821 161.469316 
L 430.177215 164.188788 
L 430.600704 164.107956 
L 431.023662 162.358577 
L 431.447396 159.620841 
L 431.869917 158.049226 
L 432.29331 158.316874 
L 432.717075 159.889064 
L 433.13981 160.660219 
L 433.563228 160.521108 
L 435.256163 156.10992 
L 435.678665 156.436477 
L 436.102292 157.325513 
L 436.522379 157.263037 
L 436.948581 155.825501 
L 438.214711 150.455163 
L 438.637629 149.795582 
L 439.061241 150.212438 
L 439.484228 150.360766 
L 439.910807 148.638888 
L 440.333748 149.089019 
L 440.753754 151.269001 
L 441.180288 151.572343 
L 441.600368 151.389176 
L 442.023358 151.342251 
L 442.449839 150.535569 
L 443.29264 147.225235 
L 443.716549 145.986364 
L 444.139386 145.111869 
L 444.56133 144.578672 
L 444.984264 144.630518 
L 445.831843 141.470056 
L 446.258566 140.891913 
L 446.676882 141.403424 
L 447.101513 141.668927 
L 447.523605 141.530651 
L 447.946171 140.416228 
L 448.370022 139.80117 
L 448.792214 139.678156 
L 449.624644 139.020428 
L 450.046574 139.050397 
L 450.907979 139.64423 
L 451.33154 138.931953 
L 451.754225 137.688 
L 452.177466 137.176293 
L 452.600674 138.008315 
L 453.023305 138.102035 
L 453.869562 135.131908 
L 454.292674 134.173306 
L 454.716351 134.244755 
L 455.139421 133.664426 
L 455.56289 132.464389 
L 455.985 131.783106 
L 456.831908 131.864406 
L 457.678516 130.673381 
L 458.100596 130.363182 
L 458.52372 130.462917 
L 458.947829 129.410276 
L 459.370008 127.83113 
L 459.793299 126.894789 
L 460.216683 127.318498 
L 460.639788 128.082089 
L 461.062692 127.631445 
L 461.909348 125.619322 
L 462.332277 124.811619 
L 462.755244 125.22286 
L 463.178805 125.428522 
L 464.024833 123.733268 
L 464.871371 122.537434 
L 465.294338 121.867657 
L 466.141476 122.582542 
L 466.987552 123.663834 
L 467.834037 123.607029 
L 468.256808 123.826941 
L 469.103129 122.956886 
L 469.526292 122.364562 
L 470.37268 120.118225 
L 470.796306 117.555294 
L 471.219361 110.888601 
L 472.912179 48.672998 
L 473.334943 41.991721 
L 473.334943 41.991721 
" clip-path="url(#p5dafee1bc3)" style="fill: none; stroke: #2ecc71; stroke-width: 1.5; stroke-linecap: square"/>
   </g>
   <g id="line2d_28">
    <path d="M 56.16875 221.383619 
L 493.2 221.383619 
" clip-path="url(#p5dafee1bc3)" style="fill: none; stroke-dasharray: 5.55,2.4; stroke-dashoffset: 0; stroke: #e74c3c; stroke-opacity: 0.7; stroke-width: 1.5"/>
   </g>
   <g id="line2d_29">
    <path d="M 56.16875 242.819075 
L 493.2 242.819075 
" clip-path="url(#p5dafee1bc3)" style="fill: none; stroke-dasharray: 5.55,2.4; stroke-dashoffset: 0; stroke: #3498db; stroke-opacity: 0.7; stroke-width: 1.5"/>
   </g>
   <g id="patch_3">
    <path d="M 56.16875 312.28 
L 56.16875 28.8375 
" style="fill: none; stroke: #000000; stroke-width: 0.8; stroke-linejoin: miter; stroke-linecap: square"/>
   </g>
   <g id="patch_4">
    <path d="M 493.2 312.28 
L 493.2 28.8375 
" style="fill: none; stroke: #000000; stroke-width: 0.8; stroke-linejoin: miter; stroke-linecap: square"/>
   </g>
   <g id="patch_5">
    <path d="M 56.16875 312.28 
L 493.2 312.28 
" style="fill: none; stroke: #000000; stroke-width: 0.8; stroke-linejoin: miter; stroke-linecap: square"/>
   </g>
   <g id="patch_6">
    <path d="M 56.16875 28.8375 
L 493.2 28.8375 
" style="fill: none; stroke: #000000; stroke-width: 0.8; stroke-linejoin: miter; stroke-linecap: square"/>
   </g>
   <g id="text_16">
    <!-- 位置误差 -->
    <g transform="translate(244.684375 22.8375)scale(0.15 -0.15)">
     <use xlink:href="#NotoSerifCJKsc-Regular-4f4d"/>
     <use xlink:href="#NotoSerifCJKsc-Regular-7f6e" x="99.999985"/>
     <use xlink:href="#NotoSerifCJKsc-Regular-8bef" x="199.999969"/>
     <use xlink:href="#NotoSerifCJKsc-Regular-5dee" x="299.999954"/>
    </g>
   </g>
   <g id="legend_1">
    <g id="patch_7">
     <path d="M 64.56875 94.7775 
L 219.33125 94.7775 
Q 221.73125 94.7775 221.73125 92.3775 
L 221.73125 37.2375 
Q 221.73125 34.8375 219.33125 34.8375 
L 64.56875 34.8375 
Q 62.16875 34.8375 62.16875 37.2375 
L 62.16875 92.3775 
Q 62.16875 94.7775 64.56875 94.7775 
z
" style="fill: #ffffff; opacity: 0.8; stroke: #cccccc; stroke-linejoin: miter"/>
    </g>
    <g id="line2d_30">
     <path d="M 66.96875 45.0975 
L 78.96875 45.0975 
L 90.96875 45.0975 
" style="fill: none; stroke: #2ecc71; stroke-width: 1.5; stroke-linecap: square"/>
    </g>
    <g id="text_17">
     <!-- 逐时刻误差 -->
     <g transform="translate(100.56875 49.2975)scale(0.12 -0.12)">
      <defs>
       <path id="NotoSerifCJKsc-Regular-9010" d="M 659 5254 
L 576 5210 
C 851 4858 1203 4301 1299 3885 
C 1747 3552 2074 4493 659 5254 
z
M 5542 5222 
L 5235 4838 
L 1856 4838 
L 1907 4646 
L 3654 4646 
C 3219 4090 2573 3565 1850 3200 
L 1914 3098 
C 2502 3315 3040 3597 3501 3942 
C 3571 3859 3642 3776 3699 3693 
C 3302 3078 2586 2464 1914 2118 
L 1965 2010 
C 2707 2304 3469 2797 3955 3296 
C 4013 3174 4070 3053 4115 2931 
C 3622 2138 2726 1408 1850 1005 
L 1894 902 
C 2784 1216 3680 1773 4262 2374 
C 4371 1728 4243 1158 3974 915 
C 3930 864 3866 858 3770 858 
C 3603 858 3091 890 2816 915 
L 2816 806 
C 3066 762 3315 698 3405 640 
C 3482 582 3533 493 3533 365 
C 3898 365 4128 435 4275 570 
C 4717 941 4883 1888 4512 2816 
C 4992 2400 5542 1779 5722 1286 
C 6240 960 6470 2093 4550 2950 
C 4992 3245 5446 3616 5722 3885 
C 5862 3853 5920 3872 5965 3936 
L 5402 4275 
C 5197 3942 4787 3424 4410 3040 
C 4230 3392 3968 3731 3610 4026 
C 3853 4218 4064 4422 4243 4646 
L 5946 4646 
C 6035 4646 6099 4678 6118 4749 
C 5894 4954 5542 5222 5542 5222 
z
M 1126 787 
C 864 608 454 230 173 32 
L 538 -442 
C 582 -397 595 -346 576 -294 
C 774 0 1114 435 1254 634 
C 1318 710 1376 723 1466 634 
C 2067 -96 2694 -320 3930 -320 
C 4634 -320 5242 -320 5843 -320 
C 5875 -134 5978 -6 6176 32 
L 6176 122 
C 5408 90 4800 83 4058 83 
C 2848 83 2138 205 1549 806 
L 1517 832 
L 1517 2931 
C 1696 2957 1779 3002 1830 3053 
L 1280 3507 
L 1037 3181 
L 243 3181 
L 282 2995 
L 1126 2995 
L 1126 787 
z
" transform="scale(0.015625)"/>
       <path id="NotoSerifCJKsc-Regular-523b" d="M 1645 5363 
L 1574 5318 
C 1786 5120 1997 4768 2029 4480 
C 2451 4160 2848 5043 1645 5363 
z
M 6061 5178 
L 5414 5248 
L 5414 160 
C 5414 51 5376 13 5254 13 
C 5120 13 4429 70 4429 70 
L 4429 -32 
C 4736 -70 4902 -115 4998 -192 
C 5094 -269 5133 -378 5152 -512 
C 5760 -448 5830 -224 5830 115 
L 5830 5005 
C 5984 5024 6048 5082 6061 5178 
z
M 4864 4493 
L 4230 4570 
L 4230 845 
L 4307 845 
C 4461 845 4627 928 4627 979 
L 4627 4326 
C 4794 4346 4845 4403 4864 4493 
z
M 3469 4762 
L 3174 4390 
L 230 4390 
L 282 4198 
L 1606 4198 
C 1434 3853 1082 3251 800 3034 
C 749 3002 557 2970 557 2970 
L 742 2464 
C 794 2477 845 2509 890 2573 
C 1389 2643 1875 2733 2240 2803 
C 1715 2061 1075 1485 320 1018 
L 384 909 
C 1574 1478 2515 2317 3187 3462 
C 3334 3437 3405 3456 3443 3533 
L 2842 3821 
C 2694 3520 2534 3232 2362 2970 
C 1830 2950 1318 2931 960 2925 
C 1331 3194 1741 3584 1990 3878 
C 2131 3853 2221 3904 2246 3962 
L 1741 4198 
L 3846 4198 
C 3930 4198 3994 4230 4013 4301 
C 3808 4499 3469 4762 3469 4762 
z
M 3885 2304 
L 3264 2624 
C 2534 1222 1478 294 237 -390 
L 294 -499 
C 1146 -141 1894 326 2534 928 
C 2880 576 3283 77 3424 -307 
C 3910 -627 4211 339 2650 1043 
C 3008 1395 3328 1792 3616 2240 
C 3776 2208 3840 2227 3885 2304 
z
" transform="scale(0.015625)"/>
      </defs>
      <use xlink:href="#NotoSerifCJKsc-Regular-9010"/>
      <use xlink:href="#NotoSerifCJKsc-Regular-65f6" x="99.999985"/>
      <use xlink:href="#NotoSerifCJKsc-Regular-523b" x="199.999969"/>
      <use xlink:href="#NotoSerifCJKsc-Regular-8bef" x="299.999954"/>
      <use xlink:href="#NotoSerifCJKsc-Regular-5dee" x="399.999939"/>
     </g>
    </g>
    <g id="line2d_31">
     <path d="M 66.96875 63.8775 
L 78.96875 63.8775 
L 90.96875 63.8775 
" style="fill: none; stroke-dasharray: 5.55,2.4; stroke-dashoffset: 0; stroke: #e74c3c; stroke-opacity: 0.7; stroke-width: 1.5"/>
    </g>
    <g id="text_18">
     <!-- 均方根误差 = 0.117 m -->
     <g transform="translate(100.56875 68.0775)scale(0.12 -0.12)">
      <defs>
       <path id="NotoSerifCJKsc-Regular-5747" d="M 3168 3430 
L 3104 3366 
C 3494 3098 4038 2624 4243 2272 
C 4736 2035 4909 2989 3168 3430 
z
M 2528 1197 
L 2848 659 
C 2906 691 2957 755 2970 832 
C 3872 1318 4531 1722 5005 2003 
L 4973 2093 
C 3955 1696 2944 1318 2528 1197 
z
M 3840 5171 
L 3187 5357 
C 2970 4429 2541 3430 2061 2842 
L 2157 2784 
C 2528 3098 2854 3526 3123 4000 
L 5542 4000 
C 5453 1978 5274 403 4973 147 
C 4883 64 4832 45 4685 45 
C 4525 45 3994 96 3674 134 
L 3667 13 
C 3949 -32 4262 -109 4371 -186 
C 4474 -256 4499 -365 4499 -499 
C 4832 -506 5094 -403 5299 -179 
C 5651 211 5862 1786 5946 3955 
C 6086 3962 6170 4000 6221 4051 
L 5728 4467 
L 5478 4192 
L 3226 4192 
C 3373 4474 3501 4762 3603 5043 
C 3738 5043 3814 5101 3840 5171 
z
M 1933 3962 
L 1664 3584 
L 1523 3584 
L 1523 5018 
C 1690 5037 1741 5094 1760 5184 
L 1114 5254 
L 1114 3584 
L 256 3584 
L 307 3398 
L 1114 3398 
L 1114 1178 
C 742 1075 435 992 250 954 
L 538 403 
C 602 429 653 486 672 570 
C 1549 960 2195 1286 2643 1523 
L 2618 1606 
L 1523 1293 
L 1523 3398 
L 2259 3398 
C 2349 3398 2406 3430 2426 3501 
C 2246 3693 1933 3962 1933 3962 
z
" transform="scale(0.015625)"/>
       <path id="NotoSerifCJKsc-Regular-65b9" d="M 2630 5414 
L 2560 5363 
C 2867 5094 3232 4634 3309 4262 
C 3776 3936 4115 4947 2630 5414 
z
M 5536 4480 
L 5210 4077 
L 288 4077 
L 339 3885 
L 2266 3885 
C 2208 2042 1850 634 410 -454 
L 467 -525 
C 1843 211 2400 1261 2637 2624 
L 4646 2624 
C 4576 1306 4429 301 4224 115 
C 4147 51 4090 38 3962 38 
C 3814 38 3283 90 2976 115 
L 2970 0 
C 3238 -38 3552 -109 3654 -186 
C 3757 -250 3789 -371 3782 -493 
C 4083 -493 4333 -410 4512 -250 
C 4819 45 4992 1107 5062 2573 
C 5197 2586 5280 2618 5325 2669 
L 4838 3078 
L 4582 2816 
L 2662 2816 
C 2714 3155 2746 3507 2771 3885 
L 5958 3885 
C 6048 3885 6106 3917 6125 3987 
C 5901 4198 5536 4480 5536 4480 
z
" transform="scale(0.015625)"/>
       <path id="NotoSerifCJKsc-Regular-6839" d="M 6125 1850 
L 5670 2208 
C 5478 1952 5056 1472 4704 1139 
C 4422 1530 4198 1984 4045 2470 
L 5190 2470 
L 5190 2234 
L 5248 2234 
C 5389 2234 5581 2336 5587 2381 
L 5587 4659 
C 5715 4685 5818 4730 5862 4781 
L 5357 5171 
L 5126 4922 
L 3366 4922 
L 2893 5158 
L 2893 211 
C 2893 70 2867 32 2675 -64 
L 2886 -506 
C 2918 -493 2957 -467 2995 -416 
C 3571 -102 4134 243 4429 410 
L 4397 499 
L 3290 102 
L 3290 2470 
L 3910 2470 
C 4230 1075 4826 70 5856 -474 
C 5914 -282 6048 -160 6208 -134 
L 6214 -70 
C 5645 141 5165 531 4781 1030 
C 5235 1274 5715 1632 5946 1830 
C 6035 1798 6093 1805 6125 1850 
z
M 3290 4538 
L 3290 4730 
L 5190 4730 
L 5190 3802 
L 3290 3802 
L 3290 4538 
z
M 3290 3616 
L 5190 3616 
L 5190 2656 
L 3290 2656 
L 3290 3616 
z
M 2246 4250 
L 1971 3878 
L 1696 3878 
L 1696 5146 
C 1862 5171 1914 5229 1926 5325 
L 1293 5395 
L 1293 3878 
L 275 3878 
L 326 3686 
L 1197 3686 
C 1018 2720 710 1741 218 998 
L 314 909 
C 736 1382 1056 1926 1293 2528 
L 1293 -506 
L 1382 -506 
C 1523 -506 1696 -410 1696 -346 
L 1696 2950 
C 1926 2682 2182 2304 2253 2003 
C 2662 1702 2995 2534 1696 3078 
L 1696 3686 
L 2598 3686 
C 2688 3686 2746 3718 2765 3789 
C 2566 3987 2246 4250 2246 4250 
z
" transform="scale(0.015625)"/>
       <path id="NotoSerifCJKsc-Regular-3d" d="M 3475 1466 
L 3475 1734 
L 243 1734 
L 243 1466 
L 3475 1466 
z
M 3475 2874 
L 3475 3142 
L 243 3142 
L 243 2874 
L 3475 2874 
z
" transform="scale(0.015625)"/>
       <path id="NotoSerifCJKsc-Regular-37" d="M 986 0 
L 1453 0 
L 3123 4371 
L 3123 4659 
L 352 4659 
L 352 4211 
L 2829 4211 
L 934 45 
L 986 0 
z
" transform="scale(0.015625)"/>
      </defs>
      <use xlink:href="#NotoSerifCJKsc-Regular-5747"/>
      <use xlink:href="#NotoSerifCJKsc-Regular-65b9" x="99.999985"/>
      <use xlink:href="#NotoSerifCJKsc-Regular-6839" x="199.999969"/>
      <use xlink:href="#NotoSerifCJKsc-Regular-8bef" x="299.999954"/>
      <use xlink:href="#NotoSerifCJKsc-Regular-5dee" x="399.999939"/>
      <use xlink:href="#NotoSerifCJKsc-Regular-20" x="499.999924"/>
      <use xlink:href="#NotoSerifCJKsc-Regular-3d" x="525.599915"/>
      <use xlink:href="#NotoSerifCJKsc-Regular-20" x="583.599899"/>
      <use xlink:href="#NotoSerifCJKsc-Regular-30" x="609.19989"/>
      <use xlink:href="#NotoSerifCJKsc-Regular-2e" x="664.899887"/>
      <use xlink:href="#NotoSerifCJKsc-Regular-31" x="697.599884"/>
      <use xlink:href="#NotoSerifCJKsc-Regular-31" x="744.699875"/>
      <use xlink:href="#NotoSerifCJKsc-Regular-37" x="791.799866"/>
      <use xlink:href="#NotoSerifCJKsc-Regular-20" x="846.69986"/>
      <use xlink:href="#NotoSerifCJKsc-Regular-6d" x="872.29985"/>
     </g>
    </g>
    <g id="line2d_32">
     <path d="M 66.96875 82.6575 
L 78.96875 82.6575 
L 90.96875 82.6575 
" style="fill: none; stroke-dasharray: 5.55,2.4; stroke-dashoffset: 0; stroke: #3498db; stroke-opacity: 0.7; stroke-width: 1.5"/>
    </g>
    <g id="text_19">
     <!-- 平均误差 = 0.087 m -->
     <g transform="translate(100.56875 86.8575)scale(0.12 -0.12)">
      <defs>
       <path id="NotoSerifCJKsc-Regular-5e73" d="M 1254 4288 
L 1165 4250 
C 1446 3802 1779 3110 1818 2579 
C 2272 2150 2682 3251 1254 4288 
z
M 4800 4301 
C 4563 3648 4243 2931 3981 2490 
L 4070 2426 
C 4467 2803 4883 3373 5203 3936 
C 5338 3923 5414 3981 5440 4045 
L 4800 4301 
z
M 608 4877 
L 659 4691 
L 2989 4691 
L 2989 2074 
L 269 2074 
L 326 1888 
L 2989 1888 
L 2989 -506 
L 3053 -506 
C 3270 -506 3411 -397 3411 -358 
L 3411 1888 
L 5958 1888 
C 6054 1888 6118 1920 6131 1984 
C 5901 2195 5530 2477 5530 2477 
L 5197 2074 
L 3411 2074 
L 3411 4691 
L 5683 4691 
C 5766 4691 5830 4723 5850 4794 
C 5619 4998 5248 5280 5248 5280 
L 4915 4877 
L 608 4877 
z
" transform="scale(0.015625)"/>
      </defs>
      <use xlink:href="#NotoSerifCJKsc-Regular-5e73"/>
      <use xlink:href="#NotoSerifCJKsc-Regular-5747" x="99.999985"/>
      <use xlink:href="#NotoSerifCJKsc-Regular-8bef" x="199.999969"/>
      <use xlink:href="#NotoSerifCJKsc-Regular-5dee" x="299.999954"/>
      <use xlink:href="#NotoSerifCJKsc-Regular-20" x="399.999939"/>
      <use xlink:href="#NotoSerifCJKsc-Regular-3d" x="425.59993"/>
      <use xlink:href="#NotoSerifCJKsc-Regular-20" x="483.599915"/>
      <use xlink:href="#NotoSerifCJKsc-Regular-30" x="509.199905"/>
      <use xlink:href="#NotoSerifCJKsc-Regular-2e" x="564.899902"/>
      <use xlink:href="#NotoSerifCJKsc-Regular-30" x="597.599899"/>
      <use xlink:href="#NotoSerifCJKsc-Regular-38" x="653.299896"/>
      <use xlink:href="#NotoSerifCJKsc-Regular-37" x="709.099884"/>
      <use xlink:href="#NotoSerifCJKsc-Regular-20" x="763.999878"/>
      <use xlink:href="#NotoSerifCJKsc-Regular-6d" x="789.599869"/>
     </g>
    </g>
   </g>
  </g>
 </g>
 <defs>
  <clipPath id="p5dafee1bc3">
   <rect x="56.16875" y="28.8375" width="437.03125" height="283.4425"/>
  </clipPath>
 </defs>
</svg>
