<?xml version="1.0" encoding="utf-8" standalone="no"?>
<!DOCTYPE svg PUBLIC "-//W3C//DTD SVG 1.1//EN"
  "http://www.w3.org/Graphics/SVG/1.1/DTD/svg11.dtd">
<svg xmlns:xlink="http://www.w3.org/1999/xlink" width="504pt" height="360pt" viewBox="0 0 504 360" xmlns="http://www.w3.org/2000/svg" version="1.1">
 <metadata>
  <rdf:RDF xmlns:dc="http://purl.org/dc/elements/1.1/" xmlns:cc="http://creativecommons.org/ns#" xmlns:rdf="http://www.w3.org/1999/02/22-rdf-syntax-ns#">
   <cc:Work>
    <dc:type rdf:resource="http://purl.org/dc/dcmitype/StillImage"/>
    <dc:date>2026-05-31T19:03:25.168517</dc:date>
    <dc:format>image/svg+xml</dc:format>
    <dc:creator>
     <cc:Agent>
      <dc:title>Matplotlib v3.5.1, https://matplotlib.org/</dc:title>
     </cc:Agent>
    </dc:creator>
   </cc:Work>
  </rdf:RDF>
 </metadata>
 <defs>
  <style type="text/css">*{stroke-linejoin: round; stroke-linecap: butt}</style>
 </defs>
 <g id="figure_1">
  <g id="patch_1">
   <path d="M 0 360 
L 504 360 
L 504 0 
L 0 0 
z
" style="fill: #ffffff"/>
  </g>
  <g id="axes_1">
   <g id="patch_2">
    <path d="M 56.07875 312.28 
L 493.2 312.28 
L 493.2 28.8375 
L 56.07875 28.8375 
z
" style="fill: #ffffff"/>
   </g>
   <g id="matplotlib.axis_1">
    <g id="xtick_1">
     <g id="line2d_1">
      <path d="M 75.98903 312.28 
L 75.98903 28.8375 
" clip-path="url(#p71cfdb5dff)" style="fill: none; stroke: #b0b0b0; stroke-opacity: 0.3; stroke-width: 0.8; stroke-linecap: square"/>
     </g>
     <g id="line2d_2">
      <defs>
       <path id="mdfb11c61b9" d="M 0 0 
L 0 3.5 
" style="stroke: #000000; stroke-width: 0.8"/>
      </defs>
      <g>
       <use xlink:href="#mdfb11c61b9" x="75.98903" y="312.28" style="stroke: #000000; stroke-width: 0.8"/>
      </g>
     </g>
     <g id="text_1">
      <!-- 0.0 -->
      <g transform="translate(68.783562 327.33)scale(0.1 -0.1)">
       <defs>
        <path id="NotoSerifCJKsc-Regular-30" d="M 1779 -96 
C 2547 -96 3258 602 3258 2342 
C 3258 4058 2547 4755 1779 4755 
C 1011 4755 301 4058 301 2342 
C 301 602 1011 -96 1779 -96 
z
M 1779 102 
C 1299 102 832 640 832 2342 
C 832 4019 1299 4550 1779 4550 
C 2253 4550 2726 4019 2726 2342 
C 2726 640 2253 102 1779 102 
z
" transform="scale(0.015625)"/>
        <path id="NotoSerifCJKsc-Regular-2e" d="M 1043 -96 
C 1267 -96 1440 90 1440 294 
C 1440 518 1267 691 1043 691 
C 813 691 653 518 653 294 
C 653 90 813 -96 1043 -96 
z
" transform="scale(0.015625)"/>
       </defs>
       <use xlink:href="#NotoSerifCJKsc-Regular-30"/>
       <use xlink:href="#NotoSerifCJKsc-Regular-2e" x="55.699997"/>
       <use xlink:href="#NotoSerifCJKsc-Regular-30" x="88.399994"/>
      </g>
     </g>
    </g>
    <g id="xtick_2">
     <g id="line2d_3">
      <path d="M 136.089271 312.28 
L 136.089271 28.8375 
" clip-path="url(#p71cfdb5dff)" style="fill: none; stroke: #b0b0b0; stroke-opacity: 0.3; stroke-width: 0.8; stroke-linecap: square"/>
     </g>
     <g id="line2d_4">
      <g>
       <use xlink:href="#mdfb11c61b9" x="136.089271" y="312.28" style="stroke: #000000; stroke-width: 0.8"/>
      </g>
     </g>
     <g id="text_2">
      <!-- 2.5 -->
      <g transform="translate(128.874427 327.33)scale(0.1 -0.1)">
       <defs>
        <path id="NotoSerifCJKsc-Regular-32" d="M 410 0 
L 3270 0 
L 3270 448 
L 762 448 
C 1152 877 1530 1293 1715 1485 
C 2688 2483 3078 2950 3078 3539 
C 3078 4294 2637 4755 1779 4755 
C 1126 4755 512 4422 410 3770 
C 448 3642 550 3571 672 3571 
C 819 3571 922 3654 986 3904 
L 1139 4461 
C 1306 4531 1466 4557 1626 4557 
C 2195 4557 2534 4192 2534 3552 
C 2534 2989 2253 2541 1574 1722 
C 1261 1350 832 845 410 346 
L 410 0 
z
" transform="scale(0.015625)"/>
        <path id="NotoSerifCJKsc-Regular-35" d="M 1574 -96 
C 2573 -96 3213 499 3213 1408 
C 3213 2317 2624 2803 1709 2803 
C 1421 2803 1158 2765 902 2656 
L 1005 4211 
L 3091 4211 
L 3091 4659 
L 800 4659 
L 653 2458 
L 813 2394 
C 1037 2496 1286 2547 1562 2547 
C 2221 2547 2650 2176 2650 1382 
C 2650 563 2234 102 1498 102 
C 1293 102 1146 134 998 198 
L 845 691 
C 794 922 710 1005 550 1005 
C 429 1005 326 941 282 819 
C 397 230 883 -96 1574 -96 
z
" transform="scale(0.015625)"/>
       </defs>
       <use xlink:href="#NotoSerifCJKsc-Regular-32"/>
       <use xlink:href="#NotoSerifCJKsc-Regular-2e" x="55.799988"/>
       <use xlink:href="#NotoSerifCJKsc-Regular-35" x="88.499985"/>
      </g>
     </g>
    </g>
    <g id="xtick_3">
     <g id="line2d_5">
      <path d="M 196.189512 312.28 
L 196.189512 28.8375 
" clip-path="url(#p71cfdb5dff)" style="fill: none; stroke: #b0b0b0; stroke-opacity: 0.3; stroke-width: 0.8; stroke-linecap: square"/>
     </g>
     <g id="line2d_6">
      <g>
       <use xlink:href="#mdfb11c61b9" x="196.189512" y="312.28" style="stroke: #000000; stroke-width: 0.8"/>
      </g>
     </g>
     <g id="text_3">
      <!-- 5.0 -->
      <g transform="translate(188.979355 327.33)scale(0.1 -0.1)">
       <use xlink:href="#NotoSerifCJKsc-Regular-35"/>
       <use xlink:href="#NotoSerifCJKsc-Regular-2e" x="55.799988"/>
       <use xlink:href="#NotoSerifCJKsc-Regular-30" x="88.499985"/>
      </g>
     </g>
    </g>
    <g id="xtick_4">
     <g id="line2d_7">
      <path d="M 256.289752 312.28 
L 256.289752 28.8375 
" clip-path="url(#p71cfdb5dff)" style="fill: none; stroke: #b0b0b0; stroke-opacity: 0.3; stroke-width: 0.8; stroke-linecap: square"/>
     </g>
     <g id="line2d_8">
      <g>
       <use xlink:href="#mdfb11c61b9" x="256.289752" y="312.28" style="stroke: #000000; stroke-width: 0.8"/>
      </g>
     </g>
     <g id="text_4">
      <!-- 7.5 -->
      <g transform="translate(249.11944 327.33)scale(0.1 -0.1)">
       <defs>
        <path id="NotoSerifCJKsc-Regular-37" d="M 986 0 
L 1453 0 
L 3123 4371 
L 3123 4659 
L 352 4659 
L 352 4211 
L 2829 4211 
L 934 45 
L 986 0 
z
" transform="scale(0.015625)"/>
       </defs>
       <use xlink:href="#NotoSerifCJKsc-Regular-37"/>
       <use xlink:href="#NotoSerifCJKsc-Regular-2e" x="54.899994"/>
       <use xlink:href="#NotoSerifCJKsc-Regular-35" x="87.599991"/>
      </g>
     </g>
    </g>
    <g id="xtick_5">
     <g id="line2d_9">
      <path d="M 316.389993 312.28 
L 316.389993 28.8375 
" clip-path="url(#p71cfdb5dff)" style="fill: none; stroke: #b0b0b0; stroke-opacity: 0.3; stroke-width: 0.8; stroke-linecap: square"/>
     </g>
     <g id="line2d_10">
      <g>
       <use xlink:href="#mdfb11c61b9" x="316.389993" y="312.28" style="stroke: #000000; stroke-width: 0.8"/>
      </g>
     </g>
     <g id="text_5">
      <!-- 10.0 -->
      <g transform="translate(306.829836 327.33)scale(0.1 -0.1)">
       <defs>
        <path id="NotoSerifCJKsc-Regular-31" d="M 480 0 
L 2733 -6 
L 2733 173 
L 1907 269 
L 1894 1472 
L 1894 3642 
L 1920 4653 
L 1824 4723 
L 448 4371 
L 448 4179 
L 1370 4333 
L 1370 1472 
L 1357 269 
L 480 179 
L 480 0 
z
" transform="scale(0.015625)"/>
       </defs>
       <use xlink:href="#NotoSerifCJKsc-Regular-31"/>
       <use xlink:href="#NotoSerifCJKsc-Regular-30" x="47.099991"/>
       <use xlink:href="#NotoSerifCJKsc-Regular-2e" x="102.799988"/>
       <use xlink:href="#NotoSerifCJKsc-Regular-30" x="135.499985"/>
      </g>
     </g>
    </g>
    <g id="xtick_6">
     <g id="line2d_11">
      <path d="M 376.490233 312.28 
L 376.490233 28.8375 
" clip-path="url(#p71cfdb5dff)" style="fill: none; stroke: #b0b0b0; stroke-opacity: 0.3; stroke-width: 0.8; stroke-linecap: square"/>
     </g>
     <g id="line2d_12">
      <g>
       <use xlink:href="#mdfb11c61b9" x="376.490233" y="312.28" style="stroke: #000000; stroke-width: 0.8"/>
      </g>
     </g>
     <g id="text_6">
      <!-- 12.5 -->
      <g transform="translate(366.920702 327.33)scale(0.1 -0.1)">
       <use xlink:href="#NotoSerifCJKsc-Regular-31"/>
       <use xlink:href="#NotoSerifCJKsc-Regular-32" x="47.099991"/>
       <use xlink:href="#NotoSerifCJKsc-Regular-2e" x="102.899979"/>
       <use xlink:href="#NotoSerifCJKsc-Regular-35" x="135.599976"/>
      </g>
     </g>
    </g>
    <g id="xtick_7">
     <g id="line2d_13">
      <path d="M 436.590474 312.28 
L 436.590474 28.8375 
" clip-path="url(#p71cfdb5dff)" style="fill: none; stroke: #b0b0b0; stroke-opacity: 0.3; stroke-width: 0.8; stroke-linecap: square"/>
     </g>
     <g id="line2d_14">
      <g>
       <use xlink:href="#mdfb11c61b9" x="436.590474" y="312.28" style="stroke: #000000; stroke-width: 0.8"/>
      </g>
     </g>
     <g id="text_7">
      <!-- 15.0 -->
      <g transform="translate(427.02563 327.33)scale(0.1 -0.1)">
       <use xlink:href="#NotoSerifCJKsc-Regular-31"/>
       <use xlink:href="#NotoSerifCJKsc-Regular-35" x="47.099991"/>
       <use xlink:href="#NotoSerifCJKsc-Regular-2e" x="102.899979"/>
       <use xlink:href="#NotoSerifCJKsc-Regular-30" x="135.599976"/>
      </g>
     </g>
    </g>
    <g id="text_8">
     <!-- X (m) -->
     <g transform="translate(257.361562 344.395)scale(0.13 -0.13)">
      <defs>
       <path id="NotoSerifCJKsc-Regular-58" d="M 2714 4467 
L 3373 4403 
L 2349 2701 
L 1338 4410 
L 2016 4467 
L 2016 4659 
L 173 4659 
L 173 4467 
L 717 4416 
L 1990 2272 
L 698 256 
L 102 192 
L 102 0 
L 1658 0 
L 1658 192 
L 986 262 
L 2106 2080 
L 3194 250 
L 2522 192 
L 2522 0 
L 4378 0 
L 4378 192 
L 3808 243 
L 2458 2528 
L 3654 4403 
L 4269 4467 
L 4269 4659 
L 2714 4659 
L 2714 4467 
z
" transform="scale(0.015625)"/>
       <path id="NotoSerifCJKsc-Regular-20" transform="scale(0.015625)"/>
       <path id="NotoSerifCJKsc-Regular-28" d="M 1043 1933 
C 1043 3130 1293 3968 2144 5139 
L 2022 5242 
C 1050 4250 589 3219 589 1933 
C 589 653 1050 -378 2022 -1376 
L 2144 -1267 
C 1306 -102 1043 742 1043 1933 
z
" transform="scale(0.015625)"/>
       <path id="NotoSerifCJKsc-Regular-6d" d="M 4979 0 
L 6022 0 
L 6022 179 
L 5536 230 
L 5523 1466 
L 5523 2195 
C 5523 3053 5203 3398 4614 3398 
C 4173 3398 3763 3181 3373 2707 
C 3264 3194 2982 3398 2554 3398 
C 2118 3398 1722 3162 1331 2707 
L 1299 3328 
L 1216 3379 
L 230 3123 
L 230 2963 
L 794 2931 
C 806 2611 813 2291 813 1856 
L 813 1466 
L 800 230 
L 269 179 
L 269 0 
L 1837 0 
L 1837 179 
L 1350 230 
L 1338 1466 
L 1338 2490 
C 1728 2899 2061 3053 2355 3053 
C 2701 3053 2912 2816 2912 2189 
L 2912 1466 
L 2899 230 
L 2368 179 
L 2368 0 
L 3930 0 
L 3930 179 
L 3437 230 
L 3424 1466 
L 3424 2189 
C 3424 2304 3418 2413 3405 2515 
C 3789 2918 4134 3053 4422 3053 
C 4787 3053 5005 2842 5005 2189 
L 5005 1466 
C 5005 1107 4998 589 4992 230 
L 4467 179 
L 4467 0 
L 4979 0 
z
" transform="scale(0.015625)"/>
       <path id="NotoSerifCJKsc-Regular-29" d="M 1299 1933 
C 1299 742 1043 -96 192 -1267 
L 314 -1376 
C 1280 -384 1747 653 1747 1933 
C 1747 3219 1280 4250 314 5242 
L 192 5139 
C 1024 3974 1299 3130 1299 1933 
z
" transform="scale(0.015625)"/>
      </defs>
      <use xlink:href="#NotoSerifCJKsc-Regular-58"/>
      <use xlink:href="#NotoSerifCJKsc-Regular-20" x="69.999985"/>
      <use xlink:href="#NotoSerifCJKsc-Regular-28" x="95.599976"/>
      <use xlink:href="#NotoSerifCJKsc-Regular-6d" x="131.999969"/>
      <use xlink:href="#NotoSerifCJKsc-Regular-29" x="229.399963"/>
     </g>
    </g>
   </g>
   <g id="matplotlib.axis_2">
    <g id="ytick_1">
     <g id="line2d_15">
      <path d="M 56.07875 297.286629 
L 493.2 297.286629 
" clip-path="url(#p71cfdb5dff)" style="fill: none; stroke: #b0b0b0; stroke-opacity: 0.3; stroke-width: 0.8; stroke-linecap: square"/>
     </g>
     <g id="line2d_16">
      <defs>
       <path id="m065abdc51f" d="M 0 0 
L -3.5 0 
" style="stroke: #000000; stroke-width: 0.8"/>
      </defs>
      <g>
       <use xlink:href="#m065abdc51f" x="56.07875" y="297.286629" style="stroke: #000000; stroke-width: 0.8"/>
      </g>
     </g>
     <g id="text_9">
      <!-- 0.00 -->
      <g transform="translate(29.0975 301.311629)scale(0.1 -0.1)">
       <use xlink:href="#NotoSerifCJKsc-Regular-30"/>
       <use xlink:href="#NotoSerifCJKsc-Regular-2e" x="55.699997"/>
       <use xlink:href="#NotoSerifCJKsc-Regular-30" x="88.399994"/>
       <use xlink:href="#NotoSerifCJKsc-Regular-30" x="144.099991"/>
      </g>
     </g>
    </g>
    <g id="ytick_2">
     <g id="line2d_17">
      <path d="M 56.07875 261.409244 
L 493.2 261.409244 
" clip-path="url(#p71cfdb5dff)" style="fill: none; stroke: #b0b0b0; stroke-opacity: 0.3; stroke-width: 0.8; stroke-linecap: square"/>
     </g>
     <g id="line2d_18">
      <g>
       <use xlink:href="#m065abdc51f" x="56.07875" y="261.409244" style="stroke: #000000; stroke-width: 0.8"/>
      </g>
     </g>
     <g id="text_10">
      <!-- 0.02 -->
      <g transform="translate(29.088125 265.434244)scale(0.1 -0.1)">
       <use xlink:href="#NotoSerifCJKsc-Regular-30"/>
       <use xlink:href="#NotoSerifCJKsc-Regular-2e" x="55.699997"/>
       <use xlink:href="#NotoSerifCJKsc-Regular-30" x="88.399994"/>
       <use xlink:href="#NotoSerifCJKsc-Regular-32" x="144.099991"/>
      </g>
     </g>
    </g>
    <g id="ytick_3">
     <g id="line2d_19">
      <path d="M 56.07875 225.531858 
L 493.2 225.531858 
" clip-path="url(#p71cfdb5dff)" style="fill: none; stroke: #b0b0b0; stroke-opacity: 0.3; stroke-width: 0.8; stroke-linecap: square"/>
     </g>
     <g id="line2d_20">
      <g>
       <use xlink:href="#m065abdc51f" x="56.07875" y="225.531858" style="stroke: #000000; stroke-width: 0.8"/>
      </g>
     </g>
     <g id="text_11">
      <!-- 0.04 -->
      <g transform="translate(29.117813 229.556858)scale(0.1 -0.1)">
       <defs>
        <path id="NotoSerifCJKsc-Regular-34" d="M 2170 -115 
L 2650 -115 
L 2650 1229 
L 3418 1229 
L 3418 1600 
L 2650 1600 
L 2650 4730 
L 2291 4730 
L 218 1530 
L 218 1229 
L 2170 1229 
L 2170 -115 
z
M 493 1600 
L 1389 2989 
L 2170 4211 
L 2170 1600 
L 493 1600 
z
" transform="scale(0.015625)"/>
       </defs>
       <use xlink:href="#NotoSerifCJKsc-Regular-30"/>
       <use xlink:href="#NotoSerifCJKsc-Regular-2e" x="55.699997"/>
       <use xlink:href="#NotoSerifCJKsc-Regular-30" x="88.399994"/>
       <use xlink:href="#NotoSerifCJKsc-Regular-34" x="144.099991"/>
      </g>
     </g>
    </g>
    <g id="ytick_4">
     <g id="line2d_21">
      <path d="M 56.07875 189.654473 
L 493.2 189.654473 
" clip-path="url(#p71cfdb5dff)" style="fill: none; stroke: #b0b0b0; stroke-opacity: 0.3; stroke-width: 0.8; stroke-linecap: square"/>
     </g>
     <g id="line2d_22">
      <g>
       <use xlink:href="#m065abdc51f" x="56.07875" y="189.654473" style="stroke: #000000; stroke-width: 0.8"/>
      </g>
     </g>
     <g id="text_12">
      <!-- 0.06 -->
      <g transform="translate(29.088125 193.679473)scale(0.1 -0.1)">
       <defs>
        <path id="NotoSerifCJKsc-Regular-36" d="M 1850 -96 
C 2656 -96 3258 538 3258 1414 
C 3258 2253 2803 2816 2029 2816 
C 1606 2816 1248 2650 941 2323 
C 1107 3450 1850 4339 3136 4614 
L 3104 4755 
C 1414 4557 358 3258 358 1773 
C 358 634 922 -96 1850 -96 
z
M 922 2118 
C 1222 2432 1523 2554 1856 2554 
C 2394 2554 2726 2144 2726 1376 
C 2726 557 2342 102 1856 102 
C 1261 102 909 736 909 1830 
L 922 2118 
z
" transform="scale(0.015625)"/>
       </defs>
       <use xlink:href="#NotoSerifCJKsc-Regular-30"/>
       <use xlink:href="#NotoSerifCJKsc-Regular-2e" x="55.699997"/>
       <use xlink:href="#NotoSerifCJKsc-Regular-30" x="88.399994"/>
       <use xlink:href="#NotoSerifCJKsc-Regular-36" x="144.099991"/>
      </g>
     </g>
    </g>
    <g id="ytick_5">
     <g id="line2d_23">
      <path d="M 56.07875 153.777088 
L 493.2 153.777088 
" clip-path="url(#p71cfdb5dff)" style="fill: none; stroke: #b0b0b0; stroke-opacity: 0.3; stroke-width: 0.8; stroke-linecap: square"/>
     </g>
     <g id="line2d_24">
      <g>
       <use xlink:href="#m065abdc51f" x="56.07875" y="153.777088" style="stroke: #000000; stroke-width: 0.8"/>
      </g>
     </g>
     <g id="text_13">
      <!-- 0.08 -->
      <g transform="translate(29.088125 157.802088)scale(0.1 -0.1)">
       <defs>
        <path id="NotoSerifCJKsc-Regular-38" d="M 1754 -96 
C 2637 -96 3219 384 3219 1126 
C 3219 1722 2893 2131 2093 2502 
C 2784 2829 3027 3251 3027 3686 
C 3027 4301 2579 4755 1798 4755 
C 1075 4755 499 4307 499 3603 
C 499 3059 774 2605 1434 2285 
C 730 1978 365 1587 365 1024 
C 365 352 858 -96 1754 -96 
z
M 1946 2573 
C 1178 2912 973 3302 973 3731 
C 973 4243 1357 4550 1792 4550 
C 2304 4550 2579 4160 2579 3699 
C 2579 3213 2394 2880 1946 2573 
z
M 1587 2214 
C 2458 1830 2720 1453 2720 986 
C 2720 454 2374 102 1779 102 
C 1184 102 832 474 832 1082 
C 832 1568 1050 1888 1587 2214 
z
" transform="scale(0.015625)"/>
       </defs>
       <use xlink:href="#NotoSerifCJKsc-Regular-30"/>
       <use xlink:href="#NotoSerifCJKsc-Regular-2e" x="55.699997"/>
       <use xlink:href="#NotoSerifCJKsc-Regular-30" x="88.399994"/>
       <use xlink:href="#NotoSerifCJKsc-Regular-38" x="144.099991"/>
      </g>
     </g>
    </g>
    <g id="ytick_6">
     <g id="line2d_25">
      <path d="M 56.07875 117.899702 
L 493.2 117.899702 
" clip-path="url(#p71cfdb5dff)" style="fill: none; stroke: #b0b0b0; stroke-opacity: 0.3; stroke-width: 0.8; stroke-linecap: square"/>
     </g>
     <g id="line2d_26">
      <g>
       <use xlink:href="#m065abdc51f" x="56.07875" y="117.899702" style="stroke: #000000; stroke-width: 0.8"/>
      </g>
     </g>
     <g id="text_14">
      <!-- 0.10 -->
      <g transform="translate(29.958438 121.924702)scale(0.1 -0.1)">
       <use xlink:href="#NotoSerifCJKsc-Regular-30"/>
       <use xlink:href="#NotoSerifCJKsc-Regular-2e" x="55.699997"/>
       <use xlink:href="#NotoSerifCJKsc-Regular-31" x="88.399994"/>
       <use xlink:href="#NotoSerifCJKsc-Regular-30" x="135.499985"/>
      </g>
     </g>
    </g>
    <g id="ytick_7">
     <g id="line2d_27">
      <path d="M 56.07875 82.022317 
L 493.2 82.022317 
" clip-path="url(#p71cfdb5dff)" style="fill: none; stroke: #b0b0b0; stroke-opacity: 0.3; stroke-width: 0.8; stroke-linecap: square"/>
     </g>
     <g id="line2d_28">
      <g>
       <use xlink:href="#m065abdc51f" x="56.07875" y="82.022317" style="stroke: #000000; stroke-width: 0.8"/>
      </g>
     </g>
     <g id="text_15">
      <!-- 0.12 -->
      <g transform="translate(29.949063 86.047317)scale(0.1 -0.1)">
       <use xlink:href="#NotoSerifCJKsc-Regular-30"/>
       <use xlink:href="#NotoSerifCJKsc-Regular-2e" x="55.699997"/>
       <use xlink:href="#NotoSerifCJKsc-Regular-31" x="88.399994"/>
       <use xlink:href="#NotoSerifCJKsc-Regular-32" x="135.499985"/>
      </g>
     </g>
    </g>
    <g id="ytick_8">
     <g id="line2d_29">
      <path d="M 56.07875 46.144932 
L 493.2 46.144932 
" clip-path="url(#p71cfdb5dff)" style="fill: none; stroke: #b0b0b0; stroke-opacity: 0.3; stroke-width: 0.8; stroke-linecap: square"/>
     </g>
     <g id="line2d_30">
      <g>
       <use xlink:href="#m065abdc51f" x="56.07875" y="46.144932" style="stroke: #000000; stroke-width: 0.8"/>
      </g>
     </g>
     <g id="text_16">
      <!-- 0.14 -->
      <g transform="translate(29.97875 50.169932)scale(0.1 -0.1)">
       <use xlink:href="#NotoSerifCJKsc-Regular-30"/>
       <use xlink:href="#NotoSerifCJKsc-Regular-2e" x="55.699997"/>
       <use xlink:href="#NotoSerifCJKsc-Regular-31" x="88.399994"/>
       <use xlink:href="#NotoSerifCJKsc-Regular-34" x="135.499985"/>
      </g>
     </g>
    </g>
    <g id="text_17">
     <!-- Y (m) -->
     <g transform="translate(21.708125 187.752266)rotate(-90)scale(0.13 -0.13)">
      <defs>
       <path id="NotoSerifCJKsc-Regular-59" d="M 2765 4467 
L 3450 4403 
L 2368 2138 
L 1274 4410 
L 1978 4467 
L 1978 4659 
L 173 4659 
L 173 4467 
L 640 4422 
L 1926 1850 
C 1926 1069 1926 710 1914 250 
L 1178 192 
L 1178 0 
L 3238 0 
L 3238 192 
L 2496 250 
C 2483 730 2483 1088 2483 1901 
L 3718 4403 
L 4294 4467 
L 4294 4659 
L 2765 4659 
L 2765 4467 
z
" transform="scale(0.015625)"/>
      </defs>
      <use xlink:href="#NotoSerifCJKsc-Regular-59"/>
      <use xlink:href="#NotoSerifCJKsc-Regular-20" x="68.699982"/>
      <use xlink:href="#NotoSerifCJKsc-Regular-28" x="94.299973"/>
      <use xlink:href="#NotoSerifCJKsc-Regular-6d" x="130.699966"/>
      <use xlink:href="#NotoSerifCJKsc-Regular-29" x="228.09996"/>
     </g>
    </g>
   </g>
   <g id="line2d_31">
    <path d="M 75.989295 297.202317 
L 76.059756 298.963897 
L 76.006123 295.128604 
L 75.9998 295.162688 
L 76.024153 276.465189 
L 75.989223 295.395891 
L 76.071416 288.676057 
L 76.148873 288.109194 
L 76.319678 288.937962 
L 76.472717 288.934374 
L 77.595654 290.261837 
L 78.315991 290.450193 
L 79.05395 289.242919 
L 79.644784 287.714543 
L 80.086112 287.052605 
L 80.472604 286.248951 
L 80.93653 286.037275 
L 81.455989 286.13235 
L 82.518176 285.841743 
L 83.129828 286.860661 
L 83.809057 287.725306 
L 84.558026 288.003356 
L 86.263263 288.073317 
L 88.063073 285.276674 
L 89.026407 284.456876 
L 91.012696 281.466496 
L 91.954972 281.140012 
L 92.847581 281.247644 
L 93.748099 280.026019 
L 94.651189 278.294935 
L 95.578584 278.015092 
L 96.513599 277.089455 
L 97.447148 276.332442 
L 99.292995 271.994866 
L 100.283447 271.008238 
L 100.987725 270.685342 
L 101.743907 269.409901 
L 102.433545 268.579339 
L 103.575017 267.569391 
L 104.164552 267.361302 
L 106.122786 265.483121 
L 106.770907 263.757419 
L 107.350394 263.023726 
L 107.934352 261.660385 
L 108.571799 261.475617 
L 109.2705 261.715995 
L 111.233663 258.958818 
L 112.446485 255.735235 
L 113.082731 254.919025 
L 113.704744 254.651738 
L 115.573309 252.51524 
L 116.734734 253.033668 
L 118.47978 252.369937 
L 119.063402 251.494528 
L 119.660437 251.076557 
L 120.254805 249.689896 
L 120.84196 247.854768 
L 121.431111 246.948864 
L 122.010333 246.493221 
L 123.14166 244.457179 
L 124.23082 242.860636 
L 124.789103 242.516213 
L 125.334381 241.766375 
L 125.863816 241.841718 
L 126.372889 241.499089 
L 126.889054 241.746643 
L 127.397622 240.871234 
L 128.429087 238.289857 
L 128.964556 237.645858 
L 129.501972 237.548989 
L 130.041071 236.443965 
L 130.591637 235.776646 
L 131.13129 235.977559 
L 132.192708 235.570351 
L 132.663846 234.964023 
L 133.167822 235.247454 
L 133.69382 234.937115 
L 134.237078 235.026808 
L 135.287654 234.684179 
L 135.789347 235.383788 
L 136.305319 235.482451 
L 136.820595 236.000879 
L 137.33712 235.855576 
L 138.371974 234.289528 
L 140.011244 233.432059 
L 140.545535 233.835679 
L 141.053911 232.987179 
L 142.054196 233.988158 
L 142.572957 234.752346 
L 143.099123 235.321003 
L 144.138809 237.226092 
L 145.181981 238.327528 
L 145.69615 237.803718 
L 146.720475 238.603784 
L 147.272002 240.191358 
L 147.796918 240.25235 
L 148.307938 240.074757 
L 148.821218 241.079323 
L 149.905884 242.241751 
L 150.419596 241.848893 
L 150.932179 242.065951 
L 151.964509 243.669671 
L 152.49166 244.507408 
L 152.994122 244.545079 
L 153.510119 244.742404 
L 154.522856 246.830468 
L 155.055056 247.659236 
L 155.583217 248.053887 
L 156.117604 249.345473 
L 157.708049 251.934026 
L 158.215054 252.359173 
L 158.731892 252.412989 
L 160.247212 254.371895 
L 160.755588 254.470557 
L 161.288028 255.787257 
L 162.299346 258.648479 
L 162.795991 258.722028 
L 163.808007 259.383965 
L 164.315036 259.588466 
L 165.349554 260.924899 
L 165.873195 261.6855 
L 166.38561 261.963549 
L 166.880187 262.77976 
L 167.380581 263.199525 
L 167.896626 262.670334 
L 168.433514 263.404026 
L 169.443101 265.271444 
L 169.960781 265.757583 
L 170.487499 266.42849 
L 170.9821 267.296723 
L 171.478793 267.872555 
L 171.961879 267.940722 
L 172.934901 267.723664 
L 173.43068 267.424087 
L 174.410146 268.810748 
L 174.913714 268.794604 
L 176.434274 270.392941 
L 176.911662 269.766881 
L 177.40196 269.399137 
L 177.894061 268.692353 
L 178.402797 268.276175 
L 178.938603 269.034982 
L 179.4502 269.092386 
L 179.992545 268.242092 
L 180.523254 267.96763 
L 181.025812 267.404355 
L 181.526327 267.571185 
L 182.066388 266.702952 
L 182.600126 267.085046 
L 183.145644 266.672456 
L 183.655438 266.505626 
L 184.129581 265.90468 
L 184.63887 265.757583 
L 185.142751 265.025684 
L 186.654392 264.794275 
L 187.726051 262.508886 
L 188.26241 261.805689 
L 188.775329 261.967137 
L 190.285048 259.615374 
L 190.765873 258.833247 
L 191.760436 259.276333 
L 192.288333 258.208981 
L 192.820076 257.712079 
L 193.321744 257.642118 
L 193.81286 257.832268 
L 194.335852 257.579333 
L 195.394409 255.957675 
L 195.922931 255.740617 
L 198.604387 250.077372 
L 199.141443 249.85852 
L 199.707299 248.792961 
L 200.26325 248.016216 
L 200.803431 246.677989 
L 201.308057 246.231316 
L 202.860614 243.515398 
L 203.37488 242.77453 
L 203.885179 242.439076 
L 204.935707 239.351827 
L 205.451223 238.074592 
L 205.941016 238.381344 
L 206.439704 238.313177 
L 207.48326 236.366829 
L 208.515109 235.475276 
L 209.032957 234.201629 
L 209.555661 232.203258 
L 210.073412 232.142267 
L 210.588207 231.150257 
L 211.117017 230.551105 
L 211.649457 229.546538 
L 212.190648 228.002016 
L 212.702942 225.741741 
L 213.703924 224.529085 
L 214.20415 223.903025 
L 214.700121 221.599697 
L 215.205853 221.145848 
L 215.729999 221.85622 
L 216.825891 218.654164 
L 217.847258 216.302401 
L 218.359312 215.538213 
L 218.889156 215.156119 
L 219.431068 214.354259 
L 219.961537 213.114695 
L 221.015334 211.557617 
L 221.547221 210.205039 
L 222.07382 208.423727 
L 222.576811 207.78511 
L 223.112857 208.597733 
L 224.277768 206.46841 
L 224.862519 205.989447 
L 225.436909 205.255754 
L 226.005169 204.97591 
L 227.109907 202.729986 
L 228.237821 202.044728 
L 229.33477 199.475907 
L 229.864398 199.619417 
L 230.386476 199.246292 
L 230.909877 198.144856 
L 231.414094 196.704379 
L 231.909585 195.760804 
L 232.402912 196.345605 
L 232.901407 195.432526 
L 233.401465 193.844952 
L 233.877579 192.983894 
L 234.413649 192.341689 
L 234.929069 192.573098 
L 235.415809 192.07799 
L 236.401982 190.490416 
L 236.934446 190.199809 
L 237.445153 190.676979 
L 239.631672 184.15447 
L 241.365107 179.633919 
L 241.937526 179.533463 
L 242.501459 179.312817 
L 244.226047 174.408378 
L 244.842676 174.189526 
L 245.424855 171.767803 
L 245.976743 168.666203 
L 246.506947 164.583356 
L 247.069414 163.503447 
L 247.601229 161.553511 
L 248.111936 161.851293 
L 249.075343 163.316884 
L 249.542226 164.472136 
L 250.431036 166.160167 
L 250.829765 166.387989 
L 251.677996 165.905438 
L 252.115887 165.38701 
L 252.560484 163.905274 
L 253.016477 163.498065 
L 253.484417 163.600316 
L 254.442631 162.242357 
L 254.928337 162.647771 
L 255.408178 162.601131 
L 255.926578 162.055794 
L 256.962226 159.67533 
L 257.48517 159.293236 
L 258.034462 159.546171 
L 259.10766 158.645649 
L 259.655582 158.32634 
L 260.216966 158.695877 
L 260.759768 158.701259 
L 261.282495 158.274318 
L 261.827821 158.538017 
L 262.892725 160.02334 
L 263.4074 160.49154 
L 263.934719 160.74627 
L 264.492786 160.640431 
L 265.044867 160.882604 
L 266.071211 161.998391 
L 266.593698 161.670112 
L 267.153039 161.738279 
L 267.712332 162.816395 
L 268.239315 163.589553 
L 268.773942 163.187726 
L 269.312056 163.526767 
L 270.321956 165.1556 
L 270.814394 164.127713 
L 271.334814 163.960884 
L 271.857854 165.223767 
L 272.351517 166.856189 
L 272.853763 167.810527 
L 273.884266 167.397937 
L 274.401152 167.767474 
L 274.898493 168.990893 
L 275.385137 169.49497 
L 275.900821 168.849177 
L 276.43504 169.505733 
L 276.983779 171.324717 
L 277.490232 171.823413 
L 277.988631 171.136361 
L 279.098346 172.521228 
L 279.611362 172.957138 
L 280.085096 172.790308 
L 280.560513 172.096081 
L 281.096102 172.469205 
L 281.674098 173.647778 
L 282.23368 174.333036 
L 282.771673 174.395821 
L 283.276227 173.830752 
L 283.770178 174.630818 
L 284.291488 175.875763 
L 284.812557 176.395985 
L 285.35632 176.52335 
L 285.905035 177.048954 
L 286.989484 178.801564 
L 288.580722 180.320971 
L 289.115686 180.586464 
L 289.647645 181.996445 
L 290.162656 182.810862 
L 290.678485 182.36957 
L 291.202727 181.37756 
L 291.727931 181.625114 
L 292.263064 181.244814 
L 292.799254 180.602609 
L 293.330083 179.578309 
L 293.840839 179.302053 
L 294.339912 179.363045 
L 294.811843 180.286888 
L 295.29452 180.61696 
L 295.80643 180.233072 
L 296.333797 181.343477 
L 297.380383 182.651207 
L 297.855175 182.685291 
L 298.339511 182.48079 
L 298.85707 182.880823 
L 299.400809 183.094293 
L 299.924162 182.245793 
L 300.903771 181.628702 
L 301.402748 182.233236 
L 301.899753 182.64762 
L 302.408778 182.071788 
L 303.45731 183.018951 
L 303.96434 183.973289 
L 304.482789 184.527595 
L 305.016695 184.746447 
L 305.556251 186.224595 
L 307.064238 186.586957 
L 307.607112 186.662299 
L 309.137865 187.957473 
L 309.610926 187.514387 
L 310.132933 187.453395 
L 311.193918 187.824726 
L 311.682197 187.369084 
L 312.211319 187.550264 
L 312.713204 187.96106 
L 313.247519 188.653494 
L 313.786426 188.590709 
L 314.321943 188.169149 
L 314.859384 188.664257 
L 316.391627 189.137839 
L 316.917553 187.934152 
L 317.476437 187.243513 
L 318.012819 187.236337 
L 318.520594 187.110766 
L 319.023561 186.793252 
L 319.559199 186.070322 
L 320.087239 185.725899 
L 320.618261 186.016506 
L 321.136878 185.74922 
L 321.647009 184.983237 
L 322.153149 184.473779 
L 322.681911 184.303361 
L 323.206298 183.738292 
L 323.694263 183.675507 
L 326.832169 181.156914 
L 327.370499 182.116634 
L 327.896256 181.648434 
L 328.413503 180.611578 
L 329.467661 178.082222 
L 330.002192 178.39615 
L 330.531555 177.310859 
L 331.051927 176.643539 
L 331.587372 175.577981 
L 332.657084 171.974098 
L 333.682395 170.126412 
L 334.162692 170.26454 
L 334.645297 170.259159 
L 335.613319 168.126248 
L 336.139244 167.880488 
L 337.193931 168.461702 
L 337.684974 167.848198 
L 338.21465 167.555798 
L 338.749157 167.564767 
L 339.291286 167.923541 
L 339.820336 167.857168 
L 340.843266 166.14761 
L 341.373038 165.749371 
L 341.903362 165.82292 
L 342.450539 164.556448 
L 342.980479 164.081073 
L 343.498254 163.806611 
L 344.003601 163.40299 
L 344.527339 162.357164 
L 345.055452 160.95974 
L 345.567458 160.156087 
L 346.075136 158.00165 
L 346.577238 157.355857 
L 347.081166 157.730776 
L 348.115852 157.653639 
L 348.682741 156.805139 
L 349.206719 156.715446 
L 349.711898 157.513717 
L 350.240612 159.766817 
L 351.353692 162.324875 
L 351.891878 160.837757 
L 352.415423 160.064599 
L 352.924857 165.073082 
L 353.446238 164.527746 
L 353.970529 162.292585 
L 354.480203 160.796498 
L 355.535635 158.968545 
L 356.073941 156.945061 
L 357.112041 156.747735 
L 357.580294 156.371023 
L 358.074486 155.811335 
L 359.111816 154.087427 
L 359.645626 153.594113 
L 360.757385 152.987785 
L 361.274247 153.107974 
L 361.804932 153.468542 
L 362.327107 153.534915 
L 362.866735 152.928588 
L 363.419248 152.137491 
L 363.959814 151.732077 
L 364.474585 151.959898 
L 364.948054 151.758985 
L 365.424457 150.420758 
L 365.911726 150.173204 
L 366.419188 149.46642 
L 366.911577 149.579434 
L 367.429353 150.047633 
L 367.956143 149.139936 
L 368.473342 148.655591 
L 369.005998 148.352427 
L 369.555771 148.364984 
L 370.098909 148.598187 
L 370.627695 148.00621 
L 371.14273 148.894176 
L 371.657381 150.117594 
L 372.19922 150.356179 
L 372.741733 150.252135 
L 373.275135 149.941795 
L 373.775746 148.406243 
L 375.864902 146.811493 
L 376.382269 147.297632 
L 377.437317 147.06981 
L 377.934707 145.792576 
L 378.43313 144.924343 
L 379.502313 145.869712 
L 380.029633 144.66782 
L 381.022224 141.507022 
L 381.539567 141.112371 
L 382.083715 140.49528 
L 383.119675 140.025286 
L 383.658653 141.53393 
L 384.221961 141.984191 
L 384.775316 141.783278 
L 385.28636 140.789474 
L 385.814137 140.981418 
L 386.343139 140.70875 
L 386.866949 139.71674 
L 387.386022 138.148899 
L 387.885239 137.458259 
L 388.360175 138.563282 
L 388.843694 140.323068 
L 389.376638 141.440649 
L 389.944466 141.31149 
L 390.470415 140.974243 
L 390.973983 140.871992 
L 391.498754 139.958913 
L 392.025208 138.658357 
L 392.536974 138.199127 
L 393.073284 138.660151 
L 393.653323 138.54355 
L 394.237522 136.98109 
L 394.781814 135.197984 
L 395.298724 133.999679 
L 395.776761 134.356659 
L 396.267035 132.666834 
L 396.793032 131.780663 
L 397.336459 132.313442 
L 397.867985 133.115301 
L 398.384463 133.470488 
L 398.955174 131.809365 
L 399.537642 129.68363 
L 400.045705 128.271854 
L 400.54283 128.065559 
L 401.037215 127.12019 
L 403.66963 120.775275 
L 404.209738 118.513206 
L 405.210407 116.47537 
L 405.698301 115.78473 
L 406.197205 114.473412 
L 407.264297 112.403287 
L 407.785727 112.326151 
L 408.295233 111.409483 
L 408.816157 109.990533 
L 409.358214 108.049566 
L 409.906111 106.906871 
L 410.443023 107.154425 
L 410.957048 106.096043 
L 411.459943 103.778363 
L 411.949856 102.467045 
L 412.458665 101.638277 
L 412.999735 101.431982 
L 413.568572 100.048909 
L 414.136856 98.267597 
L 414.693672 98.020043 
L 415.208563 98.488243 
L 415.68761 98.037982 
L 416.156801 96.244113 
L 416.673495 95.033251 
L 417.246659 94.624249 
L 417.841098 94.392839 
L 418.383467 93.521019 
L 418.893261 91.88501 
L 419.383655 91.119028 
L 419.902296 91.196164 
L 420.413076 90.674148 
L 420.951237 88.663221 
L 421.50101 87.357284 
L 422.061794 87.036182 
L 422.578127 87.854186 
L 423.062294 86.987747 
L 423.536077 85.821732 
L 424.029764 85.208229 
L 425.04077 86.279169 
L 425.583043 85.581354 
L 426.577077 83.295964 
L 427.110406 84.632397 
L 427.717491 84.11935 
L 428.282722 81.442897 
L 428.805449 80.861684 
L 429.333346 80.752258 
L 429.85641 81.148703 
L 430.862296 78.258779 
L 431.372234 76.568954 
L 432.401752 74.909625 
L 433.899257 70.498501 
L 434.424678 70.073354 
L 436.066953 66.760077 
L 436.552995 66.451532 
L 437.618621 65.285517 
L 438.149931 64.175112 
L 438.674149 64.124883 
L 439.204714 63.627981 
L 439.760906 62.836885 
L 440.310727 61.81438 
L 440.833407 60.603518 
L 441.335316 60.565847 
L 441.861385 59.982839 
L 442.423779 59.855474 
L 442.959537 59.18098 
L 443.430458 59.401626 
L 443.927223 59.145102 
L 444.989867 57.211311 
L 445.510792 56.807691 
L 446.002027 56.773607 
L 446.510091 56.000449 
L 447.046906 56.197775 
L 447.594684 55.47664 
L 448.631172 55.205765 
L 449.151544 54.524095 
L 449.691341 53.544642 
L 450.195654 53.081824 
L 450.680206 53.011863 
L 452.808163 50.683421 
L 454.318002 48.846499 
L 454.873376 48.231202 
L 455.419927 47.208696 
L 455.914793 47.545944 
L 456.408745 48.08231 
L 456.907985 48.342421 
L 457.429199 47.477776 
L 457.948825 45.98169 
L 460.627637 43.509738 
L 461.160222 43.255008 
L 461.694729 43.299855 
L 462.2076 42.962608 
L 462.7254 41.997506 
L 463.237646 41.72125 
L 464.636059 42.431622 
L 464.92329 42.223533 
L 464.895956 42.105138 
L 464.747172 42.558987 
L 464.693202 42.16613 
L 464.693202 42.16613 
" clip-path="url(#p71cfdb5dff)" style="fill: none; stroke: #e74c3c; stroke-width: 2; stroke-linecap: square"/>
   </g>
   <g id="line2d_32">
    <path d="M 75.98903 297.286629 
L 76.256863 297.315564 
L 76.664485 297.813618 
L 77.521833 298.954682 
L 78.107375 299.320772 
L 78.710539 299.39625 
L 79.265021 299.258523 
L 80.23608 298.574833 
L 81.270255 297.724165 
L 81.829686 297.442785 
L 82.427188 297.326113 
L 83.7568 297.443002 
L 84.497835 297.492515 
L 86.114185 297.256039 
L 87.883758 296.770286 
L 90.787789 295.677728 
L 93.665254 294.118118 
L 97.477233 291.889021 
L 100.057653 290.373229 
L 103.34516 288.939833 
L 106.492796 287.69284 
L 109.056382 287.013282 
L 111.716335 286.155688 
L 114.901594 285.196056 
L 116.794771 284.91435 
L 122.810812 284.397751 
L 129.486002 283.407466 
L 131.638973 283.543744 
L 134.349409 283.884616 
L 136.518724 284.412259 
L 141.845418 285.927967 
L 145.005993 286.503761 
L 146.601276 286.453321 
L 148.191845 286.162455 
L 149.804937 285.63652 
L 153.567253 284.215776 
L 155.180571 283.911353 
L 158.90136 283.679986 
L 161.56864 283.477055 
L 163.14592 283.218173 
L 165.755987 282.476579 
L 167.84658 281.520056 
L 172.48794 279.260481 
L 175.573467 277.957019 
L 177.132382 277.161625 
L 179.730689 275.663012 
L 183.898327 273.586502 
L 187.547338 270.863121 
L 190.201557 269.479805 
L 194.912467 266.816257 
L 198.089367 265.080914 
L 201.806654 262.854644 
L 206.064491 260.322437 
L 207.647002 259.583834 
L 210.281844 258.654929 
L 212.415242 258.032593 
L 213.473828 257.504261 
L 217.690381 254.974187 
L 219.835149 254.294162 
L 223.000585 253.373925 
L 225.10047 252.815692 
L 228.307205 252.07362 
L 230.93335 251.157049 
L 233.597273 250.29242 
L 235.188481 250.050562 
L 239.493225 249.781975 
L 240.554735 249.514015 
L 242.680915 248.458308 
L 244.303413 247.705858 
L 247.524218 246.63796 
L 250.202435 246.011598 
L 252.354245 245.611274 
L 253.42647 245.635025 
L 255.023827 245.918561 
L 260.906125 247.131889 
L 264.136374 247.690973 
L 265.21738 248.092091 
L 267.892931 249.551206 
L 270.050637 250.659608 
L 271.140669 251.03102 
L 272.78096 251.208462 
L 274.916837 251.240426 
L 276.508084 251.128804 
L 278.108068 250.677635 
L 280.23654 249.785664 
L 282.379824 248.905682 
L 285.034667 248.096417 
L 287.228312 247.640705 
L 291.494909 246.722833 
L 293.110803 245.950878 
L 300.540178 241.839049 
L 304.799665 239.598394 
L 306.842775 238.511919 
L 320.612564 232.592517 
L 324.831924 230.909169 
L 327.466578 229.899715 
L 329.043498 229.488805 
L 333.277852 228.129435 
L 335.401556 227.498074 
L 339.126817 226.215424 
L 340.141155 226.234969 
L 342.259215 226.673381 
L 343.34405 226.880796 
L 344.407744 226.875468 
L 345.460194 226.697971 
L 347.563565 225.987675 
L 349.689224 225.304392 
L 352.341507 224.778488 
L 355.547427 224.168576 
L 357.708538 223.474167 
L 359.832245 222.828139 
L 362.488989 222.293965 
L 363.531692 222.427073 
L 365.62891 223.087454 
L 367.235923 223.584131 
L 368.305167 223.631822 
L 369.929958 223.231473 
L 372.009027 222.788735 
L 373.590022 222.774852 
L 376.240104 222.810236 
L 377.854634 222.570841 
L 380.022425 221.894017 
L 382.17217 220.961428 
L 384.851662 219.526309 
L 386.453341 218.644818 
L 387.500589 218.334889 
L 390.188163 218.069034 
L 391.797436 217.422259 
L 393.405725 216.692054 
L 394.497145 216.492623 
L 396.103655 216.483591 
L 397.752789 216.503351 
L 398.810201 216.377894 
L 399.880485 215.981993 
L 401.533616 214.88009 
L 403.08921 213.81603 
L 405.25891 212.623389 
L 407.436141 211.075753 
L 409.001147 209.8231 
L 412.759888 206.414439 
L 413.846189 205.860164 
L 416.021867 205.163864 
L 417.649955 204.765744 
L 423.504254 203.712281 
L 427.291048 202.653122 
L 430.541155 201.07792 
L 432.635006 200.435677 
L 433.705781 200.182561 
L 434.790559 199.61088 
L 436.993842 197.927075 
L 439.122207 196.04194 
L 441.276427 194.899764 
L 444.49315 193.716397 
L 447.203725 192.84055 
L 450.969017 191.507602 
L 453.11338 190.874363 
L 454.722484 190.087374 
L 456.87798 188.594774 
L 460.616738 185.810578 
L 462.737137 183.8758 
L 465.372445 181.373263 
L 467.491315 179.918504 
L 473.330852 176.395595 
L 473.330852 176.395595 
" clip-path="url(#p71cfdb5dff)" style="fill: none; stroke: #3498db; stroke-width: 2; stroke-linecap: square"/>
   </g>
   <g id="line2d_33">
    <defs>
     <path id="m4592c2ab84" d="M 0 3 
C 0.795609 3 1.55874 2.683901 2.12132 2.12132 
C 2.683901 1.55874 3 0.795609 3 0 
C 3 -0.795609 2.683901 -1.55874 2.12132 -2.12132 
C 1.55874 -2.683901 0.795609 -3 0 -3 
C -0.795609 -3 -1.55874 -2.683901 -2.12132 -2.12132 
C -2.683901 -1.55874 -3 -0.795609 -3 0 
C -3 0.795609 -2.683901 1.55874 -2.12132 2.12132 
C -1.55874 2.683901 -0.795609 3 0 3 
z
" style="stroke: #e74c3c"/>
    </defs>
    <g clip-path="url(#p71cfdb5dff)">
     <use xlink:href="#m4592c2ab84" x="464.693202" y="42.16613" style="fill: #e74c3c; stroke: #e74c3c"/>
    </g>
   </g>
   <g id="line2d_34">
    <defs>
     <path id="m124ca9be04" d="M 0 3 
C 0.795609 3 1.55874 2.683901 2.12132 2.12132 
C 2.683901 1.55874 3 0.795609 3 0 
C 3 -0.795609 2.683901 -1.55874 2.12132 -2.12132 
C 1.55874 -2.683901 0.795609 -3 0 -3 
C -0.795609 -3 -1.55874 -2.683901 -2.12132 -2.12132 
C -2.683901 -1.55874 -3 -0.795609 -3 0 
C -3 0.795609 -2.683901 1.55874 -2.12132 2.12132 
C -1.55874 2.683901 -0.795609 3 0 3 
z
" style="stroke: #3498db"/>
    </defs>
    <g clip-path="url(#p71cfdb5dff)">
     <use xlink:href="#m124ca9be04" x="473.330852" y="176.395595" style="fill: #3498db; stroke: #3498db"/>
    </g>
   </g>
   <g id="patch_3">
    <path d="M 56.07875 312.28 
L 56.07875 28.8375 
" style="fill: none; stroke: #000000; stroke-width: 0.8; stroke-linejoin: miter; stroke-linecap: square"/>
   </g>
   <g id="patch_4">
    <path d="M 493.2 312.28 
L 493.2 28.8375 
" style="fill: none; stroke: #000000; stroke-width: 0.8; stroke-linejoin: miter; stroke-linecap: square"/>
   </g>
   <g id="patch_5">
    <path d="M 56.07875 312.28 
L 493.2 312.28 
" style="fill: none; stroke: #000000; stroke-width: 0.8; stroke-linejoin: miter; stroke-linecap: square"/>
   </g>
   <g id="patch_6">
    <path d="M 56.07875 28.8375 
L 493.2 28.8375 
" style="fill: none; stroke: #000000; stroke-width: 0.8; stroke-linejoin: miter; stroke-linecap: square"/>
   </g>
   <g id="text_18">
    <!-- (16.17, 0.14) -->
    <g style="fill: #e74c3c" transform="translate(384.693202 32.16613)scale(0.1 -0.1)">
     <defs>
      <path id="NotoSerifCJKsc-Regular-2c" d="M 486 -1126 
C 1069 -890 1434 -461 1434 154 
C 1434 307 1421 410 1376 538 
C 1274 640 1158 672 1037 672 
C 806 672 666 512 666 307 
C 666 160 749 32 928 -70 
L 1126 -192 
C 1037 -557 819 -749 416 -954 
L 486 -1126 
z
" transform="scale(0.015625)"/>
     </defs>
     <use xlink:href="#NotoSerifCJKsc-Regular-28"/>
     <use xlink:href="#NotoSerifCJKsc-Regular-31" x="36.399994"/>
     <use xlink:href="#NotoSerifCJKsc-Regular-36" x="83.499985"/>
     <use xlink:href="#NotoSerifCJKsc-Regular-2e" x="139.299973"/>
     <use xlink:href="#NotoSerifCJKsc-Regular-31" x="171.999969"/>
     <use xlink:href="#NotoSerifCJKsc-Regular-37" x="219.09996"/>
     <use xlink:href="#NotoSerifCJKsc-Regular-2c" x="273.999954"/>
     <use xlink:href="#NotoSerifCJKsc-Regular-20" x="306.699951"/>
     <use xlink:href="#NotoSerifCJKsc-Regular-30" x="332.299942"/>
     <use xlink:href="#NotoSerifCJKsc-Regular-2e" x="387.999939"/>
     <use xlink:href="#NotoSerifCJKsc-Regular-31" x="420.699936"/>
     <use xlink:href="#NotoSerifCJKsc-Regular-34" x="467.799927"/>
     <use xlink:href="#NotoSerifCJKsc-Regular-29" x="523.299911"/>
    </g>
   </g>
   <g id="text_19">
    <!-- (16.53, 0.07) -->
    <g style="fill: #3498db" transform="translate(433.330852 156.395595)scale(0.1 -0.1)">
     <defs>
      <path id="NotoSerifCJKsc-Regular-33" d="M 1638 -96 
C 2534 -96 3155 416 3155 1203 
C 3155 1875 2778 2342 1952 2458 
C 2662 2618 3021 3085 3021 3629 
C 3021 4301 2547 4755 1728 4755 
C 1120 4755 550 4499 442 3866 
C 480 3757 576 3706 685 3706 
C 845 3706 941 3776 998 3994 
L 1146 4486 
C 1306 4538 1453 4557 1606 4557 
C 2163 4557 2477 4205 2477 3610 
C 2477 2925 2035 2554 1414 2554 
L 1158 2554 
L 1158 2330 
L 1446 2330 
C 2214 2330 2611 1926 2611 1222 
C 2611 544 2202 102 1491 102 
C 1312 102 1158 134 1018 186 
L 864 685 
C 806 922 717 1011 563 1011 
C 442 1011 346 941 301 813 
C 429 218 909 -96 1638 -96 
z
" transform="scale(0.015625)"/>
     </defs>
     <use xlink:href="#NotoSerifCJKsc-Regular-28"/>
     <use xlink:href="#NotoSerifCJKsc-Regular-31" x="36.399994"/>
     <use xlink:href="#NotoSerifCJKsc-Regular-36" x="83.499985"/>
     <use xlink:href="#NotoSerifCJKsc-Regular-2e" x="139.299973"/>
     <use xlink:href="#NotoSerifCJKsc-Regular-35" x="171.999969"/>
     <use xlink:href="#NotoSerifCJKsc-Regular-33" x="227.799957"/>
     <use xlink:href="#NotoSerifCJKsc-Regular-2c" x="283.499954"/>
     <use xlink:href="#NotoSerifCJKsc-Regular-20" x="316.199951"/>
     <use xlink:href="#NotoSerifCJKsc-Regular-30" x="341.799942"/>
     <use xlink:href="#NotoSerifCJKsc-Regular-2e" x="397.499939"/>
     <use xlink:href="#NotoSerifCJKsc-Regular-30" x="430.199936"/>
     <use xlink:href="#NotoSerifCJKsc-Regular-37" x="485.899933"/>
     <use xlink:href="#NotoSerifCJKsc-Regular-29" x="540.799927"/>
    </g>
   </g>
   <g id="text_20">
    <!-- 行驶轨迹对比 -->
    <g transform="translate(229.639375 22.8375)scale(0.15 -0.15)">
     <defs>
      <path id="NotoSerifCJKsc-Regular-884c" d="M 1850 5344 
C 1536 4826 902 4058 307 3571 
L 378 3488 
C 1088 3891 1792 4506 2182 4960 
C 2330 4928 2387 4954 2426 5018 
L 1850 5344 
z
M 2765 4774 
L 2810 4582 
L 5754 4582 
C 5837 4582 5901 4614 5920 4685 
C 5715 4883 5370 5146 5370 5146 
L 5075 4774 
L 2765 4774 
z
M 1894 4019 
C 1555 3347 870 2381 192 1754 
L 262 1677 
C 621 1914 966 2208 1280 2509 
L 1280 -506 
L 1357 -506 
C 1523 -506 1690 -403 1702 -365 
L 1702 2746 
C 1805 2765 1869 2810 1894 2861 
L 1696 2938 
C 1914 3181 2106 3418 2253 3629 
C 2406 3603 2458 3629 2496 3693 
L 1894 4019 
z
M 2413 3302 
L 2464 3117 
L 4550 3117 
L 4550 192 
C 4550 90 4506 51 4365 51 
C 4192 51 3290 115 3290 115 
L 3290 13 
C 3674 -32 3891 -90 4013 -160 
C 4122 -224 4173 -339 4192 -474 
C 4877 -416 4973 -160 4973 173 
L 4973 3117 
L 6035 3117 
C 6125 3117 6189 3149 6202 3213 
C 5997 3411 5651 3680 5651 3680 
L 5350 3302 
L 2413 3302 
z
" transform="scale(0.015625)"/>
      <path id="NotoSerifCJKsc-Regular-9a76" d="M 230 1114 
L 499 582 
C 563 608 614 659 634 736 
C 1293 1056 1779 1325 2125 1510 
L 2099 1600 
C 1325 1382 557 1184 230 1114 
z
M 1395 4134 
L 806 4282 
C 787 3853 691 3008 621 2502 
C 531 2470 435 2426 371 2381 
L 806 2048 
L 992 2246 
L 2195 2246 
C 2125 947 1990 230 1818 77 
C 1754 19 1702 6 1594 6 
C 1478 6 1139 38 941 51 
L 934 -58 
C 1120 -90 1306 -141 1382 -205 
C 1459 -262 1472 -371 1472 -486 
C 1702 -486 1926 -422 2086 -275 
C 2349 -32 2515 730 2579 2202 
C 2707 2214 2784 2246 2829 2298 
L 2362 2682 
L 2182 2490 
C 2259 3200 2323 4154 2349 4672 
C 2483 4685 2592 4717 2637 4774 
L 2131 5171 
L 1926 4928 
L 371 4928 
L 429 4742 
L 1978 4742 
C 1946 4115 1869 3181 1773 2432 
L 979 2432 
C 1050 2906 1120 3584 1152 4000 
C 1306 4000 1370 4064 1395 4134 
z
M 2912 4448 
L 2912 2054 
L 2970 2054 
C 3168 2054 3290 2144 3290 2176 
L 3290 2413 
L 4205 2413 
C 4205 1843 4122 1350 3917 934 
C 3610 1210 3366 1549 3206 1952 
L 3098 1894 
C 3258 1408 3482 1011 3770 678 
C 3482 243 3027 -115 2355 -403 
L 2419 -499 
C 3142 -256 3648 64 3987 461 
C 4467 13 5094 -282 5882 -480 
C 5933 -282 6061 -147 6246 -115 
L 6259 -45 
C 5434 90 4730 333 4179 717 
C 4480 1190 4595 1754 4602 2413 
L 5504 2413 
L 5504 2125 
L 5568 2125 
C 5741 2125 5894 2221 5894 2246 
L 5894 4032 
C 6029 4051 6086 4096 6131 4141 
L 5683 4486 
L 5485 4250 
L 4602 4250 
L 4602 5120 
C 4762 5139 4813 5203 4826 5293 
L 4205 5363 
L 4205 4250 
L 3366 4250 
L 2912 4448 
z
M 4205 4058 
L 4205 2605 
L 3290 2605 
L 3290 4058 
L 4205 4058 
z
M 4602 4058 
L 5504 4058 
L 5504 2605 
L 4602 2605 
L 4602 4058 
z
" transform="scale(0.015625)"/>
      <path id="NotoSerifCJKsc-Regular-8f68" d="M 1773 5216 
L 1178 5389 
C 1126 5107 1024 4704 909 4275 
L 179 4275 
L 230 4083 
L 858 4083 
C 704 3533 531 2963 397 2579 
C 320 2547 243 2502 186 2470 
L 595 2163 
L 774 2349 
L 1523 2349 
L 1523 1402 
C 960 1286 486 1203 211 1165 
L 461 653 
C 518 672 576 723 602 800 
L 1523 1088 
L 1523 -480 
L 1594 -480 
C 1805 -480 1939 -378 1939 -346 
L 1939 1222 
C 2368 1370 2726 1498 3034 1613 
L 3021 1715 
L 1939 1485 
L 1939 2349 
L 2925 2349 
C 3014 2349 3078 2381 3091 2451 
C 2899 2637 2592 2874 2592 2874 
L 2317 2534 
L 1939 2534 
L 1939 3546 
C 2093 3565 2144 3622 2163 3712 
L 1555 3782 
L 1555 2534 
L 787 2534 
C 928 2970 1107 3546 1261 4083 
L 2886 4083 
C 2976 4083 3034 4115 3046 4186 
C 2854 4371 2534 4602 2534 4602 
L 2266 4275 
L 1312 4275 
C 1402 4582 1472 4870 1523 5094 
C 1677 5082 1747 5146 1773 5216 
z
M 4275 5306 
L 3610 5376 
C 3610 4755 3610 4198 3597 3680 
L 2675 3680 
L 2733 3494 
L 3590 3494 
C 3539 1734 3296 544 2291 -410 
L 2400 -499 
C 3686 429 3942 1664 4006 3494 
L 4851 3494 
L 4851 122 
C 4851 -134 4909 -256 5254 -256 
L 5530 -256 
C 6054 -256 6214 -179 6214 -13 
C 6214 70 6182 109 6054 160 
L 6029 851 
L 5958 851 
C 5907 582 5843 243 5805 179 
C 5786 134 5760 128 5728 122 
C 5690 122 5619 122 5542 122 
L 5357 122 
C 5261 122 5248 154 5248 237 
L 5248 3424 
C 5382 3437 5466 3475 5510 3514 
L 5024 3936 
L 4787 3680 
L 4013 3680 
L 4038 5126 
C 4192 5146 4256 5210 4275 5306 
z
" transform="scale(0.015625)"/>
      <path id="NotoSerifCJKsc-Regular-8ff9" d="M 3482 5376 
L 3411 5338 
C 3616 5114 3827 4742 3853 4442 
C 4250 4122 4646 4973 3482 5376 
z
M 614 5261 
L 538 5216 
C 813 4864 1165 4307 1261 3891 
C 1709 3558 2035 4493 614 5261 
z
M 3142 3341 
L 2541 3533 
C 2394 2829 2112 2150 1798 1715 
L 1888 1645 
C 2317 2003 2682 2566 2906 3219 
C 3040 3213 3123 3270 3142 3341 
z
M 5101 3488 
L 5011 3443 
C 5299 2989 5658 2285 5696 1754 
C 6131 1363 6490 2406 5101 3488 
z
M 1094 762 
C 838 576 448 230 179 38 
L 544 -429 
C 595 -390 608 -339 582 -282 
C 781 6 1126 442 1261 634 
C 1331 710 1382 723 1472 640 
C 2074 -90 2707 -307 3936 -307 
C 4640 -307 5248 -307 5856 -307 
C 5882 -128 5990 6 6182 45 
L 6182 128 
C 5414 96 4806 96 4070 96 
C 2861 90 2144 211 1555 806 
C 1530 832 1504 858 1485 864 
L 1485 2918 
C 1664 2950 1754 2995 1792 3040 
L 1248 3501 
L 1005 3168 
L 224 3168 
L 262 2982 
L 1094 2982 
L 1094 762 
z
M 3712 4346 
L 1990 4346 
L 2042 4154 
L 3302 4154 
C 3290 2650 3277 1453 2221 595 
L 2304 486 
C 3622 1325 3686 2541 3712 4154 
L 4346 4154 
L 4346 1082 
C 4346 992 4314 966 4211 966 
C 4096 966 3539 1005 3539 1005 
L 3539 909 
C 3795 870 3936 819 4019 755 
C 4096 691 4128 576 4134 454 
C 4678 512 4749 749 4749 1069 
L 4749 4154 
L 5965 4154 
C 6054 4154 6112 4186 6125 4256 
C 5914 4461 5568 4736 5568 4736 
L 5254 4346 
L 3712 4346 
z
" transform="scale(0.015625)"/>
      <path id="NotoSerifCJKsc-Regular-5bf9" d="M 3117 2912 
L 3053 2848 
C 3462 2470 3674 1882 3789 1517 
C 4205 1139 4576 2266 3117 2912 
z
M 5619 4173 
L 5331 3770 
L 5146 3770 
L 5146 5088 
C 5299 5107 5363 5165 5382 5254 
L 4730 5331 
L 4730 3770 
L 2810 3770 
L 2861 3584 
L 4730 3584 
L 4730 179 
C 4730 77 4691 38 4550 38 
C 4403 38 3610 90 3610 90 
L 3610 -6 
C 3949 -45 4134 -102 4250 -179 
C 4352 -256 4397 -365 4416 -493 
C 5069 -435 5146 -198 5146 141 
L 5146 3584 
L 5965 3584 
C 6048 3584 6112 3616 6131 3686 
C 5946 3891 5619 4173 5619 4173 
z
M 730 3693 
L 640 3629 
C 1056 3245 1434 2739 1734 2227 
C 1357 1318 838 461 186 -192 
L 282 -269 
C 1011 307 1555 1037 1965 1824 
C 2195 1376 2374 941 2464 608 
C 2707 45 3136 390 2746 1248 
C 2611 1542 2413 1882 2157 2227 
C 2470 2918 2682 3642 2829 4320 
C 2976 4333 3040 4346 3085 4410 
L 2618 4845 
L 2362 4576 
L 307 4576 
L 365 4384 
L 2387 4384 
C 2272 3795 2106 3181 1875 2579 
C 1562 2957 1184 3334 730 3693 
z
" transform="scale(0.015625)"/>
      <path id="NotoSerifCJKsc-Regular-6bd4" d="M 2624 3494 
L 2310 3078 
L 1421 3078 
L 1421 5018 
C 1594 5043 1670 5107 1690 5216 
L 1011 5286 
L 1011 320 
C 1011 192 973 154 768 13 
L 1094 -422 
C 1133 -390 1184 -339 1210 -256 
C 2016 128 2752 518 3194 736 
L 3162 838 
C 2509 608 1869 384 1421 237 
L 1421 2886 
L 3021 2886 
C 3110 2886 3174 2918 3187 2989 
C 2976 3200 2624 3494 2624 3494 
z
M 4160 5203 
L 3520 5280 
L 3520 294 
C 3520 -96 3674 -230 4205 -230 
L 4890 -230 
C 5926 -230 6170 -160 6170 45 
C 6170 134 6131 179 5971 243 
L 5952 1312 
L 5869 1312 
C 5792 858 5702 390 5651 282 
C 5619 218 5581 198 5510 186 
C 5414 173 5197 166 4896 166 
L 4262 166 
C 3987 166 3930 237 3930 403 
L 3930 2509 
C 4486 2746 5158 3123 5754 3546 
C 5875 3482 5946 3494 6003 3546 
L 5504 4038 
C 5005 3533 4410 3027 3930 2682 
L 3930 5030 
C 4090 5056 4147 5120 4160 5203 
z
" transform="scale(0.015625)"/>
     </defs>
     <use xlink:href="#NotoSerifCJKsc-Regular-884c"/>
     <use xlink:href="#NotoSerifCJKsc-Regular-9a76" x="99.999985"/>
     <use xlink:href="#NotoSerifCJKsc-Regular-8f68" x="199.999969"/>
     <use xlink:href="#NotoSerifCJKsc-Regular-8ff9" x="299.999954"/>
     <use xlink:href="#NotoSerifCJKsc-Regular-5bf9" x="399.999939"/>
     <use xlink:href="#NotoSerifCJKsc-Regular-6bd4" x="499.999924"/>
    </g>
   </g>
   <g id="legend_1">
    <g id="patch_7">
     <path d="M 64.47875 75.9975 
L 282.6875 75.9975 
Q 285.0875 75.9975 285.0875 73.5975 
L 285.0875 37.2375 
Q 285.0875 34.8375 282.6875 34.8375 
L 64.47875 34.8375 
Q 62.07875 34.8375 62.07875 37.2375 
L 62.07875 73.5975 
Q 62.07875 75.9975 64.47875 75.9975 
z
" style="fill: #ffffff; opacity: 0.8; stroke: #cccccc; stroke-linejoin: miter"/>
    </g>
    <g id="line2d_35">
     <path d="M 66.87875 45.0975 
L 78.87875 45.0975 
L 90.87875 45.0975 
" style="fill: none; stroke: #e74c3c; stroke-width: 2; stroke-linecap: square"/>
    </g>
    <g id="text_21">
     <!-- 激光惯性紧耦合里程计 (参考基准) -->
     <g transform="translate(100.47875 49.2975)scale(0.12 -0.12)">
      <defs>
       <path id="NotoSerifCJKsc-Regular-6fc0" d="M 2509 2739 
L 2445 2694 
C 2573 2554 2714 2304 2720 2099 
C 3072 1824 3437 2502 2509 2739 
z
M 570 1299 
C 499 1299 307 1299 307 1299 
L 307 1158 
C 442 1146 518 1126 608 1069 
C 736 979 774 454 685 -186 
C 698 -384 768 -506 883 -506 
C 1101 -506 1229 -333 1242 -64 
C 1261 461 1075 762 1075 1050 
C 1069 1216 1101 1414 1146 1619 
C 1216 1926 1600 3405 1798 4205 
L 1677 4224 
C 806 1658 806 1658 723 1440 
C 659 1306 640 1299 570 1299 
z
M 275 3834 
L 218 3776 
C 461 3616 749 3328 838 3078 
C 1280 2816 1555 3699 275 3834 
z
M 646 5344 
L 589 5280 
C 851 5114 1178 4794 1274 4518 
C 1728 4250 2010 5158 646 5344 
z
M 3738 2374 
L 3456 2022 
L 1517 2022 
L 1568 1830 
L 2272 1830 
C 2246 883 2099 186 1408 -410 
L 1459 -499 
C 2150 -96 2464 435 2605 1178 
L 3386 1178 
C 3347 493 3277 128 3174 38 
C 3130 0 3091 -13 2995 -13 
C 2880 -13 2586 6 2400 26 
L 2400 -90 
C 2560 -109 2733 -154 2797 -205 
C 2867 -262 2886 -365 2886 -467 
C 3085 -467 3277 -422 3405 -320 
C 3616 -154 3718 275 3757 1139 
C 3885 1152 3962 1184 4000 1235 
L 3552 1594 
L 3334 1370 
L 2637 1370 
C 2656 1517 2669 1670 2682 1830 
L 4096 1830 
C 4186 1830 4243 1862 4262 1933 
C 4058 2125 3738 2374 3738 2374 
z
M 5133 5235 
L 4480 5350 
C 4403 4333 4192 3283 3891 2541 
L 3994 2490 
C 4128 2688 4250 2912 4358 3162 
C 4429 2413 4557 1715 4774 1107 
C 4506 538 4096 45 3494 -410 
L 3558 -493 
C 4173 -147 4614 256 4928 723 
C 5146 243 5440 -173 5837 -493 
C 5888 -301 6035 -205 6221 -173 
L 6240 -115 
C 5760 179 5402 589 5133 1088 
C 5517 1837 5645 2739 5702 3834 
L 6022 3834 
C 6112 3834 6176 3866 6195 3936 
C 5990 4128 5658 4397 5658 4397 
L 5363 4019 
L 4666 4019 
C 4762 4358 4838 4717 4902 5082 
C 5043 5094 5107 5158 5133 5235 
z
M 5280 3834 
C 5261 2944 5178 2176 4934 1504 
C 4704 2074 4557 2720 4467 3424 
C 4518 3558 4563 3693 4608 3834 
L 5280 3834 
z
M 2317 2573 
L 2317 2778 
L 3418 2778 
L 3418 2554 
L 3475 2554 
C 3597 2554 3776 2643 3782 2682 
L 3782 4320 
C 3904 4346 4013 4390 4051 4442 
L 3571 4806 
L 3354 4576 
L 2784 4576 
C 2880 4742 2995 4947 3066 5101 
C 3206 5114 3277 5171 3296 5254 
L 2682 5350 
C 2662 5133 2624 4794 2598 4576 
L 2349 4576 
L 1946 4762 
L 1946 2445 
L 2003 2445 
C 2163 2445 2317 2534 2317 2573 
z
M 3418 4390 
L 3418 3776 
L 2317 3776 
L 2317 4390 
L 3418 4390 
z
M 2317 2970 
L 2317 3584 
L 3418 3584 
L 3418 2970 
L 2317 2970 
z
" transform="scale(0.015625)"/>
       <path id="NotoSerifCJKsc-Regular-5149" d="M 941 4979 
L 858 4928 
C 1197 4518 1613 3859 1696 3347 
C 2176 2957 2541 4064 941 4979 
z
M 5062 5018 
C 4774 4384 4378 3693 4070 3283 
L 4160 3213 
C 4582 3565 5069 4090 5453 4621 
C 5587 4595 5677 4640 5709 4710 
L 5062 5018 
z
M 2970 5363 
L 2970 2899 
L 262 2899 
L 314 2714 
L 2227 2714 
C 2150 1197 1734 275 211 -403 
L 243 -499 
C 2042 70 2573 1030 2714 2714 
L 3597 2714 
L 3597 128 
C 3597 -211 3718 -320 4237 -320 
L 4941 -320 
C 5984 -320 6182 -243 6182 -45 
C 6182 38 6157 96 6016 147 
L 5990 1261 
L 5907 1261 
C 5824 781 5747 320 5690 192 
C 5670 122 5645 96 5562 90 
C 5472 77 5248 70 4947 70 
L 4307 70 
C 4058 70 4026 109 4026 230 
L 4026 2714 
L 5958 2714 
C 6048 2714 6112 2746 6125 2816 
C 5901 3027 5536 3302 5536 3302 
L 5210 2899 
L 3392 2899 
L 3392 5114 
C 3552 5139 3616 5203 3629 5293 
L 2970 5363 
z
" transform="scale(0.015625)"/>
       <path id="NotoSerifCJKsc-Regular-60ef" d="M 4371 1818 
L 3757 1984 
C 3718 710 3629 96 1894 -378 
L 1952 -506 
C 3968 -96 4045 576 4134 1696 
C 4282 1690 4346 1747 4371 1818 
z
M 4115 717 
L 4058 640 
C 4557 397 5235 -90 5517 -461 
C 6054 -646 6106 390 4115 717 
z
M 1594 4320 
L 1504 4288 
C 1658 4026 1811 3603 1805 3270 
C 2125 2963 2502 3674 1594 4320 
z
M 666 4128 
L 550 4134 
C 582 3693 442 3174 288 2963 
C 179 2848 128 2701 218 2598 
C 326 2477 538 2554 640 2714 
C 781 2957 845 3475 666 4128 
z
M 1683 5293 
L 1050 5363 
L 1050 -499 
L 1133 -499 
C 1286 -499 1453 -410 1453 -352 
L 1453 5120 
C 1613 5146 1664 5203 1683 5293 
z
M 5818 4378 
L 5594 4051 
L 5421 4051 
L 5446 4698 
C 5574 4710 5683 4749 5728 4800 
L 5222 5190 
L 5024 4954 
L 3162 4954 
L 2669 5165 
C 2662 4870 2624 4454 2586 4051 
L 2118 4051 
L 2170 3859 
L 2566 3859 
L 2483 3200 
C 2394 3174 2298 3130 2240 3085 
L 2688 2746 
L 2886 2957 
L 4947 2957 
L 4928 2758 
C 5133 2733 5254 2752 5350 2810 
L 5414 3859 
L 6067 3859 
C 6150 3859 6202 3891 6221 3962 
C 6080 4134 5818 4378 5818 4378 
z
M 2861 538 
L 2861 2214 
L 5107 2214 
L 5107 480 
L 5171 480 
C 5306 480 5504 576 5510 621 
L 5510 2163 
C 5626 2182 5715 2227 5754 2272 
L 5267 2643 
L 5050 2406 
L 2899 2406 
L 2458 2605 
L 2458 403 
L 2522 403 
C 2694 403 2861 499 2861 538 
z
M 2854 3149 
L 2944 3859 
L 3814 3859 
L 3738 3149 
L 2854 3149 
z
M 3027 4762 
L 3891 4762 
L 3834 4051 
L 2963 4051 
L 3027 4762 
z
M 4966 3149 
L 4109 3149 
L 4179 3859 
L 5024 3859 
L 4966 3149 
z
M 5075 4762 
L 5037 4051 
L 4198 4051 
L 4256 4762 
L 5075 4762 
z
" transform="scale(0.015625)"/>
       <path id="NotoSerifCJKsc-Regular-6027" d="M 1210 5363 
L 1210 -499 
L 1293 -499 
C 1446 -499 1619 -403 1619 -346 
L 1619 5114 
C 1779 5139 1830 5210 1850 5299 
L 1210 5363 
z
M 736 4064 
C 742 3603 557 3091 378 2880 
C 269 2771 211 2624 294 2515 
C 397 2394 621 2464 730 2624 
C 896 2854 1018 3379 851 4058 
L 736 4064 
z
M 1811 4269 
L 1722 4230 
C 1882 3981 2042 3571 2048 3258 
C 2387 2931 2790 3674 1811 4269 
z
M 2880 4941 
C 2752 3987 2477 3027 2131 2381 
L 2234 2317 
C 2509 2643 2746 3066 2938 3546 
L 3917 3546 
L 3917 1990 
L 2592 1990 
L 2643 1805 
L 3917 1805 
L 3917 -83 
L 2086 -83 
L 2138 -269 
L 6080 -269 
C 6163 -269 6234 -237 6246 -166 
C 6042 32 5696 301 5696 301 
L 5389 -83 
L 4333 -83 
L 4333 1805 
L 5715 1805 
C 5798 1805 5869 1837 5882 1907 
C 5683 2099 5338 2374 5338 2374 
L 5050 1990 
L 4333 1990 
L 4333 3546 
L 5888 3546 
C 5978 3546 6042 3578 6061 3642 
C 5850 3840 5510 4109 5510 4109 
L 5216 3725 
L 4333 3725 
L 4333 5088 
C 4474 5107 4525 5165 4538 5254 
L 3917 5318 
L 3917 3725 
L 3008 3725 
C 3117 4019 3206 4326 3283 4646 
C 3424 4646 3488 4710 3514 4787 
L 2880 4941 
z
" transform="scale(0.015625)"/>
       <path id="NotoSerifCJKsc-Regular-7d27" d="M 1389 5056 
L 755 5114 
L 755 3034 
L 819 3034 
C 973 3034 1152 3142 1152 3194 
L 1152 4877 
C 1318 4902 1376 4960 1389 5056 
z
M 2592 5306 
L 1952 5376 
L 1952 2995 
L 2016 2995 
C 2176 2995 2355 3098 2355 3155 
L 2355 5139 
C 2522 5158 2579 5216 2592 5306 
z
M 2483 557 
L 1965 890 
C 1632 518 947 26 346 -250 
L 416 -346 
C 1101 -154 1843 205 2253 518 
C 2381 480 2438 499 2483 557 
z
M 3981 755 
L 3930 672 
C 4480 448 5254 -13 5568 -410 
C 6112 -563 6061 499 3981 755 
z
M 4205 2042 
L 4141 1971 
C 4339 1862 4563 1702 4768 1523 
C 3520 1466 2349 1421 1574 1395 
C 2758 1715 4058 2189 4774 2522 
C 4915 2458 5018 2490 5062 2541 
L 4589 2931 
C 4365 2790 4058 2624 3693 2445 
C 2982 2394 2291 2342 1779 2317 
C 2317 2496 2874 2726 3213 2918 
C 3354 2867 3450 2918 3488 2970 
L 3104 3238 
C 3507 3341 3872 3475 4198 3635 
C 4621 3328 5139 3123 5766 2995 
C 5805 3187 5939 3315 6106 3360 
L 6106 3430 
C 5530 3494 5011 3629 4563 3846 
C 4986 4109 5325 4435 5574 4826 
C 5722 4826 5792 4838 5843 4896 
L 5389 5312 
L 5101 5056 
L 2720 5056 
L 2778 4864 
L 3226 4864 
C 3411 4442 3661 4096 3974 3821 
C 3552 3565 3059 3366 2509 3219 
L 2560 3117 
L 2835 3168 
C 2451 2899 1811 2515 1286 2362 
C 1242 2349 1133 2336 1133 2336 
L 1331 1856 
C 1370 1869 1414 1901 1459 1965 
C 2099 2042 2714 2138 3219 2227 
C 2534 1920 1747 1619 1075 1453 
C 1005 1434 864 1421 864 1421 
L 1069 902 
C 1114 915 1152 947 1190 1005 
C 1843 1062 2451 1120 3008 1178 
L 3008 51 
C 3008 -19 2982 -58 2886 -58 
C 2778 -58 2285 -19 2285 -19 
L 2285 -109 
C 2522 -141 2650 -186 2726 -243 
C 2797 -307 2816 -403 2829 -506 
C 3347 -461 3424 -269 3424 45 
L 3424 1222 
L 4915 1395 
C 5101 1216 5248 1037 5331 870 
C 5805 646 5914 1645 4205 2042 
z
M 4262 4006 
C 3891 4237 3590 4518 3373 4864 
L 5069 4864 
C 4870 4538 4595 4256 4262 4006 
z
" transform="scale(0.015625)"/>
       <path id="NotoSerifCJKsc-Regular-8026" d="M 2234 2893 
L 1952 2534 
L 1651 2534 
L 1651 3296 
L 2432 3296 
C 2522 3296 2579 3328 2592 3398 
C 2419 3571 2138 3795 2138 3795 
L 1894 3482 
L 1651 3482 
L 1651 4205 
L 2522 4205 
C 2611 4205 2669 4237 2688 4307 
C 2496 4493 2189 4736 2189 4736 
L 1914 4397 
L 1651 4397 
L 1651 5139 
C 1811 5165 1862 5222 1875 5312 
L 1267 5382 
L 1267 4397 
L 358 4397 
L 410 4205 
L 1267 4205 
L 1267 3482 
L 416 3482 
L 467 3296 
L 1267 3296 
L 1267 2534 
L 250 2534 
L 301 2349 
L 1165 2349 
C 960 1619 627 883 179 314 
L 256 224 
C 672 602 1011 1043 1267 1530 
L 1267 -493 
L 1350 -493 
C 1485 -493 1651 -403 1651 -346 
L 1651 1901 
C 1888 1619 2138 1229 2202 915 
C 2611 614 2938 1466 1651 2074 
L 1651 2349 
L 2586 2349 
C 2630 2349 2669 2355 2694 2381 
L 2694 -474 
L 2758 -474 
C 2918 -474 3072 -384 3072 -339 
L 3072 2042 
L 4160 2042 
L 4160 1075 
C 3763 1037 3430 1011 3232 998 
L 3469 493 
C 3520 506 3578 544 3610 627 
C 4230 787 4717 934 5075 1037 
C 5120 890 5152 736 5158 602 
C 5472 294 5824 1050 4826 1811 
L 4742 1779 
C 4845 1613 4954 1389 5037 1158 
L 4525 1107 
L 4525 2042 
L 5568 2042 
L 5568 128 
C 5568 38 5542 0 5434 0 
C 5318 0 4774 45 4774 45 
L 4774 -58 
C 5011 -83 5152 -134 5242 -198 
C 5312 -256 5344 -358 5363 -474 
C 5882 -422 5946 -224 5946 77 
L 5946 1971 
C 6067 1997 6170 2042 6214 2093 
L 5702 2470 
L 5504 2227 
L 4525 2227 
L 4525 2874 
L 5357 2874 
L 5357 2637 
L 5421 2637 
C 5600 2637 5760 2720 5760 2752 
L 5760 4813 
C 5882 4838 5946 4870 5990 4922 
L 5536 5274 
L 5338 5030 
L 3424 5030 
L 2970 5229 
L 2970 2573 
L 3027 2573 
C 3226 2573 3347 2662 3347 2701 
L 3347 2874 
L 4154 2874 
L 4154 2227 
L 3104 2227 
L 2720 2413 
C 2733 2419 2739 2432 2746 2451 
C 2547 2637 2234 2893 2234 2893 
z
M 4154 4845 
L 4154 4051 
L 3347 4051 
L 3347 4845 
L 4154 4845 
z
M 4525 4845 
L 5357 4845 
L 5357 4051 
L 4525 4051 
L 4525 4845 
z
M 4154 3066 
L 3347 3066 
L 3347 3866 
L 4154 3866 
L 4154 3066 
z
M 4525 3066 
L 4525 3866 
L 5357 3866 
L 5357 3066 
L 4525 3066 
z
" transform="scale(0.015625)"/>
       <path id="NotoSerifCJKsc-Regular-5408" d="M 1690 3066 
L 1741 2880 
L 4589 2880 
C 4678 2880 4742 2912 4762 2982 
C 4544 3181 4205 3437 4205 3437 
L 3904 3066 
L 1690 3066 
z
M 3315 5024 
C 3776 4096 4749 3251 5798 2733 
C 5843 2886 5997 3034 6182 3072 
L 6195 3162 
C 5069 3616 4006 4294 3437 5107 
C 3597 5120 3674 5152 3693 5222 
L 2944 5402 
C 2605 4480 1306 3200 218 2592 
L 262 2496 
C 1478 3053 2726 4102 3315 5024 
z
M 4602 1690 
L 4602 173 
L 1798 173 
L 1798 1690 
L 4602 1690 
z
M 1370 1875 
L 1370 -493 
L 1440 -493 
C 1619 -493 1798 -390 1798 -352 
L 1798 -19 
L 4602 -19 
L 4602 -442 
L 4666 -442 
C 4806 -442 5024 -346 5030 -307 
L 5030 1600 
C 5158 1632 5261 1683 5306 1734 
L 4774 2138 
L 4531 1875 
L 1837 1875 
L 1370 2086 
L 1370 1875 
z
" transform="scale(0.015625)"/>
       <path id="NotoSerifCJKsc-Regular-91cc" d="M 1056 4922 
L 1056 1856 
L 1126 1856 
C 1306 1856 1485 1958 1485 2003 
L 1485 2285 
L 2976 2285 
L 2976 1267 
L 838 1267 
L 890 1075 
L 2976 1075 
L 2976 -83 
L 269 -83 
L 320 -262 
L 5965 -262 
C 6061 -262 6118 -230 6138 -166 
C 5907 45 5530 326 5530 326 
L 5203 -83 
L 3405 -83 
L 3405 1075 
L 5478 1075 
C 5568 1075 5638 1107 5651 1178 
C 5421 1389 5056 1664 5056 1664 
L 4736 1267 
L 3405 1267 
L 3405 2285 
L 4915 2285 
L 4915 1939 
L 4979 1939 
C 5126 1939 5344 2042 5344 2080 
L 5344 4659 
C 5472 4685 5574 4736 5619 4787 
L 5094 5190 
L 4851 4922 
L 1523 4922 
L 1056 5139 
L 1056 4922 
z
M 4915 4736 
L 4915 3693 
L 3405 3693 
L 3405 4736 
L 4915 4736 
z
M 4915 3507 
L 4915 2470 
L 3405 2470 
L 3405 3507 
L 4915 3507 
z
M 1485 3507 
L 2976 3507 
L 2976 2470 
L 1485 2470 
L 1485 3507 
z
M 1485 3693 
L 1485 4736 
L 2976 4736 
L 2976 3693 
L 1485 3693 
z
" transform="scale(0.015625)"/>
       <path id="NotoSerifCJKsc-Regular-7a0b" d="M 2227 -77 
L 2278 -262 
L 6086 -262 
C 6170 -262 6227 -230 6246 -166 
C 6048 32 5702 301 5702 301 
L 5408 -77 
L 4448 -77 
L 4448 1037 
L 5792 1037 
C 5882 1037 5946 1069 5965 1133 
C 5760 1325 5440 1581 5440 1581 
L 5152 1222 
L 4448 1222 
L 4448 2214 
L 5894 2214 
C 5984 2214 6042 2246 6061 2317 
C 5856 2509 5530 2771 5530 2771 
L 5235 2400 
L 2598 2400 
L 2650 2214 
L 4026 2214 
L 4026 1222 
L 2650 1222 
L 2701 1037 
L 4026 1037 
L 4026 -77 
L 2227 -77 
z
M 2893 4928 
L 2893 2867 
L 2950 2867 
C 3123 2867 3296 2963 3296 3002 
L 3296 3213 
L 5222 3213 
L 5222 2944 
L 5286 2944 
C 5427 2944 5632 3046 5638 3085 
L 5638 4678 
C 5754 4698 5850 4749 5888 4800 
L 5389 5171 
L 5171 4928 
L 3328 4928 
L 2893 5126 
L 2893 4928 
z
M 3296 3405 
L 3296 4742 
L 5222 4742 
L 5222 3405 
L 3296 3405 
z
M 2131 5357 
C 1734 5088 928 4717 256 4525 
L 288 4416 
C 627 4461 986 4531 1318 4608 
L 1318 3494 
L 256 3494 
L 307 3309 
L 1242 3309 
C 1043 2438 698 1555 192 890 
L 275 800 
C 710 1216 1056 1696 1318 2234 
L 1318 -493 
L 1382 -493 
C 1581 -493 1728 -384 1728 -352 
L 1728 2771 
C 1939 2534 2163 2208 2227 1939 
C 2618 1645 2944 2438 1728 2931 
L 1728 3309 
L 2566 3309 
C 2656 3309 2720 3341 2733 3411 
C 2547 3597 2240 3846 2240 3846 
L 1965 3494 
L 1728 3494 
L 1728 4710 
C 1965 4774 2176 4845 2349 4909 
C 2502 4864 2611 4870 2669 4928 
L 2131 5357 
z
" transform="scale(0.015625)"/>
       <path id="NotoSerifCJKsc-Regular-8ba1" d="M 979 5344 
L 909 5293 
C 1229 4986 1645 4461 1773 4070 
C 2240 3776 2515 4749 979 5344 
z
M 1702 3386 
C 1824 3411 1907 3456 1933 3501 
L 1517 3853 
L 1306 3629 
L 288 3629 
L 346 3443 
L 1299 3443 
L 1299 653 
C 1299 538 1267 493 1069 390 
L 1357 -128 
C 1408 -102 1478 -32 1517 70 
C 2080 499 2592 934 2867 1152 
L 2816 1235 
C 2419 1018 2022 806 1702 640 
L 1702 3386 
z
M 4589 5274 
L 3936 5350 
L 3936 3072 
L 2240 3072 
L 2291 2886 
L 3936 2886 
L 3936 -480 
L 4019 -480 
C 4179 -480 4358 -384 4358 -314 
L 4358 2886 
L 5997 2886 
C 6086 2886 6150 2918 6170 2989 
C 5952 3187 5606 3462 5606 3462 
L 5306 3072 
L 4358 3072 
L 4358 5101 
C 4525 5126 4570 5184 4589 5274 
z
" transform="scale(0.015625)"/>
       <path id="NotoSerifCJKsc-Regular-53c2" d="M 5466 813 
L 4998 1229 
C 4128 467 2368 -166 883 -397 
L 915 -506 
C 2496 -397 4288 128 5222 813 
C 5338 762 5421 768 5466 813 
z
M 4640 1594 
L 4173 1958 
C 3494 1331 2150 704 1037 384 
L 1082 275 
C 2285 493 3680 1030 4416 1581 
C 4518 1536 4602 1542 4640 1594 
z
M 3872 2400 
L 3366 2726 
C 2861 2099 1843 1459 941 1120 
L 986 1011 
C 1990 1267 3078 1818 3648 2374 
C 3757 2336 3840 2349 3872 2400 
z
M 4000 4838 
L 3936 4774 
C 4166 4634 4448 4422 4678 4198 
C 3437 4141 2253 4096 1498 4083 
C 2093 4346 2720 4704 3098 4986 
C 3245 4954 3328 5005 3360 5062 
L 2778 5357 
C 2451 5005 1658 4352 1043 4109 
C 986 4090 877 4070 877 4070 
L 1171 3552 
C 1210 3571 1242 3610 1274 3667 
L 2701 3808 
C 2586 3590 2438 3373 2266 3155 
L 301 3155 
L 358 2970 
L 2112 2970 
C 1613 2387 947 1837 211 1472 
L 269 1382 
C 1248 1734 2080 2342 2662 2970 
L 3936 2970 
C 4378 2298 5120 1766 5856 1472 
C 5907 1670 6042 1792 6208 1818 
L 6214 1888 
C 5491 2074 4614 2470 4109 2970 
L 5952 2970 
C 6042 2970 6099 3002 6118 3072 
C 5901 3270 5562 3533 5562 3533 
L 5254 3155 
L 2822 3155 
C 2931 3290 3034 3424 3117 3552 
C 3270 3520 3328 3552 3366 3622 
L 2931 3834 
C 3667 3910 4307 3994 4813 4064 
C 4947 3917 5056 3776 5120 3648 
C 5594 3424 5734 4384 4000 4838 
z
" transform="scale(0.015625)"/>
       <path id="NotoSerifCJKsc-Regular-8003" d="M 5619 3770 
L 5338 3398 
L 4038 3398 
C 4614 3846 5101 4320 5472 4781 
C 5613 4723 5683 4736 5741 4800 
L 5171 5184 
C 4755 4582 4154 3968 3437 3398 
L 2925 3398 
L 2925 4250 
L 4282 4250 
C 4371 4250 4435 4282 4448 4352 
C 4256 4544 3942 4800 3942 4800 
L 3661 4442 
L 2925 4442 
L 2925 5126 
C 3072 5146 3123 5203 3136 5286 
L 2502 5350 
L 2502 4442 
L 864 4442 
L 915 4250 
L 2502 4250 
L 2502 3398 
L 294 3398 
L 352 3206 
L 3187 3206 
C 2310 2547 1280 1958 198 1542 
L 243 1446 
C 909 1651 1549 1907 2144 2208 
L 2630 2208 
C 2579 2022 2496 1760 2419 1555 
C 2323 1523 2221 1485 2157 1440 
L 2598 1088 
L 2803 1286 
L 4730 1286 
C 4634 672 4461 173 4301 64 
C 4224 6 4166 0 4038 0 
C 3891 0 3341 45 3040 70 
L 3034 -38 
C 3315 -77 3603 -141 3706 -211 
C 3808 -282 3834 -397 3834 -506 
C 4122 -506 4365 -448 4538 -326 
C 4826 -122 5056 486 5146 1242 
C 5280 1248 5363 1286 5408 1331 
L 4928 1722 
L 4685 1478 
L 2816 1478 
L 3059 2208 
L 5498 2208 
C 5581 2208 5645 2240 5664 2310 
C 5459 2509 5120 2771 5120 2771 
L 4819 2400 
L 2509 2400 
C 2963 2650 3392 2918 3782 3206 
L 5978 3206 
C 6067 3206 6125 3238 6144 3309 
C 5946 3507 5619 3770 5619 3770 
z
" transform="scale(0.015625)"/>
       <path id="NotoSerifCJKsc-Regular-57fa" d="M 4186 5357 
L 4186 4602 
L 2208 4602 
L 2208 5114 
C 2368 5139 2426 5203 2445 5293 
L 1792 5357 
L 1792 4602 
L 550 4602 
L 608 4416 
L 1792 4416 
L 1792 2227 
L 269 2227 
L 326 2042 
L 1882 2042 
C 1504 1453 934 922 237 544 
L 307 435 
C 1216 806 1971 1344 2432 2042 
L 4096 2042 
C 4499 1376 5178 806 5894 525 
C 5933 710 6042 832 6221 915 
L 6234 992 
C 5555 1152 4730 1530 4294 2042 
L 5971 2042 
C 6061 2042 6125 2074 6144 2144 
C 5926 2349 5581 2624 5581 2624 
L 5274 2227 
L 4608 2227 
L 4608 4416 
L 5741 4416 
C 5824 4416 5882 4448 5901 4518 
C 5696 4710 5363 4979 5363 4979 
L 5069 4602 
L 4608 4602 
L 4608 5114 
C 4768 5139 4832 5203 4845 5293 
L 4186 5357 
z
M 2208 4416 
L 4186 4416 
L 4186 3821 
L 2208 3821 
L 2208 4416 
z
M 2970 1728 
L 2970 947 
L 1568 947 
L 1619 762 
L 2970 762 
L 2970 -166 
L 563 -166 
L 621 -346 
L 5696 -346 
C 5779 -346 5843 -314 5862 -243 
C 5645 -45 5274 230 5274 230 
L 4966 -166 
L 3398 -166 
L 3398 762 
L 4659 762 
C 4749 762 4806 794 4826 864 
C 4634 1043 4326 1286 4326 1286 
L 4051 947 
L 3398 947 
L 3398 1504 
C 3539 1517 3590 1581 3603 1664 
L 2970 1728 
z
M 2208 2227 
L 2208 2842 
L 4186 2842 
L 4186 2227 
L 2208 2227 
z
M 2208 3629 
L 4186 3629 
L 4186 3034 
L 2208 3034 
L 2208 3629 
z
" transform="scale(0.015625)"/>
       <path id="NotoSerifCJKsc-Regular-51c6" d="M 3898 5421 
L 3821 5370 
C 4045 5114 4262 4685 4262 4333 
C 4672 3955 5126 4877 3898 5421 
z
M 493 5088 
L 422 5037 
C 717 4787 1062 4352 1152 3994 
C 1613 3686 1946 4653 493 5088 
z
M 659 1382 
C 589 1382 384 1382 384 1382 
L 384 1235 
C 512 1222 602 1216 691 1152 
C 826 1062 870 582 787 -51 
C 794 -243 864 -365 979 -365 
C 1197 -365 1312 -198 1325 64 
C 1350 576 1165 858 1165 1139 
C 1165 1299 1203 1510 1261 1728 
C 1357 2067 1901 3744 2189 4640 
L 2067 4666 
C 915 1760 915 1760 813 1523 
C 755 1389 730 1382 659 1382 
z
M 5530 4506 
L 5235 4128 
L 3034 4128 
L 3002 4141 
C 3142 4461 3251 4774 3341 5043 
C 3514 5043 3565 5088 3590 5158 
L 2899 5357 
C 2714 4422 2278 3072 1651 2163 
L 1734 2106 
C 2054 2438 2330 2829 2560 3238 
L 2560 -506 
L 2624 -506 
C 2829 -506 2957 -403 2957 -365 
L 2957 -26 
L 6022 -26 
C 6112 -26 6182 6 6195 77 
C 5984 275 5645 544 5645 544 
L 5344 160 
L 4486 160 
L 4486 1338 
L 5747 1338 
C 5837 1338 5894 1370 5914 1440 
C 5709 1638 5376 1907 5376 1907 
L 5088 1530 
L 4486 1530 
L 4486 2624 
L 5747 2624 
C 5837 2624 5894 2656 5914 2726 
C 5709 2925 5376 3194 5376 3194 
L 5088 2816 
L 4486 2816 
L 4486 3936 
L 5914 3936 
C 6003 3936 6061 3968 6080 4038 
C 5875 4237 5530 4506 5530 4506 
z
M 2957 160 
L 2957 1338 
L 4077 1338 
L 4077 160 
L 2957 160 
z
M 2957 1530 
L 2957 2624 
L 4077 2624 
L 4077 1530 
L 2957 1530 
z
M 2957 2816 
L 2957 3936 
L 4077 3936 
L 4077 2816 
L 2957 2816 
z
" transform="scale(0.015625)"/>
      </defs>
      <use xlink:href="#NotoSerifCJKsc-Regular-6fc0"/>
      <use xlink:href="#NotoSerifCJKsc-Regular-5149" x="99.999985"/>
      <use xlink:href="#NotoSerifCJKsc-Regular-60ef" x="199.999969"/>
      <use xlink:href="#NotoSerifCJKsc-Regular-6027" x="299.999954"/>
      <use xlink:href="#NotoSerifCJKsc-Regular-7d27" x="399.999939"/>
      <use xlink:href="#NotoSerifCJKsc-Regular-8026" x="499.999924"/>
      <use xlink:href="#NotoSerifCJKsc-Regular-5408" x="599.999908"/>
      <use xlink:href="#NotoSerifCJKsc-Regular-91cc" x="699.999893"/>
      <use xlink:href="#NotoSerifCJKsc-Regular-7a0b" x="799.999878"/>
      <use xlink:href="#NotoSerifCJKsc-Regular-8ba1" x="899.999863"/>
      <use xlink:href="#NotoSerifCJKsc-Regular-20" x="999.999847"/>
      <use xlink:href="#NotoSerifCJKsc-Regular-28" x="1025.599838"/>
      <use xlink:href="#NotoSerifCJKsc-Regular-53c2" x="1061.999832"/>
      <use xlink:href="#NotoSerifCJKsc-Regular-8003" x="1161.999817"/>
      <use xlink:href="#NotoSerifCJKsc-Regular-57fa" x="1261.999802"/>
      <use xlink:href="#NotoSerifCJKsc-Regular-51c6" x="1361.999786"/>
      <use xlink:href="#NotoSerifCJKsc-Regular-29" x="1461.999771"/>
     </g>
    </g>
    <g id="line2d_36">
     <path d="M 66.87875 63.8775 
L 78.87875 63.8775 
L 90.87875 63.8775 
" style="fill: none; stroke: #3498db; stroke-width: 2; stroke-linecap: square"/>
    </g>
    <g id="text_22">
     <!-- 轻量化局部状态估计 -->
     <g transform="translate(100.47875 68.0775)scale(0.12 -0.12)">
      <defs>
       <path id="NotoSerifCJKsc-Regular-8f7b" d="M 1850 5152 
L 1261 5344 
C 1197 5050 1088 4627 960 4179 
L 179 4179 
L 230 3994 
L 902 3994 
C 755 3494 589 2982 454 2624 
C 352 2592 237 2541 173 2502 
L 614 2138 
L 826 2349 
L 1536 2349 
L 1536 1242 
C 973 1114 499 1018 237 973 
L 531 429 
C 589 448 646 499 666 576 
L 1536 915 
L 1536 -486 
L 1600 -486 
C 1805 -486 1933 -384 1933 -352 
L 1933 1075 
L 2746 1421 
L 2726 1523 
L 1933 1331 
L 1933 2349 
L 2669 2349 
C 2758 2349 2816 2381 2835 2451 
C 2650 2624 2368 2848 2368 2848 
L 2112 2534 
L 1933 2534 
L 1933 3398 
C 2093 3418 2144 3475 2163 3565 
L 1555 3635 
L 1555 2534 
L 826 2534 
C 973 2944 1152 3488 1306 3994 
L 2739 3994 
C 2829 3994 2893 4026 2906 4096 
C 2707 4282 2394 4518 2394 4518 
L 2112 4179 
L 1363 4179 
C 1459 4506 1542 4806 1600 5043 
C 1747 5018 1818 5082 1850 5152 
z
M 5363 2202 
L 5075 1837 
L 2918 1837 
L 2970 1645 
L 4160 1645 
L 4160 -6 
L 2554 -6 
L 2605 -198 
L 6029 -198 
C 6118 -198 6182 -166 6202 -96 
C 5990 102 5658 358 5658 358 
L 5363 -6 
L 4576 -6 
L 4576 1645 
L 5734 1645 
C 5824 1645 5888 1677 5907 1747 
C 5696 1946 5363 2202 5363 2202 
z
M 4557 3373 
C 5018 3040 5581 2534 5824 2170 
C 6323 1958 6458 2893 4666 3494 
C 4992 3846 5261 4211 5472 4570 
C 5632 4576 5702 4589 5754 4653 
L 5286 5082 
L 4992 4806 
L 2906 4806 
L 2963 4621 
L 4966 4621 
C 4493 3731 3578 2733 2675 2093 
L 2758 2010 
C 3437 2368 4051 2854 4557 3373 
z
" transform="scale(0.015625)"/>
       <path id="NotoSerifCJKsc-Regular-91cf" d="M 333 3142 
L 390 2957 
L 5894 2957 
C 5984 2957 6048 2989 6061 3059 
C 5856 3245 5523 3501 5523 3501 
L 5229 3142 
L 333 3142 
z
M 4570 4198 
L 4570 3744 
L 1792 3744 
L 1792 4198 
L 4570 4198 
z
M 4570 4390 
L 1792 4390 
L 1792 4826 
L 4570 4826 
L 4570 4390 
z
M 1376 5011 
L 1376 3277 
L 1440 3277 
C 1606 3277 1792 3373 1792 3411 
L 1792 3558 
L 4570 3558 
L 4570 3315 
L 4634 3315 
C 4768 3315 4979 3411 4986 3450 
L 4986 4749 
C 5114 4774 5216 4826 5261 4870 
L 4742 5274 
L 4506 5011 
L 1830 5011 
L 1376 5216 
L 1376 5011 
z
M 4659 1690 
L 4659 1203 
L 3386 1203 
L 3386 1690 
L 4659 1690 
z
M 4659 1882 
L 3386 1882 
L 3386 2349 
L 4659 2349 
L 4659 1882 
z
M 1734 1690 
L 2976 1690 
L 2976 1203 
L 1734 1203 
L 1734 1690 
z
M 1734 1882 
L 1734 2349 
L 2976 2349 
L 2976 1882 
L 1734 1882 
z
M 806 538 
L 864 352 
L 2976 352 
L 2976 -173 
L 326 -173 
L 384 -358 
L 5926 -358 
C 6022 -358 6086 -326 6099 -256 
C 5875 -58 5530 218 5530 218 
L 5222 -173 
L 3386 -173 
L 3386 352 
L 5510 352 
C 5594 352 5658 384 5677 454 
C 5478 640 5158 883 5158 883 
L 4877 538 
L 3386 538 
L 3386 1018 
L 4659 1018 
L 4659 832 
L 4723 832 
C 4858 832 5069 928 5082 966 
L 5082 2266 
C 5210 2291 5318 2342 5357 2394 
L 4826 2803 
L 4595 2541 
L 1773 2541 
L 1318 2746 
L 1318 717 
L 1382 717 
C 1549 717 1734 813 1734 851 
L 1734 1018 
L 2976 1018 
L 2976 538 
L 806 538 
z
" transform="scale(0.015625)"/>
       <path id="NotoSerifCJKsc-Regular-5316" d="M 5254 4237 
C 4864 3667 4269 3014 3571 2413 
L 3571 5005 
C 3725 5030 3789 5094 3802 5184 
L 3149 5261 
L 3149 2067 
C 2714 1722 2253 1402 1792 1139 
L 1856 1056 
C 2304 1254 2739 1491 3149 1747 
L 3149 243 
C 3149 -186 3328 -314 3923 -314 
L 4717 -314 
C 5894 -314 6163 -243 6163 -26 
C 6163 64 6118 109 5952 173 
L 5933 1120 
L 5850 1120 
C 5760 691 5677 307 5619 198 
C 5587 141 5549 122 5466 109 
C 5350 102 5088 96 4730 96 
L 3968 96 
C 3642 96 3571 166 3571 346 
L 3571 2029 
C 4384 2592 5069 3232 5542 3789 
C 5690 3731 5760 3744 5811 3808 
L 5254 4237 
z
M 1926 5350 
C 1510 4051 806 2771 141 1990 
L 230 1933 
C 563 2208 883 2554 1184 2944 
L 1184 -493 
L 1267 -493 
C 1421 -493 1600 -397 1606 -365 
L 1606 3322 
C 1722 3341 1779 3386 1805 3443 
L 1594 3526 
C 1875 3974 2138 4467 2355 4992 
C 2502 4979 2579 5037 2611 5107 
L 1926 5350 
z
" transform="scale(0.015625)"/>
       <path id="NotoSerifCJKsc-Regular-5c40" d="M 1101 4915 
L 1101 3168 
C 1101 1907 1011 608 256 -435 
L 352 -499 
C 1280 365 1485 1568 1530 2637 
L 5306 2637 
C 5267 1203 5203 256 5030 90 
C 4973 32 4922 19 4806 19 
C 4672 19 4211 58 3949 83 
L 3942 -26 
C 4186 -64 4454 -128 4550 -192 
C 4640 -262 4659 -378 4659 -506 
C 4928 -506 5171 -429 5331 -262 
C 5587 6 5683 979 5722 2586 
C 5850 2598 5926 2630 5971 2682 
L 5485 3085 
L 5242 2822 
L 1530 2822 
L 1536 3174 
L 1536 3610 
L 4774 3610 
L 4774 3258 
L 4832 3258 
C 4973 3258 5184 3347 5190 3386 
L 5190 4653 
C 5318 4678 5421 4730 5459 4781 
L 4941 5178 
L 4710 4915 
L 1613 4915 
L 1101 5133 
L 1101 4915 
z
M 1536 3795 
L 1536 4736 
L 4774 4736 
L 4774 3795 
L 1536 3795 
z
M 2035 1965 
L 2035 51 
L 2099 51 
C 2266 51 2438 147 2438 186 
L 2438 576 
L 3834 576 
L 3834 294 
L 3898 294 
C 4026 294 4230 390 4237 435 
L 4237 1734 
C 4333 1747 4422 1792 4454 1837 
L 3994 2182 
L 3782 1965 
L 2470 1965 
L 2035 2157 
L 2035 1965 
z
M 2438 762 
L 2438 1773 
L 3834 1773 
L 3834 762 
L 2438 762 
z
" transform="scale(0.015625)"/>
       <path id="NotoSerifCJKsc-Regular-90e8" d="M 1504 5376 
L 1434 5331 
C 1626 5133 1824 4781 1843 4506 
C 2227 4186 2630 4998 1504 5376 
z
M 3123 4762 
L 2829 4416 
L 410 4416 
L 461 4224 
L 3482 4224 
C 3571 4224 3635 4256 3648 4326 
C 3443 4518 3123 4762 3123 4762 
z
M 934 4032 
L 851 4000 
C 1024 3706 1222 3238 1242 2886 
C 1613 2541 2022 3341 934 4032 
z
M 3302 3117 
L 3014 2752 
L 2406 2752 
C 2675 3085 2944 3488 3085 3750 
C 3219 3731 3290 3795 3309 3859 
L 2669 4102 
C 2598 3789 2426 3181 2272 2752 
L 307 2752 
L 358 2566 
L 3674 2566 
C 3757 2566 3827 2598 3840 2669 
C 3635 2861 3302 3117 3302 3117 
z
M 1261 314 
L 1261 1709 
L 2765 1709 
L 2765 314 
L 1261 314 
z
M 864 2106 
L 864 -429 
L 928 -429 
C 1133 -429 1261 -339 1261 -301 
L 1261 122 
L 2765 122 
L 2765 -307 
L 2829 -307 
C 3021 -307 3168 -211 3168 -186 
L 3168 1683 
C 3296 1702 3366 1741 3405 1792 
L 2950 2150 
L 2746 1901 
L 1331 1901 
L 864 2106 
z
M 4006 5114 
L 4006 -506 
L 4070 -506 
C 4282 -506 4410 -397 4410 -365 
L 4410 4672 
L 5453 4672 
C 5280 4122 4992 3322 4813 2899 
C 5389 2368 5626 1856 5626 1357 
C 5626 1075 5555 934 5414 870 
C 5357 838 5318 832 5242 832 
C 5107 832 4794 832 4614 832 
L 4614 723 
C 4800 704 4947 672 5011 621 
C 5069 570 5101 442 5101 307 
C 5798 333 6048 640 6042 1267 
C 6042 1805 5754 2374 4966 2918 
C 5261 3328 5696 4134 5920 4570 
C 6067 4570 6163 4582 6214 4634 
L 5722 5126 
L 5440 4864 
L 4493 4864 
L 4006 5114 
z
" transform="scale(0.015625)"/>
       <path id="NotoSerifCJKsc-Regular-72b6" d="M 4723 5018 
L 4666 4960 
C 4934 4781 5235 4435 5280 4115 
C 5728 3821 6035 4781 4723 5018 
z
M 474 4320 
L 397 4275 
C 659 3974 947 3482 973 3085 
C 1395 2707 1811 3686 474 4320 
z
M 3763 5312 
C 3757 4589 3757 3942 3725 3354 
L 2163 3354 
L 2214 3168 
L 3712 3168 
C 3603 1638 3264 531 2131 -397 
L 2227 -499 
C 3597 397 3987 1523 4115 3085 
C 4250 1971 4608 461 5773 -454 
C 5830 -211 5965 -122 6176 -102 
L 6189 -26 
C 4864 838 4390 2112 4224 3168 
L 5990 3168 
C 6080 3168 6138 3200 6157 3264 
C 5946 3462 5606 3725 5606 3725 
L 5312 3354 
L 4128 3354 
C 4160 3872 4173 4442 4179 5062 
C 4333 5082 4397 5152 4410 5242 
L 3763 5312 
z
M 1549 5331 
L 1549 2157 
C 1005 1786 474 1446 250 1318 
L 602 826 
C 659 864 691 947 691 1024 
C 1037 1389 1331 1722 1549 1965 
L 1549 -486 
L 1632 -486 
C 1792 -486 1971 -378 1971 -314 
L 1971 5088 
C 2125 5114 2176 5178 2195 5267 
L 1549 5331 
z
" transform="scale(0.015625)"/>
       <path id="NotoSerifCJKsc-Regular-6001" d="M 2534 1651 
L 1920 1715 
L 1920 96 
C 1920 -237 2042 -326 2624 -326 
L 3501 -326 
C 4723 -326 4947 -262 4947 -58 
C 4947 26 4902 70 4749 115 
L 4736 851 
L 4653 851 
C 4576 518 4506 243 4448 141 
C 4416 83 4390 70 4294 64 
C 4192 51 3898 45 3520 45 
L 2669 45 
C 2368 45 2336 77 2336 173 
L 2336 1498 
C 2458 1510 2522 1568 2534 1651 
z
M 1325 1581 
L 1210 1581 
C 1184 1043 864 576 563 403 
C 435 314 358 186 422 70 
C 506 -64 723 -26 890 96 
C 1152 288 1472 794 1325 1581 
z
M 4928 1568 
L 4851 1510 
C 5210 1178 5619 595 5690 141 
C 6163 -218 6509 870 4928 1568 
z
M 2886 1914 
L 2816 1856 
C 3104 1581 3456 1101 3514 723 
C 3930 403 4256 1331 2886 1914 
z
M 5568 4659 
L 5267 4288 
L 3194 4288 
C 3277 4544 3341 4813 3386 5088 
C 3514 5088 3603 5133 3629 5235 
L 2944 5363 
C 2899 4992 2829 4634 2720 4288 
L 390 4288 
L 448 4096 
L 2656 4096 
C 2298 3136 1594 2323 224 1811 
L 275 1728 
C 1338 2029 2042 2490 2515 3046 
C 2822 2810 3187 2432 3309 2131 
C 3744 1901 3968 2752 2598 3149 
C 2822 3437 2995 3757 3123 4096 
L 3520 4096 
C 3923 3008 4749 2227 5779 1773 
C 5843 1978 5971 2099 6157 2118 
L 6163 2189 
C 5120 2509 4134 3174 3667 4096 
L 5952 4096 
C 6042 4096 6099 4128 6118 4198 
C 5907 4397 5568 4659 5568 4659 
z
" transform="scale(0.015625)"/>
       <path id="NotoSerifCJKsc-Regular-4f30" d="M 2496 2163 
L 2496 -486 
L 2560 -486 
C 2771 -486 2906 -397 2906 -352 
L 2906 -58 
L 5152 -58 
L 5152 -442 
L 5222 -442 
C 5414 -442 5574 -346 5574 -314 
L 5574 1946 
C 5709 1965 5779 1997 5818 2054 
L 5344 2419 
L 5133 2163 
L 4211 2163 
L 4211 3648 
L 6016 3648 
C 6106 3648 6170 3680 6182 3750 
C 5971 3955 5619 4230 5619 4230 
L 5306 3840 
L 4211 3840 
L 4211 5075 
C 4371 5101 4429 5165 4448 5254 
L 3789 5325 
L 3789 3840 
L 2022 3840 
L 2074 3648 
L 3789 3648 
L 3789 2163 
L 2976 2163 
L 2496 2368 
L 2496 2163 
z
M 2906 128 
L 2906 1971 
L 5152 1971 
L 5152 128 
L 2906 128 
z
M 1683 5363 
C 1363 4147 800 2925 243 2157 
L 339 2093 
C 621 2368 890 2707 1139 3091 
L 1139 -499 
L 1210 -499 
C 1376 -499 1549 -390 1562 -358 
L 1562 3456 
C 1664 3469 1728 3514 1747 3571 
L 1485 3667 
C 1715 4096 1926 4557 2099 5030 
C 2240 5024 2317 5082 2349 5152 
L 1683 5363 
z
" transform="scale(0.015625)"/>
      </defs>
      <use xlink:href="#NotoSerifCJKsc-Regular-8f7b"/>
      <use xlink:href="#NotoSerifCJKsc-Regular-91cf" x="99.999985"/>
      <use xlink:href="#NotoSerifCJKsc-Regular-5316" x="199.999969"/>
      <use xlink:href="#NotoSerifCJKsc-Regular-5c40" x="299.999954"/>
      <use xlink:href="#NotoSerifCJKsc-Regular-90e8" x="399.999939"/>
      <use xlink:href="#NotoSerifCJKsc-Regular-72b6" x="499.999924"/>
      <use xlink:href="#NotoSerifCJKsc-Regular-6001" x="599.999908"/>
      <use xlink:href="#NotoSerifCJKsc-Regular-4f30" x="699.999893"/>
      <use xlink:href="#NotoSerifCJKsc-Regular-8ba1" x="799.999878"/>
     </g>
    </g>
   </g>
  </g>
 </g>
 <defs>
  <clipPath id="p71cfdb5dff">
   <rect x="56.07875" y="28.8375" width="437.12125" height="283.4425"/>
  </clipPath>
 </defs>
</svg>
