<?xml version="1.0" encoding="utf-8" standalone="no"?>
<!DOCTYPE svg PUBLIC "-//W3C//DTD SVG 1.1//EN"
  "http://www.w3.org/Graphics/SVG/1.1/DTD/svg11.dtd">
<svg xmlns:xlink="http://www.w3.org/1999/xlink" width="504pt" height="360pt" viewBox="0 0 504 360" xmlns="http://www.w3.org/2000/svg" version="1.1">
 <metadata>
  <rdf:RDF xmlns:dc="http://purl.org/dc/elements/1.1/" xmlns:cc="http://creativecommons.org/ns#" xmlns:rdf="http://www.w3.org/1999/02/22-rdf-syntax-ns#">
   <cc:Work>
    <dc:type rdf:resource="http://purl.org/dc/dcmitype/StillImage"/>
    <dc:date>2026-05-31T19:03:25.334432</dc:date>
    <dc:format>image/svg+xml</dc:format>
    <dc:creator>
     <cc:Agent>
      <dc:title>Matplotlib v3.5.1, https://matplotlib.org/</dc:title>
     </cc:Agent>
    </dc:creator>
   </cc:Work>
  </rdf:RDF>
 </metadata>
 <defs>
  <style type="text/css">*{stroke-linejoin: round; stroke-linecap: butt}</style>
 </defs>
 <g id="figure_1">
  <g id="patch_1">
   <path d="M 0 360 
L 504 360 
L 504 0 
L 0 0 
z
" style="fill: #ffffff"/>
  </g>
  <g id="axes_1">
   <g id="patch_2">
    <path d="M 61.92875 312.28 
L 493.2 312.28 
L 493.2 28.8375 
L 61.92875 28.8375 
z
" style="fill: #ffffff"/>
   </g>
   <g id="matplotlib.axis_1">
    <g id="xtick_1">
     <g id="line2d_1">
      <path d="M 81.531989 312.28 
L 81.531989 28.8375 
" clip-path="url(#p5c38009396)" style="fill: none; stroke: #b0b0b0; stroke-opacity: 0.3; stroke-width: 0.8; stroke-linecap: square"/>
     </g>
     <g id="line2d_2">
      <defs>
       <path id="mc16e190663" d="M 0 0 
L 0 3.5 
" style="stroke: #000000; stroke-width: 0.8"/>
      </defs>
      <g>
       <use xlink:href="#mc16e190663" x="81.531989" y="312.28" style="stroke: #000000; stroke-width: 0.8"/>
      </g>
     </g>
     <g id="text_1">
      <!-- 0 -->
      <g transform="translate(78.746832 327.33)scale(0.1 -0.1)">
       <defs>
        <path id="NotoSerifCJKsc-Regular-30" d="M 1779 -96 
C 2547 -96 3258 602 3258 2342 
C 3258 4058 2547 4755 1779 4755 
C 1011 4755 301 4058 301 2342 
C 301 602 1011 -96 1779 -96 
z
M 1779 102 
C 1299 102 832 640 832 2342 
C 832 4019 1299 4550 1779 4550 
C 2253 4550 2726 4019 2726 2342 
C 2726 640 2253 102 1779 102 
z
" transform="scale(0.015625)"/>
       </defs>
       <use xlink:href="#NotoSerifCJKsc-Regular-30"/>
      </g>
     </g>
    </g>
    <g id="xtick_2">
     <g id="line2d_3">
      <path d="M 165.038457 312.28 
L 165.038457 28.8375 
" clip-path="url(#p5c38009396)" style="fill: none; stroke: #b0b0b0; stroke-opacity: 0.3; stroke-width: 0.8; stroke-linecap: square"/>
     </g>
     <g id="line2d_4">
      <g>
       <use xlink:href="#mc16e190663" x="165.038457" y="312.28" style="stroke: #000000; stroke-width: 0.8"/>
      </g>
     </g>
     <g id="text_2">
      <!-- 20 -->
      <g transform="translate(159.463457 327.33)scale(0.1 -0.1)">
       <defs>
        <path id="NotoSerifCJKsc-Regular-32" d="M 410 0 
L 3270 0 
L 3270 448 
L 762 448 
C 1152 877 1530 1293 1715 1485 
C 2688 2483 3078 2950 3078 3539 
C 3078 4294 2637 4755 1779 4755 
C 1126 4755 512 4422 410 3770 
C 448 3642 550 3571 672 3571 
C 819 3571 922 3654 986 3904 
L 1139 4461 
C 1306 4531 1466 4557 1626 4557 
C 2195 4557 2534 4192 2534 3552 
C 2534 2989 2253 2541 1574 1722 
C 1261 1350 832 845 410 346 
L 410 0 
z
" transform="scale(0.015625)"/>
       </defs>
       <use xlink:href="#NotoSerifCJKsc-Regular-32"/>
       <use xlink:href="#NotoSerifCJKsc-Regular-30" x="55.799988"/>
      </g>
     </g>
    </g>
    <g id="xtick_3">
     <g id="line2d_5">
      <path d="M 248.544925 312.28 
L 248.544925 28.8375 
" clip-path="url(#p5c38009396)" style="fill: none; stroke: #b0b0b0; stroke-opacity: 0.3; stroke-width: 0.8; stroke-linecap: square"/>
     </g>
     <g id="line2d_6">
      <g>
       <use xlink:href="#mc16e190663" x="248.544925" y="312.28" style="stroke: #000000; stroke-width: 0.8"/>
      </g>
     </g>
     <g id="text_3">
      <!-- 40 -->
      <g transform="translate(242.984769 327.33)scale(0.1 -0.1)">
       <defs>
        <path id="NotoSerifCJKsc-Regular-34" d="M 2170 -115 
L 2650 -115 
L 2650 1229 
L 3418 1229 
L 3418 1600 
L 2650 1600 
L 2650 4730 
L 2291 4730 
L 218 1530 
L 218 1229 
L 2170 1229 
L 2170 -115 
z
M 493 1600 
L 1389 2989 
L 2170 4211 
L 2170 1600 
L 493 1600 
z
" transform="scale(0.015625)"/>
       </defs>
       <use xlink:href="#NotoSerifCJKsc-Regular-34"/>
       <use xlink:href="#NotoSerifCJKsc-Regular-30" x="55.499985"/>
      </g>
     </g>
    </g>
    <g id="xtick_4">
     <g id="line2d_7">
      <path d="M 332.051394 312.28 
L 332.051394 28.8375 
" clip-path="url(#p5c38009396)" style="fill: none; stroke: #b0b0b0; stroke-opacity: 0.3; stroke-width: 0.8; stroke-linecap: square"/>
     </g>
     <g id="line2d_8">
      <g>
       <use xlink:href="#mc16e190663" x="332.051394" y="312.28" style="stroke: #000000; stroke-width: 0.8"/>
      </g>
     </g>
     <g id="text_4">
      <!-- 60 -->
      <g transform="translate(326.476394 327.33)scale(0.1 -0.1)">
       <defs>
        <path id="NotoSerifCJKsc-Regular-36" d="M 1850 -96 
C 2656 -96 3258 538 3258 1414 
C 3258 2253 2803 2816 2029 2816 
C 1606 2816 1248 2650 941 2323 
C 1107 3450 1850 4339 3136 4614 
L 3104 4755 
C 1414 4557 358 3258 358 1773 
C 358 634 922 -96 1850 -96 
z
M 922 2118 
C 1222 2432 1523 2554 1856 2554 
C 2394 2554 2726 2144 2726 1376 
C 2726 557 2342 102 1856 102 
C 1261 102 909 736 909 1830 
L 922 2118 
z
" transform="scale(0.015625)"/>
       </defs>
       <use xlink:href="#NotoSerifCJKsc-Regular-36"/>
       <use xlink:href="#NotoSerifCJKsc-Regular-30" x="55.799988"/>
      </g>
     </g>
    </g>
    <g id="xtick_5">
     <g id="line2d_9">
      <path d="M 415.557862 312.28 
L 415.557862 28.8375 
" clip-path="url(#p5c38009396)" style="fill: none; stroke: #b0b0b0; stroke-opacity: 0.3; stroke-width: 0.8; stroke-linecap: square"/>
     </g>
     <g id="line2d_10">
      <g>
       <use xlink:href="#mc16e190663" x="415.557862" y="312.28" style="stroke: #000000; stroke-width: 0.8"/>
      </g>
     </g>
     <g id="text_5">
      <!-- 80 -->
      <g transform="translate(409.982862 327.33)scale(0.1 -0.1)">
       <defs>
        <path id="NotoSerifCJKsc-Regular-38" d="M 1754 -96 
C 2637 -96 3219 384 3219 1126 
C 3219 1722 2893 2131 2093 2502 
C 2784 2829 3027 3251 3027 3686 
C 3027 4301 2579 4755 1798 4755 
C 1075 4755 499 4307 499 3603 
C 499 3059 774 2605 1434 2285 
C 730 1978 365 1587 365 1024 
C 365 352 858 -96 1754 -96 
z
M 1946 2573 
C 1178 2912 973 3302 973 3731 
C 973 4243 1357 4550 1792 4550 
C 2304 4550 2579 4160 2579 3699 
C 2579 3213 2394 2880 1946 2573 
z
M 1587 2214 
C 2458 1830 2720 1453 2720 986 
C 2720 454 2374 102 1779 102 
C 1184 102 832 474 832 1082 
C 832 1568 1050 1888 1587 2214 
z
" transform="scale(0.015625)"/>
       </defs>
       <use xlink:href="#NotoSerifCJKsc-Regular-38"/>
       <use xlink:href="#NotoSerifCJKsc-Regular-30" x="55.799988"/>
      </g>
     </g>
    </g>
    <g id="text_6">
     <!-- 时间 (s) -->
     <g transform="translate(255.093672 344.395)scale(0.13 -0.13)">
      <defs>
       <path id="NotoSerifCJKsc-Regular-65f6" d="M 2880 2861 
L 2803 2816 
C 3149 2426 3526 1805 3546 1286 
C 4006 870 4442 2035 2880 2861 
z
M 1907 1069 
L 922 1069 
L 922 2733 
L 1907 2733 
L 1907 1069 
z
M 525 4992 
L 525 13 
L 582 13 
C 794 13 922 128 922 160 
L 922 877 
L 1907 877 
L 1907 326 
L 1971 326 
C 2112 326 2304 429 2310 474 
L 2310 4518 
C 2438 4544 2547 4589 2592 4640 
L 2080 5043 
L 1843 4781 
L 998 4781 
L 525 4992 
z
M 1907 2925 
L 922 2925 
L 922 4589 
L 1907 4589 
L 1907 2925 
z
M 5664 4211 
L 5363 3802 
L 5069 3802 
L 5069 5043 
C 5229 5062 5293 5120 5306 5216 
L 4646 5286 
L 4646 3802 
L 2464 3802 
L 2515 3610 
L 4646 3610 
L 4646 179 
C 4646 64 4602 26 4461 26 
C 4301 26 3456 83 3456 83 
L 3456 -13 
C 3821 -58 4013 -115 4134 -192 
C 4243 -256 4288 -365 4314 -499 
C 4992 -435 5069 -198 5069 147 
L 5069 3610 
L 6048 3610 
C 6138 3610 6195 3642 6214 3712 
C 6016 3923 5664 4211 5664 4211 
z
" transform="scale(0.015625)"/>
       <path id="NotoSerifCJKsc-Regular-95f4" d="M 1133 5402 
L 1062 5350 
C 1344 5069 1702 4595 1818 4237 
C 2278 3936 2586 4870 1133 5402 
z
M 1382 4461 
L 736 4531 
L 736 -499 
L 813 -499 
C 973 -499 1146 -410 1146 -346 
L 1146 4282 
C 1312 4307 1363 4365 1382 4461 
z
M 3987 1139 
L 2381 1139 
L 2381 2240 
L 3987 2240 
L 3987 1139 
z
M 1984 3827 
L 1984 326 
L 2048 326 
C 2253 326 2381 442 2381 474 
L 2381 947 
L 3987 947 
L 3987 442 
L 4051 442 
C 4198 442 4384 550 4390 595 
L 4390 3392 
C 4499 3411 4589 3456 4621 3494 
L 4154 3866 
L 3930 3629 
L 2445 3629 
L 1984 3827 
z
M 3987 3437 
L 3987 2432 
L 2381 2432 
L 2381 3437 
L 3987 3437 
z
M 5210 4826 
L 2483 4826 
L 2541 4634 
L 5274 4634 
L 5274 198 
C 5274 90 5235 45 5101 45 
C 4960 45 4211 109 4211 109 
L 4211 0 
C 4531 -38 4710 -90 4819 -166 
C 4915 -230 4960 -346 4979 -474 
C 5606 -410 5683 -186 5683 147 
L 5683 4557 
C 5811 4582 5920 4634 5965 4685 
L 5421 5094 
L 5210 4826 
z
" transform="scale(0.015625)"/>
       <path id="NotoSerifCJKsc-Regular-20" transform="scale(0.015625)"/>
       <path id="NotoSerifCJKsc-Regular-28" d="M 1043 1933 
C 1043 3130 1293 3968 2144 5139 
L 2022 5242 
C 1050 4250 589 3219 589 1933 
C 589 653 1050 -378 2022 -1376 
L 2144 -1267 
C 1306 -102 1043 742 1043 1933 
z
" transform="scale(0.015625)"/>
       <path id="NotoSerifCJKsc-Regular-73" d="M 1414 -96 
C 2285 -96 2733 339 2733 896 
C 2733 1344 2483 1632 1837 1856 
L 1510 1971 
C 1043 2131 858 2304 858 2611 
C 858 2950 1107 3187 1594 3187 
C 1798 3187 1978 3142 2170 3034 
L 2298 2426 
L 2554 2426 
L 2573 3110 
C 2253 3302 1978 3398 1594 3398 
C 826 3398 397 2982 397 2445 
C 397 1965 723 1690 1242 1504 
L 1574 1382 
C 2093 1216 2253 1037 2253 723 
C 2253 358 1965 109 1402 109 
C 1133 109 934 154 755 237 
L 627 922 
L 346 922 
L 346 160 
C 691 -6 1005 -96 1414 -96 
z
" transform="scale(0.015625)"/>
       <path id="NotoSerifCJKsc-Regular-29" d="M 1299 1933 
C 1299 742 1043 -96 192 -1267 
L 314 -1376 
C 1280 -384 1747 653 1747 1933 
C 1747 3219 1280 4250 314 5242 
L 192 5139 
C 1024 3974 1299 3130 1299 1933 
z
" transform="scale(0.015625)"/>
      </defs>
      <use xlink:href="#NotoSerifCJKsc-Regular-65f6"/>
      <use xlink:href="#NotoSerifCJKsc-Regular-95f4" x="99.999985"/>
      <use xlink:href="#NotoSerifCJKsc-Regular-20" x="199.999969"/>
      <use xlink:href="#NotoSerifCJKsc-Regular-28" x="225.59996"/>
      <use xlink:href="#NotoSerifCJKsc-Regular-73" x="261.999954"/>
      <use xlink:href="#NotoSerifCJKsc-Regular-29" x="309.299942"/>
     </g>
    </g>
   </g>
   <g id="matplotlib.axis_2">
    <g id="ytick_1">
     <g id="line2d_11">
      <path d="M 61.92875 284.114065 
L 493.2 284.114065 
" clip-path="url(#p5c38009396)" style="fill: none; stroke: #b0b0b0; stroke-opacity: 0.3; stroke-width: 0.8; stroke-linecap: square"/>
     </g>
     <g id="line2d_12">
      <defs>
       <path id="m167da0336f" d="M 0 0 
L -3.5 0 
" style="stroke: #000000; stroke-width: 0.8"/>
      </defs>
      <g>
       <use xlink:href="#m167da0336f" x="61.92875" y="284.114065" style="stroke: #000000; stroke-width: 0.8"/>
      </g>
     </g>
     <g id="text_7">
      <!-- −1.00 -->
      <g transform="translate(30.008438 288.139065)scale(0.1 -0.1)">
       <defs>
        <path id="NotoSerifCJKsc-Regular-2212" d="M 3475 2170 
L 3475 2438 
L 243 2438 
L 243 2170 
L 3475 2170 
z
" transform="scale(0.015625)"/>
        <path id="NotoSerifCJKsc-Regular-31" d="M 480 0 
L 2733 -6 
L 2733 173 
L 1907 269 
L 1894 1472 
L 1894 3642 
L 1920 4653 
L 1824 4723 
L 448 4371 
L 448 4179 
L 1370 4333 
L 1370 1472 
L 1357 269 
L 480 179 
L 480 0 
z
" transform="scale(0.015625)"/>
        <path id="NotoSerifCJKsc-Regular-2e" d="M 1043 -96 
C 1267 -96 1440 90 1440 294 
C 1440 518 1267 691 1043 691 
C 813 691 653 518 653 294 
C 653 90 813 -96 1043 -96 
z
" transform="scale(0.015625)"/>
       </defs>
       <use xlink:href="#NotoSerifCJKsc-Regular-2212"/>
       <use xlink:href="#NotoSerifCJKsc-Regular-31" x="57.999985"/>
       <use xlink:href="#NotoSerifCJKsc-Regular-2e" x="105.099976"/>
       <use xlink:href="#NotoSerifCJKsc-Regular-30" x="137.799973"/>
       <use xlink:href="#NotoSerifCJKsc-Regular-30" x="193.499969"/>
      </g>
     </g>
    </g>
    <g id="ytick_2">
     <g id="line2d_13">
      <path d="M 61.92875 249.594354 
L 493.2 249.594354 
" clip-path="url(#p5c38009396)" style="fill: none; stroke: #b0b0b0; stroke-opacity: 0.3; stroke-width: 0.8; stroke-linecap: square"/>
     </g>
     <g id="line2d_14">
      <g>
       <use xlink:href="#m167da0336f" x="61.92875" y="249.594354" style="stroke: #000000; stroke-width: 0.8"/>
      </g>
     </g>
     <g id="text_8">
      <!-- −0.75 -->
      <g transform="translate(29.217813 253.619354)scale(0.1 -0.1)">
       <defs>
        <path id="NotoSerifCJKsc-Regular-37" d="M 986 0 
L 1453 0 
L 3123 4371 
L 3123 4659 
L 352 4659 
L 352 4211 
L 2829 4211 
L 934 45 
L 986 0 
z
" transform="scale(0.015625)"/>
        <path id="NotoSerifCJKsc-Regular-35" d="M 1574 -96 
C 2573 -96 3213 499 3213 1408 
C 3213 2317 2624 2803 1709 2803 
C 1421 2803 1158 2765 902 2656 
L 1005 4211 
L 3091 4211 
L 3091 4659 
L 800 4659 
L 653 2458 
L 813 2394 
C 1037 2496 1286 2547 1562 2547 
C 2221 2547 2650 2176 2650 1382 
C 2650 563 2234 102 1498 102 
C 1293 102 1146 134 998 198 
L 845 691 
C 794 922 710 1005 550 1005 
C 429 1005 326 941 282 819 
C 397 230 883 -96 1574 -96 
z
" transform="scale(0.015625)"/>
       </defs>
       <use xlink:href="#NotoSerifCJKsc-Regular-2212"/>
       <use xlink:href="#NotoSerifCJKsc-Regular-30" x="57.999985"/>
       <use xlink:href="#NotoSerifCJKsc-Regular-2e" x="113.699982"/>
       <use xlink:href="#NotoSerifCJKsc-Regular-37" x="146.399979"/>
       <use xlink:href="#NotoSerifCJKsc-Regular-35" x="201.299973"/>
      </g>
     </g>
    </g>
    <g id="ytick_3">
     <g id="line2d_15">
      <path d="M 61.92875 215.074643 
L 493.2 215.074643 
" clip-path="url(#p5c38009396)" style="fill: none; stroke: #b0b0b0; stroke-opacity: 0.3; stroke-width: 0.8; stroke-linecap: square"/>
     </g>
     <g id="line2d_16">
      <g>
       <use xlink:href="#m167da0336f" x="61.92875" y="215.074643" style="stroke: #000000; stroke-width: 0.8"/>
      </g>
     </g>
     <g id="text_9">
      <!-- −0.50 -->
      <g transform="translate(29.138125 219.099643)scale(0.1 -0.1)">
       <use xlink:href="#NotoSerifCJKsc-Regular-2212"/>
       <use xlink:href="#NotoSerifCJKsc-Regular-30" x="57.999985"/>
       <use xlink:href="#NotoSerifCJKsc-Regular-2e" x="113.699982"/>
       <use xlink:href="#NotoSerifCJKsc-Regular-35" x="146.399979"/>
       <use xlink:href="#NotoSerifCJKsc-Regular-30" x="202.199966"/>
      </g>
     </g>
    </g>
    <g id="ytick_4">
     <g id="line2d_17">
      <path d="M 61.92875 180.554932 
L 493.2 180.554932 
" clip-path="url(#p5c38009396)" style="fill: none; stroke: #b0b0b0; stroke-opacity: 0.3; stroke-width: 0.8; stroke-linecap: square"/>
     </g>
     <g id="line2d_18">
      <g>
       <use xlink:href="#m167da0336f" x="61.92875" y="180.554932" style="stroke: #000000; stroke-width: 0.8"/>
      </g>
     </g>
     <g id="text_10">
      <!-- −0.25 -->
      <g transform="translate(29.12875 184.579932)scale(0.1 -0.1)">
       <use xlink:href="#NotoSerifCJKsc-Regular-2212"/>
       <use xlink:href="#NotoSerifCJKsc-Regular-30" x="57.999985"/>
       <use xlink:href="#NotoSerifCJKsc-Regular-2e" x="113.699982"/>
       <use xlink:href="#NotoSerifCJKsc-Regular-32" x="146.399979"/>
       <use xlink:href="#NotoSerifCJKsc-Regular-35" x="202.199966"/>
      </g>
     </g>
    </g>
    <g id="ytick_5">
     <g id="line2d_19">
      <path d="M 61.92875 146.035221 
L 493.2 146.035221 
" clip-path="url(#p5c38009396)" style="fill: none; stroke: #b0b0b0; stroke-opacity: 0.3; stroke-width: 0.8; stroke-linecap: square"/>
     </g>
     <g id="line2d_20">
      <g>
       <use xlink:href="#m167da0336f" x="61.92875" y="146.035221" style="stroke: #000000; stroke-width: 0.8"/>
      </g>
     </g>
     <g id="text_11">
      <!-- 0.00 -->
      <g transform="translate(34.9475 150.060221)scale(0.1 -0.1)">
       <use xlink:href="#NotoSerifCJKsc-Regular-30"/>
       <use xlink:href="#NotoSerifCJKsc-Regular-2e" x="55.699997"/>
       <use xlink:href="#NotoSerifCJKsc-Regular-30" x="88.399994"/>
       <use xlink:href="#NotoSerifCJKsc-Regular-30" x="144.099991"/>
      </g>
     </g>
    </g>
    <g id="ytick_6">
     <g id="line2d_21">
      <path d="M 61.92875 111.51551 
L 493.2 111.51551 
" clip-path="url(#p5c38009396)" style="fill: none; stroke: #b0b0b0; stroke-opacity: 0.3; stroke-width: 0.8; stroke-linecap: square"/>
     </g>
     <g id="line2d_22">
      <g>
       <use xlink:href="#m167da0336f" x="61.92875" y="111.51551" style="stroke: #000000; stroke-width: 0.8"/>
      </g>
     </g>
     <g id="text_12">
      <!-- 0.25 -->
      <g transform="translate(34.92875 115.54051)scale(0.1 -0.1)">
       <use xlink:href="#NotoSerifCJKsc-Regular-30"/>
       <use xlink:href="#NotoSerifCJKsc-Regular-2e" x="55.699997"/>
       <use xlink:href="#NotoSerifCJKsc-Regular-32" x="88.399994"/>
       <use xlink:href="#NotoSerifCJKsc-Regular-35" x="144.199982"/>
      </g>
     </g>
    </g>
    <g id="ytick_7">
     <g id="line2d_23">
      <path d="M 61.92875 76.995799 
L 493.2 76.995799 
" clip-path="url(#p5c38009396)" style="fill: none; stroke: #b0b0b0; stroke-opacity: 0.3; stroke-width: 0.8; stroke-linecap: square"/>
     </g>
     <g id="line2d_24">
      <g>
       <use xlink:href="#m167da0336f" x="61.92875" y="76.995799" style="stroke: #000000; stroke-width: 0.8"/>
      </g>
     </g>
     <g id="text_13">
      <!-- 0.50 -->
      <g transform="translate(34.938125 81.020799)scale(0.1 -0.1)">
       <use xlink:href="#NotoSerifCJKsc-Regular-30"/>
       <use xlink:href="#NotoSerifCJKsc-Regular-2e" x="55.699997"/>
       <use xlink:href="#NotoSerifCJKsc-Regular-35" x="88.399994"/>
       <use xlink:href="#NotoSerifCJKsc-Regular-30" x="144.199982"/>
      </g>
     </g>
    </g>
    <g id="ytick_8">
     <g id="line2d_25">
      <path d="M 61.92875 42.476088 
L 493.2 42.476088 
" clip-path="url(#p5c38009396)" style="fill: none; stroke: #b0b0b0; stroke-opacity: 0.3; stroke-width: 0.8; stroke-linecap: square"/>
     </g>
     <g id="line2d_26">
      <g>
       <use xlink:href="#m167da0336f" x="61.92875" y="42.476088" style="stroke: #000000; stroke-width: 0.8"/>
      </g>
     </g>
     <g id="text_14">
      <!-- 0.75 -->
      <g transform="translate(35.017813 46.501088)scale(0.1 -0.1)">
       <use xlink:href="#NotoSerifCJKsc-Regular-30"/>
       <use xlink:href="#NotoSerifCJKsc-Regular-2e" x="55.699997"/>
       <use xlink:href="#NotoSerifCJKsc-Regular-37" x="88.399994"/>
       <use xlink:href="#NotoSerifCJKsc-Regular-35" x="143.299988"/>
      </g>
     </g>
    </g>
    <g id="text_15">
     <!-- 航向角误差 (°) -->
     <g transform="translate(21.74875 211.678359)rotate(-90)scale(0.13 -0.13)">
      <defs>
       <path id="NotoSerifCJKsc-Regular-822a" d="M 3814 5382 
L 3738 5331 
C 3968 5088 4211 4666 4230 4320 
C 4627 3987 5024 4858 3814 5382 
z
M 5613 4512 
L 5312 4122 
L 2854 4122 
L 2906 3930 
L 6003 3930 
C 6086 3930 6150 3962 6170 4032 
C 5958 4237 5613 4512 5613 4512 
z
M 1478 2106 
L 1389 2054 
C 1606 1696 1664 1171 1683 890 
C 1926 557 2387 1299 1478 2106 
z
M 1446 3994 
L 1363 3936 
C 1581 3642 1664 3200 1702 2957 
C 1958 2650 2362 3360 1446 3994 
z
M 3430 3232 
L 3430 1965 
C 3430 1088 3302 237 2509 -448 
L 2586 -525 
C 3718 134 3827 1133 3827 1965 
L 3827 2982 
L 4774 2982 
L 4774 58 
C 4774 -211 4832 -333 5190 -333 
L 5485 -333 
C 6029 -333 6195 -250 6195 -77 
C 6195 0 6176 45 6048 96 
L 6029 1050 
L 5939 1050 
C 5882 685 5811 224 5773 128 
C 5754 70 5728 64 5690 64 
C 5658 58 5587 58 5498 58 
L 5299 58 
C 5197 58 5184 77 5184 166 
L 5184 2912 
C 5312 2931 5382 2963 5427 3002 
L 4947 3430 
L 4710 3168 
L 3904 3168 
L 3430 3379 
L 3430 3232 
z
M 2266 2592 
L 1165 2592 
L 1165 4301 
L 2266 4301 
L 2266 2592 
z
M 794 4557 
L 794 2592 
L 288 2592 
L 397 2406 
L 794 2406 
C 794 1376 755 352 237 -442 
L 339 -506 
C 1114 269 1165 1414 1165 2406 
L 2266 2406 
L 2266 147 
C 2266 58 2240 19 2131 19 
C 2029 19 1555 58 1555 58 
L 1555 -45 
C 1779 -70 1901 -102 1984 -160 
C 2048 -205 2074 -288 2086 -384 
C 2579 -339 2650 -173 2650 115 
L 2650 4237 
C 2771 4256 2880 4307 2925 4358 
L 2406 4742 
L 2202 4493 
L 1619 4493 
C 1741 4685 1894 4915 1984 5101 
C 2118 5107 2202 5152 2221 5248 
L 1555 5363 
C 1517 5114 1453 4749 1402 4493 
L 1242 4493 
L 794 4698 
L 794 4557 
z
" transform="scale(0.015625)"/>
       <path id="NotoSerifCJKsc-Regular-5411" d="M 653 4186 
L 653 -493 
L 723 -493 
C 902 -493 1062 -390 1062 -333 
L 1062 4006 
L 5344 4006 
L 5344 186 
C 5344 70 5312 32 5178 32 
C 5018 32 4262 90 4262 90 
L 4262 -13 
C 4582 -51 4774 -109 4883 -179 
C 4979 -250 5024 -358 5043 -493 
C 5690 -429 5760 -205 5760 134 
L 5760 3923 
C 5888 3942 5997 4000 6042 4045 
L 5504 4454 
L 5280 4186 
L 2656 4186 
C 2912 4461 3162 4794 3328 5050 
C 3469 5043 3539 5101 3571 5171 
L 2867 5357 
C 2765 5011 2592 4544 2426 4186 
L 1107 4186 
L 653 4403 
L 653 4186 
z
M 2016 3034 
L 2016 589 
L 2080 589 
C 2246 589 2413 678 2413 723 
L 2413 1267 
L 3949 1267 
L 3949 762 
L 4006 762 
C 4141 762 4346 864 4352 902 
L 4352 2771 
C 4480 2790 4576 2842 4621 2893 
L 4109 3283 
L 3885 3034 
L 2445 3034 
L 2016 3232 
L 2016 3034 
z
M 2413 1459 
L 2413 2848 
L 3949 2848 
L 3949 1459 
L 2413 1459 
z
" transform="scale(0.015625)"/>
       <path id="NotoSerifCJKsc-Regular-89d2" d="M 3514 -179 
L 3514 1216 
L 4973 1216 
L 4973 173 
C 4973 77 4941 38 4819 38 
C 4685 38 4013 83 4013 83 
L 4013 -6 
C 4307 -51 4467 -109 4570 -179 
C 4659 -243 4698 -358 4717 -493 
C 5325 -435 5395 -211 5395 122 
L 5395 3392 
C 5510 3411 5600 3456 5638 3507 
L 5126 3891 
L 4915 3642 
L 3373 3642 
C 3725 3866 4102 4211 4339 4448 
C 4474 4448 4550 4461 4602 4506 
L 4122 4947 
L 3853 4678 
L 2330 4678 
C 2432 4819 2528 4960 2611 5101 
C 2778 5082 2829 5107 2861 5171 
L 2195 5370 
C 1830 4525 1062 3571 282 3034 
L 352 2957 
C 678 3123 1005 3341 1299 3590 
L 1299 2323 
C 1299 1331 1165 358 320 -416 
L 397 -493 
C 1139 -26 1466 589 1613 1216 
L 3110 1216 
L 3110 -314 
L 3174 -314 
C 3373 -314 3514 -218 3514 -179 
z
M 2189 4493 
L 3821 4493 
C 3661 4230 3424 3878 3206 3642 
L 1792 3642 
L 1504 3770 
C 1754 3994 1984 4243 2189 4493 
z
M 4973 1408 
L 3514 1408 
L 3514 2355 
L 4973 2355 
L 4973 1408 
z
M 4973 2547 
L 3514 2547 
L 3514 3450 
L 4973 3450 
L 4973 2547 
z
M 1651 1408 
C 1702 1722 1715 2035 1715 2330 
L 1715 2355 
L 3110 2355 
L 3110 1408 
L 1651 1408 
z
M 1715 2547 
L 1715 3450 
L 3110 3450 
L 3110 2547 
L 1715 2547 
z
" transform="scale(0.015625)"/>
       <path id="NotoSerifCJKsc-Regular-8bef" d="M 762 5338 
L 685 5286 
C 979 4973 1376 4454 1498 4070 
C 1933 3770 2234 4691 762 5338 
z
M 1549 3398 
C 1670 3424 1754 3469 1786 3514 
L 1363 3866 
L 1158 3642 
L 230 3642 
L 288 3450 
L 1146 3450 
L 1146 602 
C 1146 486 1120 448 915 346 
L 1197 -173 
C 1248 -147 1318 -77 1357 26 
C 1811 429 2221 838 2432 1037 
L 2381 1120 
L 1549 621 
L 1549 3398 
z
M 5274 3072 
L 4979 2701 
L 2285 2701 
L 2336 2515 
L 3738 2515 
C 3731 2195 3718 1888 3661 1594 
L 1920 1594 
L 1971 1402 
L 3622 1402 
C 3450 704 3014 96 1862 -403 
L 1946 -512 
C 3341 -26 3853 621 4058 1402 
L 4070 1402 
C 4269 845 4704 0 5766 -499 
C 5811 -275 5933 -211 6138 -179 
L 6157 -102 
C 5024 326 4461 922 4218 1402 
L 5984 1402 
C 6080 1402 6144 1434 6163 1504 
C 5946 1709 5600 1978 5600 1978 
L 5293 1594 
L 4102 1594 
C 4160 1882 4186 2189 4205 2515 
L 5651 2515 
C 5741 2515 5805 2547 5824 2618 
C 5613 2810 5274 3072 5274 3072 
z
M 2906 3187 
L 2906 3392 
L 5043 3392 
L 5043 3162 
L 5107 3162 
C 5242 3162 5453 3264 5459 3302 
L 5459 4723 
C 5587 4749 5690 4800 5734 4851 
L 5210 5248 
L 4979 4992 
L 2938 4992 
L 2490 5190 
L 2490 3053 
L 2554 3053 
C 2726 3053 2906 3142 2906 3187 
z
M 5043 4800 
L 5043 3584 
L 2906 3584 
L 2906 4800 
L 5043 4800 
z
" transform="scale(0.015625)"/>
       <path id="NotoSerifCJKsc-Regular-5dee" d="M 1824 5389 
L 1754 5344 
C 1997 5126 2272 4749 2330 4442 
C 2790 4141 3136 5062 1824 5389 
z
M 5549 2822 
L 5242 2451 
L 2810 2451 
C 2925 2707 3021 2976 3098 3251 
L 5414 3251 
C 5498 3251 5562 3283 5581 3354 
C 5370 3539 5043 3789 5043 3789 
L 4755 3437 
L 3149 3437 
C 3206 3661 3258 3898 3296 4134 
L 3296 4160 
L 5805 4160 
C 5901 4160 5965 4192 5978 4262 
C 5766 4461 5421 4717 5421 4717 
L 5114 4352 
L 3846 4352 
C 4128 4570 4422 4858 4602 5082 
C 4742 5069 4826 5114 4858 5190 
L 4173 5408 
C 4051 5088 3853 4659 3667 4352 
L 608 4352 
L 666 4160 
L 2803 4160 
C 2765 3917 2720 3674 2662 3437 
L 890 3437 
L 941 3251 
L 2611 3251 
C 2534 2976 2438 2707 2330 2451 
L 339 2451 
L 397 2266 
L 2253 2266 
C 1830 1357 1197 570 307 -26 
L 384 -109 
C 1133 294 1722 794 2170 1376 
L 2195 1286 
L 3405 1286 
L 3405 -26 
L 1235 -26 
L 1286 -218 
L 5920 -218 
C 6010 -218 6074 -186 6086 -115 
C 5875 90 5536 358 5536 358 
L 5222 -26 
L 3827 -26 
L 3827 1286 
L 5286 1286 
C 5370 1286 5440 1318 5453 1389 
C 5242 1581 4915 1843 4915 1843 
L 4614 1478 
L 2246 1478 
C 2432 1728 2586 1990 2726 2266 
L 5933 2266 
C 6022 2266 6086 2298 6106 2368 
C 5888 2560 5549 2822 5549 2822 
z
" transform="scale(0.015625)"/>
       <path id="NotoSerifCJKsc-Regular-b0" d="M 1101 3258 
C 755 3258 486 3514 486 3904 
C 486 4301 755 4563 1101 4563 
C 1440 4563 1702 4301 1702 3904 
C 1702 3514 1440 3258 1101 3258 
z
M 1101 3046 
C 1549 3046 1946 3386 1946 3904 
C 1946 4422 1549 4768 1101 4768 
C 646 4768 256 4422 256 3904 
C 256 3386 646 3046 1101 3046 
z
" transform="scale(0.015625)"/>
      </defs>
      <use xlink:href="#NotoSerifCJKsc-Regular-822a"/>
      <use xlink:href="#NotoSerifCJKsc-Regular-5411" x="99.999985"/>
      <use xlink:href="#NotoSerifCJKsc-Regular-89d2" x="199.999969"/>
      <use xlink:href="#NotoSerifCJKsc-Regular-8bef" x="299.999954"/>
      <use xlink:href="#NotoSerifCJKsc-Regular-5dee" x="399.999939"/>
      <use xlink:href="#NotoSerifCJKsc-Regular-20" x="499.999924"/>
      <use xlink:href="#NotoSerifCJKsc-Regular-28" x="525.599915"/>
      <use xlink:href="#NotoSerifCJKsc-Regular-b0" x="561.999908"/>
      <use xlink:href="#NotoSerifCJKsc-Regular-29" x="596.199905"/>
     </g>
    </g>
   </g>
   <g id="line2d_27">
    <path d="M 81.531989 144.222599 
L 81.948329 142.400102 
L 82.36688 143.545454 
L 82.784551 142.767796 
L 83.202439 143.486426 
L 83.619929 142.579414 
L 84.037348 142.411271 
L 84.45466 144.522242 
L 84.872824 143.917543 
L 85.290356 144.430443 
L 85.707652 145.95121 
L 86.124852 145.529825 
L 86.542902 146.035768 
L 86.960537 146.253368 
L 87.377731 148.726926 
L 87.795786 148.93478 
L 88.212582 147.990933 
L 89.04789 145.210692 
L 89.465722 145.542557 
L 89.883035 147.181058 
L 90.300821 147.874008 
L 90.718456 148.317828 
L 91.136044 147.242109 
L 91.553544 147.321076 
L 91.971278 146.332097 
L 92.388346 147.397496 
L 92.805814 147.499067 
L 93.223781 148.929635 
L 93.641186 148.870472 
L 94.476316 145.82752 
L 94.893285 147.349055 
L 95.311212 146.203155 
L 95.728479 147.929881 
L 96.146519 146.696686 
L 96.564126 147.079495 
L 96.98118 146.647209 
L 97.398922 149.618476 
L 97.816367 149.031823 
L 98.233998 150.768364 
L 98.651684 147.981588 
L 99.068819 147.769278 
L 99.486216 146.355 
L 99.904455 148.285197 
L 100.739277 147.459666 
L 101.156951 147.186123 
L 101.574148 147.738899 
L 102.408998 147.138633 
L 102.827086 149.959252 
L 103.244174 148.234802 
L 103.661607 147.168149 
L 104.079559 147.525025 
L 104.496909 149.758484 
L 104.914446 148.232404 
L 105.332508 149.77235 
L 106.167628 149.86053 
L 106.584703 151.040504 
L 107.002176 150.459641 
L 107.420215 150.332075 
L 107.83741 148.784287 
L 108.255319 149.828868 
L 108.672563 146.945376 
L 109.089938 147.757407 
L 109.925005 152.450531 
L 110.34253 150.692646 
L 110.76014 150.026141 
L 111.595637 150.02842 
L 112.012852 149.280773 
L 112.430395 149.121911 
L 112.848111 150.595177 
L 113.265183 148.407499 
L 113.682859 149.04825 
L 114.100449 150.050239 
L 114.517878 149.392456 
L 114.935342 147.88042 
L 115.352961 147.462469 
L 115.77066 148.174826 
L 116.188322 147.332884 
L 116.606057 149.379083 
L 117.02335 150.519966 
L 117.44083 150.648438 
L 117.858345 149.816331 
L 118.275761 149.728267 
L 118.693393 148.880723 
L 119.1042 149.558952 
L 119.527912 148.643713 
L 119.946065 151.68631 
L 120.363947 150.600773 
L 120.781776 152.221928 
L 121.198823 151.284505 
L 121.615678 152.176209 
L 122.032928 151.83108 
L 122.436869 149.333228 
L 122.857654 151.508181 
L 123.703271 149.506983 
L 124.1215 150.260587 
L 124.538123 153.905 
L 124.95704 150.296009 
L 125.374585 149.93049 
L 125.791924 151.111526 
L 126.20977 152.687551 
L 126.627188 150.84376 
L 127.042882 150.141986 
L 127.880057 153.608579 
L 128.295347 149.407583 
L 128.714711 151.369914 
L 129.132385 150.923064 
L 129.549704 153.486479 
L 129.965316 153.224615 
L 130.38494 150.387106 
L 130.803066 153.305959 
L 131.220465 153.723432 
L 131.638227 152.139806 
L 132.055557 152.723899 
L 133.307813 153.299713 
L 133.725942 155.647898 
L 134.142825 155.77325 
L 134.560817 156.589966 
L 134.978179 155.929862 
L 135.3956 153.612808 
L 135.813717 155.882966 
L 136.231066 154.156871 
L 136.64877 156.332144 
L 137.066337 156.730962 
L 137.483275 153.127751 
L 137.901143 154.639804 
L 138.318534 153.998372 
L 138.735936 152.956484 
L 139.154289 153.33789 
L 139.571087 152.974601 
L 139.989311 154.361394 
L 140.406476 153.522082 
L 140.823868 153.636043 
L 141.238722 152.970384 
L 141.659034 151.669959 
L 142.07655 152.025588 
L 142.908714 150.60404 
L 143.329046 150.212793 
L 143.743973 149.406291 
L 144.164884 149.404083 
L 144.582291 151.435789 
L 144.996623 149.208518 
L 145.834537 150.648813 
L 146.252143 151.951275 
L 146.670216 150.352709 
L 147.087528 153.201105 
L 147.504703 151.721774 
L 148.339789 150.996801 
L 148.757977 152.498042 
L 149.174954 152.522074 
L 149.589476 151.308033 
L 150.010735 150.485624 
L 150.427968 151.709154 
L 150.842155 150.059854 
L 151.263108 152.338445 
L 151.677798 151.172145 
L 152.095069 151.721385 
L 152.515755 151.220083 
L 152.930279 150.514032 
L 153.347565 151.931009 
L 153.76809 151.837855 
L 154.603961 150.635017 
L 155.020838 151.667351 
L 155.435237 150.4082 
L 155.853172 150.806536 
L 156.273895 151.893073 
L 156.691226 150.787436 
L 157.526022 151.149099 
L 157.94091 151.942311 
L 158.357851 150.491512 
L 158.778846 151.526685 
L 159.193779 150.266536 
L 159.610806 150.893886 
L 160.031589 150.279063 
L 160.446545 150.472142 
L 160.86251 151.623093 
L 161.274521 150.907969 
L 161.691496 151.206751 
L 162.104657 151.927484 
L 162.535555 149.322832 
L 163.371943 151.968132 
L 163.790083 148.833252 
L 164.619003 150.185003 
L 165.026656 149.49031 
L 165.447626 147.628319 
L 165.869389 143.879144 
L 166.293955 129.174679 
L 166.709982 120.930293 
L 167.126857 137.971636 
L 167.542797 164.122578 
L 167.960953 198.803031 
L 168.797304 296.264962 
L 169.214842 280.715155 
L 170.048427 106.620899 
L 170.46794 70.114375 
L 172.13561 139.648065 
L 172.971335 215.951166 
L 173.38901 243.514439 
L 173.80682 241.870642 
L 174.223974 227.043272 
L 174.641529 192.438288 
L 175.063915 146.139327 
L 175.47817 135.897084 
L 175.899038 145.357752 
L 176.312282 151.796454 
L 176.729549 153.248418 
L 177.147003 152.618053 
L 177.563977 144.279636 
L 177.982091 140.384448 
L 178.399427 129.726946 
L 179.235369 154.307513 
L 179.652461 145.838631 
L 180.070033 147.40093 
L 180.905172 132.718782 
L 181.322642 134.682403 
L 181.739624 138.86176 
L 182.156823 138.747793 
L 182.575038 140.659292 
L 182.992298 140.365205 
L 183.409608 133.49268 
L 183.826997 131.023131 
L 184.244821 129.321068 
L 184.662241 122.999693 
L 185.080476 130.522764 
L 185.497392 126.486076 
L 185.914938 127.089109 
L 186.332967 131.016173 
L 186.750055 131.234374 
L 187.167352 132.619913 
L 187.585509 133.33632 
L 188.002328 122.710194 
L 188.420751 117.689426 
L 188.837625 118.168021 
L 189.255012 116.258853 
L 189.67323 116.126469 
L 190.090114 122.052437 
L 190.507576 120.969173 
L 190.92541 120.773927 
L 191.342626 122.135832 
L 191.760973 122.215674 
L 192.177935 130.809751 
L 193.012759 127.330814 
L 193.430668 127.770718 
L 193.848031 130.015271 
L 194.265406 125.770681 
L 194.683602 130.005885 
L 195.1006 129.851872 
L 195.93605 118.21568 
L 196.353528 121.052111 
L 196.770724 121.427345 
L 197.188721 123.911265 
L 197.606106 128.389773 
L 198.023093 129.50461 
L 198.440722 129.98428 
L 198.858696 133.42627 
L 199.275833 128.986251 
L 199.693262 130.937067 
L 200.110707 136.009075 
L 200.528493 134.946712 
L 200.946639 136.346694 
L 201.364311 135.416098 
L 201.781678 136.873645 
L 202.19922 143.822381 
L 202.615441 152.765365 
L 203.033377 153.66235 
L 203.451261 151.635193 
L 203.868711 154.123291 
L 204.286219 151.430549 
L 204.689182 153.367563 
L 205.107293 154.219194 
L 205.528179 157.43076 
L 206.374339 170.338793 
L 206.792104 172.214952 
L 207.209138 173.494364 
L 207.627075 183.649245 
L 208.044348 186.195877 
L 208.461976 186.024143 
L 209.297113 201.694457 
L 210.132652 202.091999 
L 210.549938 207.489331 
L 210.967885 215.893498 
L 212.220574 223.891662 
L 213.055177 240.265853 
L 213.473382 243.5139 
L 213.890763 244.682348 
L 214.308162 239.807066 
L 214.724372 231.056767 
L 215.143498 228.387545 
L 215.560778 241.369241 
L 215.97836 248.807725 
L 216.396077 243.826961 
L 216.813669 244.55111 
L 218.066271 251.277746 
L 218.484114 249.12444 
L 219.31911 257.157443 
L 219.736422 255.974898 
L 220.154169 258.943402 
L 220.571724 260.033212 
L 220.989821 262.394194 
L 221.406897 269.278662 
L 221.824592 272.452423 
L 222.242338 277.904401 
L 222.659866 273.150277 
L 223.077087 270.210905 
L 223.494706 264.914006 
L 223.912406 264.157804 
L 224.748135 262.197831 
L 225.582686 277.245503 
L 226.000638 275.021121 
L 226.417933 274.918511 
L 226.835316 274.189651 
L 228.088298 280.205838 
L 228.505798 274.55094 
L 228.923461 272.880152 
L 229.341034 273.784068 
L 229.758848 281.496126 
L 230.176496 281.816372 
L 231.4292 266.763797 
L 232.264603 273.595858 
L 232.68197 274.800462 
L 233.099836 277.280039 
L 233.934523 269.286548 
L 234.352408 267.861531 
L 234.769983 276.006379 
L 235.187092 280.048124 
L 235.60463 281.19693 
L 236.022449 278.028085 
L 236.440035 271.741955 
L 236.857501 261.469374 
L 237.274277 261.428248 
L 237.692555 260.425131 
L 238.110014 261.637441 
L 238.528209 263.608114 
L 238.945462 263.674628 
L 239.362942 254.21509 
L 239.78111 250.079059 
L 240.198079 243.279497 
L 240.615766 245.58509 
L 241.033543 255.233342 
L 241.868429 262.752678 
L 242.699094 255.557142 
L 243.120381 256.166816 
L 243.527727 252.314208 
L 243.938672 249.72889 
L 244.3556 243.841549 
L 245.204353 215.229079 
L 245.620753 214.831171 
L 246.037904 215.157214 
L 246.442507 215.776616 
L 246.860145 213.142168 
L 247.27375 219.77232 
L 247.695031 232.463985 
L 248.118877 236.744636 
L 248.544466 230.981656 
L 249.380086 210.570188 
L 250.214877 184.702225 
L 250.632692 185.685357 
L 251.050737 193.396692 
L 251.467988 192.430244 
L 251.885587 188.800569 
L 252.303291 186.195453 
L 252.720893 186.711667 
L 253.138557 187.99057 
L 253.556246 179.564933 
L 254.389273 176.927902 
L 254.807618 167.20964 
L 255.225861 164.405679 
L 256.060116 155.286503 
L 256.479335 153.856085 
L 256.896748 155.683262 
L 257.314243 154.599161 
L 258.147729 142.713065 
L 258.983045 140.597622 
L 259.401274 138.063152 
L 259.818338 138.246433 
L 260.235512 136.703362 
L 260.653207 137.971699 
L 261.070555 130.970362 
L 261.488511 128.754301 
L 261.905995 127.430558 
L 262.323743 124.502219 
L 262.741235 120.160604 
L 263.15845 126.466713 
L 263.575655 130.032346 
L 264.828393 119.147948 
L 265.246705 116.436833 
L 265.664177 115.617904 
L 266.081003 112.241379 
L 266.498476 118.204177 
L 266.916259 122.023702 
L 268.168469 91.430473 
L 268.586619 78.331002 
L 269.004155 79.727877 
L 269.421629 87.162589 
L 269.838958 86.487856 
L 270.257102 85.221139 
L 270.674517 82.334818 
L 271.509694 101.176206 
L 271.926759 105.459829 
L 273.597234 79.671437 
L 274.014465 81.335702 
L 274.431749 78.358486 
L 274.849442 74.542787 
L 275.266878 69.378749 
L 275.684033 71.230496 
L 276.102178 78.893812 
L 276.519714 79.584606 
L 276.937012 75.892469 
L 277.355054 78.430632 
L 277.772563 92.943255 
L 278.190423 87.587251 
L 278.607457 83.893731 
L 279.025108 84.798134 
L 279.442612 83.936025 
L 280.277876 70.804692 
L 280.695381 70.871245 
L 281.113442 74.864792 
L 281.530583 70.799206 
L 281.948021 72.062188 
L 282.366291 76.541348 
L 282.783193 84.043265 
L 283.200913 80.670407 
L 283.618973 79.030022 
L 284.036416 84.083938 
L 284.453937 86.700198 
L 284.870477 99.684159 
L 285.28839 95.75266 
L 285.705484 97.449403 
L 286.105431 97.943439 
L 286.524449 92.859612 
L 286.940979 90.955524 
L 287.357391 92.274077 
L 287.776631 92.754512 
L 288.194994 93.786659 
L 288.628769 100.926842 
L 289.045702 95.577856 
L 289.464488 88.608602 
L 289.882276 75.171385 
L 290.300129 68.254274 
L 290.718036 72.026422 
L 291.135103 86.073985 
L 291.552857 89.245511 
L 291.970986 86.963161 
L 292.387816 99.635108 
L 292.805449 108.310953 
L 293.223559 104.063653 
L 293.640675 95.858787 
L 294.476561 90.401772 
L 294.893961 95.01236 
L 295.311278 95.515305 
L 295.7256 98.165635 
L 296.146105 96.018622 
L 296.564326 97.515075 
L 296.98151 96.682175 
L 297.399747 91.828365 
L 297.817227 91.967822 
L 298.23416 93.192681 
L 298.652455 95.456577 
L 299.069724 100.991482 
L 299.486941 116.122439 
L 299.901327 121.581906 
L 300.31853 121.14453 
L 300.740123 120.997515 
L 301.154498 124.512615 
L 301.5712 119.50407 
L 301.988607 115.961168 
L 302.40637 119.692557 
L 302.828082 128.6629 
L 303.241354 128.613745 
L 303.659257 133.019191 
L 304.076753 133.699901 
L 304.494033 136.610882 
L 305.329426 156.126753 
L 305.746665 153.956666 
L 306.164791 149.396835 
L 306.581941 160.145817 
L 306.999615 167.369697 
L 307.834978 170.296408 
L 308.252211 179.506106 
L 309.087724 215.046298 
L 309.505304 222.096945 
L 309.922988 216.112395 
L 310.340253 215.895224 
L 311.174578 220.299257 
L 312.010715 234.765257 
L 312.428177 239.83838 
L 312.844812 241.246032 
L 313.263805 243.447456 
L 313.680108 243.47686 
L 314.098897 239.050803 
L 314.516517 241.775133 
L 315.350007 268.505813 
L 315.769294 274.757961 
L 316.1847 277.919091 
L 316.602748 278.285905 
L 317.019942 280.523025 
L 317.438018 285.266022 
L 317.855492 288.684809 
L 318.272335 275.865268 
L 318.692108 269.268326 
L 319.52542 278.745425 
L 319.944977 285.908963 
L 320.360498 286.460241 
L 320.778025 280.402677 
L 321.195149 280.116602 
L 322.0309 297.569588 
L 322.447879 291.579538 
L 322.86573 288.340751 
L 323.28288 292.809623 
L 323.701116 293.31614 
L 324.118354 292.110074 
L 324.535009 289.610522 
L 325.370171 297.59723 
L 325.785497 299.39625 
L 326.19124 296.87979 
L 326.606401 290.114118 
L 327.02362 290.889344 
L 327.437635 299.381178 
L 327.857795 297.107999 
L 328.292118 295.61239 
L 328.709935 292.855873 
L 329.127865 287.75952 
L 329.941116 270.127764 
L 330.789001 274.623687 
L 331.215753 273.406274 
L 331.634152 275.857986 
L 332.05135 283.291663 
L 332.468988 279.183037 
L 333.304138 267.594359 
L 333.721794 268.876189 
L 334.139701 266.346243 
L 334.557619 262.206029 
L 335.392316 273.413098 
L 335.809961 270.769683 
L 336.227965 262.14099 
L 336.645501 246.120373 
L 337.061626 239.746049 
L 337.480525 248.688599 
L 337.897946 252.195084 
L 338.3155 237.902336 
L 338.733609 228.599758 
L 339.150783 229.815253 
L 339.568316 235.023668 
L 339.985772 234.172816 
L 340.404156 227.627953 
L 340.821437 228.601744 
L 341.239169 230.791468 
L 341.656278 225.898305 
L 342.073924 228.128367 
L 342.492046 233.17382 
L 342.909422 226.143195 
L 343.326787 215.838201 
L 343.744691 200.521109 
L 344.162469 198.901846 
L 344.579645 198.877491 
L 344.997553 195.874045 
L 345.832562 200.762583 
L 346.250583 200.853126 
L 346.667874 200.122873 
L 347.085246 193.929931 
L 347.503348 185.47707 
L 347.920795 186.641439 
L 348.752433 179.39287 
L 349.173072 180.503653 
L 349.590966 175.612066 
L 350.008089 176.887974 
L 350.426253 177.282636 
L 350.843893 179.777564 
L 351.257755 176.774702 
L 351.679236 167.951564 
L 352.096662 168.463786 
L 352.513891 163.591809 
L 352.92828 165.43732 
L 353.349146 161.865314 
L 353.763923 156.427557 
L 354.181184 153.624261 
L 354.597806 156.632404 
L 355.01529 154.44027 
L 355.43292 149.723017 
L 355.850698 146.454903 
L 356.268005 146.862676 
L 356.685619 142.00339 
L 357.103478 142.124968 
L 357.525177 144.429905 
L 357.938772 146.061053 
L 358.356085 156.936195 
L 358.778043 152.834336 
L 359.191934 130.75506 
L 359.609286 121.281289 
L 360.030754 130.026509 
L 360.44459 132.025935 
L 360.861981 129.929003 
L 361.697242 137.343466 
L 362.114718 134.038351 
L 362.530986 129.345771 
L 362.950192 130.092071 
L 363.367721 129.317069 
L 364.20119 121.610333 
L 364.6203 122.275917 
L 365.037708 117.501079 
L 365.453916 120.215083 
L 365.873084 120.010909 
L 366.290648 117.148666 
L 366.695372 130.158908 
L 367.122056 148.840216 
L 367.541315 158.957047 
L 368.376187 152.885933 
L 368.79285 151.578167 
L 369.607968 135.778397 
L 370.029273 135.962722 
L 370.445695 136.751748 
L 371.292884 120.941446 
L 371.716919 128.431729 
L 372.134534 130.027739 
L 372.552314 127.38325 
L 372.969412 130.846177 
L 373.387115 130.633032 
L 373.805084 137.088686 
L 374.222088 141.601169 
L 374.639772 143.226331 
L 375.057108 148.30573 
L 375.474343 146.65911 
L 375.892593 149.461223 
L 376.309849 149.638183 
L 376.726605 148.484055 
L 377.145171 148.668099 
L 377.562026 151.192854 
L 377.979947 145.036037 
L 378.397365 142.499217 
L 378.814966 142.592287 
L 379.23223 143.103127 
L 379.650052 137.767832 
L 380.067925 135.699975 
L 380.485554 128.124419 
L 380.90317 129.861732 
L 381.320303 124.534194 
L 381.738379 98.212223 
L 382.156049 114.868156 
L 382.573678 121.941417 
L 383.408507 127.120525 
L 383.826388 126.396838 
L 384.243935 128.388958 
L 385.07911 115.605567 
L 385.914455 156.829434 
L 386.33172 157.730953 
L 386.749332 149.795542 
L 387.166811 150.807998 
L 387.58494 148.619779 
L 388.002651 144.529413 
L 388.42041 146.290065 
L 388.837509 148.610613 
L 389.672725 139.151419 
L 390.090165 124.731415 
L 390.507703 118.325663 
L 390.925878 123.970236 
L 391.342937 139.328269 
L 391.76111 150.556076 
L 392.178362 151.387512 
L 392.595973 153.309731 
L 393.013966 159.974905 
L 393.43114 164.640379 
L 393.849247 165.263609 
L 394.266723 160.935711 
L 395.10207 156.716722 
L 395.519269 149.961222 
L 395.936802 155.284639 
L 396.355011 145.763005 
L 396.771875 140.170611 
L 397.190308 139.482968 
L 397.607288 142.927391 
L 398.021566 140.343943 
L 398.442888 141.548835 
L 398.860342 140.98256 
L 399.274365 146.647409 
L 399.69148 142.521371 
L 400.112871 134.889052 
L 400.526647 131.967858 
L 400.943809 132.454936 
L 401.361353 127.785268 
L 401.779474 131.468011 
L 402.196572 129.100669 
L 402.618775 115.735882 
L 403.031788 106.211839 
L 403.866908 113.525626 
L 404.288826 126.990307 
L 404.702808 127.930941 
L 405.119827 130.094328 
L 405.538143 134.195346 
L 405.955318 129.951095 
L 406.790914 93.783361 
L 407.208568 77.932997 
L 407.625145 71.332817 
L 408.042981 73.904906 
L 408.460979 75.612298 
L 408.878552 80.647972 
L 409.294754 83.404021 
L 409.705909 96.20994 
L 410.118834 112.991284 
L 410.538255 116.038781 
L 410.951106 107.795393 
L 411.383089 103.106103 
L 411.799753 100.165968 
L 412.217657 95.033038 
L 412.635449 88.236831 
L 413.053067 85.68977 
L 413.470169 79.768613 
L 413.887394 76.795457 
L 414.304939 72.246372 
L 414.723024 60.195115 
L 415.13991 57.405882 
L 415.560434 62.829628 
L 415.974622 71.098892 
L 416.393312 82.662803 
L 416.810121 86.086686 
L 417.228055 92.561358 
L 417.645602 103.063183 
L 418.062949 97.773175 
L 418.480975 83.290305 
L 418.89828 62.903303 
L 419.315883 62.11419 
L 419.733345 63.81107 
L 420.150825 62.677022 
L 420.568176 67.10373 
L 420.98563 69.669201 
L 421.820442 45.968789 
L 422.238214 42.220738 
L 422.655554 51.628475 
L 423.073567 49.437329 
L 423.491306 41.72125 
L 423.909152 41.796883 
L 424.326574 49.414435 
L 425.16172 75.247534 
L 425.579087 72.742226 
L 425.996594 66.610275 
L 426.414376 57.900143 
L 427.250034 47.998109 
L 427.667488 43.928425 
L 428.502743 60.253809 
L 428.92025 64.969055 
L 429.755492 68.862284 
L 430.172606 66.375545 
L 430.590333 65.72423 
L 431.007845 65.438227 
L 431.425752 68.496331 
L 431.843136 74.853396 
L 432.261285 74.474664 
L 432.678238 76.560529 
L 433.09605 77.225231 
L 433.51423 82.161189 
L 434.349231 96.708494 
L 434.766437 100.639112 
L 435.184635 101.558845 
L 436.436787 69.140115 
L 436.85483 78.913994 
L 437.689966 106.481299 
L 438.107744 110.461615 
L 438.525546 112.134584 
L 438.939408 113.031196 
L 439.356752 109.120049 
L 439.774781 113.376519 
L 440.192193 122.909667 
L 440.613149 129.692794 
L 441.030516 112.862457 
L 441.444987 87.989098 
L 441.8659 82.883998 
L 442.280443 89.792591 
L 442.697858 89.007202 
L 443.118717 100.061818 
L 443.532847 123.47087 
L 444.368733 105.276426 
L 444.785997 114.027211 
L 445.61974 166.38451 
L 446.038799 166.012668 
L 446.456148 145.633638 
L 446.877246 132.997142 
L 447.290049 150.41984 
L 447.709083 159.262366 
L 448.125613 148.978721 
L 448.542609 147.033104 
L 448.960874 153.433215 
L 449.377502 165.802851 
L 449.784477 167.536487 
L 450.19896 167.033575 
L 450.61533 164.909984 
L 451.044589 161.774019 
L 451.465381 172.315012 
L 451.883359 174.656768 
L 452.300473 169.600925 
L 452.718136 174.145187 
L 453.135767 188.127377 
L 454.387931 202.619546 
L 454.805467 201.235611 
L 455.223559 201.390209 
L 455.641053 194.137808 
L 456.05894 196.66056 
L 456.475488 194.914604 
L 456.893179 189.957162 
L 457.311234 195.077658 
L 457.728992 195.858637 
L 458.146684 195.903122 
L 458.980747 211.028826 
L 459.399267 215.188214 
L 459.815882 215.365127 
L 460.233594 213.883114 
L 460.651398 213.683337 
L 461.068927 214.341511 
L 461.486256 204.929939 
L 461.904479 198.618145 
L 462.321753 201.080168 
L 462.739108 196.894531 
L 463.156501 197.845754 
L 463.57448 203.457038 
L 463.992055 197.552332 
L 464.409357 184.659297 
L 464.827424 183.031539 
L 466.080114 210.140789 
L 466.915406 194.148558 
L 467.333028 194.652856 
L 467.750823 200.149793 
L 468.168356 196.11828 
L 468.585555 189.865761 
L 469.003603 193.735015 
L 469.420722 191.580069 
L 469.838308 184.426408 
L 470.256278 187.150521 
L 470.67354 196.558193 
L 471.091583 187.838562 
L 471.509062 185.718381 
L 471.926866 185.610412 
L 472.34426 191.837606 
L 472.761572 192.592789 
L 473.179569 192.581299 
L 473.596761 191.956964 
L 473.596761 191.956964 
" clip-path="url(#p5c38009396)" style="fill: none; stroke: #2ecc71; stroke-width: 1.5; stroke-linecap: square"/>
   </g>
   <g id="line2d_28">
    <path d="M 61.92875 85.607732 
L 493.2 85.607732 
" clip-path="url(#p5c38009396)" style="fill: none; stroke-dasharray: 5.55,2.4; stroke-dashoffset: 0; stroke: #e74c3c; stroke-opacity: 0.7; stroke-width: 1.5"/>
   </g>
   <g id="line2d_29">
    <path d="M 61.92875 206.462711 
L 493.2 206.462711 
" clip-path="url(#p5c38009396)" style="fill: none; stroke-dasharray: 5.55,2.4; stroke-dashoffset: 0; stroke: #e74c3c; stroke-opacity: 0.7; stroke-width: 1.5"/>
   </g>
   <g id="line2d_30">
    <path d="M 61.92875 146.035221 
L 493.2 146.035221 
" clip-path="url(#p5c38009396)" style="fill: none; stroke: #808080; stroke-opacity: 0.3; stroke-width: 1.5; stroke-linecap: square"/>
   </g>
   <g id="patch_3">
    <path d="M 61.92875 312.28 
L 61.92875 28.8375 
" style="fill: none; stroke: #000000; stroke-width: 0.8; stroke-linejoin: miter; stroke-linecap: square"/>
   </g>
   <g id="patch_4">
    <path d="M 493.2 312.28 
L 493.2 28.8375 
" style="fill: none; stroke: #000000; stroke-width: 0.8; stroke-linejoin: miter; stroke-linecap: square"/>
   </g>
   <g id="patch_5">
    <path d="M 61.92875 312.28 
L 493.2 312.28 
" style="fill: none; stroke: #000000; stroke-width: 0.8; stroke-linejoin: miter; stroke-linecap: square"/>
   </g>
   <g id="patch_6">
    <path d="M 61.92875 28.8375 
L 493.2 28.8375 
" style="fill: none; stroke: #000000; stroke-width: 0.8; stroke-linejoin: miter; stroke-linecap: square"/>
   </g>
   <g id="text_16">
    <!-- 航向角误差 -->
    <g transform="translate(240.064375 22.8375)scale(0.15 -0.15)">
     <use xlink:href="#NotoSerifCJKsc-Regular-822a"/>
     <use xlink:href="#NotoSerifCJKsc-Regular-5411" x="99.999985"/>
     <use xlink:href="#NotoSerifCJKsc-Regular-89d2" x="199.999969"/>
     <use xlink:href="#NotoSerifCJKsc-Regular-8bef" x="299.999954"/>
     <use xlink:href="#NotoSerifCJKsc-Regular-5dee" x="399.999939"/>
    </g>
   </g>
   <g id="legend_1">
    <g id="patch_7">
     <path d="M 338.544375 306.28 
L 484.8 306.28 
Q 487.2 306.28 487.2 303.88 
L 487.2 267.52 
Q 487.2 265.12 484.8 265.12 
L 338.544375 265.12 
Q 336.144375 265.12 336.144375 267.52 
L 336.144375 303.88 
Q 336.144375 306.28 338.544375 306.28 
z
" style="fill: #ffffff; opacity: 0.8; stroke: #cccccc; stroke-linejoin: miter"/>
    </g>
    <g id="line2d_31">
     <path d="M 340.944375 275.38 
L 352.944375 275.38 
L 364.944375 275.38 
" style="fill: none; stroke: #2ecc71; stroke-width: 1.5; stroke-linecap: square"/>
    </g>
    <g id="text_17">
     <!-- 逐时刻误差 -->
     <g transform="translate(374.544375 279.58)scale(0.12 -0.12)">
      <defs>
       <path id="NotoSerifCJKsc-Regular-9010" d="M 659 5254 
L 576 5210 
C 851 4858 1203 4301 1299 3885 
C 1747 3552 2074 4493 659 5254 
z
M 5542 5222 
L 5235 4838 
L 1856 4838 
L 1907 4646 
L 3654 4646 
C 3219 4090 2573 3565 1850 3200 
L 1914 3098 
C 2502 3315 3040 3597 3501 3942 
C 3571 3859 3642 3776 3699 3693 
C 3302 3078 2586 2464 1914 2118 
L 1965 2010 
C 2707 2304 3469 2797 3955 3296 
C 4013 3174 4070 3053 4115 2931 
C 3622 2138 2726 1408 1850 1005 
L 1894 902 
C 2784 1216 3680 1773 4262 2374 
C 4371 1728 4243 1158 3974 915 
C 3930 864 3866 858 3770 858 
C 3603 858 3091 890 2816 915 
L 2816 806 
C 3066 762 3315 698 3405 640 
C 3482 582 3533 493 3533 365 
C 3898 365 4128 435 4275 570 
C 4717 941 4883 1888 4512 2816 
C 4992 2400 5542 1779 5722 1286 
C 6240 960 6470 2093 4550 2950 
C 4992 3245 5446 3616 5722 3885 
C 5862 3853 5920 3872 5965 3936 
L 5402 4275 
C 5197 3942 4787 3424 4410 3040 
C 4230 3392 3968 3731 3610 4026 
C 3853 4218 4064 4422 4243 4646 
L 5946 4646 
C 6035 4646 6099 4678 6118 4749 
C 5894 4954 5542 5222 5542 5222 
z
M 1126 787 
C 864 608 454 230 173 32 
L 538 -442 
C 582 -397 595 -346 576 -294 
C 774 0 1114 435 1254 634 
C 1318 710 1376 723 1466 634 
C 2067 -96 2694 -320 3930 -320 
C 4634 -320 5242 -320 5843 -320 
C 5875 -134 5978 -6 6176 32 
L 6176 122 
C 5408 90 4800 83 4058 83 
C 2848 83 2138 205 1549 806 
L 1517 832 
L 1517 2931 
C 1696 2957 1779 3002 1830 3053 
L 1280 3507 
L 1037 3181 
L 243 3181 
L 282 2995 
L 1126 2995 
L 1126 787 
z
" transform="scale(0.015625)"/>
       <path id="NotoSerifCJKsc-Regular-523b" d="M 1645 5363 
L 1574 5318 
C 1786 5120 1997 4768 2029 4480 
C 2451 4160 2848 5043 1645 5363 
z
M 6061 5178 
L 5414 5248 
L 5414 160 
C 5414 51 5376 13 5254 13 
C 5120 13 4429 70 4429 70 
L 4429 -32 
C 4736 -70 4902 -115 4998 -192 
C 5094 -269 5133 -378 5152 -512 
C 5760 -448 5830 -224 5830 115 
L 5830 5005 
C 5984 5024 6048 5082 6061 5178 
z
M 4864 4493 
L 4230 4570 
L 4230 845 
L 4307 845 
C 4461 845 4627 928 4627 979 
L 4627 4326 
C 4794 4346 4845 4403 4864 4493 
z
M 3469 4762 
L 3174 4390 
L 230 4390 
L 282 4198 
L 1606 4198 
C 1434 3853 1082 3251 800 3034 
C 749 3002 557 2970 557 2970 
L 742 2464 
C 794 2477 845 2509 890 2573 
C 1389 2643 1875 2733 2240 2803 
C 1715 2061 1075 1485 320 1018 
L 384 909 
C 1574 1478 2515 2317 3187 3462 
C 3334 3437 3405 3456 3443 3533 
L 2842 3821 
C 2694 3520 2534 3232 2362 2970 
C 1830 2950 1318 2931 960 2925 
C 1331 3194 1741 3584 1990 3878 
C 2131 3853 2221 3904 2246 3962 
L 1741 4198 
L 3846 4198 
C 3930 4198 3994 4230 4013 4301 
C 3808 4499 3469 4762 3469 4762 
z
M 3885 2304 
L 3264 2624 
C 2534 1222 1478 294 237 -390 
L 294 -499 
C 1146 -141 1894 326 2534 928 
C 2880 576 3283 77 3424 -307 
C 3910 -627 4211 339 2650 1043 
C 3008 1395 3328 1792 3616 2240 
C 3776 2208 3840 2227 3885 2304 
z
" transform="scale(0.015625)"/>
      </defs>
      <use xlink:href="#NotoSerifCJKsc-Regular-9010"/>
      <use xlink:href="#NotoSerifCJKsc-Regular-65f6" x="99.999985"/>
      <use xlink:href="#NotoSerifCJKsc-Regular-523b" x="199.999969"/>
      <use xlink:href="#NotoSerifCJKsc-Regular-8bef" x="299.999954"/>
      <use xlink:href="#NotoSerifCJKsc-Regular-5dee" x="399.999939"/>
     </g>
    </g>
    <g id="line2d_32">
     <path d="M 340.944375 294.16 
L 352.944375 294.16 
L 364.944375 294.16 
" style="fill: none; stroke-dasharray: 5.55,2.4; stroke-dashoffset: 0; stroke: #e74c3c; stroke-opacity: 0.7; stroke-width: 1.5"/>
    </g>
    <g id="text_18">
     <!-- 均方根误差 = 0.438° -->
     <g transform="translate(374.544375 298.36)scale(0.12 -0.12)">
      <defs>
       <path id="NotoSerifCJKsc-Regular-5747" d="M 3168 3430 
L 3104 3366 
C 3494 3098 4038 2624 4243 2272 
C 4736 2035 4909 2989 3168 3430 
z
M 2528 1197 
L 2848 659 
C 2906 691 2957 755 2970 832 
C 3872 1318 4531 1722 5005 2003 
L 4973 2093 
C 3955 1696 2944 1318 2528 1197 
z
M 3840 5171 
L 3187 5357 
C 2970 4429 2541 3430 2061 2842 
L 2157 2784 
C 2528 3098 2854 3526 3123 4000 
L 5542 4000 
C 5453 1978 5274 403 4973 147 
C 4883 64 4832 45 4685 45 
C 4525 45 3994 96 3674 134 
L 3667 13 
C 3949 -32 4262 -109 4371 -186 
C 4474 -256 4499 -365 4499 -499 
C 4832 -506 5094 -403 5299 -179 
C 5651 211 5862 1786 5946 3955 
C 6086 3962 6170 4000 6221 4051 
L 5728 4467 
L 5478 4192 
L 3226 4192 
C 3373 4474 3501 4762 3603 5043 
C 3738 5043 3814 5101 3840 5171 
z
M 1933 3962 
L 1664 3584 
L 1523 3584 
L 1523 5018 
C 1690 5037 1741 5094 1760 5184 
L 1114 5254 
L 1114 3584 
L 256 3584 
L 307 3398 
L 1114 3398 
L 1114 1178 
C 742 1075 435 992 250 954 
L 538 403 
C 602 429 653 486 672 570 
C 1549 960 2195 1286 2643 1523 
L 2618 1606 
L 1523 1293 
L 1523 3398 
L 2259 3398 
C 2349 3398 2406 3430 2426 3501 
C 2246 3693 1933 3962 1933 3962 
z
" transform="scale(0.015625)"/>
       <path id="NotoSerifCJKsc-Regular-65b9" d="M 2630 5414 
L 2560 5363 
C 2867 5094 3232 4634 3309 4262 
C 3776 3936 4115 4947 2630 5414 
z
M 5536 4480 
L 5210 4077 
L 288 4077 
L 339 3885 
L 2266 3885 
C 2208 2042 1850 634 410 -454 
L 467 -525 
C 1843 211 2400 1261 2637 2624 
L 4646 2624 
C 4576 1306 4429 301 4224 115 
C 4147 51 4090 38 3962 38 
C 3814 38 3283 90 2976 115 
L 2970 0 
C 3238 -38 3552 -109 3654 -186 
C 3757 -250 3789 -371 3782 -493 
C 4083 -493 4333 -410 4512 -250 
C 4819 45 4992 1107 5062 2573 
C 5197 2586 5280 2618 5325 2669 
L 4838 3078 
L 4582 2816 
L 2662 2816 
C 2714 3155 2746 3507 2771 3885 
L 5958 3885 
C 6048 3885 6106 3917 6125 3987 
C 5901 4198 5536 4480 5536 4480 
z
" transform="scale(0.015625)"/>
       <path id="NotoSerifCJKsc-Regular-6839" d="M 6125 1850 
L 5670 2208 
C 5478 1952 5056 1472 4704 1139 
C 4422 1530 4198 1984 4045 2470 
L 5190 2470 
L 5190 2234 
L 5248 2234 
C 5389 2234 5581 2336 5587 2381 
L 5587 4659 
C 5715 4685 5818 4730 5862 4781 
L 5357 5171 
L 5126 4922 
L 3366 4922 
L 2893 5158 
L 2893 211 
C 2893 70 2867 32 2675 -64 
L 2886 -506 
C 2918 -493 2957 -467 2995 -416 
C 3571 -102 4134 243 4429 410 
L 4397 499 
L 3290 102 
L 3290 2470 
L 3910 2470 
C 4230 1075 4826 70 5856 -474 
C 5914 -282 6048 -160 6208 -134 
L 6214 -70 
C 5645 141 5165 531 4781 1030 
C 5235 1274 5715 1632 5946 1830 
C 6035 1798 6093 1805 6125 1850 
z
M 3290 4538 
L 3290 4730 
L 5190 4730 
L 5190 3802 
L 3290 3802 
L 3290 4538 
z
M 3290 3616 
L 5190 3616 
L 5190 2656 
L 3290 2656 
L 3290 3616 
z
M 2246 4250 
L 1971 3878 
L 1696 3878 
L 1696 5146 
C 1862 5171 1914 5229 1926 5325 
L 1293 5395 
L 1293 3878 
L 275 3878 
L 326 3686 
L 1197 3686 
C 1018 2720 710 1741 218 998 
L 314 909 
C 736 1382 1056 1926 1293 2528 
L 1293 -506 
L 1382 -506 
C 1523 -506 1696 -410 1696 -346 
L 1696 2950 
C 1926 2682 2182 2304 2253 2003 
C 2662 1702 2995 2534 1696 3078 
L 1696 3686 
L 2598 3686 
C 2688 3686 2746 3718 2765 3789 
C 2566 3987 2246 4250 2246 4250 
z
" transform="scale(0.015625)"/>
       <path id="NotoSerifCJKsc-Regular-3d" d="M 3475 1466 
L 3475 1734 
L 243 1734 
L 243 1466 
L 3475 1466 
z
M 3475 2874 
L 3475 3142 
L 243 3142 
L 243 2874 
L 3475 2874 
z
" transform="scale(0.015625)"/>
       <path id="NotoSerifCJKsc-Regular-33" d="M 1638 -96 
C 2534 -96 3155 416 3155 1203 
C 3155 1875 2778 2342 1952 2458 
C 2662 2618 3021 3085 3021 3629 
C 3021 4301 2547 4755 1728 4755 
C 1120 4755 550 4499 442 3866 
C 480 3757 576 3706 685 3706 
C 845 3706 941 3776 998 3994 
L 1146 4486 
C 1306 4538 1453 4557 1606 4557 
C 2163 4557 2477 4205 2477 3610 
C 2477 2925 2035 2554 1414 2554 
L 1158 2554 
L 1158 2330 
L 1446 2330 
C 2214 2330 2611 1926 2611 1222 
C 2611 544 2202 102 1491 102 
C 1312 102 1158 134 1018 186 
L 864 685 
C 806 922 717 1011 563 1011 
C 442 1011 346 941 301 813 
C 429 218 909 -96 1638 -96 
z
" transform="scale(0.015625)"/>
      </defs>
      <use xlink:href="#NotoSerifCJKsc-Regular-5747"/>
      <use xlink:href="#NotoSerifCJKsc-Regular-65b9" x="99.999985"/>
      <use xlink:href="#NotoSerifCJKsc-Regular-6839" x="199.999969"/>
      <use xlink:href="#NotoSerifCJKsc-Regular-8bef" x="299.999954"/>
      <use xlink:href="#NotoSerifCJKsc-Regular-5dee" x="399.999939"/>
      <use xlink:href="#NotoSerifCJKsc-Regular-20" x="499.999924"/>
      <use xlink:href="#NotoSerifCJKsc-Regular-3d" x="525.599915"/>
      <use xlink:href="#NotoSerifCJKsc-Regular-20" x="583.599899"/>
      <use xlink:href="#NotoSerifCJKsc-Regular-30" x="609.19989"/>
      <use xlink:href="#NotoSerifCJKsc-Regular-2e" x="664.899887"/>
      <use xlink:href="#NotoSerifCJKsc-Regular-34" x="697.599884"/>
      <use xlink:href="#NotoSerifCJKsc-Regular-33" x="753.099869"/>
      <use xlink:href="#NotoSerifCJKsc-Regular-38" x="808.799866"/>
      <use xlink:href="#NotoSerifCJKsc-Regular-b0" x="864.599854"/>
     </g>
    </g>
   </g>
  </g>
 </g>
 <defs>
  <clipPath id="p5c38009396">
   <rect x="61.92875" y="28.8375" width="431.27125" height="283.4425"/>
  </clipPath>
 </defs>
</svg>
